<?xml version="1.0" standalone="no"?>
<!DOCTYPE svg PUBLIC "-//W3C//DTD SVG 20010904//EN"
 "http://www.w3.org/TR/2001/REC-SVG-20010904/DTD/svg10.dtd">
<svg version="1.0" xmlns="http://www.w3.org/2000/svg"
 width="700.000000pt" height="700.000000pt" viewBox="0 0 700.000000 700.000000"
 preserveAspectRatio="xMidYMid meet">
<metadata>
Created by potrace 1.14, written by Peter Selinger 2001-2017
</metadata>
<g transform="translate(0.000000,700.000000) scale(0.100000,-0.100000)"
fill="#000000" stroke="none">
<path d="M2349 4583 c-12 -13 -14 -132 -15 -676 -1 -630 0 -661 17 -678 18
-18 45 -19 484 -19 l465 0 0 -66 c0 -62 -1 -65 -22 -64 -13 1 -58 2 -101 1
l-78 -1 -15 -37 c-9 -20 -17 -45 -19 -54 -2 -10 -8 -26 -14 -36 -9 -18 4 -19
445 -19 l455 0 -7 40 c-3 23 -12 56 -20 74 -14 35 -9 34 -145 34 l-76 0 0 64
0 64 464 0 c450 0 464 1 483 20 20 20 20 33 20 678 0 626 -1 660 -18 675 -17
16 -112 17 -1154 17 -1044 0 -1137 -1 -1149 -17z m2139 -63 l102 0 0 -595 0
-595 -1090 0 -1090 0 0 593 c0 327 2 596 4 598 4 3 607 3 2074 -1z"/>
<path d="M3405 4363 c-23 -10 -55 -28 -72 -41 -40 -29 -83 -114 -83 -165 0
-23 -9 -54 -21 -74 -31 -50 -22 -108 24 -148 19 -16 37 -42 40 -56 21 -83 105
-141 206 -140 105 0 179 50 209 138 6 18 25 45 42 60 41 37 51 97 23 145 -11
18 -21 49 -22 68 -4 82 -50 164 -110 198 -54 31 -181 39 -236 15z m122 -139
c35 -40 44 -45 80 -46 23 0 46 3 52 6 13 9 18 -5 24 -61 5 -45 21 -74 40 -70
7 1 13 -11 15 -26 4 -32 -21 -67 -48 -67 -13 0 -19 -12 -24 -44 -13 -83 -71
-128 -166 -128 -95 0 -150 44 -165 133 -5 31 -11 39 -35 44 -23 5 -31 13 -36
40 -7 41 0 55 25 48 23 -6 33 19 37 89 1 25 5 56 9 68 10 31 63 60 112 60 37
0 46 -5 80 -46z"/>
<path d="M3390 4100 c-12 -7 -13 -13 -4 -27 19 -30 70 -9 57 24 -6 15 -31 17
-53 3z"/>
<path d="M3567 4103 c-13 -12 -7 -32 12 -43 26 -14 58 15 40 36 -12 15 -41 19
-52 7z"/>
<path d="M3410 3916 c0 -8 14 -26 32 -39 25 -20 39 -24 72 -20 42 4 86 35 86
60 0 19 -10 16 -37 -13 -21 -23 -30 -26 -66 -21 -27 4 -47 13 -56 26 -16 24
-31 27 -31 7z"/>
<path d="M3230 3718 c-135 -48 -168 -81 -177 -174 l-6 -54 452 0 c513 0 462
-10 440 90 -14 67 -43 92 -149 131 -130 47 -133 47 -174 6 -71 -71 -161 -72
-231 -2 -19 19 -42 35 -52 34 -10 0 -56 -14 -103 -31z"/>
<path d="M1998 2729 c-103 -16 -164 -88 -156 -185 5 -61 28 -99 76 -127 69
-41 204 -29 223 20 15 40 11 63 -11 63 -13 0 -22 -9 -26 -25 -17 -70 -117 -57
-154 20 -44 90 -10 185 71 200 32 6 67 -12 71 -37 2 -15 11 -24 26 -26 22 -3
23 -1 18 38 -5 49 -5 50 -42 56 -16 2 -33 6 -39 7 -5 2 -31 0 -57 -4z"/>
<path d="M2331 2726 c-17 -9 -39 -51 -80 -148 -31 -74 -64 -143 -74 -153 -24
-23 -10 -32 49 -30 55 3 61 8 36 31 -15 14 -18 25 -11 42 5 12 14 22 21 23 7
0 30 2 51 3 29 2 42 -3 53 -18 18 -26 18 -46 -1 -46 -16 0 -21 -29 -5 -31 99
-11 177 6 132 30 -11 6 -44 69 -82 158 -34 81 -63 149 -64 150 0 1 -12 -4 -25
-11z m9 -158 l18 -38 -43 0 -44 0 13 33 c7 17 16 41 21 52 6 16 8 17 13 5 2
-8 13 -32 22 -52z"/>
<path d="M3416 2725 c-82 -21 -126 -81 -126 -173 0 -63 30 -109 90 -139 49
-26 77 -28 135 -12 109 31 158 175 89 266 -44 58 -109 78 -188 58z m96 -56
c38 -45 46 -146 18 -200 -16 -30 -56 -42 -88 -27 -78 38 -87 207 -13 244 31
16 62 10 83 -17z"/>
<path d="M3953 2729 c-99 -18 -153 -80 -153 -177 0 -99 79 -163 194 -158 88 4
106 16 106 73 0 31 5 50 17 58 9 7 13 16 10 21 -4 8 -69 10 -134 5 -21 -2 -15
-21 10 -30 21 -8 24 -22 18 -83 -2 -13 -40 -9 -70 7 -42 21 -64 76 -59 142 7
80 41 108 125 104 14 -1 24 -11 32 -31 10 -29 40 -42 42 -17 0 6 2 22 3 34 1
12 0 27 -4 33 -10 16 -90 27 -137 19z"/>
<path d="M4310 2723 c-18 -11 -40 -51 -80 -150 -32 -79 -62 -139 -73 -144 -27
-15 -5 -35 35 -33 18 1 41 2 51 3 23 1 22 22 -3 28 -24 6 -23 5 -8 38 6 14 20
25 32 26 12 1 34 2 49 3 19 2 33 -4 42 -18 19 -27 19 -46 -1 -46 -9 0 -14 -7
-12 -17 3 -14 15 -17 63 -18 33 -1 69 3 79 8 19 9 19 10 -2 26 -12 9 -49 81
-83 161 -34 80 -62 146 -63 147 -1 1 -12 -5 -26 -14z m-8 -191 c-19 -2 -36 -1
-39 2 -3 3 2 27 12 53 l18 47 22 -50 22 -49 -35 -3z"/>
<path d="M5022 2729 c-92 -17 -144 -72 -150 -159 -8 -127 98 -204 238 -170 57
14 56 12 65 63 6 33 5 37 -14 37 -14 0 -23 -8 -27 -25 -11 -42 -57 -57 -108
-34 -59 27 -83 158 -40 216 40 53 112 51 137 -3 22 -45 46 -37 44 16 -1 21 -5
41 -8 44 -12 13 -96 22 -137 15z"/>
<path d="M5547 2720 c-15 -12 -27 -26 -27 -31 0 -5 -9 -31 -21 -57 -23 -53
-28 -63 -60 -144 -12 -32 -29 -58 -36 -58 -7 0 -13 -8 -13 -18 0 -18 0 -18 93
-13 21 1 23 31 1 31 -13 0 -15 6 -9 27 8 35 3 31 50 34 65 3 73 0 83 -30 9
-25 8 -30 -9 -34 -11 -3 -17 -11 -14 -19 5 -12 42 -15 138 -9 20 1 24 31 3 31
-8 0 -39 58 -75 143 -79 182 -72 172 -104 147z m-3 -188 c-20 -2 -38 -2 -40 1
-2 2 4 26 13 53 l17 49 23 -50 23 -50 -36 -3z"/>
<path d="M1287 2715 c-4 -9 -1 -15 8 -15 25 0 32 -32 31 -150 -1 -102 -3 -115
-19 -118 -11 -2 -17 -11 -15 -20 3 -13 16 -17 67 -17 76 0 89 6 64 31 -14 13
-20 33 -21 67 -1 62 17 61 47 -2 33 -70 61 -93 121 -99 42 -4 50 -2 50 12 0 9
-10 21 -22 27 -13 5 -42 36 -65 67 -37 50 -40 58 -25 66 45 23 64 76 42 117
-19 34 -60 47 -161 48 -79 2 -98 -1 -102 -14z m181 -37 c31 -25 -1 -98 -43
-98 -23 0 -25 3 -24 53 1 28 3 56 6 60 5 9 42 0 61 -15z"/>
<path d="M1640 2714 c0 -9 8 -18 19 -21 16 -4 18 -16 19 -116 1 -126 -3 -147
-24 -147 -9 0 -14 -7 -12 -17 3 -14 15 -17 71 -18 45 0 72 5 79 13 9 10 6 14
-10 19 -25 6 -24 0 -26 136 -2 105 4 137 29 137 9 0 12 6 9 15 -9 23 -154 22
-154 -1z"/>
<path d="M2530 2716 c0 -8 9 -18 20 -21 19 -6 20 -15 20 -130 0 -115 -1 -125
-21 -135 -36 -20 -15 -33 55 -34 71 -2 91 8 61 30 -12 9 -18 28 -18 63 -1 28
2 51 7 52 5 0 23 -25 40 -57 35 -63 79 -94 133 -94 45 0 48 14 8 44 -19 15
-49 47 -66 72 l-31 46 30 26 c34 29 40 51 29 95 -11 40 -54 55 -169 56 -80 1
-98 -1 -98 -13z m167 -25 c14 -1 29 -47 24 -71 -4 -19 -32 -39 -56 -40 -18 0
-20 6 -19 58 1 31 2 58 3 59 1 1 9 0 19 -2 9 -2 23 -4 29 -4z"/>
<path d="M2885 2719 c-5 -7 -4 -14 1 -16 32 -11 35 -22 35 -139 0 -108 -2
-120 -20 -132 -40 -27 -15 -38 88 -36 119 2 160 14 200 59 73 83 54 204 -39
251 -46 23 -253 33 -265 13z m213 -45 c40 -28 61 -121 41 -182 -12 -37 -55
-62 -99 -57 -14 2 -28 4 -32 4 -5 1 -8 57 -8 126 l0 125 38 0 c21 0 48 -7 60
-16z"/>
<path d="M4510 2716 c0 -8 9 -18 20 -21 19 -6 20 -15 20 -136 0 -106 -3 -129
-14 -129 -19 0 -32 -20 -18 -29 5 -3 39 -6 74 -6 51 1 64 4 66 18 2 10 -3 17
-11 17 -17 0 -25 48 -17 94 6 33 11 29 49 -44 29 -57 62 -81 116 -88 53 -6 64
10 26 37 -16 12 -46 44 -66 71 l-37 50 27 22 c54 43 53 111 -3 139 -45 23
-232 27 -232 5z m183 -33 c4 -2 7 -19 7 -38 0 -37 -21 -65 -51 -65 -19 0 -21
6 -21 55 0 65 0 66 30 59 15 -4 30 -9 35 -11z"/>
<path d="M5217 2716 c-4 -9 2 -17 14 -21 20 -7 21 -12 21 -135 0 -127 -1 -127
-24 -133 -16 -5 -19 -9 -10 -19 9 -11 90 -16 145 -9 15 2 6 29 -12 34 -17 4
-19 16 -20 130 -2 118 -1 126 19 132 11 3 20 13 20 21 0 21 -145 20 -153 0z"/>
<path d="M1779 2201 c-8 -35 -4 -191 5 -194 21 -7 88 1 111 13 47 25 54 115
14 156 -18 17 -38 25 -77 27 -28 2 -53 1 -53 -2z m102 -52 c37 -37 11 -109
-40 -109 -26 0 -27 2 -29 65 -3 64 -2 65 23 65 14 0 34 -9 46 -21z"/>
<path d="M2000 2202 c-6 -2 -10 -43 -10 -101 l0 -97 63 2 c80 2 77 1 71 19 -4
10 -20 15 -50 15 -40 0 -44 2 -44 25 0 14 3 24 8 24 4 -1 24 -1 44 0 29 1 36
4 32 16 -4 10 -20 15 -45 15 -35 0 -39 3 -39 25 0 23 3 25 49 25 41 0 49 3 47
17 -2 14 -14 17 -59 18 -31 0 -61 -1 -67 -3z"/>
<path d="M2210 2197 c-28 -14 -39 -59 -20 -81 6 -8 31 -19 55 -25 34 -9 45
-16 45 -31 0 -11 -4 -20 -9 -20 -5 0 -16 -3 -25 -6 -8 -3 -22 3 -33 15 -17 20
-53 29 -53 13 0 -4 7 -17 15 -29 20 -29 75 -39 112 -21 23 11 28 20 28 48 0
36 -5 40 -80 72 -32 14 -34 29 -5 40 13 5 25 1 36 -10 35 -34 66 -19 36 18
-21 26 -68 34 -102 17z"/>
<path d="M2391 2188 c-5 -13 -6 -149 -2 -179 1 -3 30 -5 66 -5 55 1 65 4 65
19 0 14 -9 17 -48 17 -44 0 -49 2 -47 23 2 23 4 24 55 26 48 2 40 31 -9 31
-30 0 -40 4 -44 19 -7 27 0 31 50 31 36 0 44 3 41 17 -5 25 -117 26 -127 1z"/>
<path d="M2579 2201 c-1 -3 -2 -48 -3 -98 -1 -72 2 -94 13 -98 20 -8 20 -6 23
68 2 36 6 63 9 59 4 -4 19 -30 34 -59 29 -56 42 -70 65 -69 12 1 15 20 17 103
2 90 0 101 -15 99 -14 -2 -18 -17 -22 -71 l-5 -68 -23 41 c-12 22 -29 52 -37
68 -12 24 -53 42 -56 25z"/>
<path d="M2790 2194 c0 -8 14 -55 31 -103 26 -75 34 -88 52 -87 17 1 27 18 54
95 19 52 30 98 26 102 -17 17 -35 -10 -57 -82 l-23 -74 -25 79 c-17 53 -31 80
-42 82 -9 1 -16 -4 -16 -12z"/>
<path d="M3049 2194 c-51 -26 -64 -120 -23 -165 42 -46 139 -28 160 29 13 36
2 99 -23 124 -25 24 -80 31 -114 12z m89 -36 c7 -7 12 -31 12 -54 0 -46 -25
-75 -58 -69 -9 2 -20 4 -23 4 -10 1 -29 50 -29 73 0 46 67 77 98 46z"/>
<path d="M3263 2203 c-9 -3 -13 -33 -13 -102 l0 -97 60 0 c52 -1 60 2 60 18 0
10 -3 17 -7 17 -5 -1 -24 -1 -43 0 l-36 1 2 80 c2 81 -1 91 -23 83z"/>
<path d="M3400 2205 c0 -2 16 -48 35 -102 27 -75 40 -99 55 -100 19 -2 20 1
65 121 30 81 30 85 8 82 -12 -2 -26 -26 -44 -76 -14 -40 -28 -69 -31 -64 -3 5
-13 34 -23 64 -10 30 -21 59 -26 64 -9 9 -39 18 -39 11z"/>
<path d="M3631 2190 c-6 -12 -7 -108 -2 -170 1 -12 15 -15 66 -15 56 0 65 2
65 17 0 15 -9 18 -44 18 -25 0 -47 4 -50 9 -11 17 6 42 28 40 41 -3 56 1 56
16 0 11 -11 15 -43 15 -39 0 -43 2 -43 25 0 23 3 25 48 25 39 0 48 3 48 18 0
15 -9 17 -61 17 -44 0 -63 -4 -68 -15z"/>
<path d="M3819 2200 c-8 -28 -3 -190 6 -193 13 -6 63 -1 97 8 34 9 60 62 53
107 -6 35 -45 77 -73 79 -68 4 -82 4 -83 -1z m101 -50 c39 -39 14 -110 -39
-110 -27 0 -27 1 -28 65 -1 62 1 65 23 65 13 0 33 -9 44 -20z"/>
<path d="M4074 2197 c-34 -19 -44 -35 -48 -76 -8 -93 65 -147 144 -106 57 29
62 140 8 174 -29 18 -79 22 -104 8z m90 -49 c40 -61 -22 -142 -75 -99 -46 37
-24 121 31 121 20 0 34 -8 44 -22z"/>
<path d="M4274 2195 c-3 -6 -4 -51 -2 -100 3 -75 6 -89 21 -91 14 -2 17 5 17
36 0 37 16 56 36 42 5 -4 16 -23 26 -43 9 -20 23 -36 32 -36 20 0 20 8 1 53
-13 32 -13 37 0 51 18 18 19 53 2 77 -15 21 -126 30 -133 11z m104 -49 c5 -23
-12 -34 -44 -28 -18 3 -24 11 -24 29 0 21 4 24 32 21 23 -2 34 -9 36 -22z"/>
<path d="M4564 2192 c2 -9 14 -56 26 -103 21 -82 23 -85 51 -85 25 0 30 4 36
35 4 20 8 38 8 41 16 78 17 78 32 5 8 -38 16 -71 17 -73 8 -7 44 -10 52 -4 13
9 57 182 49 191 -19 18 -32 -1 -51 -74 -17 -64 -22 -75 -27 -55 -4 14 -12 49
-19 79 -13 55 -35 73 -57 47 -11 -13 -12 -19 -26 -93 -4 -24 -11 -43 -15 -43
-4 0 -13 28 -20 63 -14 66 -21 79 -45 83 -10 2 -14 -3 -11 -14z"/>
<path d="M4894 2201 c-2 -2 -4 -48 -4 -100 l0 -96 65 -1 c57 -1 65 2 65 18 0
15 -8 18 -45 18 -42 0 -45 2 -45 26 0 24 3 26 40 22 24 -2 41 1 44 8 7 18 -4
24 -46 24 -34 0 -38 3 -38 25 0 23 3 25 50 25 48 0 63 11 38 27 -13 8 -116 11
-124 4z"/>
<path d="M5078 2156 c-2 -28 -1 -73 2 -101 l5 -50 57 1 c31 0 64 7 73 14 20
17 19 67 -1 78 -11 6 -13 11 -5 16 16 10 14 61 -4 76 -8 6 -39 13 -69 14 l-54
2 -4 -50z m100 2 c16 -16 -3 -38 -33 -38 -28 0 -34 7 -28 31 6 21 42 26 61 7z
m10 -80 c17 -17 -4 -38 -38 -38 -33 0 -39 6 -33 31 6 22 51 27 71 7z"/>
</g>
</svg>
