<svg xmlns="http://www.w3.org/2000/svg" xmlns:xlink="http://www.w3.org/1999/xlink" width="500" zoomAndPan="magnify" viewBox="0 0 375 374.999991" height="500" preserveAspectRatio="xMidYMid meet" version="1.0"><defs><g/><clipPath id="dddb5f2219"><path d="M 113.628906 112.558594 L 222.378906 112.558594 L 222.378906 186 L 113.628906 186 Z M 113.628906 112.558594 " clip-rule="nonzero"/></clipPath><clipPath id="a645485dc1"><path d="M 136 196 L 200 196 L 200 202.558594 L 136 202.558594 Z M 136 196 " clip-rule="nonzero"/></clipPath><clipPath id="39e1111445"><path d="M 134 124 L 191.644531 124 L 191.644531 157 L 134 157 Z M 134 124 " clip-rule="nonzero"/></clipPath><clipPath id="00fa85973b"><path d="M 125.644531 119.609375 L 169 119.609375 L 169 168.359375 L 125.644531 168.359375 Z M 125.644531 119.609375 " clip-rule="nonzero"/></clipPath><clipPath id="b4a1939cf3"><path d="M 132.273438 120.171875 L 178.390625 120.171875 L 178.390625 168.332031 L 132.273438 168.332031 Z M 132.273438 120.171875 " clip-rule="nonzero"/></clipPath><clipPath id="ebab523d51"><path d="M 204.699219 143.957031 L 246.667969 143.957031 L 246.667969 198.996094 L 204.699219 198.996094 Z M 204.699219 143.957031 " clip-rule="nonzero"/></clipPath><clipPath id="c737cb5584"><path d="M 202.261719 142.125 L 248.75 142.125 L 248.75 202.875 L 202.261719 202.875 Z M 202.261719 142.125 " clip-rule="nonzero"/></clipPath><clipPath id="aee2ee99c7"><path d="M 213 148 L 243.015625 148 L 243.015625 166 L 213 166 Z M 213 148 " clip-rule="nonzero"/></clipPath><clipPath id="2bed304468"><path d="M 208.515625 146.289062 L 231 146.289062 L 231 171.789062 L 208.515625 171.789062 Z M 208.515625 146.289062 " clip-rule="nonzero"/></clipPath><clipPath id="1657bf4557"><path d="M 212 146.582031 L 236.085938 146.582031 L 236.085938 171.777344 L 212 171.777344 Z M 212 146.582031 " clip-rule="nonzero"/></clipPath><clipPath id="58128c4de0"><path d="M 213 175 L 243.050781 175 L 243.050781 192 L 213 192 Z M 213 175 " clip-rule="nonzero"/></clipPath><clipPath id="839e146f77"><path d="M 208.550781 172.394531 L 231 172.394531 L 231 197.894531 L 208.550781 197.894531 Z M 208.550781 172.394531 " clip-rule="nonzero"/></clipPath><clipPath id="df032b9141"><path d="M 212.015625 172.6875 L 236.121094 172.6875 L 236.121094 197.882812 L 212.015625 197.882812 Z M 212.015625 172.6875 " clip-rule="nonzero"/></clipPath><clipPath id="20c871ff2b"><path d="M 243.085938 170.703125 L 261 170.703125 L 261 200.023438 L 243.085938 200.023438 Z M 243.085938 170.703125 " clip-rule="nonzero"/></clipPath><clipPath id="eee27d5b05"><path d="M 242.816406 168.304688 L 261.566406 168.304688 L 261.566406 202.804688 L 242.816406 202.804688 Z M 242.816406 168.304688 " clip-rule="nonzero"/></clipPath><clipPath id="61c90925f4"><path d="M 246 174 L 259.980469 174 L 259.980469 182 L 246 182 Z M 246 174 " clip-rule="nonzero"/></clipPath><clipPath id="ea0707be18"><path d="M 244.230469 173.429688 L 255 173.429688 L 255 184.679688 L 244.230469 184.679688 Z M 244.230469 173.429688 " clip-rule="nonzero"/></clipPath><clipPath id="c18355d281"><path d="M 245.8125 173.554688 L 256.816406 173.554688 L 256.816406 184.675781 L 245.8125 184.675781 Z M 245.8125 173.554688 " clip-rule="nonzero"/></clipPath></defs><g fill="#000000" fill-opacity="1"><g transform="translate(113.343747, 234.249741)"><g><path d="M 15.4375 -1.640625 L 3.03125 -6.875 C 2.082031 -7.269531 1.609375 -7.953125 1.609375 -8.921875 C 1.609375 -9.859375 2.082031 -10.519531 3.03125 -10.90625 L 15.4375 -16.1875 C 15.875 -16.375 16.25 -16.382812 16.5625 -16.21875 C 16.882812 -16.050781 17.109375 -15.796875 17.234375 -15.453125 C 17.359375 -15.109375 17.363281 -14.757812 17.25 -14.40625 C 17.132812 -14.0625 16.863281 -13.796875 16.4375 -13.609375 L 5.203125 -8.890625 L 16.4375 -4.1875 C 16.863281 -4 17.132812 -3.734375 17.25 -3.390625 C 17.363281 -3.054688 17.359375 -2.71875 17.234375 -2.375 C 17.109375 -2.03125 16.882812 -1.773438 16.5625 -1.609375 C 16.25 -1.441406 15.875 -1.453125 15.4375 -1.640625 Z M 15.4375 -1.640625 "/></g></g></g><g fill="#000000" fill-opacity="1"><g transform="translate(131.941437, 234.249741)"><g><path d="M 4.5 0 C 3.09375 0 2.390625 -0.703125 2.390625 -2.109375 L 2.390625 -19.75 C 2.390625 -21.15625 3.09375 -21.859375 4.5 -21.859375 L 10.515625 -21.859375 C 14.171875 -21.859375 16.992188 -20.914062 18.984375 -19.03125 C 20.984375 -17.15625 21.984375 -14.457031 21.984375 -10.9375 C 21.984375 -7.445312 20.984375 -4.75 18.984375 -2.84375 C 16.992188 -0.945312 14.171875 0 10.515625 0 Z M 6.359375 -3.28125 L 10.265625 -3.28125 C 15.304688 -3.28125 17.828125 -5.832031 17.828125 -10.9375 C 17.828125 -16.019531 15.304688 -18.5625 10.265625 -18.5625 L 6.359375 -18.5625 Z M 6.359375 -3.28125 "/></g></g></g><g fill="#000000" fill-opacity="1"><g transform="translate(155.560496, 234.249741)"><g><path d="M 4.5 0 C 3.09375 0 2.390625 -0.703125 2.390625 -2.109375 L 2.390625 -19.75 C 2.390625 -21.15625 3.09375 -21.859375 4.5 -21.859375 L 15.5625 -21.859375 C 16.632812 -21.859375 17.171875 -21.34375 17.171875 -20.3125 C 17.171875 -19.226562 16.632812 -18.6875 15.5625 -18.6875 L 6.203125 -18.6875 L 6.203125 -12.671875 L 14.875 -12.671875 C 15.945312 -12.671875 16.484375 -12.144531 16.484375 -11.09375 C 16.484375 -10.039062 15.945312 -9.515625 14.875 -9.515625 L 6.203125 -9.515625 L 6.203125 -3.15625 L 15.5625 -3.15625 C 16.632812 -3.15625 17.171875 -2.628906 17.171875 -1.578125 C 17.171875 -0.523438 16.632812 0 15.5625 0 Z M 4.5 0 "/></g></g></g><g fill="#000000" fill-opacity="1"><g transform="translate(174.065191, 234.249741)"><g><path d="M 11.0625 0.25 C 10.007812 0.25 9.253906 -0.265625 8.796875 -1.296875 L 0.71875 -19.46875 C 0.382812 -20.25 0.394531 -20.882812 0.75 -21.375 C 1.113281 -21.863281 1.648438 -22.109375 2.359375 -22.109375 C 2.953125 -22.109375 3.398438 -21.976562 3.703125 -21.71875 C 4.003906 -21.457031 4.257812 -21.066406 4.46875 -20.546875 L 11.125 -5.078125 L 17.796875 -20.578125 C 18.023438 -21.078125 18.289062 -21.457031 18.59375 -21.71875 C 18.90625 -21.976562 19.34375 -22.109375 19.90625 -22.109375 C 20.5625 -22.109375 21.0625 -21.859375 21.40625 -21.359375 C 21.75 -20.859375 21.742188 -20.226562 21.390625 -19.46875 L 13.296875 -1.296875 C 13.066406 -0.785156 12.78125 -0.398438 12.4375 -0.140625 C 12.101562 0.117188 11.644531 0.25 11.0625 0.25 Z M 11.0625 0.25 "/></g></g></g><g fill="#000000" fill-opacity="1"><g transform="translate(196.165435, 234.249741)"><g><path d="M 8.859375 0.3125 C 7.742188 0.3125 6.585938 0.164062 5.390625 -0.125 C 4.191406 -0.414062 3.148438 -0.847656 2.265625 -1.421875 C 1.742188 -1.773438 1.429688 -2.171875 1.328125 -2.609375 C 1.222656 -3.054688 1.273438 -3.460938 1.484375 -3.828125 C 1.691406 -4.191406 2.003906 -4.4375 2.421875 -4.5625 C 2.847656 -4.6875 3.332031 -4.601562 3.875 -4.3125 C 4.71875 -3.851562 5.53125 -3.523438 6.3125 -3.328125 C 7.101562 -3.128906 7.910156 -3.03125 8.734375 -3.03125 C 11.523438 -3.03125 12.921875 -4.128906 12.921875 -6.328125 C 12.921875 -7.359375 12.570312 -8.125 11.875 -8.625 C 11.1875 -9.132812 10.179688 -9.390625 8.859375 -9.390625 L 6.875 -9.390625 C 6.300781 -9.390625 5.863281 -9.535156 5.5625 -9.828125 C 5.257812 -10.117188 5.109375 -10.519531 5.109375 -11.03125 C 5.109375 -11.550781 5.257812 -11.953125 5.5625 -12.234375 C 5.863281 -12.523438 6.300781 -12.671875 6.875 -12.671875 L 8.5 -12.671875 C 9.65625 -12.671875 10.570312 -12.957031 11.25 -13.53125 C 11.9375 -14.101562 12.28125 -14.894531 12.28125 -15.90625 C 12.28125 -16.851562 11.960938 -17.570312 11.328125 -18.0625 C 10.703125 -18.5625 9.789062 -18.8125 8.59375 -18.8125 C 7.820312 -18.8125 7.097656 -18.722656 6.421875 -18.546875 C 5.753906 -18.378906 5.019531 -18.054688 4.21875 -17.578125 C 3.738281 -17.285156 3.300781 -17.207031 2.90625 -17.34375 C 2.519531 -17.476562 2.21875 -17.722656 2 -18.078125 C 1.78125 -18.441406 1.710938 -18.84375 1.796875 -19.28125 C 1.878906 -19.71875 2.171875 -20.085938 2.671875 -20.390625 C 4.484375 -21.578125 6.566406 -22.171875 8.921875 -22.171875 C 11.203125 -22.171875 12.972656 -21.65625 14.234375 -20.625 C 15.492188 -19.601562 16.125 -18.1875 16.125 -16.375 C 16.125 -15.1875 15.820312 -14.148438 15.21875 -13.265625 C 14.625 -12.378906 13.804688 -11.738281 12.765625 -11.34375 C 14.023438 -10.988281 15.003906 -10.34375 15.703125 -9.40625 C 16.410156 -8.46875 16.765625 -7.328125 16.765625 -5.984375 C 16.765625 -4.035156 16.0625 -2.5 14.65625 -1.375 C 13.257812 -0.25 11.328125 0.3125 8.859375 0.3125 Z M 8.859375 0.3125 "/></g></g></g><g fill="#000000" fill-opacity="1"><g transform="translate(214.763125, 234.249741)"><g><path d="M 9.296875 0.3125 C 6.710938 0.3125 4.738281 -0.660156 3.375 -2.609375 C 2.007812 -4.566406 1.328125 -7.351562 1.328125 -10.96875 C 1.328125 -14.632812 2.007812 -17.414062 3.375 -19.3125 C 4.738281 -21.21875 6.710938 -22.171875 9.296875 -22.171875 C 11.898438 -22.171875 13.878906 -21.21875 15.234375 -19.3125 C 16.585938 -17.414062 17.265625 -14.644531 17.265625 -11 C 17.265625 -7.363281 16.582031 -4.566406 15.21875 -2.609375 C 13.851562 -0.660156 11.878906 0.3125 9.296875 0.3125 Z M 9.296875 -2.9375 C 10.703125 -2.9375 11.738281 -3.585938 12.40625 -4.890625 C 13.082031 -6.191406 13.421875 -8.226562 13.421875 -11 C 13.421875 -13.769531 13.082031 -15.78125 12.40625 -17.03125 C 11.738281 -18.28125 10.703125 -18.90625 9.296875 -18.90625 C 7.910156 -18.90625 6.875 -18.28125 6.1875 -17.03125 C 5.507812 -15.78125 5.171875 -13.769531 5.171875 -11 C 5.171875 -8.226562 5.507812 -6.191406 6.1875 -4.890625 C 6.875 -3.585938 7.910156 -2.9375 9.296875 -2.9375 Z M 9.296875 -2.9375 "/></g></g></g><g fill="#000000" fill-opacity="1"><g transform="translate(233.360814, 234.249741)"><g><path d="M 2.734375 0.90625 C 2.585938 1.394531 2.320312 1.71875 1.9375 1.875 C 1.550781 2.03125 1.164062 2.050781 0.78125 1.9375 C 0.40625 1.820312 0.109375 1.597656 -0.109375 1.265625 C -0.328125 0.941406 -0.351562 0.519531 -0.1875 0 L 6.96875 -22.234375 C 7.132812 -22.722656 7.40625 -23.050781 7.78125 -23.21875 C 8.15625 -23.382812 8.53125 -23.410156 8.90625 -23.296875 C 9.289062 -23.179688 9.59375 -22.953125 9.8125 -22.609375 C 10.03125 -22.273438 10.054688 -21.859375 9.890625 -21.359375 Z M 2.734375 0.90625 "/></g></g></g><g fill="#000000" fill-opacity="1"><g transform="translate(243.062611, 234.249741)"><g><path d="M 3.1875 -1.640625 C 2.757812 -1.453125 2.382812 -1.441406 2.0625 -1.609375 C 1.738281 -1.773438 1.515625 -2.03125 1.390625 -2.375 C 1.265625 -2.71875 1.257812 -3.054688 1.375 -3.390625 C 1.488281 -3.734375 1.765625 -4 2.203125 -4.1875 L 13.421875 -8.890625 L 2.203125 -13.609375 C 1.765625 -13.796875 1.488281 -14.0625 1.375 -14.40625 C 1.257812 -14.757812 1.265625 -15.109375 1.390625 -15.453125 C 1.515625 -15.796875 1.738281 -16.050781 2.0625 -16.21875 C 2.382812 -16.382812 2.757812 -16.375 3.1875 -16.1875 L 15.59375 -10.90625 C 16.539062 -10.519531 17.015625 -9.859375 17.015625 -8.921875 C 17.015625 -7.953125 16.539062 -7.269531 15.59375 -6.875 Z M 3.1875 -1.640625 "/></g></g></g><g fill="#ff6100" fill-opacity="1"><g transform="translate(89.3875, 258.592761)"><g><path d="M 1.734375 0 C 1.609375 0 1.5 -0.0390625 1.40625 -0.125 C 1.320312 -0.207031 1.28125 -0.3125 1.28125 -0.4375 L 1.28125 -9.4375 C 1.28125 -9.5625 1.320312 -9.664062 1.40625 -9.75 C 1.5 -9.832031 1.609375 -9.875 1.734375 -9.875 L 4.453125 -9.875 C 6.015625 -9.875 7.222656 -9.445312 8.078125 -8.59375 C 8.929688 -7.75 9.359375 -6.53125 9.359375 -4.9375 C 9.359375 -3.351562 8.929688 -2.132812 8.078125 -1.28125 C 7.222656 -0.425781 6.015625 0 4.453125 0 Z M 4.40625 -0.75 C 7.09375 -0.75 8.4375 -2.144531 8.4375 -4.9375 C 8.4375 -7.71875 7.09375 -9.109375 4.40625 -9.109375 L 2.140625 -9.109375 L 2.140625 -0.75 Z M 4.40625 -0.75 "/></g></g></g><g fill="#ff6100" fill-opacity="1"><g transform="translate(101.015796, 258.592761)"><g><path d="M 1.734375 0 C 1.609375 0 1.5 -0.0390625 1.40625 -0.125 C 1.320312 -0.207031 1.28125 -0.3125 1.28125 -0.4375 L 1.28125 -9.4375 C 1.28125 -9.5625 1.320312 -9.664062 1.40625 -9.75 C 1.5 -9.832031 1.609375 -9.875 1.734375 -9.875 L 7.0625 -9.875 C 7.175781 -9.875 7.269531 -9.835938 7.34375 -9.765625 C 7.414062 -9.703125 7.453125 -9.609375 7.453125 -9.484375 C 7.453125 -9.378906 7.414062 -9.289062 7.34375 -9.21875 C 7.269531 -9.15625 7.175781 -9.125 7.0625 -9.125 L 2.125 -9.125 L 2.125 -5.390625 L 6.78125 -5.390625 C 6.894531 -5.390625 6.988281 -5.351562 7.0625 -5.28125 C 7.132812 -5.21875 7.171875 -5.128906 7.171875 -5.015625 C 7.171875 -4.890625 7.132812 -4.796875 7.0625 -4.734375 C 6.988281 -4.671875 6.894531 -4.640625 6.78125 -4.640625 L 2.125 -4.640625 L 2.125 -0.734375 L 7.0625 -0.734375 C 7.175781 -0.734375 7.269531 -0.703125 7.34375 -0.640625 C 7.414062 -0.585938 7.453125 -0.5 7.453125 -0.375 C 7.453125 -0.257812 7.414062 -0.164062 7.34375 -0.09375 C 7.269531 -0.03125 7.175781 0 7.0625 0 Z M 1.734375 0 "/></g></g></g><g fill="#ff6100" fill-opacity="1"><g transform="translate(110.517276, 258.592761)"><g><path d="M 4.3125 0.109375 C 3.625 0.109375 2.957031 0 2.3125 -0.21875 C 1.675781 -0.4375 1.175781 -0.734375 0.8125 -1.109375 C 0.6875 -1.210938 0.625 -1.347656 0.625 -1.515625 C 0.625 -1.617188 0.65625 -1.707031 0.71875 -1.78125 C 0.78125 -1.851562 0.847656 -1.890625 0.921875 -1.890625 C 1.015625 -1.890625 1.125 -1.84375 1.25 -1.75 C 2.125 -1.019531 3.144531 -0.65625 4.3125 -0.65625 C 5.164062 -0.65625 5.820312 -0.828125 6.28125 -1.171875 C 6.738281 -1.515625 6.96875 -2 6.96875 -2.625 C 6.96875 -2.976562 6.851562 -3.269531 6.625 -3.5 C 6.40625 -3.726562 6.125 -3.90625 5.78125 -4.03125 C 5.4375 -4.15625 4.972656 -4.28125 4.390625 -4.40625 C 3.628906 -4.570312 3.007812 -4.742188 2.53125 -4.921875 C 2.0625 -5.097656 1.664062 -5.363281 1.34375 -5.71875 C 1.019531 -6.082031 0.859375 -6.570312 0.859375 -7.1875 C 0.859375 -7.738281 1.003906 -8.222656 1.296875 -8.640625 C 1.585938 -9.066406 2 -9.394531 2.53125 -9.625 C 3.0625 -9.863281 3.675781 -9.984375 4.375 -9.984375 C 5.007812 -9.984375 5.613281 -9.878906 6.1875 -9.671875 C 6.757812 -9.460938 7.234375 -9.160156 7.609375 -8.765625 C 7.722656 -8.640625 7.78125 -8.503906 7.78125 -8.359375 C 7.78125 -8.253906 7.75 -8.164062 7.6875 -8.09375 C 7.632812 -8.019531 7.566406 -7.984375 7.484375 -7.984375 C 7.390625 -7.984375 7.285156 -8.03125 7.171875 -8.125 C 6.660156 -8.53125 6.203125 -8.8125 5.796875 -8.96875 C 5.390625 -9.132812 4.914062 -9.21875 4.375 -9.21875 C 3.539062 -9.21875 2.890625 -9.035156 2.421875 -8.671875 C 1.953125 -8.316406 1.71875 -7.828125 1.71875 -7.203125 C 1.71875 -6.816406 1.820312 -6.503906 2.03125 -6.265625 C 2.238281 -6.023438 2.503906 -5.832031 2.828125 -5.6875 C 3.160156 -5.550781 3.585938 -5.421875 4.109375 -5.296875 L 4.484375 -5.203125 C 5.234375 -5.015625 5.828125 -4.84375 6.265625 -4.6875 C 6.710938 -4.53125 7.085938 -4.285156 7.390625 -3.953125 C 7.691406 -3.617188 7.84375 -3.175781 7.84375 -2.625 C 7.84375 -2.082031 7.691406 -1.601562 7.390625 -1.1875 C 7.097656 -0.78125 6.679688 -0.460938 6.140625 -0.234375 C 5.609375 -0.00390625 5 0.109375 4.3125 0.109375 Z M 4.3125 0.109375 "/></g></g></g><g fill="#ff6100" fill-opacity="1"><g transform="translate(120.410534, 258.592761)"><g><path d="M 1.734375 0 C 1.609375 0 1.5 -0.0390625 1.40625 -0.125 C 1.320312 -0.207031 1.28125 -0.3125 1.28125 -0.4375 L 1.28125 -9.4375 C 1.28125 -9.5625 1.320312 -9.664062 1.40625 -9.75 C 1.5 -9.832031 1.609375 -9.875 1.734375 -9.875 L 7.0625 -9.875 C 7.175781 -9.875 7.269531 -9.835938 7.34375 -9.765625 C 7.414062 -9.703125 7.453125 -9.609375 7.453125 -9.484375 C 7.453125 -9.378906 7.414062 -9.289062 7.34375 -9.21875 C 7.269531 -9.15625 7.175781 -9.125 7.0625 -9.125 L 2.125 -9.125 L 2.125 -5.390625 L 6.78125 -5.390625 C 6.894531 -5.390625 6.988281 -5.351562 7.0625 -5.28125 C 7.132812 -5.21875 7.171875 -5.128906 7.171875 -5.015625 C 7.171875 -4.890625 7.132812 -4.796875 7.0625 -4.734375 C 6.988281 -4.671875 6.894531 -4.640625 6.78125 -4.640625 L 2.125 -4.640625 L 2.125 -0.734375 L 7.0625 -0.734375 C 7.175781 -0.734375 7.269531 -0.703125 7.34375 -0.640625 C 7.414062 -0.585938 7.453125 -0.5 7.453125 -0.375 C 7.453125 -0.257812 7.414062 -0.164062 7.34375 -0.09375 C 7.269531 -0.03125 7.175781 0 7.0625 0 Z M 1.734375 0 "/></g></g></g><g fill="#ff6100" fill-opacity="1"><g transform="translate(129.912013, 258.592761)"><g><path d="M 8.609375 -9.9375 C 8.742188 -9.9375 8.84375 -9.894531 8.90625 -9.8125 C 8.976562 -9.738281 9.015625 -9.628906 9.015625 -9.484375 L 9.015625 -0.375 C 9.015625 -0.25 8.976562 -0.144531 8.90625 -0.0625 C 8.832031 0.0195312 8.726562 0.0625 8.59375 0.0625 C 8.457031 0.0625 8.332031 -0.00390625 8.21875 -0.140625 L 2.09375 -8.40625 L 2.09375 -0.375 C 2.09375 -0.25 2.050781 -0.144531 1.96875 -0.0625 C 1.894531 0.0195312 1.800781 0.0625 1.6875 0.0625 C 1.539062 0.0625 1.4375 0.0234375 1.375 -0.046875 C 1.3125 -0.128906 1.28125 -0.238281 1.28125 -0.375 L 1.28125 -9.484375 C 1.28125 -9.617188 1.316406 -9.726562 1.390625 -9.8125 C 1.472656 -9.894531 1.582031 -9.9375 1.71875 -9.9375 C 1.875 -9.9375 2 -9.867188 2.09375 -9.734375 L 8.203125 -1.46875 L 8.203125 -9.484375 C 8.203125 -9.617188 8.238281 -9.726562 8.3125 -9.8125 C 8.382812 -9.894531 8.484375 -9.9375 8.609375 -9.9375 Z M 8.609375 -9.9375 "/></g></g></g><g fill="#ff6100" fill-opacity="1"><g transform="translate(141.596273, 258.592761)"><g><path d="M 8.546875 -9.71875 C 8.617188 -9.875 8.742188 -9.953125 8.921875 -9.953125 C 9.035156 -9.953125 9.132812 -9.914062 9.21875 -9.84375 C 9.3125 -9.78125 9.359375 -9.695312 9.359375 -9.59375 C 9.359375 -9.53125 9.34375 -9.472656 9.3125 -9.421875 L 5.234375 -0.234375 C 5.203125 -0.140625 5.140625 -0.0664062 5.046875 -0.015625 C 4.953125 0.0351562 4.859375 0.0625 4.765625 0.0625 C 4.671875 0.0625 4.578125 0.0390625 4.484375 0 C 4.398438 -0.0507812 4.332031 -0.128906 4.28125 -0.234375 L 0.21875 -9.421875 C 0.195312 -9.472656 0.1875 -9.523438 0.1875 -9.578125 C 0.1875 -9.691406 0.226562 -9.78125 0.3125 -9.84375 C 0.40625 -9.914062 0.503906 -9.953125 0.609375 -9.953125 C 0.785156 -9.953125 0.910156 -9.875 0.984375 -9.71875 L 4.78125 -1.140625 Z M 8.546875 -9.71875 "/></g></g></g><g fill="#ff6100" fill-opacity="1"><g transform="translate(152.51096, 258.592761)"><g><path d="M 5.296875 0.109375 C 4.398438 0.109375 3.617188 -0.09375 2.953125 -0.5 C 2.285156 -0.90625 1.773438 -1.488281 1.421875 -2.25 C 1.066406 -3.007812 0.890625 -3.898438 0.890625 -4.921875 C 0.890625 -5.960938 1.066406 -6.863281 1.421875 -7.625 C 1.773438 -8.382812 2.28125 -8.96875 2.9375 -9.375 C 3.601562 -9.78125 4.390625 -9.984375 5.296875 -9.984375 C 6.203125 -9.984375 6.984375 -9.78125 7.640625 -9.375 C 8.304688 -8.96875 8.816406 -8.382812 9.171875 -7.625 C 9.523438 -6.875 9.703125 -5.976562 9.703125 -4.9375 C 9.703125 -3.90625 9.523438 -3.007812 9.171875 -2.25 C 8.816406 -1.488281 8.304688 -0.90625 7.640625 -0.5 C 6.984375 -0.09375 6.203125 0.109375 5.296875 0.109375 Z M 5.296875 -0.65625 C 6.398438 -0.65625 7.257812 -1.023438 7.875 -1.765625 C 8.5 -2.515625 8.8125 -3.570312 8.8125 -4.9375 C 8.8125 -6.300781 8.503906 -7.351562 7.890625 -8.09375 C 7.273438 -8.84375 6.410156 -9.21875 5.296875 -9.21875 C 4.179688 -9.21875 3.316406 -8.84375 2.703125 -8.09375 C 2.097656 -7.34375 1.796875 -6.289062 1.796875 -4.9375 C 1.796875 -3.582031 2.097656 -2.53125 2.703125 -1.78125 C 3.316406 -1.03125 4.179688 -0.65625 5.296875 -0.65625 Z M 5.296875 -0.65625 "/></g></g></g><g fill="#ff6100" fill-opacity="1"><g transform="translate(164.503052, 258.592761)"><g><path d="M 1.71875 0 C 1.601562 0 1.5 -0.0351562 1.40625 -0.109375 C 1.320312 -0.179688 1.28125 -0.273438 1.28125 -0.390625 L 1.28125 -9.484375 C 1.28125 -9.617188 1.316406 -9.726562 1.390625 -9.8125 C 1.472656 -9.894531 1.578125 -9.9375 1.703125 -9.9375 C 1.847656 -9.9375 1.957031 -9.894531 2.03125 -9.8125 C 2.101562 -9.738281 2.140625 -9.628906 2.140625 -9.484375 L 2.140625 -0.75 L 6.9375 -0.75 C 7.050781 -0.75 7.144531 -0.71875 7.21875 -0.65625 C 7.289062 -0.59375 7.328125 -0.5 7.328125 -0.375 C 7.328125 -0.257812 7.289062 -0.164062 7.21875 -0.09375 C 7.144531 -0.03125 7.050781 0 6.9375 0 Z M 1.71875 0 "/></g></g></g><g fill="#ff6100" fill-opacity="1"><g transform="translate(173.360893, 258.592761)"><g><path d="M 8.546875 -9.71875 C 8.617188 -9.875 8.742188 -9.953125 8.921875 -9.953125 C 9.035156 -9.953125 9.132812 -9.914062 9.21875 -9.84375 C 9.3125 -9.78125 9.359375 -9.695312 9.359375 -9.59375 C 9.359375 -9.53125 9.34375 -9.472656 9.3125 -9.421875 L 5.234375 -0.234375 C 5.203125 -0.140625 5.140625 -0.0664062 5.046875 -0.015625 C 4.953125 0.0351562 4.859375 0.0625 4.765625 0.0625 C 4.671875 0.0625 4.578125 0.0390625 4.484375 0 C 4.398438 -0.0507812 4.332031 -0.128906 4.28125 -0.234375 L 0.21875 -9.421875 C 0.195312 -9.472656 0.1875 -9.523438 0.1875 -9.578125 C 0.1875 -9.691406 0.226562 -9.78125 0.3125 -9.84375 C 0.40625 -9.914062 0.503906 -9.953125 0.609375 -9.953125 C 0.785156 -9.953125 0.910156 -9.875 0.984375 -9.71875 L 4.78125 -1.140625 Z M 8.546875 -9.71875 "/></g></g></g><g fill="#ff6100" fill-opacity="1"><g transform="translate(184.27558, 258.592761)"><g><path d="M 1.703125 0.0625 C 1.578125 0.0625 1.472656 0.0195312 1.390625 -0.0625 C 1.316406 -0.144531 1.28125 -0.25 1.28125 -0.375 L 1.28125 -9.484375 C 1.28125 -9.617188 1.316406 -9.726562 1.390625 -9.8125 C 1.472656 -9.894531 1.578125 -9.9375 1.703125 -9.9375 C 1.835938 -9.9375 1.941406 -9.894531 2.015625 -9.8125 C 2.097656 -9.726562 2.140625 -9.617188 2.140625 -9.484375 L 2.140625 -0.375 C 2.140625 -0.25 2.097656 -0.144531 2.015625 -0.0625 C 1.941406 0.0195312 1.835938 0.0625 1.703125 0.0625 Z M 1.703125 0.0625 "/></g></g></g><g fill="#ff6100" fill-opacity="1"><g transform="translate(189.08968, 258.592761)"><g><path d="M 10.03125 -9.9375 C 10.175781 -9.9375 10.285156 -9.894531 10.359375 -9.8125 C 10.441406 -9.726562 10.484375 -9.617188 10.484375 -9.484375 L 10.484375 -0.375 C 10.484375 -0.25 10.445312 -0.144531 10.375 -0.0625 C 10.300781 0.0195312 10.195312 0.0625 10.0625 0.0625 C 9.9375 0.0625 9.835938 0.0234375 9.765625 -0.046875 C 9.703125 -0.128906 9.671875 -0.238281 9.671875 -0.375 L 9.671875 -8.140625 L 6.359375 -1.734375 C 6.242188 -1.515625 6.085938 -1.40625 5.890625 -1.40625 C 5.691406 -1.40625 5.539062 -1.515625 5.4375 -1.734375 L 2.09375 -8.09375 L 2.09375 -0.375 C 2.09375 -0.238281 2.054688 -0.128906 1.984375 -0.046875 C 1.921875 0.0234375 1.820312 0.0625 1.6875 0.0625 C 1.550781 0.0625 1.445312 0.0234375 1.375 -0.046875 C 1.3125 -0.128906 1.28125 -0.238281 1.28125 -0.375 L 1.28125 -9.484375 C 1.28125 -9.617188 1.316406 -9.726562 1.390625 -9.8125 C 1.472656 -9.894531 1.582031 -9.9375 1.71875 -9.9375 C 1.882812 -9.9375 2.023438 -9.832031 2.140625 -9.625 L 5.90625 -2.390625 L 9.625 -9.625 C 9.726562 -9.832031 9.863281 -9.9375 10.03125 -9.9375 Z M 10.03125 -9.9375 "/></g></g></g><g fill="#ff6100" fill-opacity="1"><g transform="translate(202.243118, 258.592761)"><g><path d="M 1.734375 0 C 1.609375 0 1.5 -0.0390625 1.40625 -0.125 C 1.320312 -0.207031 1.28125 -0.3125 1.28125 -0.4375 L 1.28125 -9.4375 C 1.28125 -9.5625 1.320312 -9.664062 1.40625 -9.75 C 1.5 -9.832031 1.609375 -9.875 1.734375 -9.875 L 7.0625 -9.875 C 7.175781 -9.875 7.269531 -9.835938 7.34375 -9.765625 C 7.414062 -9.703125 7.453125 -9.609375 7.453125 -9.484375 C 7.453125 -9.378906 7.414062 -9.289062 7.34375 -9.21875 C 7.269531 -9.15625 7.175781 -9.125 7.0625 -9.125 L 2.125 -9.125 L 2.125 -5.390625 L 6.78125 -5.390625 C 6.894531 -5.390625 6.988281 -5.351562 7.0625 -5.28125 C 7.132812 -5.21875 7.171875 -5.128906 7.171875 -5.015625 C 7.171875 -4.890625 7.132812 -4.796875 7.0625 -4.734375 C 6.988281 -4.671875 6.894531 -4.640625 6.78125 -4.640625 L 2.125 -4.640625 L 2.125 -0.734375 L 7.0625 -0.734375 C 7.175781 -0.734375 7.269531 -0.703125 7.34375 -0.640625 C 7.414062 -0.585938 7.453125 -0.5 7.453125 -0.375 C 7.453125 -0.257812 7.414062 -0.164062 7.34375 -0.09375 C 7.269531 -0.03125 7.175781 0 7.0625 0 Z M 1.734375 0 "/></g></g></g><g fill="#ff6100" fill-opacity="1"><g transform="translate(211.744597, 258.592761)"><g><path d="M 8.609375 -9.9375 C 8.742188 -9.9375 8.84375 -9.894531 8.90625 -9.8125 C 8.976562 -9.738281 9.015625 -9.628906 9.015625 -9.484375 L 9.015625 -0.375 C 9.015625 -0.25 8.976562 -0.144531 8.90625 -0.0625 C 8.832031 0.0195312 8.726562 0.0625 8.59375 0.0625 C 8.457031 0.0625 8.332031 -0.00390625 8.21875 -0.140625 L 2.09375 -8.40625 L 2.09375 -0.375 C 2.09375 -0.25 2.050781 -0.144531 1.96875 -0.0625 C 1.894531 0.0195312 1.800781 0.0625 1.6875 0.0625 C 1.539062 0.0625 1.4375 0.0234375 1.375 -0.046875 C 1.3125 -0.128906 1.28125 -0.238281 1.28125 -0.375 L 1.28125 -9.484375 C 1.28125 -9.617188 1.316406 -9.726562 1.390625 -9.8125 C 1.472656 -9.894531 1.582031 -9.9375 1.71875 -9.9375 C 1.875 -9.9375 2 -9.867188 2.09375 -9.734375 L 8.203125 -1.46875 L 8.203125 -9.484375 C 8.203125 -9.617188 8.238281 -9.726562 8.3125 -9.8125 C 8.382812 -9.894531 8.484375 -9.9375 8.609375 -9.9375 Z M 8.609375 -9.9375 "/></g></g></g><g fill="#ff6100" fill-opacity="1"><g transform="translate(223.428854, 258.592761)"><g><path d="M 4.125 0.0625 C 4 0.0625 3.894531 0.0195312 3.8125 -0.0625 C 3.738281 -0.144531 3.703125 -0.25 3.703125 -0.375 L 3.703125 -9.109375 L 0.46875 -9.109375 C 0.351562 -9.109375 0.257812 -9.140625 0.1875 -9.203125 C 0.113281 -9.273438 0.078125 -9.367188 0.078125 -9.484375 C 0.078125 -9.609375 0.113281 -9.703125 0.1875 -9.765625 C 0.257812 -9.835938 0.351562 -9.875 0.46875 -9.875 L 7.78125 -9.875 C 7.894531 -9.875 7.988281 -9.835938 8.0625 -9.765625 C 8.132812 -9.691406 8.171875 -9.597656 8.171875 -9.484375 C 8.171875 -9.378906 8.132812 -9.289062 8.0625 -9.21875 C 7.988281 -9.144531 7.894531 -9.109375 7.78125 -9.109375 L 4.5625 -9.109375 L 4.5625 -0.375 C 4.5625 -0.25 4.519531 -0.144531 4.4375 -0.0625 C 4.363281 0.0195312 4.257812 0.0625 4.125 0.0625 Z M 4.125 0.0625 "/></g></g></g><g fill="#ff6100" fill-opacity="1"><g transform="translate(233.084245, 258.592761)"><g><path d="M 5.296875 0.109375 C 4.398438 0.109375 3.617188 -0.09375 2.953125 -0.5 C 2.285156 -0.90625 1.773438 -1.488281 1.421875 -2.25 C 1.066406 -3.007812 0.890625 -3.898438 0.890625 -4.921875 C 0.890625 -5.960938 1.066406 -6.863281 1.421875 -7.625 C 1.773438 -8.382812 2.28125 -8.96875 2.9375 -9.375 C 3.601562 -9.78125 4.390625 -9.984375 5.296875 -9.984375 C 6.203125 -9.984375 6.984375 -9.78125 7.640625 -9.375 C 8.304688 -8.96875 8.816406 -8.382812 9.171875 -7.625 C 9.523438 -6.875 9.703125 -5.976562 9.703125 -4.9375 C 9.703125 -3.90625 9.523438 -3.007812 9.171875 -2.25 C 8.816406 -1.488281 8.304688 -0.90625 7.640625 -0.5 C 6.984375 -0.09375 6.203125 0.109375 5.296875 0.109375 Z M 5.296875 -0.65625 C 6.398438 -0.65625 7.257812 -1.023438 7.875 -1.765625 C 8.5 -2.515625 8.8125 -3.570312 8.8125 -4.9375 C 8.8125 -6.300781 8.503906 -7.351562 7.890625 -8.09375 C 7.273438 -8.84375 6.410156 -9.21875 5.296875 -9.21875 C 4.179688 -9.21875 3.316406 -8.84375 2.703125 -8.09375 C 2.097656 -7.34375 1.796875 -6.289062 1.796875 -4.9375 C 1.796875 -3.582031 2.097656 -2.53125 2.703125 -1.78125 C 3.316406 -1.03125 4.179688 -0.65625 5.296875 -0.65625 Z M 5.296875 -0.65625 "/></g></g></g><g fill="#ff6100" fill-opacity="1"><g transform="translate(245.076336, 258.592761)"><g/></g></g><g fill="#ff6100" fill-opacity="1"><g transform="translate(250.002365, 258.592761)"><g><path d="M 14.015625 -9.6875 C 14.078125 -9.863281 14.195312 -9.953125 14.375 -9.953125 C 14.488281 -9.953125 14.585938 -9.914062 14.671875 -9.84375 C 14.765625 -9.769531 14.8125 -9.675781 14.8125 -9.5625 C 14.8125 -9.539062 14.800781 -9.492188 14.78125 -9.421875 L 11.53125 -0.234375 C 11.5 -0.128906 11.4375 -0.0507812 11.34375 0 C 11.257812 0.0507812 11.164062 0.078125 11.0625 0.078125 C 10.96875 0.078125 10.878906 0.0507812 10.796875 0 C 10.710938 -0.0507812 10.648438 -0.128906 10.609375 -0.234375 L 7.6875 -8.53125 L 4.734375 -0.234375 C 4.691406 -0.128906 4.628906 -0.0507812 4.546875 0 C 4.460938 0.0507812 4.367188 0.078125 4.265625 0.078125 C 4.171875 0.078125 4.082031 0.0507812 4 0 C 3.914062 -0.0507812 3.859375 -0.128906 3.828125 -0.234375 L 0.578125 -9.421875 C 0.554688 -9.492188 0.546875 -9.546875 0.546875 -9.578125 C 0.546875 -9.691406 0.585938 -9.78125 0.671875 -9.84375 C 0.753906 -9.914062 0.851562 -9.953125 0.96875 -9.953125 C 1.050781 -9.953125 1.125 -9.925781 1.1875 -9.875 C 1.25 -9.832031 1.300781 -9.769531 1.34375 -9.6875 L 4.296875 -1.203125 L 7.234375 -9.578125 C 7.273438 -9.691406 7.332031 -9.773438 7.40625 -9.828125 C 7.488281 -9.878906 7.578125 -9.90625 7.671875 -9.90625 C 7.773438 -9.90625 7.867188 -9.875 7.953125 -9.8125 C 8.035156 -9.757812 8.097656 -9.675781 8.140625 -9.5625 L 11.0625 -1.203125 Z M 14.015625 -9.6875 "/></g></g></g><g fill="#ff6100" fill-opacity="1"><g transform="translate(266.737803, 258.592761)"><g><path d="M 1.734375 0 C 1.609375 0 1.5 -0.0390625 1.40625 -0.125 C 1.320312 -0.207031 1.28125 -0.3125 1.28125 -0.4375 L 1.28125 -9.4375 C 1.28125 -9.5625 1.320312 -9.664062 1.40625 -9.75 C 1.5 -9.832031 1.609375 -9.875 1.734375 -9.875 L 7.0625 -9.875 C 7.175781 -9.875 7.269531 -9.835938 7.34375 -9.765625 C 7.414062 -9.703125 7.453125 -9.609375 7.453125 -9.484375 C 7.453125 -9.378906 7.414062 -9.289062 7.34375 -9.21875 C 7.269531 -9.15625 7.175781 -9.125 7.0625 -9.125 L 2.125 -9.125 L 2.125 -5.390625 L 6.78125 -5.390625 C 6.894531 -5.390625 6.988281 -5.351562 7.0625 -5.28125 C 7.132812 -5.21875 7.171875 -5.128906 7.171875 -5.015625 C 7.171875 -4.890625 7.132812 -4.796875 7.0625 -4.734375 C 6.988281 -4.671875 6.894531 -4.640625 6.78125 -4.640625 L 2.125 -4.640625 L 2.125 -0.734375 L 7.0625 -0.734375 C 7.175781 -0.734375 7.269531 -0.703125 7.34375 -0.640625 C 7.414062 -0.585938 7.453125 -0.5 7.453125 -0.375 C 7.453125 -0.257812 7.414062 -0.164062 7.34375 -0.09375 C 7.269531 -0.03125 7.175781 0 7.0625 0 Z M 1.734375 0 "/></g></g></g><g fill="#ff6100" fill-opacity="1"><g transform="translate(276.239283, 258.592761)"><g><path d="M 6.671875 -5.046875 C 7.242188 -4.910156 7.6875 -4.632812 8 -4.21875 C 8.3125 -3.800781 8.46875 -3.285156 8.46875 -2.671875 C 8.46875 -1.804688 8.1875 -1.144531 7.625 -0.6875 C 7.0625 -0.226562 6.257812 0 5.21875 0 L 1.734375 0 C 1.609375 0 1.5 -0.0390625 1.40625 -0.125 C 1.320312 -0.207031 1.28125 -0.3125 1.28125 -0.4375 L 1.28125 -9.4375 C 1.28125 -9.5625 1.320312 -9.664062 1.40625 -9.75 C 1.5 -9.832031 1.609375 -9.875 1.734375 -9.875 L 5.078125 -9.875 C 6.085938 -9.875 6.867188 -9.648438 7.421875 -9.203125 C 7.972656 -8.753906 8.25 -8.113281 8.25 -7.28125 C 8.25 -6.75 8.109375 -6.289062 7.828125 -5.90625 C 7.554688 -5.519531 7.171875 -5.234375 6.671875 -5.046875 Z M 2.125 -5.390625 L 4.953125 -5.390625 C 5.742188 -5.390625 6.34375 -5.550781 6.75 -5.875 C 7.164062 -6.207031 7.375 -6.679688 7.375 -7.296875 C 7.375 -8.515625 6.566406 -9.125 4.953125 -9.125 L 2.125 -9.125 Z M 5.171875 -0.734375 C 5.992188 -0.734375 6.601562 -0.890625 7 -1.203125 C 7.40625 -1.523438 7.609375 -2.003906 7.609375 -2.640625 C 7.609375 -3.972656 6.796875 -4.640625 5.171875 -4.640625 L 2.125 -4.640625 L 2.125 -0.734375 Z M 5.171875 -0.734375 "/></g></g></g><g clip-path="url(#dddb5f2219)"><path fill="#ff6100" d="M 217.632812 170.46875 L 118.375 170.46875 L 118.375 117.761719 C 118.375 117.523438 118.566406 117.335938 118.800781 117.335938 L 217.207031 117.335938 C 217.4375 117.335938 217.632812 117.523438 217.632812 117.761719 Z M 178.882812 180.679688 C 178.371094 181.191406 177.664062 181.507812 176.886719 181.507812 L 159.121094 181.507812 C 157.558594 181.507812 156.292969 180.242188 156.292969 178.679688 C 156.292969 177.898438 156.609375 177.191406 157.121094 176.679688 C 157.632812 176.167969 158.339844 175.851562 159.121094 175.851562 L 176.886719 175.851562 C 178.445312 175.851562 179.710938 177.117188 179.710938 178.679688 C 179.710938 179.460938 179.394531 180.167969 178.882812 180.679688 Z M 217.207031 112.585938 L 118.800781 112.585938 C 115.949219 112.585938 113.625 114.910156 113.625 117.761719 L 113.625 180.375 C 113.625 183.226562 115.949219 185.546875 118.800781 185.546875 L 217.207031 185.546875 C 220.058594 185.546875 222.378906 183.226562 222.378906 180.375 L 222.378906 117.761719 C 222.378906 114.910156 220.058594 112.585938 217.207031 112.585938 " fill-opacity="1" fill-rule="nonzero"/></g><path fill="#ff6100" d="M 178.289062 178.679688 C 178.289062 179.054688 178.140625 179.410156 177.875 179.675781 C 177.609375 179.9375 177.261719 180.085938 176.886719 180.085938 L 159.121094 180.085938 C 158.347656 180.085938 157.71875 179.453125 157.71875 178.679688 C 157.71875 178.304688 157.863281 177.953125 158.132812 177.683594 C 158.394531 177.421875 158.746094 177.277344 159.121094 177.277344 L 176.886719 177.277344 C 177.65625 177.277344 178.289062 177.90625 178.289062 178.679688 " fill-opacity="1" fill-rule="nonzero"/><g clip-path="url(#a645485dc1)"><path fill="#ff6100" d="M 199.984375 202.519531 L 136.023438 202.519531 C 137.292969 198.792969 140.824219 196.105469 144.976562 196.105469 L 191.03125 196.105469 C 195.183594 196.105469 198.714844 198.792969 199.984375 202.519531 " fill-opacity="1" fill-rule="nonzero"/></g><path fill="#ff6100" d="M 180.179688 194.386719 L 155.828125 194.386719 L 158.222656 187.265625 L 177.78125 187.265625 L 180.179688 194.386719 " fill-opacity="1" fill-rule="nonzero"/><g clip-path="url(#39e1111445)"><path fill="#8ac0c8" d="M 146.558594 124.78125 L 142.378906 124.78125 L 142.378906 126.429688 L 146.558594 126.429688 Z M 147.960938 128.515625 L 134.355469 128.515625 L 134.355469 130.167969 L 147.960938 130.167969 Z M 166.503906 132.253906 L 159.941406 132.253906 L 159.941406 133.90625 L 166.503906 133.90625 Z M 143.058594 135.992188 L 134.355469 135.992188 L 134.355469 137.644531 L 143.058594 137.644531 Z M 153.21875 139.730469 L 134.355469 139.730469 L 134.355469 141.378906 L 153.21875 141.378906 Z M 165.382812 141.378906 L 184.246094 141.378906 L 184.246094 139.730469 L 165.382812 139.730469 Z M 179.289062 150.941406 L 179.289062 152.59375 L 191.644531 152.59375 L 191.644531 150.941406 Z M 148.355469 152.59375 L 177.648438 152.59375 L 177.648438 150.941406 L 148.355469 150.941406 Z M 134.355469 156.332031 L 146.445312 156.332031 L 146.445312 154.679688 L 134.355469 154.679688 L 134.355469 156.332031 " fill-opacity="1" fill-rule="nonzero"/></g><path fill="#18bd9c" d="M 172.210938 128.515625 L 158.609375 128.515625 L 158.609375 130.167969 L 172.210938 130.167969 Z M 158.300781 132.253906 L 134.355469 132.253906 L 134.355469 133.90625 L 158.300781 133.90625 Z M 154.59375 145.117188 L 171.050781 145.117188 L 171.050781 143.46875 L 154.59375 143.46875 Z M 146.710938 150.941406 L 134.355469 150.941406 L 134.355469 152.59375 L 146.710938 152.59375 Z M 169.839844 154.679688 L 169.839844 156.332031 L 173.371094 156.332031 L 173.371094 154.679688 Z M 141.933594 160.070312 L 169.980469 160.070312 L 169.980469 158.417969 L 141.933594 158.417969 L 141.933594 160.070312 " fill-opacity="1" fill-rule="nonzero"/><g clip-path="url(#00fa85973b)"><path fill="#fcde82" d="M 125.644531 122.691406 L 127.289062 122.691406 L 127.289062 121.042969 L 125.644531 121.042969 Z M 125.644531 126.429688 L 127.289062 126.429688 L 127.289062 124.78125 L 125.644531 124.78125 Z M 156.964844 128.515625 L 149.601562 128.515625 L 149.601562 130.167969 L 156.964844 130.167969 Z M 125.644531 130.167969 L 127.289062 130.167969 L 127.289062 128.515625 L 125.644531 128.515625 Z M 125.644531 133.90625 L 127.289062 133.90625 L 127.289062 132.253906 L 125.644531 132.253906 Z M 162.757812 135.992188 L 144.699219 135.992188 L 144.699219 137.644531 L 162.757812 137.644531 Z M 125.644531 137.644531 L 127.289062 137.644531 L 127.289062 135.992188 L 125.644531 135.992188 Z M 125.644531 141.378906 L 127.289062 141.378906 L 127.289062 139.730469 L 125.644531 139.730469 Z M 152.953125 143.46875 L 134.355469 143.46875 L 134.355469 145.117188 L 152.953125 145.117188 Z M 125.644531 145.117188 L 127.289062 145.117188 L 127.289062 143.46875 L 125.644531 143.46875 Z M 125.644531 148.855469 L 127.289062 148.855469 L 127.289062 147.207031 L 125.644531 147.207031 Z M 125.644531 152.59375 L 127.289062 152.59375 L 127.289062 150.941406 L 125.644531 150.941406 Z M 148.085938 154.679688 L 148.085938 156.332031 L 168.199219 156.332031 L 168.199219 154.679688 Z M 125.644531 156.332031 L 127.289062 156.332031 L 127.289062 154.679688 L 125.644531 154.679688 Z M 134.355469 160.070312 L 140.292969 160.070312 L 140.292969 158.417969 L 134.355469 158.417969 Z M 125.644531 160.070312 L 127.289062 160.070312 L 127.289062 158.417969 L 125.644531 158.417969 Z M 125.644531 163.804688 L 127.289062 163.804688 L 127.289062 162.15625 L 125.644531 162.15625 Z M 130.128906 168.195312 L 130.933594 168.195312 L 130.933594 119.640625 L 130.128906 119.640625 L 130.128906 168.195312 " fill-opacity="1" fill-rule="nonzero"/></g><g clip-path="url(#b4a1939cf3)"><path fill="#f49c10" d="M 140.738281 124.78125 L 132.382812 124.78125 L 132.382812 126.429688 L 140.738281 126.429688 Z M 168.144531 132.253906 L 168.144531 133.90625 L 178.363281 133.90625 L 178.363281 132.253906 Z M 154.859375 141.378906 L 163.742188 141.378906 L 163.742188 139.730469 L 154.859375 139.730469 Z M 132.382812 148.855469 L 141.539062 148.855469 L 141.539062 147.207031 L 132.382812 147.207031 Z M 138.242188 162.15625 L 132.382812 162.15625 L 132.382812 163.804688 L 138.242188 163.804688 Z M 137.582031 123.449219 C 137.652344 123.449219 137.71875 123.425781 137.769531 123.371094 L 140.226562 120.902344 C 140.332031 120.800781 140.332031 120.628906 140.226562 120.523438 C 140.125 120.417969 139.953125 120.417969 139.847656 120.523438 L 137.394531 122.992188 C 137.289062 123.097656 137.289062 123.265625 137.394531 123.371094 C 137.445312 123.425781 137.515625 123.449219 137.582031 123.449219 Z M 135.542969 123.519531 C 135.59375 123.570312 135.660156 123.597656 135.730469 123.597656 C 135.796875 123.597656 135.867188 123.570312 135.917969 123.519531 C 136.023438 123.414062 136.023438 123.246094 135.921875 123.140625 L 134.734375 121.949219 L 135.917969 120.757812 C 136.023438 120.652344 136.023438 120.480469 135.917969 120.375 C 135.816406 120.269531 135.644531 120.269531 135.542969 120.375 L 134.167969 121.757812 C 134.0625 121.863281 134.0625 122.03125 134.167969 122.136719 Z M 142.152344 120.375 C 142.046875 120.269531 141.878906 120.269531 141.773438 120.375 C 141.671875 120.480469 141.671875 120.652344 141.773438 120.757812 L 141.773438 120.753906 L 142.960938 121.945312 L 141.773438 123.140625 C 141.671875 123.242188 141.671875 123.414062 141.773438 123.519531 C 141.828125 123.574219 141.894531 123.597656 141.964844 123.597656 C 142.03125 123.597656 142.101562 123.574219 142.152344 123.519531 L 143.527344 122.136719 C 143.578125 122.085938 143.605469 122.019531 143.605469 121.949219 C 143.605469 121.875 143.578125 121.808594 143.527344 121.757812 Z M 142.152344 165.109375 C 142.046875 165.003906 141.878906 165.003906 141.773438 165.109375 C 141.671875 165.210938 141.671875 165.382812 141.773438 165.488281 L 142.960938 166.679688 L 141.773438 167.871094 C 141.667969 167.976562 141.667969 168.144531 141.773438 168.25 C 141.828125 168.304688 141.894531 168.332031 141.964844 168.332031 C 142.03125 168.332031 142.101562 168.304688 142.152344 168.25 L 143.527344 166.871094 C 143.578125 166.820312 143.605469 166.75 143.605469 166.679688 C 143.605469 166.609375 143.578125 166.539062 143.527344 166.488281 Z M 135.921875 165.109375 C 135.816406 165.003906 135.644531 165.003906 135.542969 165.109375 L 134.167969 166.488281 C 134.0625 166.59375 134.0625 166.765625 134.167969 166.871094 L 135.542969 168.25 C 135.59375 168.304688 135.664062 168.328125 135.730469 168.328125 C 135.800781 168.328125 135.867188 168.304688 135.921875 168.25 C 136.023438 168.144531 136.023438 167.976562 135.921875 167.871094 L 134.734375 166.679688 L 135.921875 165.488281 C 136.023438 165.382812 136.023438 165.210938 135.921875 165.109375 Z M 139.847656 165.253906 L 137.394531 167.722656 C 137.289062 167.828125 137.289062 168 137.394531 168.105469 C 137.445312 168.15625 137.515625 168.183594 137.582031 168.183594 C 137.652344 168.183594 137.71875 168.15625 137.773438 168.105469 L 140.226562 165.636719 C 140.332031 165.53125 140.332031 165.359375 140.226562 165.253906 C 140.125 165.148438 139.953125 165.148438 139.847656 165.253906 " fill-opacity="1" fill-rule="nonzero"/></g><g clip-path="url(#ebab523d51)"><path fill="#ffffff" d="M 204.699219 143.957031 L 246.886719 143.957031 L 246.886719 198.449219 L 204.699219 198.449219 Z M 204.699219 143.957031 " fill-opacity="1" fill-rule="nonzero"/></g><g clip-path="url(#c737cb5584)"><path fill="#000000" d="M 246.335938 198.769531 L 204.671875 198.769531 L 204.671875 144.570312 L 246.335938 144.570312 Z M 225.503906 202.179688 C 224.765625 202.179688 224.164062 201.570312 224.164062 200.820312 C 224.164062 200.074219 224.765625 199.464844 225.503906 199.464844 C 226.246094 199.464844 226.84375 200.074219 226.84375 200.820312 C 226.84375 201.570312 226.246094 202.179688 225.503906 202.179688 Z M 225.34375 143.023438 C 225.523438 142.9375 225.734375 143.007812 225.824219 143.1875 C 225.910156 143.367188 225.839844 143.582031 225.664062 143.671875 C 225.488281 143.761719 225.273438 143.6875 225.183594 143.507812 C 225.097656 143.332031 225.167969 143.113281 225.34375 143.023438 Z M 246.042969 142.125 L 204.964844 142.125 C 203.472656 142.125 202.261719 143.351562 202.261719 144.863281 L 202.261719 200.136719 C 202.261719 201.648438 203.472656 202.875 204.964844 202.875 L 246.042969 202.875 C 247.535156 202.875 248.75 201.648438 248.75 200.136719 L 248.75 144.863281 C 248.75 143.351562 247.535156 142.125 246.042969 142.125 " fill-opacity="1" fill-rule="nonzero"/></g><g clip-path="url(#aee2ee99c7)"><path fill="#8ac0c8" d="M 219.445312 148.992188 L 217.261719 148.992188 L 217.261719 149.855469 L 219.445312 149.855469 Z M 220.179688 150.949219 L 213.066406 150.949219 L 213.066406 151.8125 L 220.179688 151.8125 Z M 229.871094 152.902344 L 226.441406 152.902344 L 226.441406 153.765625 L 229.871094 153.765625 Z M 217.617188 154.859375 L 213.066406 154.859375 L 213.066406 155.722656 L 217.617188 155.722656 Z M 222.929688 156.816406 L 213.066406 156.816406 L 213.066406 157.675781 L 222.929688 157.675781 Z M 229.285156 157.675781 L 239.148438 157.675781 L 239.148438 156.816406 L 229.285156 156.816406 Z M 236.554688 162.679688 L 236.554688 163.542969 L 243.015625 163.542969 L 243.015625 162.679688 Z M 220.382812 163.542969 L 235.695312 163.542969 L 235.695312 162.679688 L 220.382812 162.679688 Z M 213.066406 165.5 L 219.386719 165.5 L 219.386719 164.636719 L 213.066406 164.636719 L 213.066406 165.5 " fill-opacity="1" fill-rule="nonzero"/></g><path fill="#18bd9c" d="M 232.855469 150.949219 L 225.746094 150.949219 L 225.746094 151.8125 L 232.855469 151.8125 Z M 225.585938 152.902344 L 213.066406 152.902344 L 213.066406 153.765625 L 225.585938 153.765625 Z M 223.648438 159.632812 L 232.25 159.632812 L 232.25 158.769531 L 223.648438 158.769531 Z M 219.527344 162.679688 L 213.066406 162.679688 L 213.066406 163.542969 L 219.527344 163.542969 Z M 231.617188 164.636719 L 231.617188 165.5 L 233.460938 165.5 L 233.460938 164.636719 Z M 217.03125 167.453125 L 231.691406 167.453125 L 231.691406 166.589844 L 217.03125 166.589844 L 217.03125 167.453125 " fill-opacity="1" fill-rule="nonzero"/><g clip-path="url(#2bed304468)"><path fill="#fcde82" d="M 208.515625 147.902344 L 209.371094 147.902344 L 209.371094 147.039062 L 208.515625 147.039062 Z M 208.515625 149.855469 L 209.371094 149.855469 L 209.371094 148.992188 L 208.515625 148.992188 Z M 224.886719 150.949219 L 221.039062 150.949219 L 221.039062 151.8125 L 224.886719 151.8125 Z M 208.515625 151.8125 L 209.371094 151.8125 L 209.371094 150.949219 L 208.515625 150.949219 Z M 208.515625 153.765625 L 209.371094 153.765625 L 209.371094 152.902344 L 208.515625 152.902344 Z M 227.914062 154.859375 L 218.472656 154.859375 L 218.472656 155.722656 L 227.914062 155.722656 Z M 208.515625 155.722656 L 209.371094 155.722656 L 209.371094 154.859375 L 208.515625 154.859375 Z M 208.515625 157.675781 L 209.371094 157.675781 L 209.371094 156.816406 L 208.515625 156.816406 Z M 222.789062 158.769531 L 213.066406 158.769531 L 213.066406 159.632812 L 222.789062 159.632812 Z M 208.515625 159.632812 L 209.371094 159.632812 L 209.371094 158.769531 L 208.515625 158.769531 Z M 208.515625 161.585938 L 209.371094 161.585938 L 209.371094 160.726562 L 208.515625 160.726562 Z M 208.515625 163.542969 L 209.371094 163.542969 L 209.371094 162.679688 L 208.515625 162.679688 Z M 220.246094 164.636719 L 220.246094 165.5 L 230.757812 165.5 L 230.757812 164.636719 Z M 208.515625 165.5 L 209.371094 165.5 L 209.371094 164.636719 L 208.515625 164.636719 Z M 213.066406 167.453125 L 216.171875 167.453125 L 216.171875 166.589844 L 213.066406 166.589844 Z M 208.515625 167.453125 L 209.371094 167.453125 L 209.371094 166.589844 L 208.515625 166.589844 Z M 208.515625 169.410156 L 209.371094 169.410156 L 209.371094 168.546875 L 208.515625 168.546875 Z M 210.859375 171.707031 L 211.277344 171.707031 L 211.277344 146.304688 L 210.859375 146.304688 L 210.859375 171.707031 " fill-opacity="1" fill-rule="nonzero"/></g><g clip-path="url(#1657bf4557)"><path fill="#f49c10" d="M 216.402344 148.992188 L 212.039062 148.992188 L 212.039062 149.855469 L 216.402344 149.855469 Z M 230.730469 152.902344 L 230.730469 153.765625 L 236.070312 153.765625 L 236.070312 152.902344 Z M 223.785156 157.675781 L 228.429688 157.675781 L 228.429688 156.816406 L 223.785156 156.816406 Z M 212.039062 161.585938 L 216.824219 161.585938 L 216.824219 160.726562 L 212.039062 160.726562 Z M 215.097656 168.546875 L 212.039062 168.546875 L 212.039062 169.410156 L 215.097656 169.410156 Z M 214.753906 148.296875 C 214.789062 148.296875 214.824219 148.285156 214.851562 148.257812 L 216.136719 146.964844 C 216.191406 146.910156 216.191406 146.820312 216.136719 146.765625 C 216.082031 146.710938 215.992188 146.710938 215.9375 146.765625 L 214.65625 148.058594 C 214.601562 148.113281 214.601562 148.203125 214.65625 148.257812 C 214.683594 148.285156 214.71875 148.296875 214.753906 148.296875 Z M 213.6875 148.335938 C 213.714844 148.363281 213.75 148.375 213.785156 148.375 C 213.820312 148.375 213.859375 148.363281 213.886719 148.335938 C 213.941406 148.28125 213.941406 148.191406 213.886719 148.136719 L 213.265625 147.511719 L 213.886719 146.890625 C 213.941406 146.832031 213.941406 146.746094 213.886719 146.691406 C 213.832031 146.636719 213.742188 146.636719 213.6875 146.691406 L 212.96875 147.414062 C 212.914062 147.46875 212.914062 147.554688 212.96875 147.613281 Z M 217.144531 146.691406 C 217.089844 146.636719 217 146.636719 216.945312 146.691406 C 216.890625 146.746094 216.890625 146.835938 216.945312 146.890625 L 216.945312 146.886719 L 217.566406 147.511719 L 216.945312 148.136719 C 216.890625 148.191406 216.890625 148.28125 216.945312 148.335938 C 216.972656 148.363281 217.007812 148.375 217.042969 148.375 C 217.078125 148.375 217.117188 148.363281 217.144531 148.335938 L 217.863281 147.613281 C 217.886719 147.585938 217.902344 147.550781 217.902344 147.511719 C 217.902344 147.472656 217.886719 147.4375 217.863281 147.414062 Z M 217.144531 170.089844 C 217.089844 170.035156 217 170.035156 216.945312 170.089844 C 216.890625 170.144531 216.890625 170.234375 216.945312 170.289062 L 217.566406 170.910156 L 216.945312 171.535156 C 216.890625 171.589844 216.890625 171.679688 216.945312 171.734375 C 216.972656 171.761719 217.007812 171.777344 217.042969 171.777344 C 217.078125 171.777344 217.117188 171.761719 217.144531 171.734375 L 217.863281 171.011719 C 217.886719 170.984375 217.902344 170.949219 217.902344 170.910156 C 217.902344 170.875 217.886719 170.839844 217.863281 170.8125 Z M 213.886719 170.089844 C 213.832031 170.035156 213.742188 170.035156 213.6875 170.089844 L 212.96875 170.8125 C 212.914062 170.867188 212.914062 170.957031 212.96875 171.011719 L 213.6875 171.734375 C 213.714844 171.761719 213.75 171.773438 213.785156 171.773438 C 213.824219 171.773438 213.859375 171.761719 213.886719 171.734375 C 213.941406 171.679688 213.941406 171.589844 213.886719 171.535156 L 213.265625 170.910156 L 213.886719 170.289062 C 213.941406 170.234375 213.941406 170.144531 213.886719 170.089844 Z M 215.9375 170.167969 L 214.65625 171.457031 C 214.601562 171.511719 214.601562 171.601562 214.65625 171.65625 C 214.683594 171.683594 214.71875 171.699219 214.753906 171.699219 C 214.789062 171.699219 214.824219 171.683594 214.851562 171.65625 L 216.136719 170.367188 C 216.191406 170.3125 216.191406 170.222656 216.136719 170.167969 C 216.082031 170.113281 215.992188 170.113281 215.9375 170.167969 " fill-opacity="1" fill-rule="nonzero"/></g><g clip-path="url(#58128c4de0)"><path fill="#8ac0c8" d="M 219.480469 175.097656 L 217.296875 175.097656 L 217.296875 175.960938 L 219.480469 175.960938 Z M 220.214844 177.054688 L 213.105469 177.054688 L 213.105469 177.917969 L 220.214844 177.917969 Z M 229.910156 179.007812 L 226.480469 179.007812 L 226.480469 179.875 L 229.910156 179.875 Z M 217.652344 180.964844 L 213.105469 180.964844 L 213.105469 181.828125 L 217.652344 181.828125 Z M 222.964844 182.921875 L 213.105469 182.921875 L 213.105469 183.785156 L 222.964844 183.785156 Z M 229.324219 183.785156 L 239.183594 183.785156 L 239.183594 182.921875 L 229.324219 182.921875 Z M 236.589844 188.785156 L 236.589844 189.648438 L 243.050781 189.648438 L 243.050781 188.785156 Z M 220.421875 189.648438 L 235.734375 189.648438 L 235.734375 188.785156 L 220.421875 188.785156 Z M 213.105469 191.605469 L 219.421875 191.605469 L 219.421875 190.742188 L 213.105469 190.742188 L 213.105469 191.605469 " fill-opacity="1" fill-rule="nonzero"/></g><path fill="#18bd9c" d="M 232.890625 177.054688 L 225.78125 177.054688 L 225.78125 177.917969 L 232.890625 177.917969 Z M 225.621094 179.007812 L 213.105469 179.007812 L 213.105469 179.875 L 225.621094 179.875 Z M 223.683594 185.738281 L 232.285156 185.738281 L 232.285156 184.875 L 223.683594 184.875 Z M 219.5625 188.785156 L 213.105469 188.785156 L 213.105469 189.648438 L 219.5625 189.648438 Z M 231.652344 190.742188 L 231.652344 191.605469 L 233.496094 191.605469 L 233.496094 190.742188 Z M 217.066406 193.558594 L 231.726562 193.558594 L 231.726562 192.695312 L 217.066406 192.695312 L 217.066406 193.558594 " fill-opacity="1" fill-rule="nonzero"/><g clip-path="url(#839e146f77)"><path fill="#fcde82" d="M 208.550781 174.007812 L 209.410156 174.007812 L 209.410156 173.144531 L 208.550781 173.144531 Z M 208.550781 175.960938 L 209.410156 175.960938 L 209.410156 175.097656 L 208.550781 175.097656 Z M 224.921875 177.054688 L 221.074219 177.054688 L 221.074219 177.917969 L 224.921875 177.917969 Z M 208.550781 177.917969 L 209.410156 177.917969 L 209.410156 177.054688 L 208.550781 177.054688 Z M 208.550781 179.875 L 209.410156 179.875 L 209.410156 179.007812 L 208.550781 179.007812 Z M 227.953125 180.964844 L 218.511719 180.964844 L 218.511719 181.828125 L 227.953125 181.828125 Z M 208.550781 181.828125 L 209.410156 181.828125 L 209.410156 180.964844 L 208.550781 180.964844 Z M 208.550781 183.785156 L 209.410156 183.785156 L 209.410156 182.921875 L 208.550781 182.921875 Z M 222.824219 184.875 L 213.105469 184.875 L 213.105469 185.738281 L 222.824219 185.738281 Z M 208.550781 185.738281 L 209.410156 185.738281 L 209.410156 184.875 L 208.550781 184.875 Z M 208.550781 187.695312 L 209.410156 187.695312 L 209.410156 186.832031 L 208.550781 186.832031 Z M 208.550781 189.648438 L 209.410156 189.648438 L 209.410156 188.785156 L 208.550781 188.785156 Z M 220.28125 190.742188 L 220.28125 191.605469 L 230.792969 191.605469 L 230.792969 190.742188 Z M 208.550781 191.605469 L 209.410156 191.605469 L 209.410156 190.742188 L 208.550781 190.742188 Z M 213.105469 193.558594 L 216.207031 193.558594 L 216.207031 192.695312 L 213.105469 192.695312 Z M 208.550781 193.558594 L 209.410156 193.558594 L 209.410156 192.695312 L 208.550781 192.695312 Z M 208.550781 195.515625 L 209.410156 195.515625 L 209.410156 194.652344 L 208.550781 194.652344 Z M 210.894531 197.8125 L 211.3125 197.8125 L 211.3125 172.410156 L 210.894531 172.410156 L 210.894531 197.8125 " fill-opacity="1" fill-rule="nonzero"/></g><g clip-path="url(#df032b9141)"><path fill="#f49c10" d="M 216.441406 175.097656 L 212.074219 175.097656 L 212.074219 175.960938 L 216.441406 175.960938 Z M 230.765625 179.007812 L 230.765625 179.875 L 236.105469 179.875 L 236.105469 179.007812 Z M 223.824219 183.785156 L 228.464844 183.785156 L 228.464844 182.921875 L 223.824219 182.921875 Z M 212.074219 187.695312 L 216.859375 187.695312 L 216.859375 186.832031 L 212.074219 186.832031 Z M 215.136719 194.652344 L 212.074219 194.652344 L 212.074219 195.515625 L 215.136719 195.515625 Z M 214.789062 174.402344 C 214.828125 174.402344 214.863281 174.390625 214.890625 174.363281 L 216.171875 173.070312 C 216.226562 173.015625 216.226562 172.925781 216.171875 172.871094 C 216.117188 172.816406 216.03125 172.816406 215.976562 172.871094 L 214.691406 174.164062 C 214.636719 174.21875 214.636719 174.308594 214.691406 174.363281 C 214.71875 174.390625 214.753906 174.402344 214.789062 174.402344 Z M 213.722656 174.441406 C 213.75 174.46875 213.785156 174.480469 213.824219 174.480469 C 213.859375 174.480469 213.894531 174.46875 213.921875 174.441406 C 213.976562 174.386719 213.976562 174.296875 213.921875 174.242188 L 213.300781 173.617188 L 213.921875 172.996094 C 213.976562 172.9375 213.976562 172.851562 213.921875 172.796875 C 213.867188 172.742188 213.777344 172.742188 213.722656 172.796875 L 213.003906 173.519531 C 212.949219 173.574219 212.949219 173.660156 213.003906 173.71875 Z M 217.179688 172.796875 C 217.125 172.742188 217.035156 172.742188 216.980469 172.796875 C 216.925781 172.851562 216.925781 172.941406 216.980469 172.996094 L 216.980469 172.992188 L 217.601562 173.617188 L 216.980469 174.242188 C 216.925781 174.296875 216.925781 174.386719 216.980469 174.441406 C 217.007812 174.46875 217.046875 174.480469 217.082031 174.480469 C 217.117188 174.480469 217.152344 174.46875 217.179688 174.441406 L 217.898438 173.71875 C 217.925781 173.691406 217.9375 173.65625 217.9375 173.617188 C 217.9375 173.578125 217.925781 173.542969 217.898438 173.519531 Z M 217.179688 196.195312 C 217.125 196.140625 217.035156 196.140625 216.980469 196.195312 C 216.925781 196.25 216.925781 196.339844 216.980469 196.394531 L 217.601562 197.019531 L 216.980469 197.640625 C 216.925781 197.695312 216.925781 197.785156 216.980469 197.839844 C 217.007812 197.867188 217.042969 197.882812 217.082031 197.882812 C 217.117188 197.882812 217.152344 197.867188 217.179688 197.839844 L 217.898438 197.117188 C 217.925781 197.089844 217.9375 197.054688 217.9375 197.019531 C 217.9375 196.980469 217.925781 196.945312 217.898438 196.917969 Z M 213.921875 196.195312 C 213.867188 196.140625 213.777344 196.140625 213.722656 196.195312 L 213.003906 196.917969 C 212.949219 196.972656 212.949219 197.0625 213.003906 197.117188 L 213.722656 197.839844 C 213.75 197.867188 213.785156 197.878906 213.824219 197.878906 C 213.859375 197.878906 213.894531 197.867188 213.921875 197.839844 C 213.976562 197.785156 213.976562 197.695312 213.921875 197.640625 L 213.300781 197.019531 L 213.921875 196.394531 C 213.976562 196.339844 213.976562 196.25 213.921875 196.195312 Z M 215.976562 196.273438 L 214.691406 197.5625 C 214.636719 197.617188 214.636719 197.707031 214.691406 197.761719 C 214.71875 197.789062 214.753906 197.804688 214.789062 197.804688 C 214.828125 197.804688 214.863281 197.789062 214.890625 197.761719 L 216.171875 196.472656 C 216.226562 196.417969 216.226562 196.328125 216.171875 196.273438 C 216.117188 196.21875 216.03125 196.21875 215.976562 196.273438 " fill-opacity="1" fill-rule="nonzero"/></g><g clip-path="url(#20c871ff2b)"><path fill="#ffffff" d="M 243.085938 170.703125 L 260.664062 170.703125 L 260.664062 200.585938 L 243.085938 200.585938 Z M 243.085938 170.703125 " fill-opacity="1" fill-rule="nonzero"/></g><g clip-path="url(#eee27d5b05)"><path fill="#ff6100" d="M 259.976562 168.328125 C 260.011719 168.332031 260.046875 168.332031 260.085938 168.335938 C 260.152344 168.339844 260.222656 168.347656 260.289062 168.363281 C 260.375 168.378906 260.457031 168.40625 260.539062 168.4375 C 260.625 168.472656 260.710938 168.515625 260.789062 168.5625 C 260.871094 168.613281 260.949219 168.671875 261.019531 168.738281 C 261.097656 168.8125 261.171875 168.890625 261.234375 168.980469 C 261.292969 169.0625 261.34375 169.152344 261.382812 169.242188 C 261.425781 169.335938 261.457031 169.433594 261.480469 169.53125 C 261.496094 169.601562 261.507812 169.671875 261.511719 169.742188 C 261.515625 169.78125 261.519531 169.824219 261.519531 169.863281 C 261.566406 180.324219 261.566406 190.785156 261.519531 201.246094 C 261.519531 201.285156 261.515625 201.328125 261.511719 201.367188 C 261.507812 201.441406 261.496094 201.511719 261.480469 201.578125 C 261.460938 201.667969 261.429688 201.757812 261.394531 201.839844 C 261.355469 201.933594 261.304688 202.023438 261.25 202.105469 C 261.191406 202.191406 261.125 202.269531 261.050781 202.339844 C 260.980469 202.414062 260.898438 202.476562 260.8125 202.53125 C 260.738281 202.582031 260.660156 202.621094 260.578125 202.65625 C 260.492188 202.691406 260.40625 202.722656 260.316406 202.742188 C 260.246094 202.757812 260.175781 202.769531 260.105469 202.773438 C 260.0625 202.777344 260.023438 202.78125 259.980469 202.78125 C 254.789062 202.804688 249.601562 202.804688 244.410156 202.78125 C 244.367188 202.78125 244.328125 202.777344 244.285156 202.773438 C 244.214844 202.769531 244.144531 202.757812 244.074219 202.742188 C 243.984375 202.722656 243.898438 202.691406 243.8125 202.65625 C 243.714844 202.613281 243.617188 202.5625 243.53125 202.5 C 243.445312 202.441406 243.367188 202.375 243.296875 202.300781 C 243.230469 202.230469 243.167969 202.152344 243.117188 202.070312 C 243.066406 201.992188 243.023438 201.910156 242.988281 201.824219 C 242.953125 201.742188 242.925781 201.65625 242.90625 201.570312 C 242.890625 201.5 242.882812 201.425781 242.875 201.355469 C 242.871094 201.316406 242.871094 201.28125 242.871094 201.246094 C 242.816406 190.785156 242.816406 180.324219 242.871094 169.863281 C 242.871094 169.828125 242.871094 169.792969 242.875 169.757812 C 242.882812 169.683594 242.890625 169.613281 242.90625 169.539062 C 242.929688 169.449219 242.957031 169.359375 242.992188 169.273438 C 243.03125 169.183594 243.078125 169.097656 243.128906 169.019531 C 243.183594 168.9375 243.25 168.859375 243.316406 168.789062 C 243.386719 168.71875 243.464844 168.65625 243.546875 168.597656 C 243.625 168.542969 243.714844 168.496094 243.804688 168.457031 C 243.894531 168.417969 243.988281 168.386719 244.082031 168.367188 C 244.152344 168.351562 244.222656 168.339844 244.296875 168.335938 C 244.332031 168.332031 244.371094 168.332031 244.410156 168.332031 C 249.597656 168.304688 254.789062 168.320312 259.976562 168.332031 Z M 252.675781 199.804688 L 251.710938 199.804688 C 251.328125 199.804688 251.019531 200.113281 251.019531 200.492188 L 251.019531 201.457031 C 251.019531 201.835938 251.328125 202.144531 251.710938 202.144531 L 252.675781 202.144531 C 253.058594 202.144531 253.367188 201.835938 253.367188 201.457031 L 253.367188 200.492188 C 253.367188 200.113281 253.058594 199.804688 252.675781 199.804688 Z M 252.496094 200.242188 C 252.734375 200.242188 252.925781 200.433594 252.925781 200.671875 L 252.925781 201.277344 C 252.925781 201.511719 252.734375 201.707031 252.496094 201.707031 L 251.890625 201.707031 C 251.652344 201.707031 251.460938 201.511719 251.460938 201.277344 L 251.460938 200.671875 C 251.460938 200.433594 251.652344 200.242188 251.890625 200.242188 Z M 260.972656 170.722656 L 243.417969 170.722656 C 243.40625 180.21875 243.375 189.714844 243.410156 199.214844 L 260.976562 199.214844 C 260.996094 189.71875 261.015625 180.21875 260.976562 170.722656 Z M 255.265625 169.25 L 249.121094 169.25 C 249.050781 169.25 248.988281 169.308594 248.988281 169.382812 L 248.988281 169.644531 C 248.988281 169.71875 249.050781 169.777344 249.121094 169.777344 L 255.265625 169.777344 C 255.335938 169.777344 255.398438 169.71875 255.398438 169.644531 L 255.398438 169.382812 C 255.398438 169.308594 255.335938 169.25 255.265625 169.25 Z M 255.265625 169.25 " fill-opacity="1" fill-rule="evenodd"/></g><g clip-path="url(#61c90925f4)"><path fill="#8ac0c8" d="M 249.222656 174.621094 L 248.222656 174.621094 L 248.222656 175 L 249.222656 175 Z M 249.554688 175.484375 L 246.308594 175.484375 L 246.308594 175.863281 L 249.554688 175.863281 Z M 253.980469 176.34375 L 252.414062 176.34375 L 252.414062 176.726562 L 253.980469 176.726562 Z M 248.386719 177.207031 L 246.308594 177.207031 L 246.308594 177.589844 L 248.386719 177.589844 Z M 250.8125 178.070312 L 246.308594 178.070312 L 246.308594 178.453125 L 250.8125 178.453125 Z M 253.714844 178.453125 L 258.214844 178.453125 L 258.214844 178.070312 L 253.714844 178.070312 Z M 257.03125 180.660156 L 257.03125 181.042969 L 259.980469 181.042969 L 259.980469 180.660156 Z M 249.648438 181.042969 L 256.640625 181.042969 L 256.640625 180.660156 L 249.648438 180.660156 Z M 246.308594 181.902344 L 249.195312 181.902344 L 249.195312 181.523438 L 246.308594 181.523438 L 246.308594 181.902344 " fill-opacity="1" fill-rule="nonzero"/></g><path fill="#18bd9c" d="M 255.34375 175.484375 L 252.097656 175.484375 L 252.097656 175.863281 L 255.34375 175.863281 Z M 252.023438 176.34375 L 246.308594 176.34375 L 246.308594 176.726562 L 252.023438 176.726562 Z M 251.140625 179.316406 L 255.066406 179.316406 L 255.066406 178.933594 L 251.140625 178.933594 Z M 249.257812 180.660156 L 246.308594 180.660156 L 246.308594 181.042969 L 249.257812 181.042969 Z M 254.777344 181.523438 L 254.777344 181.902344 L 255.621094 181.902344 L 255.621094 181.523438 Z M 248.117188 182.765625 L 254.8125 182.765625 L 254.8125 182.386719 L 248.117188 182.386719 L 248.117188 182.765625 " fill-opacity="1" fill-rule="nonzero"/><g clip-path="url(#ea0707be18)"><path fill="#fcde82" d="M 244.230469 174.136719 L 244.621094 174.136719 L 244.621094 173.757812 L 244.230469 173.757812 Z M 244.230469 175 L 244.621094 175 L 244.621094 174.621094 L 244.230469 174.621094 Z M 251.703125 175.484375 L 249.949219 175.484375 L 249.949219 175.863281 L 251.703125 175.863281 Z M 244.230469 175.863281 L 244.621094 175.863281 L 244.621094 175.484375 L 244.230469 175.484375 Z M 244.230469 176.726562 L 244.621094 176.726562 L 244.621094 176.34375 L 244.230469 176.34375 Z M 253.085938 177.207031 L 248.777344 177.207031 L 248.777344 177.589844 L 253.085938 177.589844 Z M 244.230469 177.589844 L 244.621094 177.589844 L 244.621094 177.207031 L 244.230469 177.207031 Z M 244.230469 178.453125 L 244.621094 178.453125 L 244.621094 178.070312 L 244.230469 178.070312 Z M 250.746094 178.933594 L 246.308594 178.933594 L 246.308594 179.316406 L 250.746094 179.316406 Z M 244.230469 179.316406 L 244.621094 179.316406 L 244.621094 178.933594 L 244.230469 178.933594 Z M 244.230469 180.179688 L 244.621094 180.179688 L 244.621094 179.796875 L 244.230469 179.796875 Z M 244.230469 181.042969 L 244.621094 181.042969 L 244.621094 180.660156 L 244.230469 180.660156 Z M 249.585938 181.523438 L 249.585938 181.902344 L 254.386719 181.902344 L 254.386719 181.523438 Z M 244.230469 181.902344 L 244.621094 181.902344 L 244.621094 181.523438 L 244.230469 181.523438 Z M 246.308594 182.765625 L 247.726562 182.765625 L 247.726562 182.386719 L 246.308594 182.386719 Z M 244.230469 182.765625 L 244.621094 182.765625 L 244.621094 182.386719 L 244.230469 182.386719 Z M 244.230469 183.628906 L 244.621094 183.628906 L 244.621094 183.25 L 244.230469 183.25 Z M 245.300781 184.644531 L 245.492188 184.644531 L 245.492188 173.433594 L 245.300781 173.433594 L 245.300781 184.644531 " fill-opacity="1" fill-rule="nonzero"/></g><g clip-path="url(#c18355d281)"><path fill="#f49c10" d="M 247.832031 174.621094 L 245.839844 174.621094 L 245.839844 175 L 247.832031 175 Z M 254.371094 176.34375 L 254.371094 176.726562 L 256.8125 176.726562 L 256.8125 176.34375 Z M 251.203125 178.453125 L 253.320312 178.453125 L 253.320312 178.070312 L 251.203125 178.070312 Z M 245.839844 180.179688 L 248.023438 180.179688 L 248.023438 179.796875 L 245.839844 179.796875 Z M 247.238281 183.25 L 245.839844 183.25 L 245.839844 183.628906 L 247.238281 183.628906 Z M 247.078125 174.3125 C 247.097656 174.3125 247.113281 174.308594 247.125 174.296875 L 247.710938 173.726562 C 247.734375 173.699219 247.734375 173.660156 247.710938 173.636719 C 247.6875 173.613281 247.644531 173.613281 247.621094 173.636719 L 247.035156 174.207031 C 247.007812 174.230469 247.007812 174.269531 247.035156 174.296875 C 247.046875 174.308594 247.0625 174.3125 247.078125 174.3125 Z M 246.59375 174.328125 C 246.605469 174.339844 246.621094 174.347656 246.636719 174.347656 C 246.652344 174.347656 246.671875 174.339844 246.683594 174.328125 C 246.707031 174.304688 246.707031 174.265625 246.683594 174.242188 L 246.398438 173.964844 L 246.683594 173.691406 C 246.707031 173.667969 246.707031 173.628906 246.683594 173.601562 C 246.65625 173.578125 246.617188 173.578125 246.59375 173.601562 L 246.265625 173.921875 C 246.238281 173.945312 246.238281 173.984375 246.265625 174.011719 Z M 248.171875 173.601562 C 248.144531 173.578125 248.105469 173.578125 248.078125 173.601562 C 248.054688 173.628906 248.054688 173.667969 248.078125 173.691406 L 248.363281 173.964844 L 248.078125 174.242188 C 248.054688 174.265625 248.054688 174.304688 248.078125 174.328125 C 248.09375 174.339844 248.109375 174.347656 248.125 174.347656 C 248.140625 174.347656 248.15625 174.339844 248.171875 174.328125 L 248.5 174.011719 C 248.511719 174 248.515625 173.984375 248.515625 173.964844 C 248.515625 173.949219 248.511719 173.933594 248.5 173.921875 Z M 248.171875 183.929688 C 248.144531 183.90625 248.105469 183.90625 248.078125 183.929688 C 248.054688 183.953125 248.054688 183.992188 248.078125 184.019531 L 248.363281 184.292969 L 248.078125 184.566406 C 248.054688 184.59375 248.054688 184.632812 248.078125 184.65625 C 248.09375 184.667969 248.109375 184.675781 248.125 184.675781 C 248.140625 184.675781 248.15625 184.667969 248.171875 184.65625 L 248.5 184.335938 C 248.511719 184.324219 248.515625 184.308594 248.515625 184.292969 C 248.515625 184.277344 248.511719 184.261719 248.5 184.25 Z M 246.683594 183.929688 C 246.65625 183.90625 246.617188 183.90625 246.59375 183.929688 L 246.265625 184.25 C 246.238281 184.273438 246.238281 184.3125 246.265625 184.335938 L 246.59375 184.65625 C 246.605469 184.667969 246.621094 184.671875 246.636719 184.671875 C 246.652344 184.671875 246.671875 184.667969 246.683594 184.65625 C 246.707031 184.632812 246.707031 184.59375 246.683594 184.566406 L 246.398438 184.292969 L 246.683594 184.019531 C 246.707031 183.992188 246.707031 183.953125 246.683594 183.929688 Z M 247.621094 183.964844 L 247.035156 184.535156 C 247.007812 184.558594 247.007812 184.597656 247.035156 184.621094 C 247.046875 184.632812 247.0625 184.640625 247.078125 184.640625 C 247.097656 184.640625 247.113281 184.632812 247.125 184.621094 L 247.710938 184.050781 C 247.734375 184.027344 247.734375 183.988281 247.710938 183.964844 C 247.6875 183.941406 247.644531 183.941406 247.621094 183.964844 " fill-opacity="1" fill-rule="nonzero"/></g></svg>