<svg xmlns="http://www.w3.org/2000/svg" xmlns:xlink="http://www.w3.org/1999/xlink" width="500" zoomAndPan="magnify" viewBox="0 0 375 374.999991" height="500" preserveAspectRatio="xMidYMid meet" version="1.0"><defs><g/><clipPath id="491d4fcbb3"><path d="M 95.160156 93.820312 L 231.097656 93.820312 L 231.097656 186 L 95.160156 186 Z M 95.160156 93.820312 " clip-rule="nonzero"/></clipPath><clipPath id="4c5af29a1b"><path d="M 123 198 L 204 198 L 204 206.320312 L 123 206.320312 Z M 123 198 " clip-rule="nonzero"/></clipPath><clipPath id="f7dcd92872"><path d="M 121 109 L 192.679688 109 L 192.679688 149 L 121 149 Z M 121 109 " clip-rule="nonzero"/></clipPath><clipPath id="5701d77de6"><path d="M 110.179688 102.636719 L 164 102.636719 L 164 163.574219 L 110.179688 163.574219 Z M 110.179688 102.636719 " clip-rule="nonzero"/></clipPath><clipPath id="fc215bccb6"><path d="M 118.464844 103.339844 L 176.113281 103.339844 L 176.113281 163.539062 L 118.464844 163.539062 Z M 118.464844 103.339844 " clip-rule="nonzero"/></clipPath><clipPath id="4a8e778a94"><path d="M 209 133.074219 L 261.460938 133.074219 L 261.460938 201.871094 L 209 201.871094 Z M 209 133.074219 " clip-rule="nonzero"/></clipPath><clipPath id="8ec9bb2c61"><path d="M 205.949219 130.78125 L 264.0625 130.78125 L 264.0625 206.71875 L 205.949219 206.71875 Z M 205.949219 130.78125 " clip-rule="nonzero"/></clipPath><clipPath id="7f60cefeee"><path d="M 219 139 L 256.894531 139 L 256.894531 160 L 219 160 Z M 219 139 " clip-rule="nonzero"/></clipPath><clipPath id="0f97110bbf"><path d="M 213.769531 136 L 242 136 L 242 167.863281 L 213.769531 167.863281 Z M 213.769531 136 " clip-rule="nonzero"/></clipPath><clipPath id="3ee1db8e08"><path d="M 218.097656 136.355469 L 248.234375 136.355469 L 248.234375 167.84375 L 218.097656 167.84375 Z M 218.097656 136.355469 " clip-rule="nonzero"/></clipPath><clipPath id="6d1fca492e"><path d="M 219 172 L 256.9375 172 L 256.9375 193 L 219 193 Z M 219 172 " clip-rule="nonzero"/></clipPath><clipPath id="6a22fd003c"><path d="M 213.8125 168.621094 L 242 168.621094 L 242 200.496094 L 213.8125 200.496094 Z M 213.8125 168.621094 " clip-rule="nonzero"/></clipPath><clipPath id="3983592b87"><path d="M 218.144531 169 L 248.277344 169 L 248.277344 200.476562 L 218.144531 200.476562 Z M 218.144531 169 " clip-rule="nonzero"/></clipPath><clipPath id="e2fcec7249"><path d="M 256.980469 166.507812 L 279.414062 166.507812 L 279.414062 203.15625 L 256.980469 203.15625 Z M 256.980469 166.507812 " clip-rule="nonzero"/></clipPath><clipPath id="89d2962b8c"><path d="M 256.648438 163.507812 L 280.085938 163.507812 L 280.085938 206.632812 L 256.648438 206.632812 Z M 256.648438 163.507812 " clip-rule="nonzero"/></clipPath><clipPath id="1d3efde2ee"><path d="M 261 171 L 278.101562 171 L 278.101562 181 L 261 181 Z M 261 171 " clip-rule="nonzero"/></clipPath><clipPath id="9294d54214"><path d="M 258.414062 169.910156 L 272 169.910156 L 272 183.972656 L 258.414062 183.972656 Z M 258.414062 169.910156 " clip-rule="nonzero"/></clipPath><clipPath id="c8bd6709f2"><path d="M 260.390625 170.070312 L 274.148438 170.070312 L 274.148438 183.96875 L 260.390625 183.96875 Z M 260.390625 170.070312 " clip-rule="nonzero"/></clipPath></defs><g clip-path="url(#491d4fcbb3)"><path fill="#ff6100" d="M 225.164062 166.210938 L 101.089844 166.210938 L 101.089844 100.324219 C 101.089844 100.03125 101.332031 99.792969 101.625 99.792969 L 224.632812 99.792969 C 224.925781 99.792969 225.164062 100.03125 225.164062 100.324219 Z M 176.730469 178.976562 C 176.089844 179.613281 175.207031 180.011719 174.230469 180.011719 L 152.027344 180.011719 C 150.074219 180.011719 148.492188 178.425781 148.492188 176.476562 C 148.492188 175.5 148.886719 174.613281 149.527344 173.976562 C 150.164062 173.335938 151.050781 172.941406 152.027344 172.941406 L 174.230469 172.941406 C 176.183594 172.941406 177.765625 174.523438 177.765625 176.476562 C 177.765625 177.453125 177.371094 178.335938 176.730469 178.976562 Z M 224.632812 93.859375 L 101.625 93.859375 C 98.058594 93.859375 95.15625 96.761719 95.15625 100.324219 L 95.15625 178.59375 C 95.15625 182.15625 98.058594 185.058594 101.625 185.058594 L 224.632812 185.058594 C 228.199219 185.058594 231.097656 182.15625 231.097656 178.59375 L 231.097656 100.324219 C 231.097656 96.761719 228.199219 93.859375 224.632812 93.859375 " fill-opacity="1" fill-rule="nonzero"/></g><path fill="#ff6100" d="M 175.984375 176.476562 C 175.984375 176.945312 175.800781 177.386719 175.46875 177.71875 C 175.140625 178.046875 174.699219 178.234375 174.230469 178.234375 L 152.027344 178.234375 C 151.058594 178.234375 150.273438 177.441406 150.273438 176.476562 C 150.273438 176.003906 150.453125 175.566406 150.789062 175.230469 C 151.117188 174.902344 151.558594 174.722656 152.027344 174.722656 L 174.230469 174.722656 C 175.199219 174.722656 175.984375 175.507812 175.984375 176.476562 " fill-opacity="1" fill-rule="nonzero"/><g clip-path="url(#4c5af29a1b)"><path fill="#ff6100" d="M 203.105469 206.273438 L 123.152344 206.273438 C 124.738281 201.617188 129.15625 198.257812 134.34375 198.257812 L 191.914062 198.257812 C 197.105469 198.257812 201.519531 201.617188 203.105469 206.273438 " fill-opacity="1" fill-rule="nonzero"/></g><path fill="#ff6100" d="M 178.347656 196.109375 L 147.914062 196.109375 L 150.90625 187.207031 L 175.351562 187.207031 L 178.347656 196.109375 " fill-opacity="1" fill-rule="nonzero"/><g clip-path="url(#f7dcd92872)"><path fill="#8ac0c8" d="M 136.324219 109.101562 L 131.101562 109.101562 L 131.101562 111.164062 L 136.324219 111.164062 Z M 138.074219 113.773438 L 121.070312 113.773438 L 121.070312 115.835938 L 138.074219 115.835938 Z M 161.253906 118.445312 L 153.054688 118.445312 L 153.054688 120.507812 L 161.253906 120.507812 Z M 131.945312 123.117188 L 121.070312 123.117188 L 121.070312 125.179688 L 131.945312 125.179688 Z M 144.648438 127.789062 L 121.070312 127.789062 L 121.070312 129.851562 L 144.648438 129.851562 Z M 159.855469 129.851562 L 183.433594 129.851562 L 183.433594 127.789062 L 159.855469 127.789062 Z M 177.238281 141.804688 L 177.238281 143.867188 L 192.679688 143.867188 L 192.679688 141.804688 Z M 138.566406 143.867188 L 175.183594 143.867188 L 175.183594 141.804688 L 138.566406 141.804688 Z M 121.070312 148.539062 L 136.179688 148.539062 L 136.179688 146.476562 L 121.070312 146.476562 L 121.070312 148.539062 " fill-opacity="1" fill-rule="nonzero"/></g><path fill="#18bd9c" d="M 168.386719 113.773438 L 151.382812 113.773438 L 151.382812 115.835938 L 168.386719 115.835938 Z M 151 118.445312 L 121.070312 118.445312 L 121.070312 120.507812 L 151 120.507812 Z M 146.367188 134.523438 L 166.9375 134.523438 L 166.9375 132.460938 L 146.367188 132.460938 Z M 136.515625 141.804688 L 121.070312 141.804688 L 121.070312 143.867188 L 136.515625 143.867188 Z M 165.425781 146.476562 L 165.425781 148.539062 L 169.839844 148.539062 L 169.839844 146.476562 Z M 130.542969 153.210938 L 165.601562 153.210938 L 165.601562 151.148438 L 130.542969 151.148438 L 130.542969 153.210938 " fill-opacity="1" fill-rule="nonzero"/><g clip-path="url(#5701d77de6)"><path fill="#fcde82" d="M 110.179688 106.492188 L 112.234375 106.492188 L 112.234375 104.429688 L 110.179688 104.429688 Z M 110.179688 111.164062 L 112.234375 111.164062 L 112.234375 109.101562 L 110.179688 109.101562 Z M 149.332031 113.773438 L 140.128906 113.773438 L 140.128906 115.835938 L 149.332031 115.835938 Z M 110.179688 115.835938 L 112.234375 115.835938 L 112.234375 113.773438 L 110.179688 113.773438 Z M 110.179688 120.507812 L 112.234375 120.507812 L 112.234375 118.445312 L 110.179688 118.445312 Z M 156.574219 123.117188 L 133.996094 123.117188 L 133.996094 125.179688 L 156.574219 125.179688 Z M 110.179688 125.179688 L 112.234375 125.179688 L 112.234375 123.117188 L 110.179688 123.117188 Z M 110.179688 129.851562 L 112.234375 129.851562 L 112.234375 127.789062 L 110.179688 127.789062 Z M 144.316406 132.460938 L 121.070312 132.460938 L 121.070312 134.523438 L 144.316406 134.523438 Z M 110.179688 134.523438 L 112.234375 134.523438 L 112.234375 132.460938 L 110.179688 132.460938 Z M 110.179688 139.195312 L 112.234375 139.195312 L 112.234375 137.132812 L 110.179688 137.132812 Z M 110.179688 143.867188 L 112.234375 143.867188 L 112.234375 141.804688 L 110.179688 141.804688 Z M 138.234375 146.476562 L 138.234375 148.539062 L 163.375 148.539062 L 163.375 146.476562 Z M 110.179688 148.539062 L 112.234375 148.539062 L 112.234375 146.476562 L 110.179688 146.476562 Z M 121.070312 153.210938 L 128.492188 153.210938 L 128.492188 151.148438 L 121.070312 151.148438 Z M 110.179688 153.210938 L 112.234375 153.210938 L 112.234375 151.148438 L 110.179688 151.148438 Z M 110.179688 157.882812 L 112.234375 157.882812 L 112.234375 155.820312 L 110.179688 155.820312 Z M 115.789062 163.371094 L 116.789062 163.371094 L 116.789062 102.675781 L 115.789062 102.675781 L 115.789062 163.371094 " fill-opacity="1" fill-rule="nonzero"/></g><g clip-path="url(#fc215bccb6)"><path fill="#f49c10" d="M 129.046875 109.101562 L 118.605469 109.101562 L 118.605469 111.164062 L 129.046875 111.164062 Z M 163.308594 118.445312 L 163.308594 120.507812 L 176.078125 120.507812 L 176.078125 118.445312 Z M 146.703125 129.851562 L 157.800781 129.851562 L 157.800781 127.789062 L 146.703125 127.789062 Z M 118.605469 139.195312 L 130.050781 139.195312 L 130.050781 137.132812 L 118.605469 137.132812 Z M 125.929688 155.820312 L 118.605469 155.820312 L 118.605469 157.882812 L 125.929688 157.882812 Z M 125.101562 107.4375 C 125.1875 107.4375 125.273438 107.40625 125.339844 107.339844 L 128.410156 104.253906 C 128.539062 104.125 128.539062 103.910156 128.410156 103.78125 C 128.28125 103.648438 128.066406 103.648438 127.9375 103.78125 L 124.867188 106.863281 C 124.734375 106.996094 124.734375 107.210938 124.867188 107.339844 C 124.933594 107.40625 125.015625 107.4375 125.101562 107.4375 Z M 122.550781 107.523438 C 122.617188 107.589844 122.703125 107.621094 122.789062 107.621094 C 122.875 107.621094 122.960938 107.589844 123.023438 107.523438 C 123.15625 107.394531 123.15625 107.179688 123.023438 107.050781 L 121.542969 105.558594 L 123.023438 104.070312 C 123.15625 103.9375 123.15625 103.726562 123.023438 103.59375 C 122.894531 103.464844 122.683594 103.464844 122.550781 103.59375 L 120.832031 105.320312 C 120.703125 105.453125 120.703125 105.664062 120.832031 105.796875 Z M 130.816406 103.59375 C 130.683594 103.464844 130.472656 103.464844 130.34375 103.59375 C 130.214844 103.726562 130.214844 103.941406 130.34375 104.070312 L 131.824219 105.558594 L 130.34375 107.050781 C 130.214844 107.179688 130.214844 107.394531 130.34375 107.523438 C 130.410156 107.589844 130.496094 107.621094 130.578125 107.621094 C 130.664062 107.621094 130.75 107.589844 130.816406 107.523438 L 132.535156 105.796875 C 132.597656 105.734375 132.632812 105.648438 132.632812 105.558594 C 132.632812 105.46875 132.597656 105.386719 132.535156 105.320312 Z M 130.816406 159.511719 C 130.683594 159.378906 130.472656 159.378906 130.34375 159.511719 C 130.214844 159.640625 130.214844 159.855469 130.34375 159.984375 L 131.824219 161.476562 L 130.34375 162.964844 C 130.210938 163.09375 130.210938 163.308594 130.34375 163.4375 C 130.410156 163.503906 130.492188 163.539062 130.578125 163.539062 C 130.664062 163.539062 130.75 163.503906 130.816406 163.4375 L 132.535156 161.710938 C 132.597656 161.648438 132.632812 161.5625 132.632812 161.476562 C 132.632812 161.386719 132.597656 161.300781 132.535156 161.238281 Z M 123.023438 159.511719 C 122.894531 159.378906 122.683594 159.378906 122.550781 159.511719 L 122.550781 159.507812 L 120.832031 161.238281 C 120.703125 161.367188 120.703125 161.582031 120.832031 161.710938 L 122.550781 163.4375 C 122.617188 163.503906 122.703125 163.535156 122.789062 163.535156 C 122.875 163.535156 122.960938 163.503906 123.023438 163.441406 C 123.15625 163.308594 123.15625 163.09375 123.023438 162.964844 L 121.542969 161.476562 L 123.023438 159.984375 C 123.15625 159.855469 123.15625 159.640625 123.023438 159.511719 Z M 127.9375 159.695312 L 124.867188 162.78125 C 124.734375 162.910156 124.734375 163.125 124.867188 163.253906 C 124.933594 163.320312 125.015625 163.351562 125.101562 163.351562 C 125.1875 163.351562 125.273438 163.320312 125.339844 163.253906 L 128.410156 160.167969 C 128.539062 160.039062 128.539062 159.824219 128.410156 159.695312 C 128.28125 159.5625 128.066406 159.5625 127.9375 159.695312 " fill-opacity="1" fill-rule="nonzero"/></g><g clip-path="url(#4a8e778a94)"><path fill="#ffffff" d="M 209 133.074219 L 261.734375 133.074219 L 261.734375 201.921875 L 209 201.921875 Z M 209 133.074219 " fill-opacity="1" fill-rule="nonzero"/></g><g clip-path="url(#8ec9bb2c61)"><path fill="#000000" d="M 261.042969 201.589844 L 208.964844 201.589844 L 208.964844 133.835938 L 261.042969 133.835938 Z M 235.003906 205.847656 C 234.078125 205.847656 233.328125 205.089844 233.328125 204.152344 C 233.328125 203.214844 234.078125 202.457031 235.003906 202.457031 C 235.929688 202.457031 236.679688 203.214844 236.679688 204.152344 C 236.679688 205.089844 235.929688 205.847656 235.003906 205.847656 Z M 234.808594 131.90625 C 235.027344 131.792969 235.292969 131.886719 235.402344 132.109375 C 235.511719 132.332031 235.425781 132.601562 235.203125 132.714844 C 234.984375 132.824219 234.714844 132.734375 234.605469 132.511719 C 234.496094 132.289062 234.585938 132.015625 234.808594 131.90625 Z M 260.679688 130.78125 L 209.332031 130.78125 C 207.464844 130.78125 205.949219 132.316406 205.949219 134.207031 L 205.949219 203.292969 C 205.949219 205.183594 207.464844 206.71875 209.332031 206.71875 L 260.679688 206.71875 C 262.546875 206.71875 264.058594 205.183594 264.058594 203.292969 L 264.058594 134.207031 C 264.058594 132.316406 262.546875 130.78125 260.679688 130.78125 " fill-opacity="1" fill-rule="nonzero"/></g><g clip-path="url(#7f60cefeee)"><path fill="#8ac0c8" d="M 227.433594 139.367188 L 224.703125 139.367188 L 224.703125 140.445312 L 227.433594 140.445312 Z M 228.347656 141.8125 L 219.460938 141.8125 L 219.460938 142.890625 L 228.347656 142.890625 Z M 240.464844 144.253906 L 236.179688 144.253906 L 236.179688 145.335938 L 240.464844 145.335938 Z M 225.144531 146.699219 L 219.460938 146.699219 L 219.460938 147.777344 L 225.144531 147.777344 Z M 231.785156 149.144531 L 219.460938 149.144531 L 219.460938 150.222656 L 231.785156 150.222656 Z M 239.734375 150.222656 L 252.058594 150.222656 L 252.058594 149.144531 L 239.734375 149.144531 Z M 248.820312 156.476562 L 248.820312 157.554688 L 256.894531 157.554688 L 256.894531 156.476562 Z M 228.605469 157.554688 L 247.746094 157.554688 L 247.746094 156.476562 L 228.605469 156.476562 Z M 219.460938 160 L 227.359375 160 L 227.359375 158.917969 L 219.460938 158.917969 L 219.460938 160 " fill-opacity="1" fill-rule="nonzero"/></g><path fill="#18bd9c" d="M 244.195312 141.8125 L 235.304688 141.8125 L 235.304688 142.890625 L 244.195312 142.890625 Z M 235.105469 144.253906 L 219.460938 144.253906 L 219.460938 145.335938 L 235.105469 145.335938 Z M 232.683594 152.667969 L 243.4375 152.667969 L 243.4375 151.585938 L 232.683594 151.585938 Z M 227.53125 156.476562 L 219.460938 156.476562 L 219.460938 157.554688 L 227.53125 157.554688 Z M 242.644531 158.917969 L 242.644531 160 L 244.953125 160 L 244.953125 158.917969 Z M 224.410156 162.441406 L 242.738281 162.441406 L 242.738281 161.363281 L 224.410156 161.363281 L 224.410156 162.441406 " fill-opacity="1" fill-rule="nonzero"/><g clip-path="url(#0f97110bbf)"><path fill="#fcde82" d="M 213.769531 138.003906 L 214.839844 138.003906 L 214.839844 136.921875 L 213.769531 136.921875 Z M 213.769531 140.445312 L 214.839844 140.445312 L 214.839844 139.367188 L 213.769531 139.367188 Z M 234.234375 141.8125 L 229.421875 141.8125 L 229.421875 142.890625 L 234.234375 142.890625 Z M 213.769531 142.890625 L 214.839844 142.890625 L 214.839844 141.8125 L 213.769531 141.8125 Z M 213.769531 145.335938 L 214.839844 145.335938 L 214.839844 144.253906 L 213.769531 144.253906 Z M 238.019531 146.699219 L 226.21875 146.699219 L 226.21875 147.777344 L 238.019531 147.777344 Z M 213.769531 147.777344 L 214.839844 147.777344 L 214.839844 146.699219 L 213.769531 146.699219 Z M 213.769531 150.222656 L 214.839844 150.222656 L 214.839844 149.144531 L 213.769531 149.144531 Z M 231.609375 151.585938 L 219.460938 151.585938 L 219.460938 152.667969 L 231.609375 152.667969 Z M 213.769531 152.667969 L 214.839844 152.667969 L 214.839844 151.585938 L 213.769531 151.585938 Z M 213.769531 155.109375 L 214.839844 155.109375 L 214.839844 154.03125 L 213.769531 154.03125 Z M 213.769531 157.554688 L 214.839844 157.554688 L 214.839844 156.476562 L 213.769531 156.476562 Z M 228.429688 158.917969 L 228.429688 160 L 241.574219 160 L 241.574219 158.917969 Z M 213.769531 160 L 214.839844 160 L 214.839844 158.917969 L 213.769531 158.917969 Z M 219.460938 162.441406 L 223.339844 162.441406 L 223.339844 161.363281 L 219.460938 161.363281 Z M 213.769531 162.441406 L 214.839844 162.441406 L 214.839844 161.363281 L 213.769531 161.363281 Z M 213.769531 164.886719 L 214.839844 164.886719 L 214.839844 163.808594 L 213.769531 163.808594 Z M 216.699219 167.757812 L 217.222656 167.757812 L 217.222656 136.003906 L 216.699219 136.003906 L 216.699219 167.757812 " fill-opacity="1" fill-rule="nonzero"/></g><g clip-path="url(#3ee1db8e08)"><path fill="#f49c10" d="M 223.628906 139.367188 L 218.171875 139.367188 L 218.171875 140.445312 L 223.628906 140.445312 Z M 241.539062 144.253906 L 241.539062 145.335938 L 248.214844 145.335938 L 248.214844 144.253906 Z M 232.859375 150.222656 L 238.660156 150.222656 L 238.660156 149.144531 L 232.859375 149.144531 Z M 218.171875 155.109375 L 224.15625 155.109375 L 224.15625 154.03125 L 218.171875 154.03125 Z M 222 163.808594 L 218.171875 163.808594 L 218.171875 164.886719 L 222 164.886719 Z M 221.566406 138.496094 C 221.613281 138.496094 221.65625 138.480469 221.691406 138.445312 L 223.296875 136.832031 C 223.363281 136.765625 223.363281 136.652344 223.296875 136.585938 C 223.226562 136.515625 223.117188 136.515625 223.050781 136.585938 L 221.445312 138.199219 C 221.375 138.265625 221.375 138.378906 221.445312 138.445312 C 221.476562 138.480469 221.523438 138.496094 221.566406 138.496094 Z M 220.234375 138.542969 C 220.269531 138.578125 220.3125 138.59375 220.359375 138.59375 C 220.402344 138.59375 220.449219 138.578125 220.480469 138.542969 C 220.550781 138.472656 220.550781 138.363281 220.480469 138.292969 L 219.707031 137.515625 L 220.480469 136.734375 C 220.550781 136.667969 220.550781 136.554688 220.480469 136.488281 C 220.414062 136.417969 220.300781 136.417969 220.234375 136.488281 L 219.335938 137.390625 C 219.269531 137.460938 219.269531 137.570312 219.335938 137.640625 Z M 224.554688 136.488281 C 224.484375 136.417969 224.375 136.417969 224.308594 136.488281 C 224.238281 136.554688 224.238281 136.667969 224.308594 136.738281 L 224.308594 136.734375 L 225.082031 137.515625 L 224.308594 138.292969 C 224.238281 138.363281 224.238281 138.472656 224.308594 138.542969 C 224.339844 138.578125 224.386719 138.59375 224.429688 138.59375 C 224.476562 138.59375 224.519531 138.578125 224.554688 138.542969 L 225.453125 137.640625 C 225.484375 137.605469 225.503906 137.5625 225.503906 137.515625 C 225.503906 137.46875 225.484375 137.421875 225.453125 137.390625 Z M 224.554688 165.738281 C 224.484375 165.667969 224.375 165.667969 224.308594 165.738281 C 224.238281 165.804688 224.238281 165.917969 224.308594 165.984375 L 225.082031 166.765625 L 224.308594 167.542969 C 224.238281 167.613281 224.238281 167.722656 224.308594 167.792969 C 224.339844 167.828125 224.386719 167.84375 224.429688 167.84375 C 224.476562 167.84375 224.519531 167.828125 224.554688 167.792969 L 225.453125 166.890625 C 225.484375 166.855469 225.503906 166.8125 225.503906 166.765625 C 225.503906 166.71875 225.484375 166.671875 225.453125 166.640625 Z M 220.480469 165.738281 C 220.414062 165.667969 220.300781 165.667969 220.234375 165.738281 L 219.335938 166.640625 C 219.269531 166.710938 219.269531 166.820312 219.335938 166.890625 L 220.234375 167.792969 C 220.269531 167.828125 220.3125 167.84375 220.359375 167.84375 C 220.402344 167.84375 220.449219 167.828125 220.480469 167.792969 C 220.550781 167.722656 220.550781 167.613281 220.480469 167.542969 L 219.707031 166.765625 L 220.480469 165.984375 C 220.550781 165.917969 220.550781 165.804688 220.480469 165.738281 Z M 223.050781 165.832031 L 221.445312 167.449219 C 221.375 167.515625 221.375 167.628906 221.445312 167.695312 C 221.476562 167.730469 221.523438 167.746094 221.566406 167.746094 C 221.613281 167.746094 221.65625 167.730469 221.691406 167.695312 L 223.296875 166.082031 C 223.363281 166.011719 223.363281 165.902344 223.296875 165.832031 C 223.226562 165.765625 223.117188 165.765625 223.050781 165.832031 " fill-opacity="1" fill-rule="nonzero"/></g><g clip-path="url(#6d1fca492e)"><path fill="#8ac0c8" d="M 227.476562 172 L 224.75 172 L 224.75 173.078125 L 227.476562 173.078125 Z M 228.394531 174.441406 L 219.503906 174.441406 L 219.503906 175.523438 L 228.394531 175.523438 Z M 240.511719 176.886719 L 236.222656 176.886719 L 236.222656 177.964844 L 240.511719 177.964844 Z M 225.191406 179.332031 L 219.503906 179.332031 L 219.503906 180.410156 L 225.191406 180.410156 Z M 231.832031 181.773438 L 219.503906 181.773438 L 219.503906 182.855469 L 231.832031 182.855469 Z M 239.777344 182.855469 L 252.101562 182.855469 L 252.101562 181.773438 L 239.777344 181.773438 Z M 248.863281 189.105469 L 248.863281 190.1875 L 256.9375 190.1875 L 256.9375 189.105469 Z M 228.652344 190.1875 L 247.792969 190.1875 L 247.792969 189.105469 L 228.652344 189.105469 Z M 219.503906 192.628906 L 227.402344 192.628906 L 227.402344 191.550781 L 219.503906 191.550781 L 219.503906 192.628906 " fill-opacity="1" fill-rule="nonzero"/></g><path fill="#18bd9c" d="M 244.238281 174.441406 L 235.351562 174.441406 L 235.351562 175.523438 L 244.238281 175.523438 Z M 235.152344 176.886719 L 219.503906 176.886719 L 219.503906 177.964844 L 235.152344 177.964844 Z M 232.730469 185.296875 L 243.480469 185.296875 L 243.480469 184.21875 L 232.730469 184.21875 Z M 227.578125 189.105469 L 219.503906 189.105469 L 219.503906 190.1875 L 227.578125 190.1875 Z M 242.691406 191.550781 L 242.691406 192.628906 L 244.996094 192.628906 L 244.996094 191.550781 Z M 224.457031 195.074219 L 242.78125 195.074219 L 242.78125 193.996094 L 224.457031 193.996094 L 224.457031 195.074219 " fill-opacity="1" fill-rule="nonzero"/><g clip-path="url(#6a22fd003c)"><path fill="#fcde82" d="M 213.8125 170.632812 L 214.886719 170.632812 L 214.886719 169.554688 L 213.8125 169.554688 Z M 213.8125 173.078125 L 214.886719 173.078125 L 214.886719 172 L 213.8125 172 Z M 234.277344 174.441406 L 229.464844 174.441406 L 229.464844 175.523438 L 234.277344 175.523438 Z M 213.8125 175.523438 L 214.886719 175.523438 L 214.886719 174.441406 L 213.8125 174.441406 Z M 213.8125 177.964844 L 214.886719 177.964844 L 214.886719 176.886719 L 213.8125 176.886719 Z M 238.0625 179.332031 L 226.261719 179.332031 L 226.261719 180.410156 L 238.0625 180.410156 Z M 213.8125 180.410156 L 214.886719 180.410156 L 214.886719 179.332031 L 213.8125 179.332031 Z M 213.8125 182.855469 L 214.886719 182.855469 L 214.886719 181.773438 L 213.8125 181.773438 Z M 231.65625 184.21875 L 219.503906 184.21875 L 219.503906 185.296875 L 231.65625 185.296875 Z M 213.8125 185.296875 L 214.886719 185.296875 L 214.886719 184.21875 L 213.8125 184.21875 Z M 213.8125 187.742188 L 214.886719 187.742188 L 214.886719 186.664062 L 213.8125 186.664062 Z M 213.8125 190.1875 L 214.886719 190.1875 L 214.886719 189.105469 L 213.8125 189.105469 Z M 228.476562 191.550781 L 228.476562 192.628906 L 241.617188 192.628906 L 241.617188 191.550781 Z M 213.8125 192.628906 L 214.886719 192.628906 L 214.886719 191.550781 L 213.8125 191.550781 Z M 219.503906 195.074219 L 223.382812 195.074219 L 223.382812 193.996094 L 219.503906 193.996094 Z M 213.8125 195.074219 L 214.886719 195.074219 L 214.886719 193.996094 L 213.8125 193.996094 Z M 213.8125 197.519531 L 214.886719 197.519531 L 214.886719 196.4375 L 213.8125 196.4375 Z M 216.742188 200.390625 L 217.269531 200.390625 L 217.269531 168.636719 L 216.742188 168.636719 L 216.742188 200.390625 " fill-opacity="1" fill-rule="nonzero"/></g><g clip-path="url(#3983592b87)"><path fill="#f49c10" d="M 223.675781 172 L 218.214844 172 L 218.214844 173.078125 L 223.675781 173.078125 Z M 241.582031 176.886719 L 241.582031 177.964844 L 248.257812 177.964844 L 248.257812 176.886719 Z M 232.902344 182.855469 L 238.703125 182.855469 L 238.703125 181.773438 L 232.902344 181.773438 Z M 218.214844 187.742188 L 224.199219 187.742188 L 224.199219 186.664062 L 218.214844 186.664062 Z M 222.042969 196.4375 L 218.214844 196.4375 L 218.214844 197.519531 L 222.042969 197.519531 Z M 221.613281 171.128906 C 221.65625 171.128906 221.703125 171.113281 221.734375 171.078125 L 223.339844 169.464844 C 223.410156 169.394531 223.410156 169.285156 223.339844 169.214844 C 223.273438 169.148438 223.164062 169.148438 223.09375 169.214844 L 221.488281 170.832031 C 221.421875 170.898438 221.421875 171.011719 221.488281 171.078125 C 221.523438 171.113281 221.566406 171.128906 221.613281 171.128906 Z M 220.28125 171.175781 C 220.3125 171.210938 220.359375 171.226562 220.402344 171.226562 C 220.449219 171.226562 220.492188 171.210938 220.527344 171.175781 C 220.59375 171.105469 220.59375 170.996094 220.527344 170.925781 L 219.753906 170.148438 L 220.527344 169.367188 C 220.59375 169.300781 220.59375 169.1875 220.527344 169.121094 C 220.457031 169.050781 220.347656 169.050781 220.28125 169.121094 L 219.382812 170.023438 C 219.3125 170.089844 219.3125 170.203125 219.382812 170.273438 Z M 224.597656 169.121094 C 224.53125 169.050781 224.421875 169.050781 224.351562 169.121094 C 224.285156 169.1875 224.285156 169.300781 224.351562 169.367188 L 225.125 170.148438 L 224.351562 170.925781 C 224.285156 170.996094 224.285156 171.105469 224.351562 171.175781 C 224.386719 171.210938 224.429688 171.226562 224.476562 171.226562 C 224.519531 171.226562 224.566406 171.210938 224.597656 171.175781 L 225.496094 170.273438 C 225.53125 170.238281 225.546875 170.195312 225.546875 170.148438 C 225.546875 170.101562 225.53125 170.054688 225.496094 170.023438 Z M 224.601562 198.371094 C 224.53125 198.300781 224.421875 198.300781 224.351562 198.371094 C 224.285156 198.4375 224.285156 198.550781 224.351562 198.617188 L 225.125 199.398438 L 224.351562 200.175781 C 224.285156 200.246094 224.285156 200.355469 224.351562 200.425781 C 224.386719 200.460938 224.429688 200.476562 224.476562 200.476562 C 224.519531 200.476562 224.566406 200.460938 224.601562 200.425781 L 225.496094 199.519531 C 225.53125 199.488281 225.546875 199.445312 225.546875 199.398438 C 225.546875 199.351562 225.53125 199.304688 225.496094 199.273438 Z M 220.527344 198.371094 C 220.457031 198.300781 220.347656 198.300781 220.28125 198.371094 L 219.382812 199.273438 C 219.3125 199.339844 219.3125 199.453125 219.382812 199.519531 L 220.28125 200.425781 C 220.3125 200.457031 220.359375 200.476562 220.402344 200.476562 C 220.449219 200.476562 220.492188 200.460938 220.527344 200.425781 C 220.59375 200.355469 220.59375 200.246094 220.527344 200.175781 L 219.75 199.398438 L 220.527344 198.617188 C 220.59375 198.550781 220.59375 198.4375 220.527344 198.371094 Z M 223.09375 198.464844 L 221.488281 200.078125 C 221.421875 200.148438 221.421875 200.261719 221.488281 200.328125 C 221.523438 200.363281 221.566406 200.378906 221.613281 200.378906 C 221.65625 200.378906 221.703125 200.363281 221.738281 200.328125 L 223.339844 198.714844 C 223.410156 198.644531 223.410156 198.535156 223.339844 198.464844 C 223.273438 198.398438 223.164062 198.398438 223.09375 198.464844 " fill-opacity="1" fill-rule="nonzero"/></g><g clip-path="url(#e2fcec7249)"><path fill="#ffffff" d="M 256.980469 166.507812 L 279.6875 166.507812 L 279.6875 203.128906 L 256.980469 203.128906 Z M 256.980469 166.507812 " fill-opacity="1" fill-rule="nonzero"/></g><g clip-path="url(#89d2962b8c)"><path fill="#ff6100" d="M 278.09375 163.539062 C 278.140625 163.539062 278.1875 163.539062 278.230469 163.542969 C 278.316406 163.546875 278.402344 163.5625 278.484375 163.578125 C 278.589844 163.601562 278.695312 163.632812 278.796875 163.671875 C 278.90625 163.714844 279.011719 163.765625 279.113281 163.828125 C 279.214844 163.894531 279.308594 163.964844 279.398438 164.046875 C 279.5 164.136719 279.589844 164.242188 279.667969 164.351562 C 279.738281 164.453125 279.804688 164.5625 279.855469 164.679688 C 279.90625 164.792969 279.949219 164.914062 279.976562 165.039062 C 279.996094 165.125 280.007812 165.214844 280.015625 165.300781 C 280.019531 165.355469 280.023438 165.40625 280.023438 165.457031 C 280.085938 178.53125 280.085938 191.605469 280.023438 204.683594 C 280.023438 204.734375 280.019531 204.785156 280.015625 204.835938 C 280.007812 204.925781 279.996094 205.011719 279.976562 205.097656 C 279.949219 205.210938 279.914062 205.320312 279.871094 205.425781 C 279.820312 205.542969 279.757812 205.65625 279.6875 205.757812 C 279.613281 205.863281 279.53125 205.960938 279.441406 206.050781 C 279.347656 206.140625 279.25 206.21875 279.140625 206.289062 C 279.046875 206.351562 278.949219 206.402344 278.847656 206.445312 C 278.742188 206.492188 278.632812 206.527344 278.519531 206.550781 C 278.433594 206.574219 278.34375 206.585938 278.253906 206.59375 C 278.203125 206.597656 278.152344 206.601562 278.101562 206.601562 C 271.613281 206.628906 265.125 206.628906 258.636719 206.601562 C 258.585938 206.601562 258.535156 206.597656 258.480469 206.59375 C 258.394531 206.585938 258.304688 206.574219 258.21875 206.550781 C 258.105469 206.527344 257.996094 206.492188 257.890625 206.445312 C 257.765625 206.394531 257.648438 206.328125 257.539062 206.25 C 257.433594 206.175781 257.335938 206.09375 257.25 206 C 257.164062 205.914062 257.085938 205.816406 257.019531 205.710938 C 256.957031 205.613281 256.902344 205.511719 256.859375 205.40625 C 256.816406 205.300781 256.785156 205.195312 256.757812 205.085938 C 256.738281 205 256.726562 204.910156 256.71875 204.816406 C 256.714844 204.773438 256.714844 204.726562 256.714844 204.683594 C 256.648438 191.605469 256.648438 178.53125 256.714844 165.457031 C 256.714844 165.410156 256.714844 165.367188 256.71875 165.320312 C 256.726562 165.230469 256.738281 165.140625 256.757812 165.050781 C 256.785156 164.9375 256.820312 164.824219 256.867188 164.71875 C 256.914062 164.605469 256.972656 164.5 257.039062 164.398438 C 257.105469 164.296875 257.183594 164.199219 257.273438 164.113281 C 257.359375 164.023438 257.453125 163.945312 257.558594 163.875 C 257.660156 163.804688 257.765625 163.746094 257.878906 163.695312 C 257.992188 163.648438 258.109375 163.609375 258.230469 163.582031 C 258.316406 163.5625 258.40625 163.550781 258.496094 163.542969 C 258.542969 163.539062 258.589844 163.539062 258.636719 163.539062 C 265.121094 163.507812 271.609375 163.527344 278.09375 163.539062 Z M 268.972656 202.878906 L 267.761719 202.878906 C 267.285156 202.878906 266.902344 203.265625 266.902344 203.738281 L 266.902344 204.945312 C 266.902344 205.421875 267.285156 205.804688 267.761719 205.804688 L 268.972656 205.804688 C 269.445312 205.804688 269.832031 205.421875 269.832031 204.945312 L 269.832031 203.738281 C 269.832031 203.265625 269.445312 202.878906 268.972656 202.878906 Z M 268.746094 203.429688 C 269.042969 203.429688 269.285156 203.667969 269.285156 203.964844 L 269.285156 204.71875 C 269.285156 205.015625 269.042969 205.257812 268.746094 205.257812 L 267.988281 205.257812 C 267.691406 205.257812 267.449219 205.015625 267.449219 204.71875 L 267.449219 203.964844 C 267.449219 203.667969 267.691406 203.429688 267.988281 203.429688 Z M 279.34375 166.527344 L 257.398438 166.527344 C 257.382812 178.398438 257.339844 190.269531 257.390625 202.144531 L 279.34375 202.144531 C 279.367188 190.273438 279.394531 178.398438 279.34375 166.527344 Z M 272.207031 164.6875 L 264.527344 164.6875 C 264.4375 164.6875 264.363281 164.761719 264.363281 164.851562 L 264.363281 165.179688 C 264.363281 165.269531 264.4375 165.34375 264.527344 165.34375 L 272.207031 165.34375 C 272.296875 165.34375 272.371094 165.269531 272.371094 165.179688 L 272.371094 164.851562 C 272.371094 164.761719 272.296875 164.6875 272.207031 164.6875 Z M 272.207031 164.6875 " fill-opacity="1" fill-rule="evenodd"/></g><g clip-path="url(#1d3efde2ee)"><path fill="#8ac0c8" d="M 264.652344 171.398438 L 263.40625 171.398438 L 263.40625 171.875 L 264.652344 171.875 Z M 265.070312 172.480469 L 261.011719 172.480469 L 261.011719 172.953125 L 265.070312 172.953125 Z M 270.601562 173.558594 L 268.644531 173.558594 L 268.644531 174.035156 L 270.601562 174.035156 Z M 263.605469 174.636719 L 261.011719 174.636719 L 261.011719 175.113281 L 263.605469 175.113281 Z M 266.640625 175.714844 L 261.011719 175.714844 L 261.011719 176.191406 L 266.640625 176.191406 Z M 270.265625 176.191406 L 275.894531 176.191406 L 275.894531 175.714844 L 270.265625 175.714844 Z M 274.414062 178.949219 L 274.414062 179.425781 L 278.101562 179.425781 L 278.101562 178.949219 Z M 265.1875 179.425781 L 273.925781 179.425781 L 273.925781 178.949219 L 265.1875 178.949219 Z M 261.011719 180.503906 L 264.617188 180.503906 L 264.617188 180.027344 L 261.011719 180.027344 L 261.011719 180.503906 " fill-opacity="1" fill-rule="nonzero"/></g><path fill="#18bd9c" d="M 272.304688 172.480469 L 268.246094 172.480469 L 268.246094 172.953125 L 272.304688 172.953125 Z M 268.15625 173.558594 L 261.011719 173.558594 L 261.011719 174.035156 L 268.15625 174.035156 Z M 267.050781 177.269531 L 271.957031 177.269531 L 271.957031 176.792969 L 267.050781 176.792969 Z M 264.699219 178.949219 L 261.011719 178.949219 L 261.011719 179.425781 L 264.699219 179.425781 Z M 271.597656 180.027344 L 271.597656 180.503906 L 272.648438 180.503906 L 272.648438 180.027344 Z M 263.273438 181.582031 L 271.640625 181.582031 L 271.640625 181.105469 L 263.273438 181.105469 L 263.273438 181.582031 " fill-opacity="1" fill-rule="nonzero"/><g clip-path="url(#9294d54214)"><path fill="#fcde82" d="M 258.414062 170.796875 L 258.902344 170.796875 L 258.902344 170.320312 L 258.414062 170.320312 Z M 258.414062 171.875 L 258.902344 171.875 L 258.902344 171.398438 L 258.414062 171.398438 Z M 267.757812 172.480469 L 265.558594 172.480469 L 265.558594 172.953125 L 267.757812 172.953125 Z M 258.414062 172.953125 L 258.902344 172.953125 L 258.902344 172.480469 L 258.414062 172.480469 Z M 258.414062 174.035156 L 258.902344 174.035156 L 258.902344 173.558594 L 258.414062 173.558594 Z M 269.484375 174.636719 L 264.097656 174.636719 L 264.097656 175.113281 L 269.484375 175.113281 Z M 258.414062 175.113281 L 258.902344 175.113281 L 258.902344 174.636719 L 258.414062 174.636719 Z M 258.414062 176.191406 L 258.902344 176.191406 L 258.902344 175.714844 L 258.414062 175.714844 Z M 266.558594 176.792969 L 261.011719 176.792969 L 261.011719 177.269531 L 266.558594 177.269531 Z M 258.414062 177.269531 L 258.902344 177.269531 L 258.902344 176.792969 L 258.414062 176.792969 Z M 258.414062 178.347656 L 258.902344 178.347656 L 258.902344 177.871094 L 258.414062 177.871094 Z M 258.414062 179.425781 L 258.902344 179.425781 L 258.902344 178.949219 L 258.414062 178.949219 Z M 265.109375 180.027344 L 265.109375 180.503906 L 271.105469 180.503906 L 271.105469 180.027344 Z M 258.414062 180.503906 L 258.902344 180.503906 L 258.902344 180.027344 L 258.414062 180.027344 Z M 261.011719 181.582031 L 262.78125 181.582031 L 262.78125 181.105469 L 261.011719 181.105469 Z M 258.414062 181.582031 L 258.902344 181.582031 L 258.902344 181.105469 L 258.414062 181.105469 Z M 258.414062 182.660156 L 258.902344 182.660156 L 258.902344 182.1875 L 258.414062 182.1875 Z M 259.75 183.929688 L 259.992188 183.929688 L 259.992188 169.917969 L 259.75 169.917969 L 259.75 183.929688 " fill-opacity="1" fill-rule="nonzero"/></g><g clip-path="url(#c8bd6709f2)"><path fill="#f49c10" d="M 262.914062 171.398438 L 260.421875 171.398438 L 260.421875 171.875 L 262.914062 171.875 Z M 271.089844 173.558594 L 271.089844 174.035156 L 274.140625 174.035156 L 274.140625 173.558594 Z M 267.128906 176.191406 L 269.777344 176.191406 L 269.777344 175.714844 L 267.128906 175.714844 Z M 260.421875 178.347656 L 263.15625 178.347656 L 263.15625 177.871094 L 260.421875 177.871094 Z M 262.171875 182.1875 L 260.421875 182.1875 L 260.421875 182.660156 L 262.171875 182.660156 Z M 261.972656 171.015625 C 261.996094 171.015625 262.015625 171.007812 262.03125 170.992188 L 262.761719 170.28125 C 262.792969 170.25 262.792969 170.203125 262.761719 170.171875 C 262.730469 170.140625 262.683594 170.140625 262.652344 170.171875 L 261.917969 170.882812 C 261.886719 170.914062 261.886719 170.964844 261.917969 170.992188 C 261.933594 171.007812 261.953125 171.015625 261.972656 171.015625 Z M 261.367188 171.035156 C 261.382812 171.050781 261.402344 171.058594 261.421875 171.058594 C 261.441406 171.058594 261.460938 171.050781 261.476562 171.035156 C 261.507812 171.007812 261.507812 170.957031 261.480469 170.925781 L 261.125 170.582031 L 261.476562 170.238281 C 261.507812 170.207031 261.507812 170.160156 261.476562 170.128906 C 261.449219 170.097656 261.398438 170.097656 261.367188 170.128906 L 260.957031 170.527344 C 260.925781 170.558594 260.925781 170.605469 260.957031 170.636719 Z M 263.335938 170.128906 C 263.304688 170.097656 263.253906 170.097656 263.226562 170.128906 C 263.195312 170.160156 263.195312 170.207031 263.226562 170.238281 L 263.578125 170.582031 L 263.226562 170.925781 C 263.195312 170.957031 263.195312 171.007812 263.226562 171.035156 C 263.242188 171.050781 263.261719 171.058594 263.28125 171.058594 C 263.300781 171.058594 263.320312 171.050781 263.335938 171.035156 L 263.746094 170.636719 C 263.761719 170.621094 263.769531 170.605469 263.769531 170.582031 C 263.769531 170.5625 263.761719 170.542969 263.746094 170.527344 Z M 263.335938 183.039062 C 263.304688 183.007812 263.253906 183.007812 263.226562 183.039062 C 263.195312 183.066406 263.195312 183.117188 263.226562 183.148438 L 263.578125 183.492188 L 263.226562 183.835938 C 263.195312 183.863281 263.195312 183.914062 263.226562 183.945312 C 263.242188 183.960938 263.261719 183.96875 263.28125 183.96875 C 263.300781 183.96875 263.320312 183.960938 263.335938 183.945312 L 263.746094 183.546875 C 263.761719 183.53125 263.769531 183.511719 263.769531 183.492188 C 263.769531 183.46875 263.761719 183.449219 263.746094 183.4375 Z M 261.480469 183.039062 C 261.445312 183.007812 261.398438 183.007812 261.367188 183.039062 L 260.957031 183.4375 C 260.925781 183.464844 260.925781 183.515625 260.957031 183.546875 L 261.367188 183.945312 C 261.382812 183.960938 261.402344 183.96875 261.421875 183.96875 C 261.441406 183.96875 261.460938 183.960938 261.480469 183.945312 C 261.507812 183.914062 261.507812 183.863281 261.480469 183.835938 L 261.125 183.492188 L 261.480469 183.148438 C 261.507812 183.117188 261.507812 183.066406 261.480469 183.039062 Z M 262.652344 183.082031 L 261.917969 183.792969 C 261.886719 183.824219 261.886719 183.871094 261.917969 183.902344 C 261.933594 183.917969 261.953125 183.925781 261.972656 183.925781 C 261.996094 183.925781 262.015625 183.917969 262.03125 183.902344 L 262.761719 183.191406 C 262.792969 183.160156 262.792969 183.109375 262.761719 183.082031 C 262.734375 183.050781 262.683594 183.050781 262.652344 183.082031 " fill-opacity="1" fill-rule="nonzero"/></g><g fill="#000000" fill-opacity="1"><g transform="translate(26.879886, 243.593422)"><g><path d="M 15.5625 -1.65625 L 3.0625 -6.9375 C 2.101562 -7.332031 1.625 -8.019531 1.625 -9 C 1.625 -9.9375 2.101562 -10.601562 3.0625 -11 L 15.5625 -16.3125 C 16 -16.5 16.378906 -16.507812 16.703125 -16.34375 C 17.023438 -16.175781 17.25 -15.921875 17.375 -15.578125 C 17.5 -15.234375 17.503906 -14.882812 17.390625 -14.53125 C 17.273438 -14.175781 17 -13.90625 16.5625 -13.71875 L 5.25 -8.96875 L 16.5625 -4.21875 C 17 -4.03125 17.273438 -3.765625 17.390625 -3.421875 C 17.503906 -3.078125 17.5 -2.734375 17.375 -2.390625 C 17.25 -2.046875 17.023438 -1.789062 16.703125 -1.625 C 16.378906 -1.457031 16 -1.46875 15.5625 -1.65625 Z M 15.5625 -1.65625 "/></g></g></g><g fill="#000000" fill-opacity="1"><g transform="translate(45.626923, 243.593422)"><g><path d="M 4.40625 0.25 C 3.070312 0.25 2.40625 -0.4375 2.40625 -1.8125 L 2.40625 -20 C 2.40625 -21.351562 3.082031 -22.03125 4.4375 -22.03125 L 11.96875 -22.03125 C 14.382812 -22.03125 16.25 -21.453125 17.5625 -20.296875 C 18.875 -19.140625 19.53125 -17.519531 19.53125 -15.4375 C 19.53125 -13.789062 19.101562 -12.429688 18.25 -11.359375 C 17.394531 -10.285156 16.164062 -9.5625 14.5625 -9.1875 C 15.625 -8.851562 16.5 -8.050781 17.1875 -6.78125 L 19.53125 -2.4375 C 19.882812 -1.769531 19.953125 -1.15625 19.734375 -0.59375 C 19.515625 -0.03125 18.976562 0.25 18.125 0.25 C 17.5625 0.25 17.101562 0.128906 16.75 -0.109375 C 16.394531 -0.347656 16.082031 -0.71875 15.8125 -1.21875 L 12.65625 -7.03125 C 12.28125 -7.738281 11.835938 -8.210938 11.328125 -8.453125 C 10.816406 -8.691406 10.164062 -8.8125 9.375 -8.8125 L 6.40625 -8.8125 L 6.40625 -1.8125 C 6.40625 -0.4375 5.738281 0.25 4.40625 0.25 Z M 6.40625 -11.78125 L 11.28125 -11.78125 C 14.195312 -11.78125 15.65625 -12.96875 15.65625 -15.34375 C 15.65625 -17.695312 14.195312 -18.875 11.28125 -18.875 L 6.40625 -18.875 Z M 6.40625 -11.78125 "/></g></g></g><g fill="#000000" fill-opacity="1"><g transform="translate(67.061033, 243.593422)"><g><path d="M 4.40625 0.25 C 3.070312 0.25 2.40625 -0.4375 2.40625 -1.8125 L 2.40625 -20.21875 C 2.40625 -21.59375 3.070312 -22.28125 4.40625 -22.28125 C 5.738281 -22.28125 6.40625 -21.59375 6.40625 -20.21875 L 6.40625 -1.8125 C 6.40625 -0.4375 5.738281 0.25 4.40625 0.25 Z M 4.40625 0.25 "/></g></g></g><g fill="#000000" fill-opacity="1"><g transform="translate(75.872139, 243.593422)"><g><path d="M 12.65625 0.3125 C 10.363281 0.3125 8.398438 -0.148438 6.765625 -1.078125 C 5.128906 -2.003906 3.875 -3.316406 3 -5.015625 C 2.125 -6.710938 1.6875 -8.71875 1.6875 -11.03125 C 1.6875 -13.34375 2.125 -15.34375 3 -17.03125 C 3.875 -18.71875 5.128906 -20.023438 6.765625 -20.953125 C 8.398438 -21.878906 10.363281 -22.34375 12.65625 -22.34375 C 13.800781 -22.34375 14.925781 -22.195312 16.03125 -21.90625 C 17.132812 -21.613281 18.101562 -21.195312 18.9375 -20.65625 C 19.476562 -20.300781 19.800781 -19.878906 19.90625 -19.390625 C 20.007812 -18.898438 19.945312 -18.453125 19.71875 -18.046875 C 19.488281 -17.640625 19.144531 -17.367188 18.6875 -17.234375 C 18.226562 -17.097656 17.71875 -17.21875 17.15625 -17.59375 C 16.507812 -18.007812 15.8125 -18.3125 15.0625 -18.5 C 14.3125 -18.6875 13.550781 -18.78125 12.78125 -18.78125 C 10.550781 -18.78125 8.851562 -18.109375 7.6875 -16.765625 C 6.519531 -15.421875 5.9375 -13.507812 5.9375 -11.03125 C 5.9375 -8.550781 6.519531 -6.632812 7.6875 -5.28125 C 8.851562 -3.925781 10.550781 -3.25 12.78125 -3.25 C 13.570312 -3.25 14.351562 -3.347656 15.125 -3.546875 C 15.894531 -3.742188 16.625 -4.050781 17.3125 -4.46875 C 17.875 -4.820312 18.375 -4.9375 18.8125 -4.8125 C 19.25 -4.6875 19.578125 -4.429688 19.796875 -4.046875 C 20.015625 -3.660156 20.082031 -3.238281 20 -2.78125 C 19.914062 -2.320312 19.632812 -1.914062 19.15625 -1.5625 C 18.320312 -0.957031 17.328125 -0.492188 16.171875 -0.171875 C 15.015625 0.148438 13.84375 0.3125 12.65625 0.3125 Z M 12.65625 0.3125 "/></g></g></g><g fill="#000000" fill-opacity="1"><g transform="translate(97.11878, 243.593422)"><g><path d="M 2.625 0.25 C 1.894531 0.25 1.375 0 1.0625 -0.5 C 0.75 -1 0.757812 -1.601562 1.09375 -2.3125 L 9.34375 -20.59375 C 9.613281 -21.195312 9.941406 -21.628906 10.328125 -21.890625 C 10.710938 -22.148438 11.15625 -22.28125 11.65625 -22.28125 C 12.132812 -22.28125 12.566406 -22.148438 12.953125 -21.890625 C 13.335938 -21.628906 13.664062 -21.195312 13.9375 -20.59375 L 22.21875 -2.3125 C 22.550781 -1.582031 22.570312 -0.972656 22.28125 -0.484375 C 21.988281 0.00390625 21.488281 0.25 20.78125 0.25 C 20.195312 0.25 19.742188 0.109375 19.421875 -0.171875 C 19.097656 -0.453125 18.8125 -0.882812 18.5625 -1.46875 L 17 -5.09375 L 6.25 -5.09375 L 4.71875 -1.46875 C 4.445312 -0.863281 4.164062 -0.425781 3.875 -0.15625 C 3.582031 0.113281 3.164062 0.25 2.625 0.25 Z M 11.59375 -17.6875 L 7.625 -8.28125 L 15.625 -8.28125 L 11.65625 -17.6875 Z M 11.59375 -17.6875 "/></g></g></g><g fill="#000000" fill-opacity="1"><g transform="translate(120.365106, 243.593422)"><g><path d="M 4.40625 0.25 C 3.070312 0.25 2.40625 -0.4375 2.40625 -1.8125 L 2.40625 -20 C 2.40625 -21.351562 3.082031 -22.03125 4.4375 -22.03125 L 11.96875 -22.03125 C 14.382812 -22.03125 16.25 -21.453125 17.5625 -20.296875 C 18.875 -19.140625 19.53125 -17.519531 19.53125 -15.4375 C 19.53125 -13.789062 19.101562 -12.429688 18.25 -11.359375 C 17.394531 -10.285156 16.164062 -9.5625 14.5625 -9.1875 C 15.625 -8.851562 16.5 -8.050781 17.1875 -6.78125 L 19.53125 -2.4375 C 19.882812 -1.769531 19.953125 -1.15625 19.734375 -0.59375 C 19.515625 -0.03125 18.976562 0.25 18.125 0.25 C 17.5625 0.25 17.101562 0.128906 16.75 -0.109375 C 16.394531 -0.347656 16.082031 -0.71875 15.8125 -1.21875 L 12.65625 -7.03125 C 12.28125 -7.738281 11.835938 -8.210938 11.328125 -8.453125 C 10.816406 -8.691406 10.164062 -8.8125 9.375 -8.8125 L 6.40625 -8.8125 L 6.40625 -1.8125 C 6.40625 -0.4375 5.738281 0.25 4.40625 0.25 Z M 6.40625 -11.78125 L 11.28125 -11.78125 C 14.195312 -11.78125 15.65625 -12.96875 15.65625 -15.34375 C 15.65625 -17.695312 14.195312 -18.875 11.28125 -18.875 L 6.40625 -18.875 Z M 6.40625 -11.78125 "/></g></g></g><g fill="#000000" fill-opacity="1"><g transform="translate(141.799216, 243.593422)"><g><path d="M 4.53125 0 C 3.113281 0 2.40625 -0.707031 2.40625 -2.125 L 2.40625 -19.90625 C 2.40625 -21.320312 3.113281 -22.03125 4.53125 -22.03125 L 10.59375 -22.03125 C 14.28125 -22.03125 17.128906 -21.082031 19.140625 -19.1875 C 21.148438 -17.289062 22.15625 -14.570312 22.15625 -11.03125 C 22.15625 -7.507812 21.148438 -4.789062 19.140625 -2.875 C 17.128906 -0.957031 14.28125 0 10.59375 0 Z M 6.40625 -3.3125 L 10.34375 -3.3125 C 15.425781 -3.3125 17.96875 -5.882812 17.96875 -11.03125 C 17.96875 -16.15625 15.425781 -18.71875 10.34375 -18.71875 L 6.40625 -18.71875 Z M 6.40625 -3.3125 "/></g></g></g><g fill="#000000" fill-opacity="1"><g transform="translate(165.607946, 243.593422)"><g><path d="M 12.28125 0.3125 C 10.15625 0.3125 8.296875 -0.15625 6.703125 -1.09375 C 5.109375 -2.03125 3.875 -3.347656 3 -5.046875 C 2.125 -6.742188 1.6875 -8.738281 1.6875 -11.03125 C 1.6875 -13.34375 2.125 -15.34375 3 -17.03125 C 3.875 -18.71875 5.101562 -20.023438 6.6875 -20.953125 C 8.269531 -21.878906 10.132812 -22.34375 12.28125 -22.34375 C 14.425781 -22.34375 16.289062 -21.878906 17.875 -20.953125 C 19.457031 -20.023438 20.6875 -18.71875 21.5625 -17.03125 C 22.4375 -15.34375 22.875 -13.351562 22.875 -11.0625 C 22.875 -8.75 22.4375 -6.742188 21.5625 -5.046875 C 20.6875 -3.347656 19.457031 -2.03125 17.875 -1.09375 C 16.289062 -0.15625 14.425781 0.3125 12.28125 0.3125 Z M 12.28125 -3.125 C 14.300781 -3.125 15.875 -3.820312 17 -5.21875 C 18.125 -6.613281 18.6875 -8.550781 18.6875 -11.03125 C 18.6875 -13.53125 18.128906 -15.46875 17.015625 -16.84375 C 15.898438 -18.21875 14.320312 -18.90625 12.28125 -18.90625 C 10.257812 -18.90625 8.6875 -18.21875 7.5625 -16.84375 C 6.4375 -15.46875 5.875 -13.53125 5.875 -11.03125 C 5.875 -8.550781 6.4375 -6.613281 7.5625 -5.21875 C 8.6875 -3.820312 10.257812 -3.125 12.28125 -3.125 Z M 12.28125 -3.125 "/></g></g></g><g fill="#000000" fill-opacity="1"><g transform="translate(190.135308, 243.593422)"><g/></g></g><g fill="#000000" fill-opacity="1"><g transform="translate(198.602719, 243.593422)"><g><path d="M 13 0.3125 C 10.5625 0.3125 8.503906 -0.144531 6.828125 -1.0625 C 5.148438 -1.976562 3.875 -3.28125 3 -4.96875 C 2.125 -6.65625 1.6875 -8.65625 1.6875 -10.96875 C 1.6875 -13.300781 2.132812 -15.316406 3.03125 -17.015625 C 3.925781 -18.710938 5.21875 -20.023438 6.90625 -20.953125 C 8.59375 -21.878906 10.613281 -22.34375 12.96875 -22.34375 C 14.132812 -22.34375 15.304688 -22.203125 16.484375 -21.921875 C 17.660156 -21.640625 18.769531 -21.164062 19.8125 -20.5 C 20.269531 -20.226562 20.535156 -19.867188 20.609375 -19.421875 C 20.679688 -18.972656 20.613281 -18.550781 20.40625 -18.15625 C 20.195312 -17.757812 19.882812 -17.484375 19.46875 -17.328125 C 19.050781 -17.171875 18.59375 -17.238281 18.09375 -17.53125 C 17.300781 -17.988281 16.5 -18.320312 15.6875 -18.53125 C 14.875 -18.738281 13.96875 -18.84375 12.96875 -18.84375 C 10.632812 -18.84375 8.867188 -18.164062 7.671875 -16.8125 C 6.472656 -15.457031 5.875 -13.507812 5.875 -10.96875 C 5.875 -8.40625 6.488281 -6.457031 7.71875 -5.125 C 8.945312 -3.789062 10.769531 -3.125 13.1875 -3.125 C 13.875 -3.125 14.578125 -3.179688 15.296875 -3.296875 C 16.015625 -3.410156 16.726562 -3.582031 17.4375 -3.8125 L 17.4375 -8.9375 L 14 -8.9375 C 12.914062 -8.9375 12.375 -9.4375 12.375 -10.4375 C 12.375 -11.414062 12.914062 -11.90625 14 -11.90625 L 19.15625 -11.90625 C 20.238281 -11.90625 20.78125 -11.363281 20.78125 -10.28125 L 20.78125 -2.6875 C 20.78125 -1.726562 20.40625 -1.113281 19.65625 -0.84375 C 18.738281 -0.507812 17.6875 -0.234375 16.5 -0.015625 C 15.3125 0.203125 14.144531 0.3125 13 0.3125 Z M 13 0.3125 "/></g></g></g><g fill="#000000" fill-opacity="1"><g transform="translate(221.599076, 243.593422)"><g><path d="M 2.625 0.25 C 1.894531 0.25 1.375 0 1.0625 -0.5 C 0.75 -1 0.757812 -1.601562 1.09375 -2.3125 L 9.34375 -20.59375 C 9.613281 -21.195312 9.941406 -21.628906 10.328125 -21.890625 C 10.710938 -22.148438 11.15625 -22.28125 11.65625 -22.28125 C 12.132812 -22.28125 12.566406 -22.148438 12.953125 -21.890625 C 13.335938 -21.628906 13.664062 -21.195312 13.9375 -20.59375 L 22.21875 -2.3125 C 22.550781 -1.582031 22.570312 -0.972656 22.28125 -0.484375 C 21.988281 0.00390625 21.488281 0.25 20.78125 0.25 C 20.195312 0.25 19.742188 0.109375 19.421875 -0.171875 C 19.097656 -0.453125 18.8125 -0.882812 18.5625 -1.46875 L 17 -5.09375 L 6.25 -5.09375 L 4.71875 -1.46875 C 4.445312 -0.863281 4.164062 -0.425781 3.875 -0.15625 C 3.582031 0.113281 3.164062 0.25 2.625 0.25 Z M 11.59375 -17.6875 L 7.625 -8.28125 L 15.625 -8.28125 L 11.65625 -17.6875 Z M 11.59375 -17.6875 "/></g></g></g><g fill="#000000" fill-opacity="1"><g transform="translate(244.845402, 243.593422)"><g><path d="M 4.40625 0.25 C 3.070312 0.25 2.40625 -0.4375 2.40625 -1.8125 L 2.40625 -20 C 2.40625 -21.351562 3.082031 -22.03125 4.4375 -22.03125 L 11.96875 -22.03125 C 14.382812 -22.03125 16.25 -21.453125 17.5625 -20.296875 C 18.875 -19.140625 19.53125 -17.519531 19.53125 -15.4375 C 19.53125 -13.789062 19.101562 -12.429688 18.25 -11.359375 C 17.394531 -10.285156 16.164062 -9.5625 14.5625 -9.1875 C 15.625 -8.851562 16.5 -8.050781 17.1875 -6.78125 L 19.53125 -2.4375 C 19.882812 -1.769531 19.953125 -1.15625 19.734375 -0.59375 C 19.515625 -0.03125 18.976562 0.25 18.125 0.25 C 17.5625 0.25 17.101562 0.128906 16.75 -0.109375 C 16.394531 -0.347656 16.082031 -0.71875 15.8125 -1.21875 L 12.65625 -7.03125 C 12.28125 -7.738281 11.835938 -8.210938 11.328125 -8.453125 C 10.816406 -8.691406 10.164062 -8.8125 9.375 -8.8125 L 6.40625 -8.8125 L 6.40625 -1.8125 C 6.40625 -0.4375 5.738281 0.25 4.40625 0.25 Z M 6.40625 -11.78125 L 11.28125 -11.78125 C 14.195312 -11.78125 15.65625 -12.96875 15.65625 -15.34375 C 15.65625 -17.695312 14.195312 -18.875 11.28125 -18.875 L 6.40625 -18.875 Z M 6.40625 -11.78125 "/></g></g></g><g fill="#000000" fill-opacity="1"><g transform="translate(266.279512, 243.593422)"><g><path d="M 12.65625 0.3125 C 10.363281 0.3125 8.398438 -0.148438 6.765625 -1.078125 C 5.128906 -2.003906 3.875 -3.316406 3 -5.015625 C 2.125 -6.710938 1.6875 -8.71875 1.6875 -11.03125 C 1.6875 -13.34375 2.125 -15.34375 3 -17.03125 C 3.875 -18.71875 5.128906 -20.023438 6.765625 -20.953125 C 8.398438 -21.878906 10.363281 -22.34375 12.65625 -22.34375 C 13.800781 -22.34375 14.925781 -22.195312 16.03125 -21.90625 C 17.132812 -21.613281 18.101562 -21.195312 18.9375 -20.65625 C 19.476562 -20.300781 19.800781 -19.878906 19.90625 -19.390625 C 20.007812 -18.898438 19.945312 -18.453125 19.71875 -18.046875 C 19.488281 -17.640625 19.144531 -17.367188 18.6875 -17.234375 C 18.226562 -17.097656 17.71875 -17.21875 17.15625 -17.59375 C 16.507812 -18.007812 15.8125 -18.3125 15.0625 -18.5 C 14.3125 -18.6875 13.550781 -18.78125 12.78125 -18.78125 C 10.550781 -18.78125 8.851562 -18.109375 7.6875 -16.765625 C 6.519531 -15.421875 5.9375 -13.507812 5.9375 -11.03125 C 5.9375 -8.550781 6.519531 -6.632812 7.6875 -5.28125 C 8.851562 -3.925781 10.550781 -3.25 12.78125 -3.25 C 13.570312 -3.25 14.351562 -3.347656 15.125 -3.546875 C 15.894531 -3.742188 16.625 -4.050781 17.3125 -4.46875 C 17.875 -4.820312 18.375 -4.9375 18.8125 -4.8125 C 19.25 -4.6875 19.578125 -4.429688 19.796875 -4.046875 C 20.015625 -3.660156 20.082031 -3.238281 20 -2.78125 C 19.914062 -2.320312 19.632812 -1.914062 19.15625 -1.5625 C 18.320312 -0.957031 17.328125 -0.492188 16.171875 -0.171875 C 15.015625 0.148438 13.84375 0.3125 12.65625 0.3125 Z M 12.65625 0.3125 "/></g></g></g><g fill="#000000" fill-opacity="1"><g transform="translate(287.526153, 243.593422)"><g><path d="M 4.40625 0.25 C 3.070312 0.25 2.40625 -0.4375 2.40625 -1.8125 L 2.40625 -20.21875 C 2.40625 -21.59375 3.070312 -22.28125 4.40625 -22.28125 C 5.738281 -22.28125 6.40625 -21.59375 6.40625 -20.21875 L 6.40625 -1.8125 C 6.40625 -0.4375 5.738281 0.25 4.40625 0.25 Z M 4.40625 0.25 "/></g></g></g><g fill="#000000" fill-opacity="1"><g transform="translate(296.337245, 243.593422)"><g><path d="M 2.625 0.25 C 1.894531 0.25 1.375 0 1.0625 -0.5 C 0.75 -1 0.757812 -1.601562 1.09375 -2.3125 L 9.34375 -20.59375 C 9.613281 -21.195312 9.941406 -21.628906 10.328125 -21.890625 C 10.710938 -22.148438 11.15625 -22.28125 11.65625 -22.28125 C 12.132812 -22.28125 12.566406 -22.148438 12.953125 -21.890625 C 13.335938 -21.628906 13.664062 -21.195312 13.9375 -20.59375 L 22.21875 -2.3125 C 22.550781 -1.582031 22.570312 -0.972656 22.28125 -0.484375 C 21.988281 0.00390625 21.488281 0.25 20.78125 0.25 C 20.195312 0.25 19.742188 0.109375 19.421875 -0.171875 C 19.097656 -0.453125 18.8125 -0.882812 18.5625 -1.46875 L 17 -5.09375 L 6.25 -5.09375 L 4.71875 -1.46875 C 4.445312 -0.863281 4.164062 -0.425781 3.875 -0.15625 C 3.582031 0.113281 3.164062 0.25 2.625 0.25 Z M 11.59375 -17.6875 L 7.625 -8.28125 L 15.625 -8.28125 L 11.65625 -17.6875 Z M 11.59375 -17.6875 "/></g></g></g><g fill="#000000" fill-opacity="1"><g transform="translate(319.58357, 243.593422)"><g><path d="M 2.75 0.90625 C 2.601562 1.40625 2.335938 1.734375 1.953125 1.890625 C 1.566406 2.046875 1.179688 2.066406 0.796875 1.953125 C 0.410156 1.835938 0.109375 1.613281 -0.109375 1.28125 C -0.328125 0.945312 -0.351562 0.519531 -0.1875 0 L 7.03125 -22.40625 C 7.195312 -22.90625 7.46875 -23.238281 7.84375 -23.40625 C 8.21875 -23.570312 8.597656 -23.597656 8.984375 -23.484375 C 9.367188 -23.367188 9.671875 -23.140625 9.890625 -22.796875 C 10.109375 -22.453125 10.132812 -22.03125 9.96875 -21.53125 Z M 2.75 0.90625 "/></g></g></g><g fill="#000000" fill-opacity="1"><g transform="translate(329.36329, 243.593422)"><g><path d="M 3.21875 -1.65625 C 2.78125 -1.46875 2.398438 -1.457031 2.078125 -1.625 C 1.753906 -1.789062 1.53125 -2.046875 1.40625 -2.390625 C 1.28125 -2.734375 1.273438 -3.078125 1.390625 -3.421875 C 1.503906 -3.765625 1.78125 -4.03125 2.21875 -4.21875 L 13.53125 -8.96875 L 2.21875 -13.71875 C 1.78125 -13.90625 1.503906 -14.175781 1.390625 -14.53125 C 1.273438 -14.882812 1.28125 -15.234375 1.40625 -15.578125 C 1.53125 -15.921875 1.753906 -16.175781 2.078125 -16.34375 C 2.398438 -16.507812 2.78125 -16.5 3.21875 -16.3125 L 15.71875 -11 C 16.675781 -10.601562 17.15625 -9.9375 17.15625 -9 C 17.15625 -8.019531 16.675781 -7.332031 15.71875 -6.9375 Z M 3.21875 -1.65625 "/></g></g></g><g fill="#ff6100" fill-opacity="1"><g transform="translate(71.993165, 276.365958)"><g><path d="M 2.53125 0 C 1.738281 0 1.34375 -0.394531 1.34375 -1.1875 L 1.34375 -11.140625 C 1.34375 -11.941406 1.738281 -12.34375 2.53125 -12.34375 L 5.9375 -12.34375 C 8 -12.34375 9.59375 -11.8125 10.71875 -10.75 C 11.84375 -9.6875 12.40625 -8.160156 12.40625 -6.171875 C 12.40625 -4.203125 11.84375 -2.679688 10.71875 -1.609375 C 9.59375 -0.535156 8 0 5.9375 0 Z M 3.59375 -1.859375 L 5.796875 -1.859375 C 8.640625 -1.859375 10.0625 -3.296875 10.0625 -6.171875 C 10.0625 -9.046875 8.640625 -10.484375 5.796875 -10.484375 L 3.59375 -10.484375 Z M 3.59375 -1.859375 "/></g></g></g><g fill="#ff6100" fill-opacity="1"><g transform="translate(87.070729, 276.365958)"><g><path d="M 2.53125 0 C 1.738281 0 1.34375 -0.394531 1.34375 -1.1875 L 1.34375 -11.140625 C 1.34375 -11.941406 1.738281 -12.34375 2.53125 -12.34375 L 8.78125 -12.34375 C 9.382812 -12.34375 9.6875 -12.050781 9.6875 -11.46875 C 9.6875 -10.851562 9.382812 -10.546875 8.78125 -10.546875 L 3.5 -10.546875 L 3.5 -7.15625 L 8.40625 -7.15625 C 9.007812 -7.15625 9.3125 -6.859375 9.3125 -6.265625 C 9.3125 -5.671875 9.007812 -5.375 8.40625 -5.375 L 3.5 -5.375 L 3.5 -1.78125 L 8.78125 -1.78125 C 9.382812 -1.78125 9.6875 -1.484375 9.6875 -0.890625 C 9.6875 -0.296875 9.382812 0 8.78125 0 Z M 2.53125 0 "/></g></g></g><g fill="#ff6100" fill-opacity="1"><g transform="translate(99.262407, 276.365958)"><g><path d="M 5.59375 0.171875 C 4.8125 0.171875 4.050781 0.0859375 3.3125 -0.078125 C 2.570312 -0.253906 1.925781 -0.519531 1.375 -0.875 C 1.113281 -1.050781 0.953125 -1.265625 0.890625 -1.515625 C 0.835938 -1.773438 0.859375 -2.019531 0.953125 -2.25 C 1.054688 -2.476562 1.210938 -2.632812 1.421875 -2.71875 C 1.640625 -2.8125 1.890625 -2.769531 2.171875 -2.59375 C 2.679688 -2.289062 3.222656 -2.066406 3.796875 -1.921875 C 4.367188 -1.785156 4.96875 -1.71875 5.59375 -1.71875 C 6.519531 -1.71875 7.191406 -1.867188 7.609375 -2.171875 C 8.035156 -2.484375 8.25 -2.882812 8.25 -3.375 C 8.25 -3.78125 8.097656 -4.097656 7.796875 -4.328125 C 7.492188 -4.566406 6.984375 -4.765625 6.265625 -4.921875 L 4.34375 -5.3125 C 2.144531 -5.78125 1.046875 -6.910156 1.046875 -8.703125 C 1.046875 -9.472656 1.25 -10.140625 1.65625 -10.703125 C 2.070312 -11.273438 2.640625 -11.71875 3.359375 -12.03125 C 4.078125 -12.351562 4.910156 -12.515625 5.859375 -12.515625 C 6.554688 -12.515625 7.21875 -12.425781 7.84375 -12.25 C 8.476562 -12.070312 9.050781 -11.816406 9.5625 -11.484375 C 9.789062 -11.316406 9.925781 -11.113281 9.96875 -10.875 C 10.019531 -10.632812 9.992188 -10.410156 9.890625 -10.203125 C 9.785156 -10.003906 9.617188 -9.863281 9.390625 -9.78125 C 9.160156 -9.707031 8.894531 -9.757812 8.59375 -9.9375 C 8.15625 -10.1875 7.710938 -10.363281 7.265625 -10.46875 C 6.828125 -10.570312 6.351562 -10.625 5.84375 -10.625 C 5.039062 -10.625 4.410156 -10.453125 3.953125 -10.109375 C 3.492188 -9.773438 3.265625 -9.332031 3.265625 -8.78125 C 3.265625 -8.363281 3.40625 -8.03125 3.6875 -7.78125 C 3.96875 -7.53125 4.445312 -7.332031 5.125 -7.1875 L 7.03125 -6.796875 C 8.1875 -6.546875 9.046875 -6.15625 9.609375 -5.625 C 10.179688 -5.101562 10.46875 -4.40625 10.46875 -3.53125 C 10.46875 -2.800781 10.269531 -2.15625 9.875 -1.59375 C 9.476562 -1.03125 8.914062 -0.59375 8.1875 -0.28125 C 7.457031 0.0195312 6.59375 0.171875 5.59375 0.171875 Z M 5.59375 0.171875 "/></g></g></g><g fill="#ff6100" fill-opacity="1"><g transform="translate(112.048747, 276.365958)"><g><path d="M 2.53125 0 C 1.738281 0 1.34375 -0.394531 1.34375 -1.1875 L 1.34375 -11.140625 C 1.34375 -11.941406 1.738281 -12.34375 2.53125 -12.34375 L 8.78125 -12.34375 C 9.382812 -12.34375 9.6875 -12.050781 9.6875 -11.46875 C 9.6875 -10.851562 9.382812 -10.546875 8.78125 -10.546875 L 3.5 -10.546875 L 3.5 -7.15625 L 8.40625 -7.15625 C 9.007812 -7.15625 9.3125 -6.859375 9.3125 -6.265625 C 9.3125 -5.671875 9.007812 -5.375 8.40625 -5.375 L 3.5 -5.375 L 3.5 -1.78125 L 8.78125 -1.78125 C 9.382812 -1.78125 9.6875 -1.484375 9.6875 -0.890625 C 9.6875 -0.296875 9.382812 0 8.78125 0 Z M 2.53125 0 "/></g></g></g><g fill="#ff6100" fill-opacity="1"><g transform="translate(124.240423, 276.365958)"><g><path d="M 2.390625 0.140625 C 1.691406 0.140625 1.34375 -0.21875 1.34375 -0.9375 L 1.34375 -11.359375 C 1.34375 -11.722656 1.429688 -12 1.609375 -12.1875 C 1.796875 -12.382812 2.035156 -12.484375 2.328125 -12.484375 C 2.597656 -12.484375 2.796875 -12.429688 2.921875 -12.328125 C 3.054688 -12.234375 3.21875 -12.066406 3.40625 -11.828125 L 9.65625 -3.734375 L 9.65625 -11.40625 C 9.65625 -12.125 10.003906 -12.484375 10.703125 -12.484375 C 11.398438 -12.484375 11.75 -12.125 11.75 -11.40625 L 11.75 -0.90625 C 11.75 -0.582031 11.664062 -0.328125 11.5 -0.140625 C 11.332031 0.046875 11.109375 0.140625 10.828125 0.140625 C 10.566406 0.140625 10.351562 0.0859375 10.1875 -0.015625 C 10.03125 -0.117188 9.859375 -0.289062 9.671875 -0.53125 L 3.4375 -8.640625 L 3.4375 -0.9375 C 3.4375 -0.21875 3.085938 0.140625 2.390625 0.140625 Z M 2.390625 0.140625 "/></g></g></g><g fill="#ff6100" fill-opacity="1"><g transform="translate(139.073127, 276.365958)"><g><path d="M 6.25 0.140625 C 5.65625 0.140625 5.226562 -0.148438 4.96875 -0.734375 L 0.40625 -10.984375 C 0.21875 -11.429688 0.222656 -11.789062 0.421875 -12.0625 C 0.628906 -12.34375 0.929688 -12.484375 1.328125 -12.484375 C 1.671875 -12.484375 1.925781 -12.410156 2.09375 -12.265625 C 2.257812 -12.117188 2.398438 -11.898438 2.515625 -11.609375 L 6.28125 -2.875 L 10.046875 -11.625 C 10.171875 -11.90625 10.320312 -12.117188 10.5 -12.265625 C 10.675781 -12.410156 10.921875 -12.484375 11.234375 -12.484375 C 11.609375 -12.484375 11.890625 -12.34375 12.078125 -12.0625 C 12.273438 -11.78125 12.273438 -11.421875 12.078125 -10.984375 L 7.5 -0.734375 C 7.375 -0.441406 7.210938 -0.222656 7.015625 -0.078125 C 6.828125 0.0664062 6.570312 0.140625 6.25 0.140625 Z M 6.25 0.140625 "/></g></g></g><g fill="#ff6100" fill-opacity="1"><g transform="translate(153.293669, 276.365958)"><g><path d="M 6.875 0.171875 C 5.6875 0.171875 4.644531 -0.0859375 3.75 -0.609375 C 2.863281 -1.140625 2.171875 -1.878906 1.671875 -2.828125 C 1.179688 -3.773438 0.9375 -4.890625 0.9375 -6.171875 C 0.9375 -7.472656 1.179688 -8.59375 1.671875 -9.53125 C 2.171875 -10.476562 2.863281 -11.210938 3.75 -11.734375 C 4.632812 -12.253906 5.675781 -12.515625 6.875 -12.515625 C 8.082031 -12.515625 9.128906 -12.253906 10.015625 -11.734375 C 10.898438 -11.210938 11.585938 -10.476562 12.078125 -9.53125 C 12.566406 -8.59375 12.8125 -7.476562 12.8125 -6.1875 C 12.8125 -4.894531 12.566406 -3.773438 12.078125 -2.828125 C 11.585938 -1.878906 10.898438 -1.140625 10.015625 -0.609375 C 9.128906 -0.0859375 8.082031 0.171875 6.875 0.171875 Z M 6.875 -1.75 C 8.007812 -1.75 8.890625 -2.140625 9.515625 -2.921875 C 10.148438 -3.703125 10.46875 -4.785156 10.46875 -6.171875 C 10.46875 -7.578125 10.15625 -8.664062 9.53125 -9.4375 C 8.90625 -10.207031 8.019531 -10.59375 6.875 -10.59375 C 5.75 -10.59375 4.867188 -10.207031 4.234375 -9.4375 C 3.609375 -8.664062 3.296875 -7.578125 3.296875 -6.171875 C 3.296875 -4.785156 3.609375 -3.703125 4.234375 -2.921875 C 4.867188 -2.140625 5.75 -1.75 6.875 -1.75 Z M 6.875 -1.75 "/></g></g></g><g fill="#ff6100" fill-opacity="1"><g transform="translate(168.773505, 276.365958)"><g><path d="M 2.484375 0 C 1.722656 0 1.34375 -0.382812 1.34375 -1.15625 L 1.34375 -11.25 C 1.34375 -12.007812 1.71875 -12.390625 2.46875 -12.390625 C 3.21875 -12.390625 3.59375 -12.007812 3.59375 -11.25 L 3.59375 -1.90625 L 8.65625 -1.90625 C 9.3125 -1.90625 9.640625 -1.59375 9.640625 -0.96875 C 9.640625 -0.320312 9.3125 0 8.65625 0 Z M 2.484375 0 "/></g></g></g><g fill="#ff6100" fill-opacity="1"><g transform="translate(180.353022, 276.365958)"><g><path d="M 6.25 0.140625 C 5.65625 0.140625 5.226562 -0.148438 4.96875 -0.734375 L 0.40625 -10.984375 C 0.21875 -11.429688 0.222656 -11.789062 0.421875 -12.0625 C 0.628906 -12.34375 0.929688 -12.484375 1.328125 -12.484375 C 1.671875 -12.484375 1.925781 -12.410156 2.09375 -12.265625 C 2.257812 -12.117188 2.398438 -11.898438 2.515625 -11.609375 L 6.28125 -2.875 L 10.046875 -11.625 C 10.171875 -11.90625 10.320312 -12.117188 10.5 -12.265625 C 10.675781 -12.410156 10.921875 -12.484375 11.234375 -12.484375 C 11.609375 -12.484375 11.890625 -12.34375 12.078125 -12.0625 C 12.273438 -11.78125 12.273438 -11.421875 12.078125 -10.984375 L 7.5 -0.734375 C 7.375 -0.441406 7.210938 -0.222656 7.015625 -0.078125 C 6.828125 0.0664062 6.570312 0.140625 6.25 0.140625 Z M 6.25 0.140625 "/></g></g></g><g fill="#ff6100" fill-opacity="1"><g transform="translate(194.573571, 276.365958)"><g><path d="M 2.53125 0 C 1.738281 0 1.34375 -0.394531 1.34375 -1.1875 L 1.34375 -11.140625 C 1.34375 -11.941406 1.738281 -12.34375 2.53125 -12.34375 L 8.78125 -12.34375 C 9.382812 -12.34375 9.6875 -12.050781 9.6875 -11.46875 C 9.6875 -10.851562 9.382812 -10.546875 8.78125 -10.546875 L 3.5 -10.546875 L 3.5 -7.15625 L 8.40625 -7.15625 C 9.007812 -7.15625 9.3125 -6.859375 9.3125 -6.265625 C 9.3125 -5.671875 9.007812 -5.375 8.40625 -5.375 L 3.5 -5.375 L 3.5 -1.78125 L 8.78125 -1.78125 C 9.382812 -1.78125 9.6875 -1.484375 9.6875 -0.890625 C 9.6875 -0.296875 9.382812 0 8.78125 0 Z M 2.53125 0 "/></g></g></g><g fill="#ff6100" fill-opacity="1"><g transform="translate(206.765248, 276.365958)"><g><path d="M 2.53125 0 C 1.738281 0 1.34375 -0.394531 1.34375 -1.1875 L 1.34375 -11.140625 C 1.34375 -11.941406 1.738281 -12.34375 2.53125 -12.34375 L 5.9375 -12.34375 C 8 -12.34375 9.59375 -11.8125 10.71875 -10.75 C 11.84375 -9.6875 12.40625 -8.160156 12.40625 -6.171875 C 12.40625 -4.203125 11.84375 -2.679688 10.71875 -1.609375 C 9.59375 -0.535156 8 0 5.9375 0 Z M 3.59375 -1.859375 L 5.796875 -1.859375 C 8.640625 -1.859375 10.0625 -3.296875 10.0625 -6.171875 C 10.0625 -9.046875 8.640625 -10.484375 5.796875 -10.484375 L 3.59375 -10.484375 Z M 3.59375 -1.859375 "/></g></g></g><g fill="#ff6100" fill-opacity="1"><g transform="translate(221.842809, 276.365958)"><g><path d="M 6.875 0.171875 C 5.6875 0.171875 4.644531 -0.0859375 3.75 -0.609375 C 2.863281 -1.140625 2.171875 -1.878906 1.671875 -2.828125 C 1.179688 -3.773438 0.9375 -4.890625 0.9375 -6.171875 C 0.9375 -7.472656 1.179688 -8.59375 1.671875 -9.53125 C 2.171875 -10.476562 2.863281 -11.210938 3.75 -11.734375 C 4.632812 -12.253906 5.675781 -12.515625 6.875 -12.515625 C 8.082031 -12.515625 9.128906 -12.253906 10.015625 -11.734375 C 10.898438 -11.210938 11.585938 -10.476562 12.078125 -9.53125 C 12.566406 -8.59375 12.8125 -7.476562 12.8125 -6.1875 C 12.8125 -4.894531 12.566406 -3.773438 12.078125 -2.828125 C 11.585938 -1.878906 10.898438 -1.140625 10.015625 -0.609375 C 9.128906 -0.0859375 8.082031 0.171875 6.875 0.171875 Z M 6.875 -1.75 C 8.007812 -1.75 8.890625 -2.140625 9.515625 -2.921875 C 10.148438 -3.703125 10.46875 -4.785156 10.46875 -6.171875 C 10.46875 -7.578125 10.15625 -8.664062 9.53125 -9.4375 C 8.90625 -10.207031 8.019531 -10.59375 6.875 -10.59375 C 5.75 -10.59375 4.867188 -10.207031 4.234375 -9.4375 C 3.609375 -8.664062 3.296875 -7.578125 3.296875 -6.171875 C 3.296875 -4.785156 3.609375 -3.703125 4.234375 -2.921875 C 4.867188 -2.140625 5.75 -1.75 6.875 -1.75 Z M 6.875 -1.75 "/></g></g></g><g fill="#ff6100" fill-opacity="1"><g transform="translate(237.322644, 276.365958)"><g><path d="M 2.46875 0.140625 C 1.71875 0.140625 1.34375 -0.242188 1.34375 -1.015625 L 1.34375 -11.203125 C 1.34375 -11.960938 1.722656 -12.34375 2.484375 -12.34375 L 6.703125 -12.34375 C 8.054688 -12.34375 9.097656 -12.015625 9.828125 -11.359375 C 10.566406 -10.710938 10.9375 -9.804688 10.9375 -8.640625 C 10.9375 -7.722656 10.695312 -6.960938 10.21875 -6.359375 C 9.738281 -5.753906 9.050781 -5.347656 8.15625 -5.140625 C 8.75 -4.953125 9.238281 -4.503906 9.625 -3.796875 L 10.9375 -1.359375 C 11.132812 -0.992188 11.171875 -0.648438 11.046875 -0.328125 C 10.929688 -0.015625 10.632812 0.140625 10.15625 0.140625 C 9.832031 0.140625 9.570312 0.0703125 9.375 -0.0625 C 9.175781 -0.195312 9.003906 -0.40625 8.859375 -0.6875 L 7.09375 -3.9375 C 6.875 -4.332031 6.625 -4.597656 6.34375 -4.734375 C 6.0625 -4.867188 5.695312 -4.9375 5.25 -4.9375 L 3.59375 -4.9375 L 3.59375 -1.015625 C 3.59375 -0.242188 3.21875 0.140625 2.46875 0.140625 Z M 3.59375 -6.59375 L 6.3125 -6.59375 C 7.945312 -6.59375 8.765625 -7.257812 8.765625 -8.59375 C 8.765625 -9.90625 7.945312 -10.5625 6.3125 -10.5625 L 3.59375 -10.5625 Z M 3.59375 -6.59375 "/></g></g></g><g fill="#ff6100" fill-opacity="1"><g transform="translate(251.070946, 276.365958)"><g/></g></g><g fill="#ff6100" fill-opacity="1"><g transform="translate(257.560804, 276.365958)"><g><path d="M 5.6875 0.140625 C 5.09375 0.140625 4.6875 -0.175781 4.46875 -0.8125 L 0.8125 -11.140625 C 0.675781 -11.515625 0.695312 -11.832031 0.875 -12.09375 C 1.0625 -12.351562 1.367188 -12.484375 1.796875 -12.484375 C 2.117188 -12.484375 2.363281 -12.410156 2.53125 -12.265625 C 2.707031 -12.117188 2.847656 -11.882812 2.953125 -11.5625 L 5.75 -3.234375 L 8.703125 -11.546875 C 8.921875 -12.171875 9.289062 -12.484375 9.8125 -12.484375 C 10.09375 -12.484375 10.316406 -12.40625 10.484375 -12.25 C 10.648438 -12.09375 10.789062 -11.851562 10.90625 -11.53125 L 13.796875 -3.109375 L 16.671875 -11.5625 C 16.773438 -11.863281 16.914062 -12.09375 17.09375 -12.25 C 17.269531 -12.40625 17.507812 -12.484375 17.8125 -12.484375 C 18.1875 -12.484375 18.460938 -12.351562 18.640625 -12.09375 C 18.816406 -11.832031 18.835938 -11.515625 18.703125 -11.140625 L 15.015625 -0.78125 C 14.898438 -0.46875 14.75 -0.234375 14.5625 -0.078125 C 14.375 0.0664062 14.125 0.140625 13.8125 0.140625 C 13.488281 0.140625 13.234375 0.0664062 13.046875 -0.078125 C 12.867188 -0.234375 12.71875 -0.476562 12.59375 -0.8125 L 9.75 -8.90625 L 6.875 -0.78125 C 6.757812 -0.46875 6.609375 -0.234375 6.421875 -0.078125 C 6.242188 0.0664062 6 0.140625 5.6875 0.140625 Z M 5.6875 0.140625 "/></g></g></g><g fill="#ff6100" fill-opacity="1"><g transform="translate(278.777434, 276.365958)"><g><path d="M 2.53125 0 C 1.738281 0 1.34375 -0.394531 1.34375 -1.1875 L 1.34375 -11.140625 C 1.34375 -11.941406 1.738281 -12.34375 2.53125 -12.34375 L 8.78125 -12.34375 C 9.382812 -12.34375 9.6875 -12.050781 9.6875 -11.46875 C 9.6875 -10.851562 9.382812 -10.546875 8.78125 -10.546875 L 3.5 -10.546875 L 3.5 -7.15625 L 8.40625 -7.15625 C 9.007812 -7.15625 9.3125 -6.859375 9.3125 -6.265625 C 9.3125 -5.671875 9.007812 -5.375 8.40625 -5.375 L 3.5 -5.375 L 3.5 -1.78125 L 8.78125 -1.78125 C 9.382812 -1.78125 9.6875 -1.484375 9.6875 -0.890625 C 9.6875 -0.296875 9.382812 0 8.78125 0 Z M 2.53125 0 "/></g></g></g><g fill="#ff6100" fill-opacity="1"><g transform="translate(290.96911, 276.365958)"><g><path d="M 2.53125 0 C 1.738281 0 1.34375 -0.394531 1.34375 -1.1875 L 1.34375 -11.140625 C 1.34375 -11.941406 1.738281 -12.34375 2.53125 -12.34375 L 6.734375 -12.34375 C 8.035156 -12.34375 9.039062 -12.054688 9.75 -11.484375 C 10.457031 -10.921875 10.8125 -10.140625 10.8125 -9.140625 C 10.8125 -8.472656 10.640625 -7.898438 10.296875 -7.421875 C 9.960938 -6.941406 9.5 -6.59375 8.90625 -6.375 C 9.601562 -6.175781 10.144531 -5.828125 10.53125 -5.328125 C 10.925781 -4.828125 11.125 -4.203125 11.125 -3.453125 C 11.125 -2.347656 10.753906 -1.492188 10.015625 -0.890625 C 9.273438 -0.296875 8.25 0 6.9375 0 Z M 3.5 -7.109375 L 6.359375 -7.109375 C 7.878906 -7.109375 8.640625 -7.695312 8.640625 -8.875 C 8.640625 -10.050781 7.878906 -10.640625 6.359375 -10.640625 L 3.5 -10.640625 Z M 3.5 -1.703125 L 6.65625 -1.703125 C 8.1875 -1.703125 8.953125 -2.316406 8.953125 -3.546875 C 8.953125 -4.785156 8.1875 -5.40625 6.65625 -5.40625 L 3.5 -5.40625 Z M 3.5 -1.703125 "/></g></g></g></svg>