<svg xmlns="http://www.w3.org/2000/svg" xmlns:xlink="http://www.w3.org/1999/xlink" width="500" zoomAndPan="magnify" viewBox="0 0 375 374.999991" height="500" preserveAspectRatio="xMidYMid meet" version="1.0"><defs><g/><clipPath id="cd881b0c21"><path d="M 75.359375 286.777344 L 87.828125 286.777344 L 87.828125 290.902344 L 75.359375 290.902344 Z M 75.359375 286.777344 " clip-rule="nonzero"/></clipPath><clipPath id="297db65e58"><path d="M 89.480469 286.777344 L 102.113281 286.777344 L 102.113281 290.902344 L 89.480469 290.902344 Z M 89.480469 286.777344 " clip-rule="nonzero"/></clipPath><clipPath id="2475b95360"><path d="M 103.597656 286.777344 L 116.234375 286.777344 L 116.234375 290.902344 L 103.597656 290.902344 Z M 103.597656 286.777344 " clip-rule="nonzero"/></clipPath><clipPath id="17a5b9c010"><path d="M 117.71875 286.777344 L 129 286.777344 L 129 290.902344 L 117.71875 290.902344 Z M 117.71875 286.777344 " clip-rule="nonzero"/></clipPath><clipPath id="50f54951c6"><path d="M 131.839844 286.777344 L 143 286.777344 L 143 290.902344 L 131.839844 290.902344 Z M 131.839844 286.777344 " clip-rule="nonzero"/></clipPath><clipPath id="19fe5e32d2"><path d="M 145.960938 286.777344 L 158.429688 286.777344 L 158.429688 290.902344 L 145.960938 290.902344 Z M 145.960938 286.777344 " clip-rule="nonzero"/></clipPath><clipPath id="fd1dbb7cac"><path d="M 160.078125 286.777344 L 172.550781 286.777344 L 172.550781 290.902344 L 160.078125 290.902344 Z M 160.078125 286.777344 " clip-rule="nonzero"/></clipPath><clipPath id="ba1cfd3ee0"><path d="M 174.199219 286.777344 L 186.671875 286.777344 L 186.671875 290.902344 L 174.199219 290.902344 Z M 174.199219 286.777344 " clip-rule="nonzero"/></clipPath><clipPath id="6dffcb4a35"><path d="M 188.320312 286.777344 L 200.789062 286.777344 L 200.789062 290.902344 L 188.320312 290.902344 Z M 188.320312 286.777344 " clip-rule="nonzero"/></clipPath><clipPath id="8336dbbfda"><path d="M 202.4375 286.777344 L 214.910156 286.777344 L 214.910156 290.902344 L 202.4375 290.902344 Z M 202.4375 286.777344 " clip-rule="nonzero"/></clipPath><clipPath id="96a05a3a29"><path d="M 216.558594 286.777344 L 228 286.777344 L 228 290.902344 L 216.558594 290.902344 Z M 216.558594 286.777344 " clip-rule="nonzero"/></clipPath><clipPath id="4efd9c3f08"><path d="M 230.679688 286.777344 L 243.316406 286.777344 L 243.316406 290.902344 L 230.679688 290.902344 Z M 230.679688 286.777344 " clip-rule="nonzero"/></clipPath><clipPath id="c5594f242e"><path d="M 244.800781 286.777344 L 256 286.777344 L 256 290.902344 L 244.800781 290.902344 Z M 244.800781 286.777344 " clip-rule="nonzero"/></clipPath><clipPath id="2058d35f80"><path d="M 258.917969 286.777344 L 270 286.777344 L 270 290.902344 L 258.917969 290.902344 Z M 258.917969 286.777344 " clip-rule="nonzero"/></clipPath><clipPath id="a72b039c63"><path d="M 273.039062 286.777344 L 285.675781 286.777344 L 285.675781 290.902344 L 273.039062 290.902344 Z M 273.039062 286.777344 " clip-rule="nonzero"/></clipPath><clipPath id="039833418b"><path d="M 287.160156 286.777344 L 299.628906 286.777344 L 299.628906 290.902344 L 287.160156 290.902344 Z M 287.160156 286.777344 " clip-rule="nonzero"/></clipPath></defs><path stroke-linecap="butt" transform="matrix(0.750285, -0.000000000000000094, 0.000000000000000094, 0.75, 18.87873, 291.014366)" fill="none" stroke-linejoin="miter" d="M 0.000234724 1.501678 L 451.844001 1.501678 " stroke="#3f3d56" stroke-width="3" stroke-opacity="1" stroke-miterlimit="4"/><g clip-path="url(#cd881b0c21)"><path fill="#3f3d56" d="M 75.359375 286.777344 L 89.441406 286.777344 L 89.441406 290.300781 L 75.359375 290.300781 Z M 75.359375 286.777344 " fill-opacity="1" fill-rule="nonzero"/></g><g clip-path="url(#297db65e58)"><path fill="#3f3d56" d="M 89.480469 286.777344 L 103.558594 286.777344 L 103.558594 290.300781 L 89.480469 290.300781 Z M 89.480469 286.777344 " fill-opacity="1" fill-rule="nonzero"/></g><g clip-path="url(#2475b95360)"><path fill="#3f3d56" d="M 103.597656 286.777344 L 117.679688 286.777344 L 117.679688 290.300781 L 103.597656 290.300781 Z M 103.597656 286.777344 " fill-opacity="1" fill-rule="nonzero"/></g><g clip-path="url(#17a5b9c010)"><path fill="#3f3d56" d="M 117.71875 286.777344 L 128.28125 286.777344 L 128.28125 290.300781 L 117.71875 290.300781 Z M 117.71875 286.777344 " fill-opacity="1" fill-rule="nonzero"/></g><g clip-path="url(#50f54951c6)"><path fill="#3f3d56" d="M 131.839844 286.777344 L 142.398438 286.777344 L 142.398438 290.300781 L 131.839844 290.300781 Z M 131.839844 286.777344 " fill-opacity="1" fill-rule="nonzero"/></g><g clip-path="url(#19fe5e32d2)"><path fill="#3f3d56" d="M 145.960938 286.777344 L 160.039062 286.777344 L 160.039062 290.300781 L 145.960938 290.300781 Z M 145.960938 286.777344 " fill-opacity="1" fill-rule="nonzero"/></g><g clip-path="url(#fd1dbb7cac)"><path fill="#3f3d56" d="M 160.078125 286.777344 L 174.160156 286.777344 L 174.160156 290.300781 L 160.078125 290.300781 Z M 160.078125 286.777344 " fill-opacity="1" fill-rule="nonzero"/></g><g clip-path="url(#ba1cfd3ee0)"><path fill="#3f3d56" d="M 174.199219 286.777344 L 188.28125 286.777344 L 188.28125 290.300781 L 174.199219 290.300781 Z M 174.199219 286.777344 " fill-opacity="1" fill-rule="nonzero"/></g><g clip-path="url(#6dffcb4a35)"><path fill="#3f3d56" d="M 188.320312 286.777344 L 202.398438 286.777344 L 202.398438 290.300781 L 188.320312 290.300781 Z M 188.320312 286.777344 " fill-opacity="1" fill-rule="nonzero"/></g><g clip-path="url(#8336dbbfda)"><path fill="#3f3d56" d="M 202.4375 286.777344 L 216.519531 286.777344 L 216.519531 290.300781 L 202.4375 290.300781 Z M 202.4375 286.777344 " fill-opacity="1" fill-rule="nonzero"/></g><g clip-path="url(#96a05a3a29)"><path fill="#3f3d56" d="M 216.558594 286.777344 L 227.121094 286.777344 L 227.121094 290.300781 L 216.558594 290.300781 Z M 216.558594 286.777344 " fill-opacity="1" fill-rule="nonzero"/></g><g clip-path="url(#4efd9c3f08)"><path fill="#3f3d56" d="M 230.679688 286.777344 L 244.761719 286.777344 L 244.761719 290.300781 L 230.679688 290.300781 Z M 230.679688 286.777344 " fill-opacity="1" fill-rule="nonzero"/></g><g clip-path="url(#c5594f242e)"><path fill="#3f3d56" d="M 244.800781 286.777344 L 255.359375 286.777344 L 255.359375 290.300781 L 244.800781 290.300781 Z M 244.800781 286.777344 " fill-opacity="1" fill-rule="nonzero"/></g><g clip-path="url(#2058d35f80)"><path fill="#3f3d56" d="M 258.917969 286.777344 L 269.480469 286.777344 L 269.480469 290.300781 L 258.917969 290.300781 Z M 258.917969 286.777344 " fill-opacity="1" fill-rule="nonzero"/></g><g clip-path="url(#a72b039c63)"><path fill="#3f3d56" d="M 273.039062 286.777344 L 287.121094 286.777344 L 287.121094 290.300781 L 273.039062 290.300781 Z M 273.039062 286.777344 " fill-opacity="1" fill-rule="nonzero"/></g><g clip-path="url(#039833418b)"><path fill="#3f3d56" d="M 287.160156 286.777344 L 301.238281 286.777344 L 301.238281 290.300781 L 287.160156 290.300781 Z M 287.160156 286.777344 " fill-opacity="1" fill-rule="nonzero"/></g><g fill="#008037" fill-opacity="1"><g transform="translate(43.555685, 245.359407)"><g><path d="M 5.3125 0.28125 C 4.445312 0.28125 3.601562 0.0664062 2.78125 -0.359375 C 1.96875 -0.796875 1.289062 -1.382812 0.75 -2.125 L 1.796875 -3.0625 C 2.210938 -2.40625 2.742188 -1.882812 3.390625 -1.5 C 4.035156 -1.113281 4.734375 -0.921875 5.484375 -0.921875 C 6.296875 -0.921875 6.914062 -1.097656 7.34375 -1.453125 C 7.769531 -1.816406 7.984375 -2.3125 7.984375 -2.9375 C 7.984375 -3.613281 7.753906 -4.132812 7.296875 -4.5 C 6.847656 -4.863281 6.125 -5.179688 5.125 -5.453125 C 2.644531 -6.066406 1.40625 -7.195312 1.40625 -8.84375 C 1.40625 -9.875 1.738281 -10.664062 2.40625 -11.21875 C 3.070312 -11.769531 4 -12.046875 5.1875 -12.046875 C 6.050781 -12.046875 6.820312 -11.882812 7.5 -11.5625 C 8.1875 -11.238281 8.800781 -10.742188 9.34375 -10.078125 L 8.328125 -9.203125 C 7.910156 -9.773438 7.453125 -10.195312 6.953125 -10.46875 C 6.460938 -10.738281 5.875 -10.875 5.1875 -10.875 C 4.457031 -10.875 3.863281 -10.703125 3.40625 -10.359375 C 2.945312 -10.015625 2.71875 -9.550781 2.71875 -8.96875 C 2.71875 -8.375 2.925781 -7.898438 3.34375 -7.546875 C 3.769531 -7.191406 4.492188 -6.894531 5.515625 -6.65625 C 6.710938 -6.332031 7.640625 -5.882812 8.296875 -5.3125 C 8.960938 -4.75 9.296875 -3.957031 9.296875 -2.9375 C 9.296875 -2.300781 9.132812 -1.738281 8.8125 -1.25 C 8.488281 -0.769531 8.023438 -0.394531 7.421875 -0.125 C 6.816406 0.144531 6.113281 0.28125 5.3125 0.28125 Z M 5.3125 0.28125 "/></g></g></g><g fill="#008037" fill-opacity="1"><g transform="translate(55.016484, 245.359407)"><g><path d="M 4.609375 0.28125 C 3.835938 0.28125 3.144531 0.0976562 2.53125 -0.265625 C 1.925781 -0.640625 1.453125 -1.15625 1.109375 -1.8125 C 0.765625 -2.476562 0.59375 -3.226562 0.59375 -4.0625 C 0.59375 -4.894531 0.757812 -5.632812 1.09375 -6.28125 C 1.4375 -6.9375 1.910156 -7.445312 2.515625 -7.8125 C 3.117188 -8.175781 3.804688 -8.359375 4.578125 -8.359375 C 5.347656 -8.359375 6.035156 -8.175781 6.640625 -7.8125 C 7.253906 -7.445312 7.734375 -6.929688 8.078125 -6.265625 C 8.429688 -5.609375 8.609375 -4.867188 8.609375 -4.046875 C 8.609375 -3.210938 8.4375 -2.46875 8.09375 -1.8125 C 7.757812 -1.15625 7.285156 -0.640625 6.671875 -0.265625 C 6.066406 0.0976562 5.378906 0.28125 4.609375 0.28125 Z M 4.578125 -0.796875 C 5.128906 -0.796875 5.617188 -0.929688 6.046875 -1.203125 C 6.484375 -1.484375 6.820312 -1.867188 7.0625 -2.359375 C 7.3125 -2.859375 7.4375 -3.421875 7.4375 -4.046875 C 7.4375 -4.671875 7.3125 -5.226562 7.0625 -5.71875 C 6.820312 -6.21875 6.484375 -6.601562 6.046875 -6.875 C 5.617188 -7.15625 5.128906 -7.296875 4.578125 -7.296875 C 4.035156 -7.296875 3.550781 -7.15625 3.125 -6.875 C 2.695312 -6.601562 2.363281 -6.222656 2.125 -5.734375 C 1.882812 -5.242188 1.765625 -4.6875 1.765625 -4.0625 C 1.765625 -3.425781 1.882812 -2.859375 2.125 -2.359375 C 2.363281 -1.867188 2.695312 -1.484375 3.125 -1.203125 C 3.550781 -0.929688 4.035156 -0.796875 4.578125 -0.796875 Z M 4.578125 -0.796875 "/></g></g></g><g fill="#008037" fill-opacity="1"><g transform="translate(65.578452, 245.359407)"><g><path d="M 1.171875 0 L 1.171875 -12.546875 L 2.34375 -12.546875 L 2.34375 0 Z M 1.171875 0 "/></g></g></g><g fill="#008037" fill-opacity="1"><g transform="translate(70.470857, 245.359407)"><g><path d="M 8.1875 -8.09375 L 8.1875 0 L 7.015625 0 L 7.015625 -1.34375 C 6.734375 -0.820312 6.363281 -0.421875 5.90625 -0.140625 C 5.457031 0.140625 4.9375 0.28125 4.34375 0.28125 C 3.769531 0.28125 3.242188 0.164062 2.765625 -0.0625 C 2.296875 -0.300781 1.914062 -0.644531 1.625 -1.09375 C 1.34375 -1.539062 1.203125 -2.066406 1.203125 -2.671875 L 1.203125 -8.09375 L 2.390625 -8.09375 L 2.390625 -3.203125 C 2.390625 -1.597656 3.101562 -0.796875 4.53125 -0.796875 C 5.351562 -0.796875 5.972656 -1.085938 6.390625 -1.671875 C 6.804688 -2.265625 7.015625 -3.054688 7.015625 -4.046875 L 7.015625 -8.09375 Z M 8.1875 -8.09375 "/></g></g></g><g fill="#008037" fill-opacity="1"><g transform="translate(81.136532, 245.359407)"><g><path d="M 7.8125 -1.28125 C 7.457031 -0.832031 7.019531 -0.46875 6.5 -0.1875 C 5.976562 0.0820312 5.421875 0.238281 4.828125 0.28125 L 4.390625 1.171875 C 4.972656 1.171875 5.425781 1.269531 5.75 1.46875 C 6.070312 1.664062 6.234375 1.894531 6.234375 2.15625 C 6.234375 3.019531 5.054688 3.453125 2.703125 3.453125 L 2.703125 2.984375 C 3.273438 2.984375 3.820312 2.914062 4.34375 2.78125 C 4.851562 2.664062 5.109375 2.492188 5.109375 2.265625 C 5.109375 2.140625 5.0625 2.046875 4.96875 1.984375 C 4.882812 1.921875 4.707031 1.867188 4.4375 1.828125 C 4.175781 1.796875 3.78125 1.78125 3.25 1.78125 L 3.96875 0.21875 C 3.289062 0.132812 2.695312 -0.0976562 2.1875 -0.484375 C 1.675781 -0.878906 1.273438 -1.378906 0.984375 -1.984375 C 0.691406 -2.597656 0.546875 -3.285156 0.546875 -4.046875 C 0.546875 -4.867188 0.71875 -5.609375 1.0625 -6.265625 C 1.40625 -6.929688 1.878906 -7.445312 2.484375 -7.8125 C 3.097656 -8.175781 3.789062 -8.359375 4.5625 -8.359375 C 5.21875 -8.359375 5.789062 -8.21875 6.28125 -7.9375 C 6.769531 -7.65625 7.21875 -7.253906 7.625 -6.734375 L 6.75 -6.0625 C 6.1875 -6.882812 5.457031 -7.296875 4.5625 -7.296875 C 4.019531 -7.296875 3.53125 -7.15625 3.09375 -6.875 C 2.664062 -6.601562 2.332031 -6.21875 2.09375 -5.71875 C 1.851562 -5.226562 1.734375 -4.671875 1.734375 -4.046875 C 1.734375 -3.421875 1.851562 -2.859375 2.09375 -2.359375 C 2.332031 -1.867188 2.664062 -1.484375 3.09375 -1.203125 C 3.53125 -0.929688 4.019531 -0.796875 4.5625 -0.796875 C 5.113281 -0.796875 5.566406 -0.890625 5.921875 -1.078125 C 6.285156 -1.265625 6.609375 -1.546875 6.890625 -1.921875 Z M 7.8125 -1.28125 "/></g></g></g><g fill="#008037" fill-opacity="1"><g transform="translate(90.765098, 245.359407)"><g><path d="M 4.609375 0.28125 C 3.835938 0.28125 3.144531 0.0976562 2.53125 -0.265625 C 1.925781 -0.640625 1.453125 -1.15625 1.109375 -1.8125 C 0.765625 -2.476562 0.59375 -3.226562 0.59375 -4.0625 C 0.59375 -4.894531 0.757812 -5.632812 1.09375 -6.28125 C 1.4375 -6.9375 1.910156 -7.445312 2.515625 -7.8125 C 3.117188 -8.175781 3.804688 -8.359375 4.578125 -8.359375 C 5.347656 -8.359375 6.035156 -8.175781 6.640625 -7.8125 C 7.253906 -7.445312 7.734375 -6.929688 8.078125 -6.265625 C 8.429688 -5.609375 8.609375 -4.867188 8.609375 -4.046875 C 8.609375 -3.210938 8.4375 -2.46875 8.09375 -1.8125 C 7.757812 -1.15625 7.285156 -0.640625 6.671875 -0.265625 C 6.066406 0.0976562 5.378906 0.28125 4.609375 0.28125 Z M 4.578125 -0.796875 C 5.128906 -0.796875 5.617188 -0.929688 6.046875 -1.203125 C 6.484375 -1.484375 6.820312 -1.867188 7.0625 -2.359375 C 7.3125 -2.859375 7.4375 -3.421875 7.4375 -4.046875 C 7.4375 -4.671875 7.3125 -5.226562 7.0625 -5.71875 C 6.820312 -6.21875 6.484375 -6.601562 6.046875 -6.875 C 5.617188 -7.15625 5.128906 -7.296875 4.578125 -7.296875 C 4.035156 -7.296875 3.550781 -7.15625 3.125 -6.875 C 2.695312 -6.601562 2.363281 -6.222656 2.125 -5.734375 C 1.882812 -5.242188 1.765625 -4.6875 1.765625 -4.0625 C 1.765625 -3.425781 1.882812 -2.859375 2.125 -2.359375 C 2.363281 -1.867188 2.695312 -1.484375 3.125 -1.203125 C 3.550781 -0.929688 4.035156 -0.796875 4.578125 -0.796875 Z M 1.625 -9.578125 C 1.6875 -10.140625 1.882812 -10.65625 2.21875 -11.125 C 2.5625 -11.59375 2.988281 -11.828125 3.5 -11.828125 C 3.738281 -11.828125 3.945312 -11.773438 4.125 -11.671875 C 4.3125 -11.578125 4.539062 -11.425781 4.8125 -11.21875 C 5.039062 -11.03125 5.234375 -10.894531 5.390625 -10.8125 C 5.546875 -10.726562 5.71875 -10.6875 5.90625 -10.6875 C 6.144531 -10.6875 6.34375 -10.796875 6.5 -11.015625 C 6.65625 -11.234375 6.742188 -11.503906 6.765625 -11.828125 L 7.5625 -11.828125 C 7.5 -11.222656 7.304688 -10.695312 6.984375 -10.25 C 6.671875 -9.800781 6.25 -9.578125 5.71875 -9.578125 C 5.46875 -9.578125 5.257812 -9.617188 5.09375 -9.703125 C 4.9375 -9.796875 4.75 -9.941406 4.53125 -10.140625 C 4.320312 -10.328125 4.140625 -10.460938 3.984375 -10.546875 C 3.828125 -10.640625 3.632812 -10.6875 3.40625 -10.6875 C 3.113281 -10.6875 2.890625 -10.59375 2.734375 -10.40625 C 2.578125 -10.226562 2.46875 -9.953125 2.40625 -9.578125 Z M 1.625 -9.578125 "/></g></g></g><g fill="#008037" fill-opacity="1"><g transform="translate(101.327064, 245.359407)"><g><path d="M 4.578125 -8.359375 C 5.304688 -8.359375 5.960938 -8.179688 6.546875 -7.828125 C 7.140625 -7.472656 7.601562 -6.984375 7.9375 -6.359375 C 8.269531 -5.742188 8.4375 -5.054688 8.4375 -4.296875 C 8.4375 -4.078125 8.429688 -3.910156 8.421875 -3.796875 L 1.765625 -3.796875 C 1.804688 -2.972656 2.070312 -2.265625 2.5625 -1.671875 C 3.0625 -1.085938 3.738281 -0.796875 4.59375 -0.796875 C 5.289062 -0.796875 5.863281 -0.925781 6.3125 -1.1875 C 6.769531 -1.445312 7.132812 -1.804688 7.40625 -2.265625 L 8.34375 -1.640625 C 7.96875 -1.046875 7.46875 -0.578125 6.84375 -0.234375 C 6.21875 0.109375 5.476562 0.28125 4.625 0.28125 C 3.84375 0.28125 3.144531 0.0976562 2.53125 -0.265625 C 1.925781 -0.640625 1.453125 -1.15625 1.109375 -1.8125 C 0.765625 -2.46875 0.59375 -3.210938 0.59375 -4.046875 C 0.59375 -4.867188 0.757812 -5.609375 1.09375 -6.265625 C 1.4375 -6.929688 1.910156 -7.445312 2.515625 -7.8125 C 3.117188 -8.175781 3.804688 -8.359375 4.578125 -8.359375 Z M 7.265625 -4.765625 C 7.140625 -5.609375 6.851562 -6.238281 6.40625 -6.65625 C 5.957031 -7.082031 5.347656 -7.296875 4.578125 -7.296875 C 3.828125 -7.296875 3.210938 -7.054688 2.734375 -6.578125 C 2.253906 -6.097656 1.953125 -5.492188 1.828125 -4.765625 Z M 7.265625 -4.765625 "/></g></g></g><g fill="#008037" fill-opacity="1"><g transform="translate(111.785316, 245.359407)"><g><path d="M 3.9375 0.28125 C 3.15625 0.28125 2.46875 0.113281 1.875 -0.21875 C 1.28125 -0.550781 0.828125 -1.023438 0.515625 -1.640625 L 1.578125 -2.15625 C 2.003906 -1.25 2.835938 -0.796875 4.078125 -0.796875 C 4.679688 -0.796875 5.175781 -0.90625 5.5625 -1.125 C 5.957031 -1.34375 6.15625 -1.679688 6.15625 -2.140625 C 6.15625 -2.609375 5.992188 -2.957031 5.671875 -3.1875 C 5.359375 -3.425781 4.804688 -3.578125 4.015625 -3.640625 C 2.898438 -3.734375 2.101562 -3.984375 1.625 -4.390625 C 1.15625 -4.796875 0.921875 -5.332031 0.921875 -6 C 0.921875 -6.75 1.191406 -7.328125 1.734375 -7.734375 C 2.273438 -8.148438 3.015625 -8.359375 3.953125 -8.359375 C 5.554688 -8.359375 6.644531 -7.726562 7.21875 -6.46875 L 6.171875 -5.9375 C 5.972656 -6.40625 5.6875 -6.75 5.3125 -6.96875 C 4.9375 -7.1875 4.457031 -7.296875 3.875 -7.296875 C 3.269531 -7.296875 2.804688 -7.1875 2.484375 -6.96875 C 2.171875 -6.75 2.015625 -6.4375 2.015625 -6.03125 C 2.015625 -5.644531 2.1875 -5.332031 2.53125 -5.09375 C 2.875 -4.863281 3.457031 -4.71875 4.28125 -4.65625 C 5.3125 -4.5625 6.078125 -4.304688 6.578125 -3.890625 C 7.078125 -3.484375 7.328125 -2.945312 7.328125 -2.28125 C 7.328125 -1.738281 7.171875 -1.273438 6.859375 -0.890625 C 6.546875 -0.503906 6.128906 -0.210938 5.609375 -0.015625 C 5.097656 0.179688 4.539062 0.28125 3.9375 0.28125 Z M 3.9375 0.28125 "/></g></g></g><g fill="#008037" fill-opacity="1"><g transform="translate(121.189177, 245.359407)"><g/></g></g><g fill="#008037" fill-opacity="1"><g transform="translate(126.427298, 245.359407)"><g><path d="M 8.609375 -12.546875 L 8.609375 0 L 7.4375 0 L 7.4375 -1.1875 C 7.101562 -0.726562 6.691406 -0.367188 6.203125 -0.109375 C 5.722656 0.148438 5.191406 0.28125 4.609375 0.28125 C 3.835938 0.28125 3.144531 0.0976562 2.53125 -0.265625 C 1.925781 -0.640625 1.453125 -1.15625 1.109375 -1.8125 C 0.765625 -2.46875 0.59375 -3.21875 0.59375 -4.0625 C 0.59375 -4.894531 0.757812 -5.632812 1.09375 -6.28125 C 1.4375 -6.9375 1.910156 -7.445312 2.515625 -7.8125 C 3.117188 -8.175781 3.804688 -8.359375 4.578125 -8.359375 C 5.160156 -8.359375 5.695312 -8.226562 6.1875 -7.96875 C 6.6875 -7.71875 7.101562 -7.351562 7.4375 -6.875 L 7.4375 -12.546875 Z M 4.578125 -0.796875 C 5.128906 -0.796875 5.617188 -0.929688 6.046875 -1.203125 C 6.484375 -1.484375 6.820312 -1.867188 7.0625 -2.359375 C 7.3125 -2.859375 7.4375 -3.421875 7.4375 -4.046875 C 7.4375 -4.671875 7.3125 -5.226562 7.0625 -5.71875 C 6.820312 -6.21875 6.484375 -6.601562 6.046875 -6.875 C 5.617188 -7.15625 5.128906 -7.296875 4.578125 -7.296875 C 4.035156 -7.296875 3.550781 -7.15625 3.125 -6.875 C 2.695312 -6.601562 2.363281 -6.222656 2.125 -5.734375 C 1.882812 -5.242188 1.765625 -4.6875 1.765625 -4.0625 C 1.765625 -3.425781 1.882812 -2.859375 2.125 -2.359375 C 2.363281 -1.867188 2.695312 -1.484375 3.125 -1.203125 C 3.550781 -0.929688 4.035156 -0.796875 4.578125 -0.796875 Z M 4.578125 -0.796875 "/></g></g></g><g fill="#008037" fill-opacity="1"><g transform="translate(137.507821, 245.359407)"><g><path d="M 1.734375 0 L 1.734375 -8.09375 L 2.90625 -8.09375 L 2.90625 0 Z M 2.3125 -9.65625 C 2.050781 -9.65625 1.828125 -9.75 1.640625 -9.9375 C 1.460938 -10.125 1.375 -10.347656 1.375 -10.609375 C 1.375 -10.859375 1.460938 -11.070312 1.640625 -11.25 C 1.828125 -11.4375 2.050781 -11.53125 2.3125 -11.53125 C 2.5625 -11.53125 2.78125 -11.4375 2.96875 -11.25 C 3.15625 -11.070312 3.25 -10.851562 3.25 -10.59375 C 3.25 -10.34375 3.15625 -10.125 2.96875 -9.9375 C 2.78125 -9.75 2.5625 -9.65625 2.3125 -9.65625 Z M 2.3125 -9.65625 "/></g></g></g><g fill="#008037" fill-opacity="1"><g transform="translate(143.523768, 245.359407)"><g><path d="M 8.609375 -8.09375 L 8.609375 -0.3125 C 8.609375 0.414062 8.457031 1.0625 8.15625 1.625 C 7.851562 2.195312 7.429688 2.644531 6.890625 2.96875 C 6.347656 3.289062 5.734375 3.453125 5.046875 3.453125 L 1.6875 3.453125 L 1.6875 2.390625 L 5.046875 2.390625 C 5.742188 2.390625 6.316406 2.132812 6.765625 1.625 C 7.210938 1.113281 7.4375 0.46875 7.4375 -0.3125 L 7.4375 -1.1875 C 7.101562 -0.726562 6.691406 -0.367188 6.203125 -0.109375 C 5.722656 0.148438 5.191406 0.28125 4.609375 0.28125 C 3.835938 0.28125 3.144531 0.0976562 2.53125 -0.265625 C 1.925781 -0.640625 1.453125 -1.15625 1.109375 -1.8125 C 0.765625 -2.46875 0.59375 -3.21875 0.59375 -4.0625 C 0.59375 -4.894531 0.757812 -5.632812 1.09375 -6.28125 C 1.4375 -6.9375 1.910156 -7.445312 2.515625 -7.8125 C 3.117188 -8.175781 3.804688 -8.359375 4.578125 -8.359375 C 5.160156 -8.359375 5.695312 -8.226562 6.1875 -7.96875 C 6.6875 -7.71875 7.101562 -7.351562 7.4375 -6.875 L 7.4375 -8.09375 Z M 4.578125 -0.796875 C 5.128906 -0.796875 5.617188 -0.929688 6.046875 -1.203125 C 6.484375 -1.484375 6.820312 -1.867188 7.0625 -2.359375 C 7.3125 -2.859375 7.4375 -3.421875 7.4375 -4.046875 C 7.4375 -4.671875 7.3125 -5.226562 7.0625 -5.71875 C 6.820312 -6.21875 6.484375 -6.601562 6.046875 -6.875 C 5.617188 -7.15625 5.128906 -7.296875 4.578125 -7.296875 C 4.035156 -7.296875 3.550781 -7.15625 3.125 -6.875 C 2.695312 -6.601562 2.363281 -6.222656 2.125 -5.734375 C 1.882812 -5.242188 1.765625 -4.6875 1.765625 -4.0625 C 1.765625 -3.425781 1.882812 -2.859375 2.125 -2.359375 C 2.363281 -1.867188 2.695312 -1.484375 3.125 -1.203125 C 3.550781 -0.929688 4.035156 -0.796875 4.578125 -0.796875 Z M 4.578125 -0.796875 "/></g></g></g><g fill="#008037" fill-opacity="1"><g transform="translate(154.604292, 245.359407)"><g><path d="M 1.734375 0 L 1.734375 -8.09375 L 2.90625 -8.09375 L 2.90625 0 Z M 2.3125 -9.65625 C 2.050781 -9.65625 1.828125 -9.75 1.640625 -9.9375 C 1.460938 -10.125 1.375 -10.347656 1.375 -10.609375 C 1.375 -10.859375 1.460938 -11.070312 1.640625 -11.25 C 1.828125 -11.4375 2.050781 -11.53125 2.3125 -11.53125 C 2.5625 -11.53125 2.78125 -11.4375 2.96875 -11.25 C 3.15625 -11.070312 3.25 -10.851562 3.25 -10.59375 C 3.25 -10.34375 3.15625 -10.125 2.96875 -9.9375 C 2.78125 -9.75 2.5625 -9.65625 2.3125 -9.65625 Z M 2.3125 -9.65625 "/></g></g></g><g fill="#008037" fill-opacity="1"><g transform="translate(160.620245, 245.359407)"><g><path d="M 1.515625 0 L 1.515625 -7.015625 L 0.140625 -7.015625 L 0.140625 -8.09375 L 1.515625 -8.09375 L 1.515625 -10.765625 L 2.703125 -10.765625 L 2.703125 -8.09375 L 4.5625 -8.09375 L 4.5625 -7.015625 L 2.703125 -7.015625 L 2.703125 0 Z M 1.515625 0 "/></g></g></g><g fill="#008037" fill-opacity="1"><g transform="translate(166.757196, 245.359407)"><g><path d="M 8.609375 -8.09375 L 8.609375 0 L 7.4375 0 L 7.4375 -1.1875 C 7.101562 -0.726562 6.691406 -0.367188 6.203125 -0.109375 C 5.722656 0.148438 5.191406 0.28125 4.609375 0.28125 C 3.835938 0.28125 3.144531 0.0976562 2.53125 -0.265625 C 1.925781 -0.640625 1.453125 -1.15625 1.109375 -1.8125 C 0.765625 -2.46875 0.59375 -3.21875 0.59375 -4.0625 C 0.59375 -4.894531 0.757812 -5.632812 1.09375 -6.28125 C 1.4375 -6.9375 1.910156 -7.445312 2.515625 -7.8125 C 3.117188 -8.175781 3.804688 -8.359375 4.578125 -8.359375 C 5.160156 -8.359375 5.695312 -8.226562 6.1875 -7.96875 C 6.6875 -7.71875 7.101562 -7.351562 7.4375 -6.875 L 7.4375 -8.09375 Z M 4.578125 -0.796875 C 5.128906 -0.796875 5.617188 -0.929688 6.046875 -1.203125 C 6.484375 -1.484375 6.820312 -1.867188 7.0625 -2.359375 C 7.3125 -2.859375 7.4375 -3.421875 7.4375 -4.046875 C 7.4375 -4.671875 7.3125 -5.226562 7.0625 -5.71875 C 6.820312 -6.21875 6.484375 -6.601562 6.046875 -6.875 C 5.617188 -7.15625 5.128906 -7.296875 4.578125 -7.296875 C 4.035156 -7.296875 3.550781 -7.15625 3.125 -6.875 C 2.695312 -6.601562 2.363281 -6.222656 2.125 -5.734375 C 1.882812 -5.242188 1.765625 -4.6875 1.765625 -4.0625 C 1.765625 -3.425781 1.882812 -2.859375 2.125 -2.359375 C 2.363281 -1.867188 2.695312 -1.484375 3.125 -1.203125 C 3.550781 -0.929688 4.035156 -0.796875 4.578125 -0.796875 Z M 4.578125 -0.796875 "/></g></g></g><g fill="#008037" fill-opacity="1"><g transform="translate(177.837719, 245.359407)"><g><path d="M 1.734375 0 L 1.734375 -8.09375 L 2.90625 -8.09375 L 2.90625 0 Z M 2.3125 -9.65625 C 2.050781 -9.65625 1.828125 -9.75 1.640625 -9.9375 C 1.460938 -10.125 1.375 -10.347656 1.375 -10.609375 C 1.375 -10.859375 1.460938 -11.070312 1.640625 -11.25 C 1.828125 -11.4375 2.050781 -11.53125 2.3125 -11.53125 C 2.5625 -11.53125 2.78125 -11.4375 2.96875 -11.25 C 3.15625 -11.070312 3.25 -10.851562 3.25 -10.59375 C 3.25 -10.34375 3.15625 -10.125 2.96875 -9.9375 C 2.78125 -9.75 2.5625 -9.65625 2.3125 -9.65625 Z M 2.3125 -9.65625 "/></g></g></g><g fill="#008037" fill-opacity="1"><g transform="translate(183.853672, 245.359407)"><g><path d="M 3.9375 0.28125 C 3.15625 0.28125 2.46875 0.113281 1.875 -0.21875 C 1.28125 -0.550781 0.828125 -1.023438 0.515625 -1.640625 L 1.578125 -2.15625 C 2.003906 -1.25 2.835938 -0.796875 4.078125 -0.796875 C 4.679688 -0.796875 5.175781 -0.90625 5.5625 -1.125 C 5.957031 -1.34375 6.15625 -1.679688 6.15625 -2.140625 C 6.15625 -2.609375 5.992188 -2.957031 5.671875 -3.1875 C 5.359375 -3.425781 4.804688 -3.578125 4.015625 -3.640625 C 2.898438 -3.734375 2.101562 -3.984375 1.625 -4.390625 C 1.15625 -4.796875 0.921875 -5.332031 0.921875 -6 C 0.921875 -6.75 1.191406 -7.328125 1.734375 -7.734375 C 2.273438 -8.148438 3.015625 -8.359375 3.953125 -8.359375 C 5.554688 -8.359375 6.644531 -7.726562 7.21875 -6.46875 L 6.171875 -5.9375 C 5.972656 -6.40625 5.6875 -6.75 5.3125 -6.96875 C 4.9375 -7.1875 4.457031 -7.296875 3.875 -7.296875 C 3.269531 -7.296875 2.804688 -7.1875 2.484375 -6.96875 C 2.171875 -6.75 2.015625 -6.4375 2.015625 -6.03125 C 2.015625 -5.644531 2.1875 -5.332031 2.53125 -5.09375 C 2.875 -4.863281 3.457031 -4.71875 4.28125 -4.65625 C 5.3125 -4.5625 6.078125 -4.304688 6.578125 -3.890625 C 7.078125 -3.484375 7.328125 -2.945312 7.328125 -2.28125 C 7.328125 -1.738281 7.171875 -1.273438 6.859375 -0.890625 C 6.546875 -0.503906 6.128906 -0.210938 5.609375 -0.015625 C 5.097656 0.179688 4.539062 0.28125 3.9375 0.28125 Z M 3.9375 0.28125 "/></g></g></g><g fill="#008037" fill-opacity="1"><g transform="translate(193.257534, 245.359407)"><g/></g></g><g fill="#008037" fill-opacity="1"><g transform="translate(198.495654, 245.359407)"><g><path d="M 5.09375 -8.359375 C 5.863281 -8.359375 6.554688 -8.175781 7.171875 -7.8125 C 7.785156 -7.445312 8.265625 -6.929688 8.609375 -6.265625 C 8.953125 -5.609375 9.125 -4.863281 9.125 -4.03125 C 9.125 -3.195312 8.953125 -2.453125 8.609375 -1.796875 C 8.273438 -1.148438 7.804688 -0.640625 7.203125 -0.265625 C 6.597656 0.0976562 5.90625 0.28125 5.125 0.28125 C 4.539062 0.28125 4.003906 0.148438 3.515625 -0.109375 C 3.023438 -0.367188 2.613281 -0.734375 2.28125 -1.203125 L 2.28125 3.453125 L 1.109375 3.453125 L 1.109375 -8.09375 L 2.28125 -8.09375 L 2.28125 -6.890625 C 2.613281 -7.359375 3.019531 -7.71875 3.5 -7.96875 C 3.988281 -8.226562 4.519531 -8.359375 5.09375 -8.359375 Z M 5.125 -0.796875 C 5.664062 -0.796875 6.148438 -0.929688 6.578125 -1.203125 C 7.003906 -1.484375 7.335938 -1.867188 7.578125 -2.359375 C 7.828125 -2.847656 7.953125 -3.40625 7.953125 -4.03125 C 7.953125 -4.664062 7.828125 -5.226562 7.578125 -5.71875 C 7.335938 -6.21875 7.003906 -6.601562 6.578125 -6.875 C 6.148438 -7.15625 5.664062 -7.296875 5.125 -7.296875 C 4.570312 -7.296875 4.078125 -7.15625 3.640625 -6.875 C 3.210938 -6.601562 2.878906 -6.21875 2.640625 -5.71875 C 2.398438 -5.226562 2.28125 -4.671875 2.28125 -4.046875 C 2.28125 -3.421875 2.398438 -2.859375 2.640625 -2.359375 C 2.878906 -1.867188 3.210938 -1.484375 3.640625 -1.203125 C 4.078125 -0.929688 4.570312 -0.796875 5.125 -0.796875 Z M 5.125 -0.796875 "/></g></g></g><g fill="#008037" fill-opacity="1"><g transform="translate(209.576178, 245.359407)"><g><path d="M 4.578125 -8.359375 C 5.304688 -8.359375 5.960938 -8.179688 6.546875 -7.828125 C 7.140625 -7.472656 7.601562 -6.984375 7.9375 -6.359375 C 8.269531 -5.742188 8.4375 -5.054688 8.4375 -4.296875 C 8.4375 -4.078125 8.429688 -3.910156 8.421875 -3.796875 L 1.765625 -3.796875 C 1.804688 -2.972656 2.070312 -2.265625 2.5625 -1.671875 C 3.0625 -1.085938 3.738281 -0.796875 4.59375 -0.796875 C 5.289062 -0.796875 5.863281 -0.925781 6.3125 -1.1875 C 6.769531 -1.445312 7.132812 -1.804688 7.40625 -2.265625 L 8.34375 -1.640625 C 7.96875 -1.046875 7.46875 -0.578125 6.84375 -0.234375 C 6.21875 0.109375 5.476562 0.28125 4.625 0.28125 C 3.84375 0.28125 3.144531 0.0976562 2.53125 -0.265625 C 1.925781 -0.640625 1.453125 -1.15625 1.109375 -1.8125 C 0.765625 -2.46875 0.59375 -3.210938 0.59375 -4.046875 C 0.59375 -4.867188 0.757812 -5.609375 1.09375 -6.265625 C 1.4375 -6.929688 1.910156 -7.445312 2.515625 -7.8125 C 3.117188 -8.175781 3.804688 -8.359375 4.578125 -8.359375 Z M 7.265625 -4.765625 C 7.140625 -5.609375 6.851562 -6.238281 6.40625 -6.65625 C 5.957031 -7.082031 5.347656 -7.296875 4.578125 -7.296875 C 3.828125 -7.296875 3.210938 -7.054688 2.734375 -6.578125 C 2.253906 -6.097656 1.953125 -5.492188 1.828125 -4.765625 Z M 7.265625 -4.765625 "/></g></g></g><g fill="#008037" fill-opacity="1"><g transform="translate(220.034429, 245.359407)"><g><path d="M 5.0625 -8.359375 C 5.34375 -8.359375 5.609375 -8.320312 5.859375 -8.25 L 5.859375 -7.171875 C 5.617188 -7.285156 5.351562 -7.34375 5.0625 -7.34375 C 4.570312 -7.34375 4.113281 -7.203125 3.6875 -6.921875 C 3.257812 -6.648438 2.914062 -6.25 2.65625 -5.71875 C 2.394531 -5.195312 2.265625 -4.582031 2.265625 -3.875 L 2.265625 0 L 1.09375 0 L 1.09375 -8.09375 L 2.265625 -8.09375 L 2.265625 -6.46875 C 2.578125 -7.0625 2.972656 -7.523438 3.453125 -7.859375 C 3.929688 -8.191406 4.46875 -8.359375 5.0625 -8.359375 Z M 5.0625 -8.359375 "/></g></g></g><g fill="#008037" fill-opacity="1"><g transform="translate(227.277635, 245.359407)"><g><path d="M 3.9375 0.28125 C 3.15625 0.28125 2.46875 0.113281 1.875 -0.21875 C 1.28125 -0.550781 0.828125 -1.023438 0.515625 -1.640625 L 1.578125 -2.15625 C 2.003906 -1.25 2.835938 -0.796875 4.078125 -0.796875 C 4.679688 -0.796875 5.175781 -0.90625 5.5625 -1.125 C 5.957031 -1.34375 6.15625 -1.679688 6.15625 -2.140625 C 6.15625 -2.609375 5.992188 -2.957031 5.671875 -3.1875 C 5.359375 -3.425781 4.804688 -3.578125 4.015625 -3.640625 C 2.898438 -3.734375 2.101562 -3.984375 1.625 -4.390625 C 1.15625 -4.796875 0.921875 -5.332031 0.921875 -6 C 0.921875 -6.75 1.191406 -7.328125 1.734375 -7.734375 C 2.273438 -8.148438 3.015625 -8.359375 3.953125 -8.359375 C 5.554688 -8.359375 6.644531 -7.726562 7.21875 -6.46875 L 6.171875 -5.9375 C 5.972656 -6.40625 5.6875 -6.75 5.3125 -6.96875 C 4.9375 -7.1875 4.457031 -7.296875 3.875 -7.296875 C 3.269531 -7.296875 2.804688 -7.1875 2.484375 -6.96875 C 2.171875 -6.75 2.015625 -6.4375 2.015625 -6.03125 C 2.015625 -5.644531 2.1875 -5.332031 2.53125 -5.09375 C 2.875 -4.863281 3.457031 -4.71875 4.28125 -4.65625 C 5.3125 -4.5625 6.078125 -4.304688 6.578125 -3.890625 C 7.078125 -3.484375 7.328125 -2.945312 7.328125 -2.28125 C 7.328125 -1.738281 7.171875 -1.273438 6.859375 -0.890625 C 6.546875 -0.503906 6.128906 -0.210938 5.609375 -0.015625 C 5.097656 0.179688 4.539062 0.28125 3.9375 0.28125 Z M 3.9375 0.28125 "/></g></g></g><g fill="#008037" fill-opacity="1"><g transform="translate(236.681496, 245.359407)"><g><path d="M 4.609375 0.28125 C 3.835938 0.28125 3.144531 0.0976562 2.53125 -0.265625 C 1.925781 -0.640625 1.453125 -1.15625 1.109375 -1.8125 C 0.765625 -2.476562 0.59375 -3.226562 0.59375 -4.0625 C 0.59375 -4.894531 0.757812 -5.632812 1.09375 -6.28125 C 1.4375 -6.9375 1.910156 -7.445312 2.515625 -7.8125 C 3.117188 -8.175781 3.804688 -8.359375 4.578125 -8.359375 C 5.347656 -8.359375 6.035156 -8.175781 6.640625 -7.8125 C 7.253906 -7.445312 7.734375 -6.929688 8.078125 -6.265625 C 8.429688 -5.609375 8.609375 -4.867188 8.609375 -4.046875 C 8.609375 -3.210938 8.4375 -2.46875 8.09375 -1.8125 C 7.757812 -1.15625 7.285156 -0.640625 6.671875 -0.265625 C 6.066406 0.0976562 5.378906 0.28125 4.609375 0.28125 Z M 4.578125 -0.796875 C 5.128906 -0.796875 5.617188 -0.929688 6.046875 -1.203125 C 6.484375 -1.484375 6.820312 -1.867188 7.0625 -2.359375 C 7.3125 -2.859375 7.4375 -3.421875 7.4375 -4.046875 C 7.4375 -4.671875 7.3125 -5.226562 7.0625 -5.71875 C 6.820312 -6.21875 6.484375 -6.601562 6.046875 -6.875 C 5.617188 -7.15625 5.128906 -7.296875 4.578125 -7.296875 C 4.035156 -7.296875 3.550781 -7.15625 3.125 -6.875 C 2.695312 -6.601562 2.363281 -6.222656 2.125 -5.734375 C 1.882812 -5.242188 1.765625 -4.6875 1.765625 -4.0625 C 1.765625 -3.425781 1.882812 -2.859375 2.125 -2.359375 C 2.363281 -1.867188 2.695312 -1.484375 3.125 -1.203125 C 3.550781 -0.929688 4.035156 -0.796875 4.578125 -0.796875 Z M 4.578125 -0.796875 "/></g></g></g><g fill="#008037" fill-opacity="1"><g transform="translate(247.243454, 245.359407)"><g><path d="M 4.9375 -8.359375 C 5.507812 -8.359375 6.03125 -8.242188 6.5 -8.015625 C 6.976562 -7.785156 7.359375 -7.445312 7.640625 -7 C 7.929688 -6.550781 8.078125 -6.019531 8.078125 -5.40625 L 8.078125 0 L 6.890625 0 L 6.890625 -4.890625 C 6.890625 -6.492188 6.175781 -7.296875 4.75 -7.296875 C 3.925781 -7.296875 3.304688 -7 2.890625 -6.40625 C 2.472656 -5.820312 2.265625 -5.035156 2.265625 -4.046875 L 2.265625 0 L 1.09375 0 L 1.09375 -8.09375 L 2.265625 -8.09375 L 2.265625 -6.734375 C 2.535156 -7.253906 2.898438 -7.65625 3.359375 -7.9375 C 3.816406 -8.21875 4.34375 -8.359375 4.9375 -8.359375 Z M 4.9375 -8.359375 "/></g></g></g><g fill="#008037" fill-opacity="1"><g transform="translate(257.909118, 245.359407)"><g><path d="M 8.609375 -8.09375 L 8.609375 0 L 7.4375 0 L 7.4375 -1.1875 C 7.101562 -0.726562 6.691406 -0.367188 6.203125 -0.109375 C 5.722656 0.148438 5.191406 0.28125 4.609375 0.28125 C 3.835938 0.28125 3.144531 0.0976562 2.53125 -0.265625 C 1.925781 -0.640625 1.453125 -1.15625 1.109375 -1.8125 C 0.765625 -2.46875 0.59375 -3.21875 0.59375 -4.0625 C 0.59375 -4.894531 0.757812 -5.632812 1.09375 -6.28125 C 1.4375 -6.9375 1.910156 -7.445312 2.515625 -7.8125 C 3.117188 -8.175781 3.804688 -8.359375 4.578125 -8.359375 C 5.160156 -8.359375 5.695312 -8.226562 6.1875 -7.96875 C 6.6875 -7.71875 7.101562 -7.351562 7.4375 -6.875 L 7.4375 -8.09375 Z M 4.578125 -0.796875 C 5.128906 -0.796875 5.617188 -0.929688 6.046875 -1.203125 C 6.484375 -1.484375 6.820312 -1.867188 7.0625 -2.359375 C 7.3125 -2.859375 7.4375 -3.421875 7.4375 -4.046875 C 7.4375 -4.671875 7.3125 -5.226562 7.0625 -5.71875 C 6.820312 -6.21875 6.484375 -6.601562 6.046875 -6.875 C 5.617188 -7.15625 5.128906 -7.296875 4.578125 -7.296875 C 4.035156 -7.296875 3.550781 -7.15625 3.125 -6.875 C 2.695312 -6.601562 2.363281 -6.222656 2.125 -5.734375 C 1.882812 -5.242188 1.765625 -4.6875 1.765625 -4.0625 C 1.765625 -3.425781 1.882812 -2.859375 2.125 -2.359375 C 2.363281 -1.867188 2.695312 -1.484375 3.125 -1.203125 C 3.550781 -0.929688 4.035156 -0.796875 4.578125 -0.796875 Z M 4.578125 -0.796875 "/></g></g></g><g fill="#008037" fill-opacity="1"><g transform="translate(268.98963, 245.359407)"><g><path d="M 1.171875 0 L 1.171875 -12.546875 L 2.34375 -12.546875 L 2.34375 0 Z M 1.171875 0 "/></g></g></g><g fill="#008037" fill-opacity="1"><g transform="translate(273.882025, 245.359407)"><g><path d="M 1.734375 0 L 1.734375 -8.09375 L 2.90625 -8.09375 L 2.90625 0 Z M 2.3125 -9.65625 C 2.050781 -9.65625 1.828125 -9.75 1.640625 -9.9375 C 1.460938 -10.125 1.375 -10.347656 1.375 -10.609375 C 1.375 -10.859375 1.460938 -11.070312 1.640625 -11.25 C 1.828125 -11.4375 2.050781 -11.53125 2.3125 -11.53125 C 2.5625 -11.53125 2.78125 -11.4375 2.96875 -11.25 C 3.15625 -11.070312 3.25 -10.851562 3.25 -10.59375 C 3.25 -10.34375 3.15625 -10.125 2.96875 -9.9375 C 2.78125 -9.75 2.5625 -9.65625 2.3125 -9.65625 Z M 2.3125 -9.65625 "/></g></g></g><g fill="#008037" fill-opacity="1"><g transform="translate(279.897977, 245.359407)"><g><path d="M 6.625 -8.09375 L 6.625 -7.015625 L 1.984375 -1.078125 L 6.625 -1.078125 L 6.625 0 L 0.640625 0 L 0.640625 -1.078125 L 5.265625 -7.015625 L 0.640625 -7.015625 L 0.640625 -8.09375 Z M 6.625 -8.09375 "/></g></g></g><g fill="#008037" fill-opacity="1"><g transform="translate(288.541287, 245.359407)"><g><path d="M 8.609375 -8.09375 L 8.609375 0 L 7.4375 0 L 7.4375 -1.1875 C 7.101562 -0.726562 6.691406 -0.367188 6.203125 -0.109375 C 5.722656 0.148438 5.191406 0.28125 4.609375 0.28125 C 3.835938 0.28125 3.144531 0.0976562 2.53125 -0.265625 C 1.925781 -0.640625 1.453125 -1.15625 1.109375 -1.8125 C 0.765625 -2.46875 0.59375 -3.21875 0.59375 -4.0625 C 0.59375 -4.894531 0.757812 -5.632812 1.09375 -6.28125 C 1.4375 -6.9375 1.910156 -7.445312 2.515625 -7.8125 C 3.117188 -8.175781 3.804688 -8.359375 4.578125 -8.359375 C 5.160156 -8.359375 5.695312 -8.226562 6.1875 -7.96875 C 6.6875 -7.71875 7.101562 -7.351562 7.4375 -6.875 L 7.4375 -8.09375 Z M 4.578125 -0.796875 C 5.128906 -0.796875 5.617188 -0.929688 6.046875 -1.203125 C 6.484375 -1.484375 6.820312 -1.867188 7.0625 -2.359375 C 7.3125 -2.859375 7.4375 -3.421875 7.4375 -4.046875 C 7.4375 -4.671875 7.3125 -5.226562 7.0625 -5.71875 C 6.820312 -6.21875 6.484375 -6.601562 6.046875 -6.875 C 5.617188 -7.15625 5.128906 -7.296875 4.578125 -7.296875 C 4.035156 -7.296875 3.550781 -7.15625 3.125 -6.875 C 2.695312 -6.601562 2.363281 -6.222656 2.125 -5.734375 C 1.882812 -5.242188 1.765625 -4.6875 1.765625 -4.0625 C 1.765625 -3.425781 1.882812 -2.859375 2.125 -2.359375 C 2.363281 -1.867188 2.695312 -1.484375 3.125 -1.203125 C 3.550781 -0.929688 4.035156 -0.796875 4.578125 -0.796875 Z M 4.578125 -0.796875 "/></g></g></g><g fill="#008037" fill-opacity="1"><g transform="translate(299.6218, 245.359407)"><g><path d="M 8.609375 -12.546875 L 8.609375 0 L 7.4375 0 L 7.4375 -1.1875 C 7.101562 -0.726562 6.691406 -0.367188 6.203125 -0.109375 C 5.722656 0.148438 5.191406 0.28125 4.609375 0.28125 C 3.835938 0.28125 3.144531 0.0976562 2.53125 -0.265625 C 1.925781 -0.640625 1.453125 -1.15625 1.109375 -1.8125 C 0.765625 -2.46875 0.59375 -3.21875 0.59375 -4.0625 C 0.59375 -4.894531 0.757812 -5.632812 1.09375 -6.28125 C 1.4375 -6.9375 1.910156 -7.445312 2.515625 -7.8125 C 3.117188 -8.175781 3.804688 -8.359375 4.578125 -8.359375 C 5.160156 -8.359375 5.695312 -8.226562 6.1875 -7.96875 C 6.6875 -7.71875 7.101562 -7.351562 7.4375 -6.875 L 7.4375 -12.546875 Z M 4.578125 -0.796875 C 5.128906 -0.796875 5.617188 -0.929688 6.046875 -1.203125 C 6.484375 -1.484375 6.820312 -1.867188 7.0625 -2.359375 C 7.3125 -2.859375 7.4375 -3.421875 7.4375 -4.046875 C 7.4375 -4.671875 7.3125 -5.226562 7.0625 -5.71875 C 6.820312 -6.21875 6.484375 -6.601562 6.046875 -6.875 C 5.617188 -7.15625 5.128906 -7.296875 4.578125 -7.296875 C 4.035156 -7.296875 3.550781 -7.15625 3.125 -6.875 C 2.695312 -6.601562 2.363281 -6.222656 2.125 -5.734375 C 1.882812 -5.242188 1.765625 -4.6875 1.765625 -4.0625 C 1.765625 -3.425781 1.882812 -2.859375 2.125 -2.359375 C 2.363281 -1.867188 2.695312 -1.484375 3.125 -1.203125 C 3.550781 -0.929688 4.035156 -0.796875 4.578125 -0.796875 Z M 4.578125 -0.796875 "/></g></g></g><g fill="#008037" fill-opacity="1"><g transform="translate(310.702312, 245.359407)"><g><path d="M 8.609375 -8.09375 L 8.609375 0 L 7.4375 0 L 7.4375 -1.1875 C 7.101562 -0.726562 6.691406 -0.367188 6.203125 -0.109375 C 5.722656 0.148438 5.191406 0.28125 4.609375 0.28125 C 3.835938 0.28125 3.144531 0.0976562 2.53125 -0.265625 C 1.925781 -0.640625 1.453125 -1.15625 1.109375 -1.8125 C 0.765625 -2.46875 0.59375 -3.21875 0.59375 -4.0625 C 0.59375 -4.894531 0.757812 -5.632812 1.09375 -6.28125 C 1.4375 -6.9375 1.910156 -7.445312 2.515625 -7.8125 C 3.117188 -8.175781 3.804688 -8.359375 4.578125 -8.359375 C 5.160156 -8.359375 5.695312 -8.226562 6.1875 -7.96875 C 6.6875 -7.71875 7.101562 -7.351562 7.4375 -6.875 L 7.4375 -8.09375 Z M 4.578125 -0.796875 C 5.128906 -0.796875 5.617188 -0.929688 6.046875 -1.203125 C 6.484375 -1.484375 6.820312 -1.867188 7.0625 -2.359375 C 7.3125 -2.859375 7.4375 -3.421875 7.4375 -4.046875 C 7.4375 -4.671875 7.3125 -5.226562 7.0625 -5.71875 C 6.820312 -6.21875 6.484375 -6.601562 6.046875 -6.875 C 5.617188 -7.15625 5.128906 -7.296875 4.578125 -7.296875 C 4.035156 -7.296875 3.550781 -7.15625 3.125 -6.875 C 2.695312 -6.601562 2.363281 -6.222656 2.125 -5.734375 C 1.882812 -5.242188 1.765625 -4.6875 1.765625 -4.0625 C 1.765625 -3.425781 1.882812 -2.859375 2.125 -2.359375 C 2.363281 -1.867188 2.695312 -1.484375 3.125 -1.203125 C 3.550781 -0.929688 4.035156 -0.796875 4.578125 -0.796875 Z M 4.578125 -0.796875 "/></g></g></g><g fill="#008037" fill-opacity="1"><g transform="translate(321.782824, 245.359407)"><g><path d="M 3.9375 0.28125 C 3.15625 0.28125 2.46875 0.113281 1.875 -0.21875 C 1.28125 -0.550781 0.828125 -1.023438 0.515625 -1.640625 L 1.578125 -2.15625 C 2.003906 -1.25 2.835938 -0.796875 4.078125 -0.796875 C 4.679688 -0.796875 5.175781 -0.90625 5.5625 -1.125 C 5.957031 -1.34375 6.15625 -1.679688 6.15625 -2.140625 C 6.15625 -2.609375 5.992188 -2.957031 5.671875 -3.1875 C 5.359375 -3.425781 4.804688 -3.578125 4.015625 -3.640625 C 2.898438 -3.734375 2.101562 -3.984375 1.625 -4.390625 C 1.15625 -4.796875 0.921875 -5.332031 0.921875 -6 C 0.921875 -6.75 1.191406 -7.328125 1.734375 -7.734375 C 2.273438 -8.148438 3.015625 -8.359375 3.953125 -8.359375 C 5.554688 -8.359375 6.644531 -7.726562 7.21875 -6.46875 L 6.171875 -5.9375 C 5.972656 -6.40625 5.6875 -6.75 5.3125 -6.96875 C 4.9375 -7.1875 4.457031 -7.296875 3.875 -7.296875 C 3.269531 -7.296875 2.804688 -7.1875 2.484375 -6.96875 C 2.171875 -6.75 2.015625 -6.4375 2.015625 -6.03125 C 2.015625 -5.644531 2.1875 -5.332031 2.53125 -5.09375 C 2.875 -4.863281 3.457031 -4.71875 4.28125 -4.65625 C 5.3125 -4.5625 6.078125 -4.304688 6.578125 -3.890625 C 7.078125 -3.484375 7.328125 -2.945312 7.328125 -2.28125 C 7.328125 -1.738281 7.171875 -1.273438 6.859375 -0.890625 C 6.546875 -0.503906 6.128906 -0.210938 5.609375 -0.015625 C 5.097656 0.179688 4.539062 0.28125 3.9375 0.28125 Z M 3.9375 0.28125 "/></g></g></g><g fill="#008037" fill-opacity="1"><g transform="translate(99.37903, 197.294473)"><g><path d="M 7.90625 -13.4375 L 18.8125 -6.9375 L 18.8125 -3.625 L 3.71875 -12.609375 L 3.71875 -14.15625 L 18.8125 -22.984375 L 18.8125 -19.78125 Z M 7.90625 -13.4375 "/></g></g></g><g fill="#008037" fill-opacity="1"><g transform="translate(120.804537, 197.294473)"><g><path d="M 0.96875 -30.171875 C 0.96875 -30.285156 1.023438 -30.34375 1.140625 -30.34375 L 1.609375 -30.34375 L 8.5 -30.5 C 9.332031 -30.53125 10.234375 -30.546875 11.203125 -30.546875 L 13.890625 -30.546875 C 16.378906 -30.546875 18.25 -30.453125 19.5 -30.265625 C 20.757812 -30.078125 21.992188 -29.859375 23.203125 -29.609375 C 24.410156 -29.359375 25.695312 -28.785156 27.0625 -27.890625 C 28.4375 -27.003906 29.625 -25.929688 30.625 -24.671875 C 32.738281 -21.984375 33.796875 -19.078125 33.796875 -15.953125 C 33.796875 -12.835938 32.984375 -10.039062 31.359375 -7.5625 C 29.003906 -3.96875 25.601562 -1.617188 21.15625 -0.515625 C 19.738281 -0.171875 18.285156 0 16.796875 0 L 1.140625 0 C 1.023438 0 0.96875 -0.0546875 0.96875 -0.171875 L 0.96875 -0.765625 C 0.96875 -0.878906 1.023438 -0.9375 1.140625 -0.9375 L 1.609375 -0.9375 C 4.210938 -0.9375 5.515625 -1.769531 5.515625 -3.4375 L 5.515625 -26.96875 C 5.515625 -27.769531 5.207031 -28.375 4.59375 -28.78125 C 3.976562 -29.195312 3.285156 -29.40625 2.515625 -29.40625 L 1.140625 -29.40625 C 1.023438 -29.40625 0.96875 -29.460938 0.96875 -29.578125 Z M 10.25 -29.53125 C 9.882812 -29.53125 9.703125 -29.335938 9.703125 -28.953125 L 9.703125 -2.6875 C 9.703125 -1.625 10.695312 -1.070312 12.6875 -1.03125 C 13.28125 -1.019531 13.898438 -1.015625 14.546875 -1.015625 C 19.109375 -1.015625 22.695312 -2.296875 25.3125 -4.859375 C 27.925781 -7.421875 29.234375 -10.832031 29.234375 -15.09375 C 29.234375 -19.351562 28.023438 -22.820312 25.609375 -25.5 C 23.203125 -28.1875 20.03125 -29.53125 16.09375 -29.53125 Z M 10.25 -29.53125 "/></g></g></g><g fill="#008037" fill-opacity="1"><g transform="translate(155.435838, 197.294473)"><g><path d="M 4.96875 -11.3125 C 4.71875 -11.3125 4.59375 -10.789062 4.59375 -9.75 C 4.59375 -7.53125 5.25 -5.664062 6.5625 -4.15625 C 7.882812 -2.65625 9.519531 -1.90625 11.46875 -1.90625 C 13.425781 -1.90625 15.304688 -2.753906 17.109375 -4.453125 C 17.140625 -4.472656 17.175781 -4.484375 17.21875 -4.484375 L 17.328125 -4.484375 C 17.410156 -4.484375 17.492188 -4.414062 17.578125 -4.28125 C 17.660156 -4.144531 17.734375 -4.054688 17.796875 -4.015625 C 16.140625 -1.992188 14.1875 -0.597656 11.9375 0.171875 C 11.164062 0.441406 10.289062 0.578125 9.3125 0.578125 C 8.34375 0.578125 7.359375 0.3125 6.359375 -0.21875 C 5.359375 -0.757812 4.5 -1.46875 3.78125 -2.34375 C 2.257812 -4.15625 1.5 -6.414062 1.5 -9.125 C 1.5 -11.84375 2.328125 -14.316406 3.984375 -16.546875 C 5.640625 -18.785156 7.910156 -19.90625 10.796875 -19.90625 C 12.878906 -19.90625 14.578125 -18.976562 15.890625 -17.125 C 17.210938 -15.269531 17.875 -13.640625 17.875 -12.234375 C 17.875 -11.617188 17.722656 -11.3125 17.421875 -11.3125 Z M 5.203125 -13.375 C 5.203125 -13.101562 5.328125 -12.96875 5.578125 -12.96875 L 13.6875 -12.96875 C 14.050781 -12.96875 14.234375 -13.191406 14.234375 -13.640625 C 14.234375 -14.671875 13.769531 -15.722656 12.84375 -16.796875 C 11.925781 -17.878906 10.914062 -18.421875 9.8125 -18.421875 C 8.738281 -18.421875 7.757812 -17.929688 6.875 -16.953125 C 6 -15.984375 5.441406 -14.878906 5.203125 -13.640625 Z M 5.203125 -13.375 "/></g></g></g><g fill="#008037" fill-opacity="1"><g transform="translate(174.306067, 197.294473)"><g><path d="M 21.796875 -19.328125 C 21.953125 -19.285156 22.03125 -19.1875 22.03125 -19.03125 C 22.03125 -18.875 22.007812 -18.757812 21.96875 -18.6875 C 21.925781 -18.613281 21.609375 -18.53125 21.015625 -18.4375 C 20.429688 -18.351562 20.015625 -18.1875 19.765625 -17.9375 C 19.515625 -17.6875 19.289062 -17.40625 19.09375 -17.09375 C 18.90625 -16.78125 18.738281 -16.453125 18.59375 -16.109375 C 18.457031 -15.773438 18.320312 -15.472656 18.1875 -15.203125 L 12.328125 -0.046875 C 12.148438 0.367188 11.992188 0.578125 11.859375 0.578125 L 10.15625 0.578125 C 10.007812 0.578125 9.851562 0.359375 9.6875 -0.078125 L 4 -15.484375 C 3.46875 -16.929688 2.554688 -17.863281 1.265625 -18.28125 C 1.160156 -18.300781 1.039062 -18.320312 0.90625 -18.34375 C 0.300781 -18.394531 0 -18.570312 0 -18.875 C 0 -19.175781 0.171875 -19.328125 0.515625 -19.328125 L 10.078125 -19.328125 C 10.191406 -19.328125 10.25 -19.210938 10.25 -18.984375 C 10.25 -18.765625 10.171875 -18.625 10.015625 -18.5625 C 9.753906 -18.457031 9.296875 -18.410156 8.640625 -18.421875 C 7.554688 -18.453125 7.015625 -18.023438 7.015625 -17.140625 L 7.15625 -16.625 L 11.515625 -4.703125 C 11.796875 -3.972656 12.082031 -3.992188 12.375 -4.765625 C 12.394531 -4.835938 12.578125 -5.300781 12.921875 -6.15625 C 14.859375 -11.101562 15.941406 -13.960938 16.171875 -14.734375 C 16.410156 -15.503906 16.53125 -16.082031 16.53125 -16.46875 C 16.53125 -16.851562 16.320312 -17.253906 15.90625 -17.671875 C 15.5 -18.097656 14.941406 -18.3125 14.234375 -18.3125 C 13.535156 -18.3125 13.1875 -18.53125 13.1875 -18.96875 C 13.1875 -19.207031 13.34375 -19.328125 13.65625 -19.328125 Z M 21.796875 -19.328125 "/></g></g></g><g fill="#008037" fill-opacity="1"><g transform="translate(195.452424, 197.294473)"><g><path d="M 12.671875 -17.84375 C 12.835938 -17.875 13.09375 -17.890625 13.4375 -17.890625 C 15.101562 -17.890625 16.628906 -17.191406 18.015625 -15.796875 C 19.410156 -14.410156 20.109375 -12.640625 20.109375 -10.484375 C 20.109375 -8.335938 19.535156 -6.4375 18.390625 -4.78125 C 17.253906 -3.132812 15.835938 -1.828125 14.140625 -0.859375 C 12.441406 0.0976562 10.800781 0.578125 9.21875 0.578125 C 5.738281 0.578125 3.367188 -0.125 2.109375 -1.53125 C 1.773438 -1.882812 1.535156 -2.3125 1.390625 -2.8125 C 1.390625 -3.769531 1.984375 -4.25 3.171875 -4.25 C 3.472656 -4.25 4.078125 -3.894531 4.984375 -3.1875 C 5.898438 -2.476562 6.757812 -1.894531 7.5625 -1.4375 C 8.363281 -0.976562 9.265625 -0.765625 10.265625 -0.796875 C 12.140625 -0.847656 13.664062 -1.75 14.84375 -3.5 C 16.03125 -5.257812 16.625 -7.179688 16.625 -9.265625 C 16.625 -11.347656 16.109375 -12.921875 15.078125 -13.984375 C 14.046875 -15.046875 12.820312 -15.578125 11.40625 -15.578125 C 10.644531 -15.578125 10.015625 -15.4375 9.515625 -15.15625 C 9.015625 -14.875 8.71875 -14.675781 8.625 -14.5625 C 8.539062 -14.445312 8.46875 -14.390625 8.40625 -14.390625 C 8.34375 -14.390625 8.257812 -14.445312 8.15625 -14.5625 C 8.0625 -14.675781 8.015625 -14.773438 8.015625 -14.859375 C 8.015625 -14.941406 8.0625 -15.03125 8.15625 -15.125 C 8.25 -15.21875 8.359375 -15.316406 8.484375 -15.421875 C 8.609375 -15.535156 8.738281 -15.644531 8.875 -15.75 C 12.4375 -18.519531 14.21875 -20.953125 14.21875 -23.046875 C 14.21875 -24.242188 13.765625 -25.242188 12.859375 -26.046875 C 11.960938 -26.847656 11.003906 -27.25 9.984375 -27.25 C 7.347656 -27.25 5.222656 -25.769531 3.609375 -22.8125 C 3.597656 -22.789062 3.546875 -22.78125 3.453125 -22.78125 C 3.359375 -22.78125 3.21875 -22.820312 3.03125 -22.90625 C 2.84375 -23 2.75 -23.066406 2.75 -23.109375 C 2.75 -23.148438 2.765625 -23.210938 2.796875 -23.296875 C 2.835938 -23.390625 2.953125 -23.671875 3.140625 -24.140625 C 3.328125 -24.609375 3.71875 -25.210938 4.3125 -25.953125 C 4.90625 -26.691406 5.554688 -27.332031 6.265625 -27.875 C 7.796875 -29.03125 9.179688 -29.609375 10.421875 -29.609375 C 12.679688 -29.609375 14.394531 -29.15625 15.5625 -28.25 C 16.738281 -27.351562 17.328125 -26.097656 17.328125 -24.484375 C 17.328125 -22.878906 16.457031 -21.203125 14.71875 -19.453125 C 14.414062 -19.222656 13.988281 -18.914062 13.4375 -18.53125 C 12.882812 -18.15625 12.609375 -17.9375 12.609375 -17.875 L 12.609375 -17.84375 Z M 12.671875 -17.84375 "/></g></g></g><g fill="#008037" fill-opacity="1"><g transform="translate(216.877934, 197.294473)"><g><path d="M 1.625 -14.890625 C 1.625 -18.421875 2.613281 -21.753906 4.59375 -24.890625 C 6.570312 -28.035156 8.769531 -29.609375 11.1875 -29.609375 C 13.09375 -29.609375 14.800781 -28.878906 16.3125 -27.421875 C 17.820312 -25.972656 18.960938 -24.078125 19.734375 -21.734375 C 20.503906 -19.390625 20.890625 -16.9375 20.890625 -14.375 C 20.890625 -10.457031 20.007812 -7.035156 18.25 -4.109375 C 17.09375 -2.160156 15.675781 -0.789062 14 0 C 13.144531 0.382812 12.257812 0.578125 11.34375 0.578125 C 9.601562 0.578125 7.988281 -0.125 6.5 -1.53125 C 5.019531 -2.945312 3.835938 -4.703125 2.953125 -6.796875 C 2.066406 -8.890625 1.625 -10.921875 1.625 -12.890625 Z M 11.40625 -0.6875 C 15.414062 -0.6875 17.421875 -4.847656 17.421875 -13.171875 C 17.421875 -16.648438 17.347656 -18.988281 17.203125 -20.1875 C 16.898438 -22.707031 16.332031 -24.625 15.5 -25.9375 C 14.46875 -27.539062 12.988281 -28.34375 11.0625 -28.34375 C 7.425781 -28.34375 5.457031 -24.671875 5.15625 -17.328125 C 5.113281 -16.273438 5.09375 -15.003906 5.09375 -13.515625 C 5.09375 -9.597656 5.515625 -6.566406 6.359375 -4.421875 C 7.347656 -1.929688 9.03125 -0.6875 11.40625 -0.6875 Z M 11.40625 -0.6875 "/></g></g></g><g fill="#008037" fill-opacity="1"><g transform="translate(238.303444, 197.294473)"><g><path d="M 11.359375 -31.1875 L 14.15625 -31.1875 L 2.875 0.578125 L 0.109375 0.578125 Z M 11.359375 -31.1875 "/></g></g></g><g fill="#008037" fill-opacity="1"><g transform="translate(251.461901, 197.294473)"><g><path d="M 3.734375 -19.78125 L 3.734375 -22.984375 L 18.765625 -14.09375 L 18.765625 -12.5625 L 3.734375 -3.625 L 3.734375 -6.9375 L 14.578125 -13.4375 Z M 3.734375 -19.78125 "/></g></g></g><path stroke-linecap="butt" transform="matrix(-0.000000000000000121, -0.751062, 0.75, -0.000000000000000121, 17.375918, 257.982845)" fill="none" stroke-linejoin="miter" d="M -0.00203757 1.998777 L 209.711499 1.998777 " stroke="#3f3d56" stroke-width="4" stroke-opacity="1" stroke-miterlimit="4"/><path stroke-linecap="butt" transform="matrix(0.750284, 0, 0, 0.75, 17.37873, 99.20269)" fill="none" stroke-linejoin="miter" d="M 0.000234593 2.00058 L 453.84401 2.00058 " stroke="#3f3d56" stroke-width="4" stroke-opacity="1" stroke-miterlimit="4"/><path stroke-linecap="butt" transform="matrix(0.000000000000000046, 0.751052, -0.75, 0.000000000000000046, 359.257042, 99.205503)" fill="none" stroke-linejoin="miter" d="M 0.0020347 1.998972 L 211.710384 1.998972 " stroke="#3f3d56" stroke-width="4" stroke-opacity="1" stroke-miterlimit="4"/></svg>