<svg xmlns="http://www.w3.org/2000/svg" xmlns:xlink="http://www.w3.org/1999/xlink" width="500" zoomAndPan="magnify" viewBox="0 0 375 374.999991" height="500" preserveAspectRatio="xMidYMid meet" version="1.0"><defs><g/><clipPath id="66fb5cdc86"><path d="M 95.160156 112.558594 L 231.097656 112.558594 L 231.097656 204 L 95.160156 204 Z M 95.160156 112.558594 " clip-rule="nonzero"/></clipPath><clipPath id="191a144115"><path d="M 123 216 L 204 216 L 204 225.058594 L 123 225.058594 Z M 123 216 " clip-rule="nonzero"/></clipPath><clipPath id="f8cfdf2110"><path d="M 121 127 L 192.679688 127 L 192.679688 168 L 121 168 Z M 121 127 " clip-rule="nonzero"/></clipPath><clipPath id="d907122394"><path d="M 110.179688 121.375 L 164 121.375 L 164 182.3125 L 110.179688 182.3125 Z M 110.179688 121.375 " clip-rule="nonzero"/></clipPath><clipPath id="098723d155"><path d="M 118.464844 122.078125 L 176.113281 122.078125 L 176.113281 182.273438 L 118.464844 182.273438 Z M 118.464844 122.078125 " clip-rule="nonzero"/></clipPath><clipPath id="02d6705e91"><path d="M 209 151.808594 L 261.460938 151.808594 L 261.460938 220 L 209 220 Z M 209 151.808594 " clip-rule="nonzero"/></clipPath><clipPath id="b2fe197be1"><path d="M 205.949219 149.519531 L 264.0625 149.519531 L 264.0625 225.453125 L 205.949219 225.453125 Z M 205.949219 149.519531 " clip-rule="nonzero"/></clipPath><clipPath id="66f309fddb"><path d="M 219 158 L 256.894531 158 L 256.894531 179 L 219 179 Z M 219 158 " clip-rule="nonzero"/></clipPath><clipPath id="5b6bde103f"><path d="M 213.769531 154.722656 L 242 154.722656 L 242 186.597656 L 213.769531 186.597656 Z M 213.769531 154.722656 " clip-rule="nonzero"/></clipPath><clipPath id="324ce96c9a"><path d="M 218.097656 155.089844 L 248.234375 155.089844 L 248.234375 186.582031 L 218.097656 186.582031 Z M 218.097656 155.089844 " clip-rule="nonzero"/></clipPath><clipPath id="7f2ee6ad21"><path d="M 219 190 L 256.9375 190 L 256.9375 212 L 219 212 Z M 219 190 " clip-rule="nonzero"/></clipPath><clipPath id="8529432135"><path d="M 213.8125 187.355469 L 242 187.355469 L 242 219.230469 L 213.8125 219.230469 Z M 213.8125 187.355469 " clip-rule="nonzero"/></clipPath><clipPath id="76ccbe7fc2"><path d="M 218.144531 187.722656 L 248.277344 187.722656 L 248.277344 219.210938 L 218.144531 219.210938 Z M 218.144531 187.722656 " clip-rule="nonzero"/></clipPath><clipPath id="1651dfa188"><path d="M 256.980469 185.242188 L 279 185.242188 L 279 221.890625 L 256.980469 221.890625 Z M 256.980469 185.242188 " clip-rule="nonzero"/></clipPath><clipPath id="1cc38cd9af"><path d="M 256.648438 182.242188 L 280.085938 182.242188 L 280.085938 225.367188 L 256.648438 225.367188 Z M 256.648438 182.242188 " clip-rule="nonzero"/></clipPath><clipPath id="2411ce90d7"><path d="M 261 190 L 278.101562 190 L 278.101562 200 L 261 200 Z M 261 190 " clip-rule="nonzero"/></clipPath><clipPath id="b828930e86"><path d="M 258.414062 188.648438 L 272 188.648438 L 272 202.710938 L 258.414062 202.710938 Z M 258.414062 188.648438 " clip-rule="nonzero"/></clipPath><clipPath id="a48737ee54"><path d="M 260.390625 188.804688 L 274.148438 188.804688 L 274.148438 202.703125 L 260.390625 202.703125 Z M 260.390625 188.804688 " clip-rule="nonzero"/></clipPath></defs><g clip-path="url(#66fb5cdc86)"><path fill="#ff6100" d="M 225.164062 184.945312 L 101.089844 184.945312 L 101.089844 119.0625 C 101.089844 118.765625 101.332031 118.53125 101.625 118.53125 L 224.632812 118.53125 C 224.925781 118.53125 225.164062 118.765625 225.164062 119.0625 Z M 176.730469 197.710938 C 176.089844 198.351562 175.207031 198.746094 174.230469 198.746094 L 152.027344 198.746094 C 150.074219 198.746094 148.492188 197.164062 148.492188 195.210938 C 148.492188 194.234375 148.886719 193.351562 149.527344 192.710938 C 150.164062 192.070312 151.050781 191.675781 152.027344 191.675781 L 174.230469 191.675781 C 176.183594 191.675781 177.765625 193.257812 177.765625 195.210938 C 177.765625 196.1875 177.371094 197.070312 176.730469 197.710938 Z M 224.632812 112.59375 L 101.625 112.59375 C 98.058594 112.59375 95.15625 115.496094 95.15625 119.0625 L 95.15625 197.328125 C 95.15625 200.894531 98.058594 203.796875 101.625 203.796875 L 224.632812 203.796875 C 228.199219 203.796875 231.097656 200.894531 231.097656 197.328125 L 231.097656 119.0625 C 231.097656 115.496094 228.199219 112.59375 224.632812 112.59375 " fill-opacity="1" fill-rule="nonzero"/></g><path fill="#ff6100" d="M 175.984375 195.210938 C 175.984375 195.679688 175.800781 196.121094 175.46875 196.453125 C 175.140625 196.785156 174.699219 196.96875 174.230469 196.96875 L 152.027344 196.96875 C 151.058594 196.96875 150.273438 196.179688 150.273438 195.210938 C 150.273438 194.742188 150.453125 194.300781 150.789062 193.96875 C 151.117188 193.640625 151.558594 193.457031 152.027344 193.457031 L 174.230469 193.457031 C 175.199219 193.457031 175.984375 194.242188 175.984375 195.210938 " fill-opacity="1" fill-rule="nonzero"/><g clip-path="url(#191a144115)"><path fill="#ff6100" d="M 203.105469 225.007812 L 123.152344 225.007812 C 124.738281 220.351562 129.15625 216.996094 134.34375 216.996094 L 191.914062 216.996094 C 197.105469 216.996094 201.519531 220.351562 203.105469 225.007812 " fill-opacity="1" fill-rule="nonzero"/></g><path fill="#ff6100" d="M 178.347656 214.84375 L 147.914062 214.84375 L 150.90625 205.945312 L 175.351562 205.945312 L 178.347656 214.84375 " fill-opacity="1" fill-rule="nonzero"/><g clip-path="url(#f8cfdf2110)"><path fill="#8ac0c8" d="M 136.324219 127.835938 L 131.101562 127.835938 L 131.101562 129.898438 L 136.324219 129.898438 Z M 138.074219 132.507812 L 121.070312 132.507812 L 121.070312 134.570312 L 138.074219 134.570312 Z M 161.253906 137.179688 L 153.054688 137.179688 L 153.054688 139.242188 L 161.253906 139.242188 Z M 131.945312 141.851562 L 121.070312 141.851562 L 121.070312 143.914062 L 131.945312 143.914062 Z M 144.648438 146.523438 L 121.070312 146.523438 L 121.070312 148.585938 L 144.648438 148.585938 Z M 159.855469 148.585938 L 183.433594 148.585938 L 183.433594 146.523438 L 159.855469 146.523438 Z M 177.238281 160.539062 L 177.238281 162.601562 L 192.679688 162.601562 L 192.679688 160.539062 Z M 138.566406 162.601562 L 175.183594 162.601562 L 175.183594 160.539062 L 138.566406 160.539062 Z M 121.070312 167.273438 L 136.179688 167.273438 L 136.179688 165.210938 L 121.070312 165.210938 L 121.070312 167.273438 " fill-opacity="1" fill-rule="nonzero"/></g><path fill="#18bd9c" d="M 168.386719 132.507812 L 151.382812 132.507812 L 151.382812 134.570312 L 168.386719 134.570312 Z M 151 137.179688 L 121.070312 137.179688 L 121.070312 139.242188 L 151 139.242188 Z M 146.367188 153.257812 L 166.9375 153.257812 L 166.9375 151.195312 L 146.367188 151.195312 Z M 136.515625 160.539062 L 121.070312 160.539062 L 121.070312 162.601562 L 136.515625 162.601562 Z M 165.425781 165.210938 L 165.425781 167.273438 L 169.839844 167.273438 L 169.839844 165.210938 Z M 130.542969 171.945312 L 165.601562 171.945312 L 165.601562 169.882812 L 130.542969 169.882812 L 130.542969 171.945312 " fill-opacity="1" fill-rule="nonzero"/><g clip-path="url(#d907122394)"><path fill="#fcde82" d="M 110.179688 125.226562 L 112.234375 125.226562 L 112.234375 123.164062 L 110.179688 123.164062 Z M 110.179688 129.898438 L 112.234375 129.898438 L 112.234375 127.835938 L 110.179688 127.835938 Z M 149.332031 132.507812 L 140.128906 132.507812 L 140.128906 134.570312 L 149.332031 134.570312 Z M 110.179688 134.570312 L 112.234375 134.570312 L 112.234375 132.507812 L 110.179688 132.507812 Z M 110.179688 139.242188 L 112.234375 139.242188 L 112.234375 137.179688 L 110.179688 137.179688 Z M 156.574219 141.851562 L 133.996094 141.851562 L 133.996094 143.914062 L 156.574219 143.914062 Z M 110.179688 143.914062 L 112.234375 143.914062 L 112.234375 141.851562 L 110.179688 141.851562 Z M 110.179688 148.585938 L 112.234375 148.585938 L 112.234375 146.523438 L 110.179688 146.523438 Z M 144.316406 151.195312 L 121.070312 151.195312 L 121.070312 153.257812 L 144.316406 153.257812 Z M 110.179688 153.257812 L 112.234375 153.257812 L 112.234375 151.195312 L 110.179688 151.195312 Z M 110.179688 157.929688 L 112.234375 157.929688 L 112.234375 155.867188 L 110.179688 155.867188 Z M 110.179688 162.601562 L 112.234375 162.601562 L 112.234375 160.539062 L 110.179688 160.539062 Z M 138.234375 165.210938 L 138.234375 167.273438 L 163.375 167.273438 L 163.375 165.210938 Z M 110.179688 167.273438 L 112.234375 167.273438 L 112.234375 165.210938 L 110.179688 165.210938 Z M 121.070312 171.945312 L 128.492188 171.945312 L 128.492188 169.882812 L 121.070312 169.882812 Z M 110.179688 171.945312 L 112.234375 171.945312 L 112.234375 169.882812 L 110.179688 169.882812 Z M 110.179688 176.617188 L 112.234375 176.617188 L 112.234375 174.554688 L 110.179688 174.554688 Z M 115.789062 182.105469 L 116.789062 182.105469 L 116.789062 121.410156 L 115.789062 121.410156 L 115.789062 182.105469 " fill-opacity="1" fill-rule="nonzero"/></g><g clip-path="url(#098723d155)"><path fill="#f49c10" d="M 129.046875 127.835938 L 118.605469 127.835938 L 118.605469 129.898438 L 129.046875 129.898438 Z M 163.308594 137.179688 L 163.308594 139.242188 L 176.078125 139.242188 L 176.078125 137.179688 Z M 146.703125 148.585938 L 157.800781 148.585938 L 157.800781 146.523438 L 146.703125 146.523438 Z M 118.605469 157.929688 L 130.050781 157.929688 L 130.050781 155.867188 L 118.605469 155.867188 Z M 125.929688 174.554688 L 118.605469 174.554688 L 118.605469 176.617188 L 125.929688 176.617188 Z M 125.101562 126.171875 C 125.1875 126.171875 125.273438 126.140625 125.339844 126.078125 L 128.410156 122.992188 C 128.539062 122.859375 128.539062 122.644531 128.410156 122.515625 C 128.28125 122.382812 128.066406 122.382812 127.9375 122.515625 L 124.867188 125.601562 C 124.734375 125.730469 124.734375 125.945312 124.867188 126.078125 C 124.933594 126.140625 125.015625 126.171875 125.101562 126.171875 Z M 122.550781 126.257812 C 122.617188 126.324219 122.703125 126.359375 122.789062 126.359375 C 122.875 126.359375 122.960938 126.324219 123.023438 126.257812 C 123.15625 126.128906 123.15625 125.917969 123.023438 125.785156 L 121.542969 124.296875 L 123.023438 122.804688 C 123.15625 122.675781 123.15625 122.460938 123.023438 122.332031 C 122.894531 122.199219 122.683594 122.199219 122.550781 122.332031 L 120.832031 124.058594 C 120.703125 124.1875 120.703125 124.402344 120.832031 124.53125 Z M 130.816406 122.332031 C 130.683594 122.199219 130.472656 122.199219 130.34375 122.332031 C 130.214844 122.460938 130.214844 122.675781 130.34375 122.808594 L 130.34375 122.804688 L 131.824219 124.292969 L 130.34375 125.785156 C 130.214844 125.914062 130.214844 126.128906 130.34375 126.261719 C 130.410156 126.328125 130.496094 126.359375 130.578125 126.359375 C 130.664062 126.359375 130.75 126.328125 130.816406 126.261719 L 132.535156 124.53125 C 132.597656 124.46875 132.632812 124.386719 132.632812 124.296875 C 132.632812 124.203125 132.597656 124.121094 132.535156 124.058594 Z M 130.816406 178.246094 C 130.683594 178.113281 130.472656 178.113281 130.34375 178.246094 C 130.214844 178.375 130.214844 178.589844 130.34375 178.722656 L 131.824219 180.210938 L 130.34375 181.699219 C 130.210938 181.832031 130.210938 182.042969 130.34375 182.175781 C 130.410156 182.242188 130.492188 182.273438 130.578125 182.273438 C 130.664062 182.273438 130.75 182.242188 130.816406 182.175781 L 132.535156 180.449219 C 132.597656 180.382812 132.632812 180.300781 132.632812 180.210938 C 132.632812 180.121094 132.597656 180.035156 132.535156 179.972656 Z M 123.023438 178.246094 C 122.894531 178.113281 122.683594 178.113281 122.550781 178.246094 L 120.832031 179.972656 C 120.703125 180.105469 120.703125 180.316406 120.832031 180.449219 L 122.550781 182.175781 C 122.617188 182.238281 122.703125 182.273438 122.789062 182.273438 C 122.875 182.273438 122.960938 182.242188 123.023438 182.175781 C 123.15625 182.042969 123.15625 181.832031 123.023438 181.699219 L 121.542969 180.210938 L 123.023438 178.722656 C 123.15625 178.589844 123.15625 178.375 123.023438 178.246094 Z M 127.9375 178.429688 L 124.867188 181.515625 C 124.734375 181.644531 124.734375 181.859375 124.867188 181.992188 C 124.933594 182.054688 125.015625 182.089844 125.101562 182.089844 C 125.1875 182.089844 125.273438 182.054688 125.339844 181.992188 L 128.410156 178.90625 C 128.539062 178.773438 128.539062 178.5625 128.410156 178.429688 C 128.28125 178.296875 128.066406 178.296875 127.9375 178.429688 " fill-opacity="1" fill-rule="nonzero"/></g><g clip-path="url(#02d6705e91)"><path fill="#ffffff" d="M 209 151.808594 L 261.734375 151.808594 L 261.734375 219.921875 L 209 219.921875 Z M 209 151.808594 " fill-opacity="1" fill-rule="nonzero"/></g><g clip-path="url(#b2fe197be1)"><path fill="#000000" d="M 261.042969 220.324219 L 208.964844 220.324219 L 208.964844 152.574219 L 261.042969 152.574219 Z M 235.003906 224.585938 C 234.078125 224.585938 233.328125 223.824219 233.328125 222.886719 C 233.328125 221.953125 234.078125 221.191406 235.003906 221.191406 C 235.929688 221.191406 236.679688 221.953125 236.679688 222.886719 C 236.679688 223.824219 235.929688 224.585938 235.003906 224.585938 Z M 234.808594 150.640625 C 235.027344 150.53125 235.292969 150.621094 235.402344 150.84375 C 235.511719 151.066406 235.425781 151.339844 235.203125 151.449219 C 234.984375 151.5625 234.714844 151.46875 234.605469 151.246094 C 234.496094 151.023438 234.585938 150.753906 234.808594 150.640625 Z M 260.679688 149.519531 L 209.332031 149.519531 C 207.464844 149.519531 205.949219 151.050781 205.949219 152.941406 L 205.949219 222.027344 C 205.949219 223.917969 207.464844 225.453125 209.332031 225.453125 L 260.679688 225.453125 C 262.546875 225.453125 264.058594 223.917969 264.058594 222.027344 L 264.058594 152.941406 C 264.058594 151.050781 262.546875 149.519531 260.679688 149.519531 " fill-opacity="1" fill-rule="nonzero"/></g><g clip-path="url(#66f309fddb)"><path fill="#8ac0c8" d="M 227.433594 158.101562 L 224.703125 158.101562 L 224.703125 159.179688 L 227.433594 159.179688 Z M 228.347656 160.546875 L 219.460938 160.546875 L 219.460938 161.625 L 228.347656 161.625 Z M 240.464844 162.992188 L 236.179688 162.992188 L 236.179688 164.070312 L 240.464844 164.070312 Z M 225.144531 165.433594 L 219.460938 165.433594 L 219.460938 166.515625 L 225.144531 166.515625 Z M 231.785156 167.878906 L 219.460938 167.878906 L 219.460938 168.957031 L 231.785156 168.957031 Z M 239.734375 168.957031 L 252.058594 168.957031 L 252.058594 167.878906 L 239.734375 167.878906 Z M 248.820312 175.210938 L 248.820312 176.289062 L 256.894531 176.289062 L 256.894531 175.210938 Z M 228.605469 176.289062 L 247.746094 176.289062 L 247.746094 175.210938 L 228.605469 175.210938 Z M 219.460938 178.734375 L 227.359375 178.734375 L 227.359375 177.65625 L 219.460938 177.65625 L 219.460938 178.734375 " fill-opacity="1" fill-rule="nonzero"/></g><path fill="#18bd9c" d="M 244.195312 160.546875 L 235.304688 160.546875 L 235.304688 161.625 L 244.195312 161.625 Z M 235.105469 162.992188 L 219.460938 162.992188 L 219.460938 164.070312 L 235.105469 164.070312 Z M 232.683594 171.402344 L 243.4375 171.402344 L 243.4375 170.324219 L 232.683594 170.324219 Z M 227.53125 175.210938 L 219.460938 175.210938 L 219.460938 176.289062 L 227.53125 176.289062 Z M 242.644531 177.65625 L 242.644531 178.734375 L 244.953125 178.734375 L 244.953125 177.65625 Z M 224.410156 181.179688 L 242.738281 181.179688 L 242.738281 180.097656 L 224.410156 180.097656 L 224.410156 181.179688 " fill-opacity="1" fill-rule="nonzero"/><g clip-path="url(#5b6bde103f)"><path fill="#fcde82" d="M 213.769531 156.738281 L 214.839844 156.738281 L 214.839844 155.660156 L 213.769531 155.660156 Z M 213.769531 159.179688 L 214.839844 159.179688 L 214.839844 158.101562 L 213.769531 158.101562 Z M 234.234375 160.546875 L 229.421875 160.546875 L 229.421875 161.625 L 234.234375 161.625 Z M 213.769531 161.625 L 214.839844 161.625 L 214.839844 160.546875 L 213.769531 160.546875 Z M 213.769531 164.070312 L 214.839844 164.070312 L 214.839844 162.992188 L 213.769531 162.992188 Z M 238.019531 165.433594 L 226.21875 165.433594 L 226.21875 166.515625 L 238.019531 166.515625 Z M 213.769531 166.515625 L 214.839844 166.515625 L 214.839844 165.433594 L 213.769531 165.433594 Z M 213.769531 168.957031 L 214.839844 168.957031 L 214.839844 167.878906 L 213.769531 167.878906 Z M 231.609375 170.324219 L 219.460938 170.324219 L 219.460938 171.402344 L 231.609375 171.402344 Z M 213.769531 171.402344 L 214.839844 171.402344 L 214.839844 170.324219 L 213.769531 170.324219 Z M 213.769531 173.84375 L 214.839844 173.84375 L 214.839844 172.765625 L 213.769531 172.765625 Z M 213.769531 176.289062 L 214.839844 176.289062 L 214.839844 175.210938 L 213.769531 175.210938 Z M 228.429688 177.65625 L 228.429688 178.734375 L 241.574219 178.734375 L 241.574219 177.65625 Z M 213.769531 178.734375 L 214.839844 178.734375 L 214.839844 177.65625 L 213.769531 177.65625 Z M 219.460938 181.179688 L 223.339844 181.179688 L 223.339844 180.097656 L 219.460938 180.097656 Z M 213.769531 181.179688 L 214.839844 181.179688 L 214.839844 180.097656 L 213.769531 180.097656 Z M 213.769531 183.621094 L 214.839844 183.621094 L 214.839844 182.542969 L 213.769531 182.542969 Z M 216.699219 186.492188 L 217.222656 186.492188 L 217.222656 154.742188 L 216.699219 154.742188 L 216.699219 186.492188 " fill-opacity="1" fill-rule="nonzero"/></g><g clip-path="url(#324ce96c9a)"><path fill="#f49c10" d="M 223.628906 158.101562 L 218.171875 158.101562 L 218.171875 159.179688 L 223.628906 159.179688 Z M 241.539062 162.992188 L 241.539062 164.070312 L 248.214844 164.070312 L 248.214844 162.992188 Z M 232.859375 168.957031 L 238.660156 168.957031 L 238.660156 167.878906 L 232.859375 167.878906 Z M 218.171875 173.84375 L 224.15625 173.84375 L 224.15625 172.765625 L 218.171875 172.765625 Z M 222 182.542969 L 218.171875 182.542969 L 218.171875 183.621094 L 222 183.621094 Z M 221.566406 157.234375 C 221.613281 157.234375 221.65625 157.214844 221.691406 157.183594 L 223.296875 155.566406 C 223.363281 155.5 223.363281 155.386719 223.296875 155.320312 C 223.226562 155.25 223.117188 155.25 223.050781 155.320312 L 221.445312 156.933594 C 221.375 157.003906 221.375 157.113281 221.445312 157.183594 C 221.476562 157.214844 221.523438 157.234375 221.566406 157.234375 Z M 220.234375 157.277344 C 220.269531 157.3125 220.3125 157.328125 220.359375 157.328125 C 220.402344 157.328125 220.449219 157.3125 220.480469 157.277344 C 220.550781 157.210938 220.550781 157.097656 220.480469 157.03125 L 219.707031 156.25 L 220.480469 155.472656 C 220.550781 155.402344 220.550781 155.292969 220.480469 155.222656 C 220.414062 155.15625 220.300781 155.15625 220.234375 155.222656 L 219.335938 156.125 C 219.269531 156.195312 219.269531 156.304688 219.335938 156.375 Z M 224.554688 155.222656 C 224.484375 155.15625 224.375 155.15625 224.308594 155.222656 C 224.238281 155.292969 224.238281 155.402344 224.308594 155.472656 L 225.082031 156.25 L 224.308594 157.03125 C 224.238281 157.097656 224.238281 157.210938 224.308594 157.277344 C 224.339844 157.3125 224.386719 157.328125 224.429688 157.328125 C 224.476562 157.328125 224.519531 157.3125 224.554688 157.277344 L 225.453125 156.375 C 225.484375 156.339844 225.503906 156.296875 225.503906 156.25 C 225.503906 156.203125 225.484375 156.160156 225.453125 156.125 Z M 224.554688 184.472656 C 224.484375 184.402344 224.375 184.402344 224.308594 184.472656 C 224.238281 184.542969 224.238281 184.652344 224.308594 184.722656 L 225.082031 185.5 L 224.308594 186.28125 C 224.238281 186.347656 224.238281 186.460938 224.308594 186.527344 C 224.339844 186.5625 224.386719 186.582031 224.429688 186.582031 C 224.476562 186.582031 224.519531 186.5625 224.554688 186.527344 L 225.453125 185.625 C 225.484375 185.589844 225.503906 185.546875 225.503906 185.5 C 225.503906 185.453125 225.484375 185.410156 225.453125 185.375 Z M 220.480469 184.472656 C 220.414062 184.40625 220.300781 184.40625 220.234375 184.472656 L 219.335938 185.375 C 219.269531 185.445312 219.269531 185.554688 219.335938 185.625 L 220.234375 186.527344 C 220.269531 186.5625 220.3125 186.578125 220.359375 186.578125 C 220.402344 186.578125 220.449219 186.5625 220.480469 186.527344 C 220.550781 186.460938 220.550781 186.347656 220.480469 186.28125 L 219.707031 185.5 L 220.480469 184.722656 C 220.550781 184.652344 220.550781 184.542969 220.480469 184.472656 Z M 223.050781 184.570312 L 221.445312 186.183594 C 221.375 186.25 221.375 186.363281 221.445312 186.433594 C 221.476562 186.464844 221.523438 186.484375 221.566406 186.484375 C 221.613281 186.484375 221.65625 186.464844 221.691406 186.433594 L 223.296875 184.816406 C 223.363281 184.75 223.363281 184.636719 223.296875 184.570312 C 223.226562 184.5 223.117188 184.5 223.050781 184.570312 " fill-opacity="1" fill-rule="nonzero"/></g><g clip-path="url(#7f2ee6ad21)"><path fill="#8ac0c8" d="M 227.476562 190.734375 L 224.75 190.734375 L 224.75 191.8125 L 227.476562 191.8125 Z M 228.394531 193.179688 L 219.503906 193.179688 L 219.503906 194.257812 L 228.394531 194.257812 Z M 240.511719 195.621094 L 236.222656 195.621094 L 236.222656 196.703125 L 240.511719 196.703125 Z M 225.191406 198.066406 L 219.503906 198.066406 L 219.503906 199.144531 L 225.191406 199.144531 Z M 231.832031 200.511719 L 219.503906 200.511719 L 219.503906 201.589844 L 231.832031 201.589844 Z M 239.777344 201.589844 L 252.101562 201.589844 L 252.101562 200.511719 L 239.777344 200.511719 Z M 248.863281 207.84375 L 248.863281 208.921875 L 256.9375 208.921875 L 256.9375 207.84375 Z M 228.652344 208.921875 L 247.792969 208.921875 L 247.792969 207.84375 L 228.652344 207.84375 Z M 219.503906 211.367188 L 227.402344 211.367188 L 227.402344 210.289062 L 219.503906 210.289062 L 219.503906 211.367188 " fill-opacity="1" fill-rule="nonzero"/></g><path fill="#18bd9c" d="M 244.238281 193.179688 L 235.351562 193.179688 L 235.351562 194.257812 L 244.238281 194.257812 Z M 235.152344 195.621094 L 219.503906 195.621094 L 219.503906 196.703125 L 235.152344 196.703125 Z M 232.730469 204.035156 L 243.480469 204.035156 L 243.480469 202.953125 L 232.730469 202.953125 Z M 227.578125 207.84375 L 219.503906 207.84375 L 219.503906 208.921875 L 227.578125 208.921875 Z M 242.691406 210.289062 L 242.691406 211.367188 L 244.996094 211.367188 L 244.996094 210.289062 Z M 224.457031 213.808594 L 242.78125 213.808594 L 242.78125 212.730469 L 224.457031 212.730469 L 224.457031 213.808594 " fill-opacity="1" fill-rule="nonzero"/><g clip-path="url(#8529432135)"><path fill="#fcde82" d="M 213.8125 189.371094 L 214.886719 189.371094 L 214.886719 188.289062 L 213.8125 188.289062 Z M 213.8125 191.8125 L 214.886719 191.8125 L 214.886719 190.734375 L 213.8125 190.734375 Z M 234.277344 193.179688 L 229.464844 193.179688 L 229.464844 194.257812 L 234.277344 194.257812 Z M 213.8125 194.257812 L 214.886719 194.257812 L 214.886719 193.179688 L 213.8125 193.179688 Z M 213.8125 196.703125 L 214.886719 196.703125 L 214.886719 195.621094 L 213.8125 195.621094 Z M 238.0625 198.066406 L 226.261719 198.066406 L 226.261719 199.144531 L 238.0625 199.144531 Z M 213.8125 199.144531 L 214.886719 199.144531 L 214.886719 198.066406 L 213.8125 198.066406 Z M 213.8125 201.589844 L 214.886719 201.589844 L 214.886719 200.511719 L 213.8125 200.511719 Z M 231.65625 202.953125 L 219.503906 202.953125 L 219.503906 204.035156 L 231.65625 204.035156 Z M 213.8125 204.035156 L 214.886719 204.035156 L 214.886719 202.953125 L 213.8125 202.953125 Z M 213.8125 206.476562 L 214.886719 206.476562 L 214.886719 205.398438 L 213.8125 205.398438 Z M 213.8125 208.921875 L 214.886719 208.921875 L 214.886719 207.84375 L 213.8125 207.84375 Z M 228.476562 210.289062 L 228.476562 211.367188 L 241.617188 211.367188 L 241.617188 210.289062 Z M 213.8125 211.367188 L 214.886719 211.367188 L 214.886719 210.289062 L 213.8125 210.289062 Z M 219.503906 213.808594 L 223.382812 213.808594 L 223.382812 212.730469 L 219.503906 212.730469 Z M 213.8125 213.808594 L 214.886719 213.808594 L 214.886719 212.730469 L 213.8125 212.730469 Z M 213.8125 216.253906 L 214.886719 216.253906 L 214.886719 215.175781 L 213.8125 215.175781 Z M 216.742188 219.125 L 217.269531 219.125 L 217.269531 187.375 L 216.742188 187.375 L 216.742188 219.125 " fill-opacity="1" fill-rule="nonzero"/></g><g clip-path="url(#76ccbe7fc2)"><path fill="#f49c10" d="M 223.675781 190.734375 L 218.214844 190.734375 L 218.214844 191.8125 L 223.675781 191.8125 Z M 241.582031 195.621094 L 241.582031 196.703125 L 248.257812 196.703125 L 248.257812 195.621094 Z M 232.902344 201.589844 L 238.703125 201.589844 L 238.703125 200.511719 L 232.902344 200.511719 Z M 218.214844 206.476562 L 224.199219 206.476562 L 224.199219 205.398438 L 218.214844 205.398438 Z M 222.042969 215.175781 L 218.214844 215.175781 L 218.214844 216.253906 L 222.042969 216.253906 Z M 221.613281 189.867188 C 221.65625 189.867188 221.703125 189.847656 221.734375 189.816406 L 223.339844 188.199219 C 223.410156 188.132812 223.410156 188.019531 223.339844 187.953125 C 223.273438 187.882812 223.164062 187.882812 223.09375 187.953125 L 221.488281 189.566406 C 221.421875 189.632812 221.421875 189.746094 221.488281 189.816406 C 221.523438 189.847656 221.566406 189.867188 221.613281 189.867188 Z M 220.28125 189.910156 C 220.3125 189.945312 220.359375 189.960938 220.402344 189.960938 C 220.449219 189.960938 220.492188 189.945312 220.527344 189.910156 C 220.59375 189.84375 220.59375 189.730469 220.527344 189.660156 L 219.753906 188.882812 L 220.527344 188.105469 C 220.59375 188.035156 220.59375 187.925781 220.527344 187.855469 C 220.457031 187.785156 220.347656 187.785156 220.28125 187.855469 L 219.382812 188.757812 C 219.3125 188.828125 219.3125 188.9375 219.382812 189.007812 Z M 224.597656 187.855469 C 224.53125 187.785156 224.421875 187.785156 224.351562 187.855469 C 224.285156 187.925781 224.285156 188.035156 224.351562 188.105469 L 224.351562 188.101562 L 225.125 188.882812 L 224.351562 189.660156 C 224.285156 189.730469 224.285156 189.84375 224.351562 189.910156 C 224.386719 189.945312 224.429688 189.960938 224.476562 189.960938 C 224.519531 189.960938 224.566406 189.945312 224.597656 189.910156 L 225.496094 189.007812 C 225.53125 188.972656 225.546875 188.929688 225.546875 188.882812 C 225.546875 188.835938 225.53125 188.792969 225.496094 188.757812 Z M 224.601562 217.105469 C 224.53125 217.035156 224.421875 217.035156 224.351562 217.105469 C 224.285156 217.171875 224.285156 217.285156 224.351562 217.355469 L 225.125 218.132812 L 224.351562 218.910156 C 224.285156 218.980469 224.285156 219.09375 224.351562 219.160156 C 224.386719 219.195312 224.429688 219.210938 224.476562 219.210938 C 224.519531 219.210938 224.566406 219.195312 224.601562 219.160156 L 225.496094 218.257812 C 225.53125 218.222656 225.546875 218.179688 225.546875 218.132812 C 225.546875 218.085938 225.53125 218.042969 225.496094 218.007812 Z M 220.527344 217.105469 C 220.457031 217.035156 220.347656 217.035156 220.28125 217.105469 L 219.382812 218.007812 C 219.3125 218.078125 219.3125 218.1875 219.382812 218.257812 L 220.28125 219.160156 C 220.3125 219.195312 220.359375 219.210938 220.402344 219.210938 C 220.449219 219.210938 220.492188 219.195312 220.527344 219.160156 C 220.59375 219.09375 220.59375 218.980469 220.527344 218.910156 L 219.75 218.132812 L 220.527344 217.355469 C 220.59375 217.285156 220.59375 217.171875 220.527344 217.105469 Z M 223.09375 217.203125 L 221.488281 218.816406 C 221.421875 218.882812 221.421875 218.996094 221.488281 219.0625 C 221.523438 219.097656 221.566406 219.117188 221.613281 219.117188 C 221.65625 219.117188 221.703125 219.097656 221.738281 219.0625 L 223.339844 217.449219 C 223.410156 217.382812 223.410156 217.269531 223.339844 217.203125 C 223.273438 217.132812 223.164062 217.132812 223.09375 217.203125 " fill-opacity="1" fill-rule="nonzero"/></g><g clip-path="url(#1651dfa188)"><path fill="#ffffff" d="M 256.980469 185.242188 L 278.953125 185.242188 L 278.953125 222.59375 L 256.980469 222.59375 Z M 256.980469 185.242188 " fill-opacity="1" fill-rule="nonzero"/></g><g clip-path="url(#1cc38cd9af)"><path fill="#ff6100" d="M 278.09375 182.273438 C 278.140625 182.273438 278.1875 182.273438 278.230469 182.277344 C 278.316406 182.285156 278.402344 182.296875 278.484375 182.3125 C 278.589844 182.335938 278.695312 182.367188 278.796875 182.40625 C 278.90625 182.449219 279.011719 182.503906 279.113281 182.566406 C 279.214844 182.628906 279.308594 182.703125 279.398438 182.78125 C 279.5 182.875 279.589844 182.976562 279.667969 183.085938 C 279.738281 183.1875 279.804688 183.300781 279.855469 183.414062 C 279.90625 183.53125 279.949219 183.652344 279.976562 183.773438 C 279.996094 183.859375 280.007812 183.949219 280.015625 184.039062 C 280.019531 184.089844 280.023438 184.140625 280.023438 184.191406 C 280.085938 197.265625 280.085938 210.34375 280.023438 223.417969 C 280.023438 223.46875 280.019531 223.519531 280.015625 223.570312 C 280.007812 223.660156 279.996094 223.75 279.976562 223.835938 C 279.949219 223.945312 279.914062 224.058594 279.871094 224.164062 C 279.820312 224.277344 279.757812 224.390625 279.6875 224.496094 C 279.613281 224.601562 279.53125 224.699219 279.441406 224.785156 C 279.347656 224.875 279.25 224.957031 279.140625 225.027344 C 279.046875 225.085938 278.949219 225.136719 278.847656 225.183594 C 278.742188 225.226562 278.632812 225.261719 278.519531 225.289062 C 278.433594 225.308594 278.34375 225.320312 278.253906 225.328125 C 278.203125 225.332031 278.152344 225.335938 278.101562 225.335938 C 271.613281 225.367188 265.125 225.367188 258.636719 225.335938 C 258.585938 225.335938 258.535156 225.332031 258.480469 225.328125 C 258.394531 225.320312 258.304688 225.308594 258.21875 225.289062 C 258.105469 225.261719 257.996094 225.226562 257.890625 225.183594 C 257.765625 225.128906 257.648438 225.0625 257.539062 224.988281 C 257.433594 224.914062 257.335938 224.828125 257.25 224.738281 C 257.164062 224.648438 257.085938 224.550781 257.019531 224.445312 C 256.957031 224.347656 256.902344 224.246094 256.859375 224.140625 C 256.816406 224.039062 256.785156 223.933594 256.757812 223.824219 C 256.738281 223.734375 256.726562 223.644531 256.71875 223.554688 C 256.714844 223.507812 256.714844 223.460938 256.714844 223.417969 C 256.648438 210.34375 256.648438 197.265625 256.714844 184.191406 C 256.714844 184.148438 256.714844 184.101562 256.71875 184.054688 C 256.726562 183.964844 256.738281 183.875 256.757812 183.785156 C 256.785156 183.671875 256.820312 183.558594 256.867188 183.453125 C 256.914062 183.339844 256.972656 183.234375 257.039062 183.132812 C 257.105469 183.03125 257.183594 182.933594 257.273438 182.847656 C 257.359375 182.757812 257.453125 182.679688 257.558594 182.609375 C 257.660156 182.539062 257.765625 182.480469 257.878906 182.433594 C 257.992188 182.382812 258.109375 182.34375 258.230469 182.320312 C 258.316406 182.300781 258.40625 182.285156 258.496094 182.28125 C 258.542969 182.277344 258.589844 182.273438 258.636719 182.273438 C 265.121094 182.242188 271.609375 182.261719 278.09375 182.273438 Z M 268.972656 221.617188 L 267.761719 221.617188 C 267.285156 221.617188 266.902344 222 266.902344 222.476562 L 266.902344 223.683594 C 266.902344 224.15625 267.285156 224.542969 267.761719 224.542969 L 268.972656 224.542969 C 269.445312 224.542969 269.832031 224.15625 269.832031 223.683594 L 269.832031 222.476562 C 269.832031 222 269.445312 221.617188 268.972656 221.617188 Z M 268.746094 222.164062 C 269.042969 222.164062 269.285156 222.40625 269.285156 222.703125 L 269.285156 223.457031 C 269.285156 223.753906 269.042969 223.992188 268.746094 223.992188 L 267.988281 223.992188 C 267.691406 223.992188 267.449219 223.753906 267.449219 223.457031 L 267.449219 222.703125 C 267.449219 222.40625 267.691406 222.164062 267.988281 222.164062 Z M 279.34375 185.261719 L 257.398438 185.261719 C 257.382812 197.136719 257.339844 209.007812 257.390625 220.878906 L 279.34375 220.878906 C 279.367188 209.007812 279.394531 197.136719 279.34375 185.261719 Z M 272.207031 183.421875 L 264.527344 183.421875 C 264.4375 183.421875 264.363281 183.496094 264.363281 183.589844 L 264.363281 183.917969 C 264.363281 184.007812 264.4375 184.082031 264.527344 184.082031 L 272.207031 184.082031 C 272.296875 184.082031 272.371094 184.007812 272.371094 183.917969 L 272.371094 183.589844 C 272.371094 183.496094 272.296875 183.421875 272.207031 183.421875 Z M 272.207031 183.421875 " fill-opacity="1" fill-rule="evenodd"/></g><g clip-path="url(#2411ce90d7)"><path fill="#8ac0c8" d="M 264.652344 190.136719 L 263.40625 190.136719 L 263.40625 190.613281 L 264.652344 190.613281 Z M 265.070312 191.214844 L 261.011719 191.214844 L 261.011719 191.691406 L 265.070312 191.691406 Z M 270.601562 192.292969 L 268.644531 192.292969 L 268.644531 192.769531 L 270.601562 192.769531 Z M 263.605469 193.371094 L 261.011719 193.371094 L 261.011719 193.847656 L 263.605469 193.847656 Z M 266.640625 194.449219 L 261.011719 194.449219 L 261.011719 194.925781 L 266.640625 194.925781 Z M 270.265625 194.925781 L 275.894531 194.925781 L 275.894531 194.449219 L 270.265625 194.449219 Z M 274.414062 197.6875 L 274.414062 198.164062 L 278.101562 198.164062 L 278.101562 197.6875 Z M 265.1875 198.164062 L 273.925781 198.164062 L 273.925781 197.6875 L 265.1875 197.6875 Z M 261.011719 199.242188 L 264.617188 199.242188 L 264.617188 198.765625 L 261.011719 198.765625 L 261.011719 199.242188 " fill-opacity="1" fill-rule="nonzero"/></g><path fill="#18bd9c" d="M 272.304688 191.214844 L 268.246094 191.214844 L 268.246094 191.691406 L 272.304688 191.691406 Z M 268.15625 192.292969 L 261.011719 192.292969 L 261.011719 192.769531 L 268.15625 192.769531 Z M 267.050781 196.003906 L 271.957031 196.003906 L 271.957031 195.527344 L 267.050781 195.527344 Z M 264.699219 197.6875 L 261.011719 197.6875 L 261.011719 198.164062 L 264.699219 198.164062 Z M 271.597656 198.765625 L 271.597656 199.242188 L 272.648438 199.242188 L 272.648438 198.765625 Z M 263.273438 200.320312 L 271.640625 200.320312 L 271.640625 199.84375 L 263.273438 199.84375 L 263.273438 200.320312 " fill-opacity="1" fill-rule="nonzero"/><g clip-path="url(#b828930e86)"><path fill="#fcde82" d="M 258.414062 189.535156 L 258.902344 189.535156 L 258.902344 189.058594 L 258.414062 189.058594 Z M 258.414062 190.613281 L 258.902344 190.613281 L 258.902344 190.136719 L 258.414062 190.136719 Z M 267.757812 191.214844 L 265.558594 191.214844 L 265.558594 191.691406 L 267.757812 191.691406 Z M 258.414062 191.691406 L 258.902344 191.691406 L 258.902344 191.214844 L 258.414062 191.214844 Z M 258.414062 192.769531 L 258.902344 192.769531 L 258.902344 192.292969 L 258.414062 192.292969 Z M 269.484375 193.371094 L 264.097656 193.371094 L 264.097656 193.847656 L 269.484375 193.847656 Z M 258.414062 193.847656 L 258.902344 193.847656 L 258.902344 193.371094 L 258.414062 193.371094 Z M 258.414062 194.925781 L 258.902344 194.925781 L 258.902344 194.449219 L 258.414062 194.449219 Z M 266.558594 195.527344 L 261.011719 195.527344 L 261.011719 196.003906 L 266.558594 196.003906 Z M 258.414062 196.003906 L 258.902344 196.003906 L 258.902344 195.527344 L 258.414062 195.527344 Z M 258.414062 197.082031 L 258.902344 197.082031 L 258.902344 196.605469 L 258.414062 196.605469 Z M 258.414062 198.164062 L 258.902344 198.164062 L 258.902344 197.6875 L 258.414062 197.6875 Z M 265.109375 198.765625 L 265.109375 199.242188 L 271.105469 199.242188 L 271.105469 198.765625 Z M 258.414062 199.242188 L 258.902344 199.242188 L 258.902344 198.765625 L 258.414062 198.765625 Z M 261.011719 200.320312 L 262.78125 200.320312 L 262.78125 199.84375 L 261.011719 199.84375 Z M 258.414062 200.320312 L 258.902344 200.320312 L 258.902344 199.84375 L 258.414062 199.84375 Z M 258.414062 201.398438 L 258.902344 201.398438 L 258.902344 200.921875 L 258.414062 200.921875 Z M 259.75 202.664062 L 259.992188 202.664062 L 259.992188 188.652344 L 259.75 188.652344 L 259.75 202.664062 " fill-opacity="1" fill-rule="nonzero"/></g><g clip-path="url(#a48737ee54)"><path fill="#f49c10" d="M 262.914062 190.136719 L 260.421875 190.136719 L 260.421875 190.613281 L 262.914062 190.613281 Z M 271.089844 192.292969 L 271.089844 192.769531 L 274.140625 192.769531 L 274.140625 192.292969 Z M 267.128906 194.925781 L 269.777344 194.925781 L 269.777344 194.449219 L 267.128906 194.449219 Z M 260.421875 197.082031 L 263.15625 197.082031 L 263.15625 196.605469 L 260.421875 196.605469 Z M 262.171875 200.921875 L 260.421875 200.921875 L 260.421875 201.398438 L 262.171875 201.398438 Z M 261.972656 189.753906 C 261.996094 189.753906 262.015625 189.746094 262.03125 189.730469 L 262.761719 189.015625 C 262.792969 188.988281 262.792969 188.9375 262.761719 188.90625 C 262.730469 188.878906 262.683594 188.878906 262.652344 188.90625 L 261.917969 189.621094 C 261.886719 189.648438 261.886719 189.699219 261.917969 189.730469 C 261.933594 189.746094 261.953125 189.753906 261.972656 189.753906 Z M 261.367188 189.773438 C 261.382812 189.789062 261.402344 189.792969 261.421875 189.792969 C 261.441406 189.792969 261.460938 189.789062 261.476562 189.773438 C 261.507812 189.742188 261.507812 189.691406 261.480469 189.664062 L 261.125 189.320312 L 261.476562 188.976562 C 261.507812 188.945312 261.507812 188.894531 261.476562 188.863281 C 261.449219 188.835938 261.398438 188.835938 261.367188 188.863281 L 260.957031 189.261719 C 260.925781 189.292969 260.925781 189.34375 260.957031 189.375 Z M 263.335938 188.863281 C 263.304688 188.835938 263.253906 188.835938 263.226562 188.863281 C 263.195312 188.894531 263.195312 188.945312 263.226562 188.976562 L 263.226562 188.972656 L 263.578125 189.316406 L 263.226562 189.664062 C 263.195312 189.691406 263.195312 189.742188 263.226562 189.773438 C 263.242188 189.789062 263.261719 189.792969 263.28125 189.792969 C 263.300781 189.792969 263.320312 189.789062 263.335938 189.773438 L 263.746094 189.375 C 263.761719 189.359375 263.769531 189.339844 263.769531 189.320312 C 263.769531 189.296875 263.761719 189.277344 263.746094 189.261719 Z M 263.335938 201.773438 C 263.304688 201.742188 263.253906 201.742188 263.226562 201.773438 C 263.195312 201.804688 263.195312 201.851562 263.226562 201.882812 L 263.578125 202.226562 L 263.226562 202.570312 C 263.195312 202.601562 263.195312 202.648438 263.226562 202.679688 C 263.242188 202.695312 263.261719 202.703125 263.28125 202.703125 C 263.300781 202.703125 263.320312 202.695312 263.335938 202.679688 L 263.746094 202.28125 C 263.761719 202.265625 263.769531 202.246094 263.769531 202.226562 C 263.769531 202.207031 263.761719 202.1875 263.746094 202.171875 Z M 261.480469 201.773438 C 261.445312 201.742188 261.398438 201.742188 261.367188 201.773438 L 260.957031 202.171875 C 260.925781 202.203125 260.925781 202.25 260.957031 202.28125 L 261.367188 202.679688 C 261.382812 202.695312 261.402344 202.703125 261.421875 202.703125 C 261.441406 202.703125 261.460938 202.695312 261.480469 202.679688 C 261.507812 202.648438 261.507812 202.601562 261.480469 202.570312 L 261.125 202.226562 L 261.480469 201.882812 C 261.507812 201.851562 261.507812 201.804688 261.480469 201.773438 Z M 262.652344 201.816406 L 261.917969 202.527344 C 261.886719 202.558594 261.886719 202.609375 261.917969 202.636719 C 261.933594 202.652344 261.953125 202.660156 261.972656 202.660156 C 261.996094 202.660156 262.015625 202.652344 262.03125 202.636719 L 262.761719 201.925781 C 262.792969 201.894531 262.792969 201.847656 262.761719 201.816406 C 262.734375 201.785156 262.683594 201.785156 262.652344 201.816406 " fill-opacity="1" fill-rule="nonzero"/></g><g fill="#000000" fill-opacity="1"><g transform="translate(26.879886, 262.329124)"><g><path d="M 15.5625 -1.65625 L 3.0625 -6.9375 C 2.101562 -7.332031 1.625 -8.019531 1.625 -9 C 1.625 -9.9375 2.101562 -10.601562 3.0625 -11 L 15.5625 -16.3125 C 16 -16.5 16.378906 -16.507812 16.703125 -16.34375 C 17.023438 -16.175781 17.25 -15.921875 17.375 -15.578125 C 17.5 -15.234375 17.503906 -14.882812 17.390625 -14.53125 C 17.273438 -14.175781 17 -13.90625 16.5625 -13.71875 L 5.25 -8.96875 L 16.5625 -4.21875 C 17 -4.03125 17.273438 -3.765625 17.390625 -3.421875 C 17.503906 -3.078125 17.5 -2.734375 17.375 -2.390625 C 17.25 -2.046875 17.023438 -1.789062 16.703125 -1.625 C 16.378906 -1.457031 16 -1.46875 15.5625 -1.65625 Z M 15.5625 -1.65625 "/></g></g></g><g fill="#000000" fill-opacity="1"><g transform="translate(45.626923, 262.329124)"><g><path d="M 4.40625 0.25 C 3.070312 0.25 2.40625 -0.4375 2.40625 -1.8125 L 2.40625 -20 C 2.40625 -21.351562 3.082031 -22.03125 4.4375 -22.03125 L 11.96875 -22.03125 C 14.382812 -22.03125 16.25 -21.453125 17.5625 -20.296875 C 18.875 -19.140625 19.53125 -17.519531 19.53125 -15.4375 C 19.53125 -13.789062 19.101562 -12.429688 18.25 -11.359375 C 17.394531 -10.285156 16.164062 -9.5625 14.5625 -9.1875 C 15.625 -8.851562 16.5 -8.050781 17.1875 -6.78125 L 19.53125 -2.4375 C 19.882812 -1.769531 19.953125 -1.15625 19.734375 -0.59375 C 19.515625 -0.03125 18.976562 0.25 18.125 0.25 C 17.5625 0.25 17.101562 0.128906 16.75 -0.109375 C 16.394531 -0.347656 16.082031 -0.71875 15.8125 -1.21875 L 12.65625 -7.03125 C 12.28125 -7.738281 11.835938 -8.210938 11.328125 -8.453125 C 10.816406 -8.691406 10.164062 -8.8125 9.375 -8.8125 L 6.40625 -8.8125 L 6.40625 -1.8125 C 6.40625 -0.4375 5.738281 0.25 4.40625 0.25 Z M 6.40625 -11.78125 L 11.28125 -11.78125 C 14.195312 -11.78125 15.65625 -12.96875 15.65625 -15.34375 C 15.65625 -17.695312 14.195312 -18.875 11.28125 -18.875 L 6.40625 -18.875 Z M 6.40625 -11.78125 "/></g></g></g><g fill="#000000" fill-opacity="1"><g transform="translate(67.061033, 262.329124)"><g><path d="M 4.40625 0.25 C 3.070312 0.25 2.40625 -0.4375 2.40625 -1.8125 L 2.40625 -20.21875 C 2.40625 -21.59375 3.070312 -22.28125 4.40625 -22.28125 C 5.738281 -22.28125 6.40625 -21.59375 6.40625 -20.21875 L 6.40625 -1.8125 C 6.40625 -0.4375 5.738281 0.25 4.40625 0.25 Z M 4.40625 0.25 "/></g></g></g><g fill="#000000" fill-opacity="1"><g transform="translate(75.872139, 262.329124)"><g><path d="M 12.65625 0.3125 C 10.363281 0.3125 8.398438 -0.148438 6.765625 -1.078125 C 5.128906 -2.003906 3.875 -3.316406 3 -5.015625 C 2.125 -6.710938 1.6875 -8.71875 1.6875 -11.03125 C 1.6875 -13.34375 2.125 -15.34375 3 -17.03125 C 3.875 -18.71875 5.128906 -20.023438 6.765625 -20.953125 C 8.398438 -21.878906 10.363281 -22.34375 12.65625 -22.34375 C 13.800781 -22.34375 14.925781 -22.195312 16.03125 -21.90625 C 17.132812 -21.613281 18.101562 -21.195312 18.9375 -20.65625 C 19.476562 -20.300781 19.800781 -19.878906 19.90625 -19.390625 C 20.007812 -18.898438 19.945312 -18.453125 19.71875 -18.046875 C 19.488281 -17.640625 19.144531 -17.367188 18.6875 -17.234375 C 18.226562 -17.097656 17.71875 -17.21875 17.15625 -17.59375 C 16.507812 -18.007812 15.8125 -18.3125 15.0625 -18.5 C 14.3125 -18.6875 13.550781 -18.78125 12.78125 -18.78125 C 10.550781 -18.78125 8.851562 -18.109375 7.6875 -16.765625 C 6.519531 -15.421875 5.9375 -13.507812 5.9375 -11.03125 C 5.9375 -8.550781 6.519531 -6.632812 7.6875 -5.28125 C 8.851562 -3.925781 10.550781 -3.25 12.78125 -3.25 C 13.570312 -3.25 14.351562 -3.347656 15.125 -3.546875 C 15.894531 -3.742188 16.625 -4.050781 17.3125 -4.46875 C 17.875 -4.820312 18.375 -4.9375 18.8125 -4.8125 C 19.25 -4.6875 19.578125 -4.429688 19.796875 -4.046875 C 20.015625 -3.660156 20.082031 -3.238281 20 -2.78125 C 19.914062 -2.320312 19.632812 -1.914062 19.15625 -1.5625 C 18.320312 -0.957031 17.328125 -0.492188 16.171875 -0.171875 C 15.015625 0.148438 13.84375 0.3125 12.65625 0.3125 Z M 12.65625 0.3125 "/></g></g></g><g fill="#000000" fill-opacity="1"><g transform="translate(97.11878, 262.329124)"><g><path d="M 2.625 0.25 C 1.894531 0.25 1.375 0 1.0625 -0.5 C 0.75 -1 0.757812 -1.601562 1.09375 -2.3125 L 9.34375 -20.59375 C 9.613281 -21.195312 9.941406 -21.628906 10.328125 -21.890625 C 10.710938 -22.148438 11.15625 -22.28125 11.65625 -22.28125 C 12.132812 -22.28125 12.566406 -22.148438 12.953125 -21.890625 C 13.335938 -21.628906 13.664062 -21.195312 13.9375 -20.59375 L 22.21875 -2.3125 C 22.550781 -1.582031 22.570312 -0.972656 22.28125 -0.484375 C 21.988281 0.00390625 21.488281 0.25 20.78125 0.25 C 20.195312 0.25 19.742188 0.109375 19.421875 -0.171875 C 19.097656 -0.453125 18.8125 -0.882812 18.5625 -1.46875 L 17 -5.09375 L 6.25 -5.09375 L 4.71875 -1.46875 C 4.445312 -0.863281 4.164062 -0.425781 3.875 -0.15625 C 3.582031 0.113281 3.164062 0.25 2.625 0.25 Z M 11.59375 -17.6875 L 7.625 -8.28125 L 15.625 -8.28125 L 11.65625 -17.6875 Z M 11.59375 -17.6875 "/></g></g></g><g fill="#000000" fill-opacity="1"><g transform="translate(120.365106, 262.329124)"><g><path d="M 4.40625 0.25 C 3.070312 0.25 2.40625 -0.4375 2.40625 -1.8125 L 2.40625 -20 C 2.40625 -21.351562 3.082031 -22.03125 4.4375 -22.03125 L 11.96875 -22.03125 C 14.382812 -22.03125 16.25 -21.453125 17.5625 -20.296875 C 18.875 -19.140625 19.53125 -17.519531 19.53125 -15.4375 C 19.53125 -13.789062 19.101562 -12.429688 18.25 -11.359375 C 17.394531 -10.285156 16.164062 -9.5625 14.5625 -9.1875 C 15.625 -8.851562 16.5 -8.050781 17.1875 -6.78125 L 19.53125 -2.4375 C 19.882812 -1.769531 19.953125 -1.15625 19.734375 -0.59375 C 19.515625 -0.03125 18.976562 0.25 18.125 0.25 C 17.5625 0.25 17.101562 0.128906 16.75 -0.109375 C 16.394531 -0.347656 16.082031 -0.71875 15.8125 -1.21875 L 12.65625 -7.03125 C 12.28125 -7.738281 11.835938 -8.210938 11.328125 -8.453125 C 10.816406 -8.691406 10.164062 -8.8125 9.375 -8.8125 L 6.40625 -8.8125 L 6.40625 -1.8125 C 6.40625 -0.4375 5.738281 0.25 4.40625 0.25 Z M 6.40625 -11.78125 L 11.28125 -11.78125 C 14.195312 -11.78125 15.65625 -12.96875 15.65625 -15.34375 C 15.65625 -17.695312 14.195312 -18.875 11.28125 -18.875 L 6.40625 -18.875 Z M 6.40625 -11.78125 "/></g></g></g><g fill="#000000" fill-opacity="1"><g transform="translate(141.799216, 262.329124)"><g><path d="M 4.53125 0 C 3.113281 0 2.40625 -0.707031 2.40625 -2.125 L 2.40625 -19.90625 C 2.40625 -21.320312 3.113281 -22.03125 4.53125 -22.03125 L 10.59375 -22.03125 C 14.28125 -22.03125 17.128906 -21.082031 19.140625 -19.1875 C 21.148438 -17.289062 22.15625 -14.570312 22.15625 -11.03125 C 22.15625 -7.507812 21.148438 -4.789062 19.140625 -2.875 C 17.128906 -0.957031 14.28125 0 10.59375 0 Z M 6.40625 -3.3125 L 10.34375 -3.3125 C 15.425781 -3.3125 17.96875 -5.882812 17.96875 -11.03125 C 17.96875 -16.15625 15.425781 -18.71875 10.34375 -18.71875 L 6.40625 -18.71875 Z M 6.40625 -3.3125 "/></g></g></g><g fill="#000000" fill-opacity="1"><g transform="translate(165.607946, 262.329124)"><g><path d="M 12.28125 0.3125 C 10.15625 0.3125 8.296875 -0.15625 6.703125 -1.09375 C 5.109375 -2.03125 3.875 -3.347656 3 -5.046875 C 2.125 -6.742188 1.6875 -8.738281 1.6875 -11.03125 C 1.6875 -13.34375 2.125 -15.34375 3 -17.03125 C 3.875 -18.71875 5.101562 -20.023438 6.6875 -20.953125 C 8.269531 -21.878906 10.132812 -22.34375 12.28125 -22.34375 C 14.425781 -22.34375 16.289062 -21.878906 17.875 -20.953125 C 19.457031 -20.023438 20.6875 -18.71875 21.5625 -17.03125 C 22.4375 -15.34375 22.875 -13.351562 22.875 -11.0625 C 22.875 -8.75 22.4375 -6.742188 21.5625 -5.046875 C 20.6875 -3.347656 19.457031 -2.03125 17.875 -1.09375 C 16.289062 -0.15625 14.425781 0.3125 12.28125 0.3125 Z M 12.28125 -3.125 C 14.300781 -3.125 15.875 -3.820312 17 -5.21875 C 18.125 -6.613281 18.6875 -8.550781 18.6875 -11.03125 C 18.6875 -13.53125 18.128906 -15.46875 17.015625 -16.84375 C 15.898438 -18.21875 14.320312 -18.90625 12.28125 -18.90625 C 10.257812 -18.90625 8.6875 -18.21875 7.5625 -16.84375 C 6.4375 -15.46875 5.875 -13.53125 5.875 -11.03125 C 5.875 -8.550781 6.4375 -6.613281 7.5625 -5.21875 C 8.6875 -3.820312 10.257812 -3.125 12.28125 -3.125 Z M 12.28125 -3.125 "/></g></g></g><g fill="#000000" fill-opacity="1"><g transform="translate(190.135308, 262.329124)"><g/></g></g><g fill="#000000" fill-opacity="1"><g transform="translate(198.602719, 262.329124)"><g><path d="M 13 0.3125 C 10.5625 0.3125 8.503906 -0.144531 6.828125 -1.0625 C 5.148438 -1.976562 3.875 -3.28125 3 -4.96875 C 2.125 -6.65625 1.6875 -8.65625 1.6875 -10.96875 C 1.6875 -13.300781 2.132812 -15.316406 3.03125 -17.015625 C 3.925781 -18.710938 5.21875 -20.023438 6.90625 -20.953125 C 8.59375 -21.878906 10.613281 -22.34375 12.96875 -22.34375 C 14.132812 -22.34375 15.304688 -22.203125 16.484375 -21.921875 C 17.660156 -21.640625 18.769531 -21.164062 19.8125 -20.5 C 20.269531 -20.226562 20.535156 -19.867188 20.609375 -19.421875 C 20.679688 -18.972656 20.613281 -18.550781 20.40625 -18.15625 C 20.195312 -17.757812 19.882812 -17.484375 19.46875 -17.328125 C 19.050781 -17.171875 18.59375 -17.238281 18.09375 -17.53125 C 17.300781 -17.988281 16.5 -18.320312 15.6875 -18.53125 C 14.875 -18.738281 13.96875 -18.84375 12.96875 -18.84375 C 10.632812 -18.84375 8.867188 -18.164062 7.671875 -16.8125 C 6.472656 -15.457031 5.875 -13.507812 5.875 -10.96875 C 5.875 -8.40625 6.488281 -6.457031 7.71875 -5.125 C 8.945312 -3.789062 10.769531 -3.125 13.1875 -3.125 C 13.875 -3.125 14.578125 -3.179688 15.296875 -3.296875 C 16.015625 -3.410156 16.726562 -3.582031 17.4375 -3.8125 L 17.4375 -8.9375 L 14 -8.9375 C 12.914062 -8.9375 12.375 -9.4375 12.375 -10.4375 C 12.375 -11.414062 12.914062 -11.90625 14 -11.90625 L 19.15625 -11.90625 C 20.238281 -11.90625 20.78125 -11.363281 20.78125 -10.28125 L 20.78125 -2.6875 C 20.78125 -1.726562 20.40625 -1.113281 19.65625 -0.84375 C 18.738281 -0.507812 17.6875 -0.234375 16.5 -0.015625 C 15.3125 0.203125 14.144531 0.3125 13 0.3125 Z M 13 0.3125 "/></g></g></g><g fill="#000000" fill-opacity="1"><g transform="translate(221.599076, 262.329124)"><g><path d="M 2.625 0.25 C 1.894531 0.25 1.375 0 1.0625 -0.5 C 0.75 -1 0.757812 -1.601562 1.09375 -2.3125 L 9.34375 -20.59375 C 9.613281 -21.195312 9.941406 -21.628906 10.328125 -21.890625 C 10.710938 -22.148438 11.15625 -22.28125 11.65625 -22.28125 C 12.132812 -22.28125 12.566406 -22.148438 12.953125 -21.890625 C 13.335938 -21.628906 13.664062 -21.195312 13.9375 -20.59375 L 22.21875 -2.3125 C 22.550781 -1.582031 22.570312 -0.972656 22.28125 -0.484375 C 21.988281 0.00390625 21.488281 0.25 20.78125 0.25 C 20.195312 0.25 19.742188 0.109375 19.421875 -0.171875 C 19.097656 -0.453125 18.8125 -0.882812 18.5625 -1.46875 L 17 -5.09375 L 6.25 -5.09375 L 4.71875 -1.46875 C 4.445312 -0.863281 4.164062 -0.425781 3.875 -0.15625 C 3.582031 0.113281 3.164062 0.25 2.625 0.25 Z M 11.59375 -17.6875 L 7.625 -8.28125 L 15.625 -8.28125 L 11.65625 -17.6875 Z M 11.59375 -17.6875 "/></g></g></g><g fill="#000000" fill-opacity="1"><g transform="translate(244.845402, 262.329124)"><g><path d="M 4.40625 0.25 C 3.070312 0.25 2.40625 -0.4375 2.40625 -1.8125 L 2.40625 -20 C 2.40625 -21.351562 3.082031 -22.03125 4.4375 -22.03125 L 11.96875 -22.03125 C 14.382812 -22.03125 16.25 -21.453125 17.5625 -20.296875 C 18.875 -19.140625 19.53125 -17.519531 19.53125 -15.4375 C 19.53125 -13.789062 19.101562 -12.429688 18.25 -11.359375 C 17.394531 -10.285156 16.164062 -9.5625 14.5625 -9.1875 C 15.625 -8.851562 16.5 -8.050781 17.1875 -6.78125 L 19.53125 -2.4375 C 19.882812 -1.769531 19.953125 -1.15625 19.734375 -0.59375 C 19.515625 -0.03125 18.976562 0.25 18.125 0.25 C 17.5625 0.25 17.101562 0.128906 16.75 -0.109375 C 16.394531 -0.347656 16.082031 -0.71875 15.8125 -1.21875 L 12.65625 -7.03125 C 12.28125 -7.738281 11.835938 -8.210938 11.328125 -8.453125 C 10.816406 -8.691406 10.164062 -8.8125 9.375 -8.8125 L 6.40625 -8.8125 L 6.40625 -1.8125 C 6.40625 -0.4375 5.738281 0.25 4.40625 0.25 Z M 6.40625 -11.78125 L 11.28125 -11.78125 C 14.195312 -11.78125 15.65625 -12.96875 15.65625 -15.34375 C 15.65625 -17.695312 14.195312 -18.875 11.28125 -18.875 L 6.40625 -18.875 Z M 6.40625 -11.78125 "/></g></g></g><g fill="#000000" fill-opacity="1"><g transform="translate(266.279512, 262.329124)"><g><path d="M 12.65625 0.3125 C 10.363281 0.3125 8.398438 -0.148438 6.765625 -1.078125 C 5.128906 -2.003906 3.875 -3.316406 3 -5.015625 C 2.125 -6.710938 1.6875 -8.71875 1.6875 -11.03125 C 1.6875 -13.34375 2.125 -15.34375 3 -17.03125 C 3.875 -18.71875 5.128906 -20.023438 6.765625 -20.953125 C 8.398438 -21.878906 10.363281 -22.34375 12.65625 -22.34375 C 13.800781 -22.34375 14.925781 -22.195312 16.03125 -21.90625 C 17.132812 -21.613281 18.101562 -21.195312 18.9375 -20.65625 C 19.476562 -20.300781 19.800781 -19.878906 19.90625 -19.390625 C 20.007812 -18.898438 19.945312 -18.453125 19.71875 -18.046875 C 19.488281 -17.640625 19.144531 -17.367188 18.6875 -17.234375 C 18.226562 -17.097656 17.71875 -17.21875 17.15625 -17.59375 C 16.507812 -18.007812 15.8125 -18.3125 15.0625 -18.5 C 14.3125 -18.6875 13.550781 -18.78125 12.78125 -18.78125 C 10.550781 -18.78125 8.851562 -18.109375 7.6875 -16.765625 C 6.519531 -15.421875 5.9375 -13.507812 5.9375 -11.03125 C 5.9375 -8.550781 6.519531 -6.632812 7.6875 -5.28125 C 8.851562 -3.925781 10.550781 -3.25 12.78125 -3.25 C 13.570312 -3.25 14.351562 -3.347656 15.125 -3.546875 C 15.894531 -3.742188 16.625 -4.050781 17.3125 -4.46875 C 17.875 -4.820312 18.375 -4.9375 18.8125 -4.8125 C 19.25 -4.6875 19.578125 -4.429688 19.796875 -4.046875 C 20.015625 -3.660156 20.082031 -3.238281 20 -2.78125 C 19.914062 -2.320312 19.632812 -1.914062 19.15625 -1.5625 C 18.320312 -0.957031 17.328125 -0.492188 16.171875 -0.171875 C 15.015625 0.148438 13.84375 0.3125 12.65625 0.3125 Z M 12.65625 0.3125 "/></g></g></g><g fill="#000000" fill-opacity="1"><g transform="translate(287.526153, 262.329124)"><g><path d="M 4.40625 0.25 C 3.070312 0.25 2.40625 -0.4375 2.40625 -1.8125 L 2.40625 -20.21875 C 2.40625 -21.59375 3.070312 -22.28125 4.40625 -22.28125 C 5.738281 -22.28125 6.40625 -21.59375 6.40625 -20.21875 L 6.40625 -1.8125 C 6.40625 -0.4375 5.738281 0.25 4.40625 0.25 Z M 4.40625 0.25 "/></g></g></g><g fill="#000000" fill-opacity="1"><g transform="translate(296.337245, 262.329124)"><g><path d="M 2.625 0.25 C 1.894531 0.25 1.375 0 1.0625 -0.5 C 0.75 -1 0.757812 -1.601562 1.09375 -2.3125 L 9.34375 -20.59375 C 9.613281 -21.195312 9.941406 -21.628906 10.328125 -21.890625 C 10.710938 -22.148438 11.15625 -22.28125 11.65625 -22.28125 C 12.132812 -22.28125 12.566406 -22.148438 12.953125 -21.890625 C 13.335938 -21.628906 13.664062 -21.195312 13.9375 -20.59375 L 22.21875 -2.3125 C 22.550781 -1.582031 22.570312 -0.972656 22.28125 -0.484375 C 21.988281 0.00390625 21.488281 0.25 20.78125 0.25 C 20.195312 0.25 19.742188 0.109375 19.421875 -0.171875 C 19.097656 -0.453125 18.8125 -0.882812 18.5625 -1.46875 L 17 -5.09375 L 6.25 -5.09375 L 4.71875 -1.46875 C 4.445312 -0.863281 4.164062 -0.425781 3.875 -0.15625 C 3.582031 0.113281 3.164062 0.25 2.625 0.25 Z M 11.59375 -17.6875 L 7.625 -8.28125 L 15.625 -8.28125 L 11.65625 -17.6875 Z M 11.59375 -17.6875 "/></g></g></g><g fill="#000000" fill-opacity="1"><g transform="translate(319.58357, 262.329124)"><g><path d="M 2.75 0.90625 C 2.601562 1.40625 2.335938 1.734375 1.953125 1.890625 C 1.566406 2.046875 1.179688 2.066406 0.796875 1.953125 C 0.410156 1.835938 0.109375 1.613281 -0.109375 1.28125 C -0.328125 0.945312 -0.351562 0.519531 -0.1875 0 L 7.03125 -22.40625 C 7.195312 -22.90625 7.46875 -23.238281 7.84375 -23.40625 C 8.21875 -23.570312 8.597656 -23.597656 8.984375 -23.484375 C 9.367188 -23.367188 9.671875 -23.140625 9.890625 -22.796875 C 10.109375 -22.453125 10.132812 -22.03125 9.96875 -21.53125 Z M 2.75 0.90625 "/></g></g></g><g fill="#000000" fill-opacity="1"><g transform="translate(329.36329, 262.329124)"><g><path d="M 3.21875 -1.65625 C 2.78125 -1.46875 2.398438 -1.457031 2.078125 -1.625 C 1.753906 -1.789062 1.53125 -2.046875 1.40625 -2.390625 C 1.28125 -2.734375 1.273438 -3.078125 1.390625 -3.421875 C 1.503906 -3.765625 1.78125 -4.03125 2.21875 -4.21875 L 13.53125 -8.96875 L 2.21875 -13.71875 C 1.78125 -13.90625 1.503906 -14.175781 1.390625 -14.53125 C 1.273438 -14.882812 1.28125 -15.234375 1.40625 -15.578125 C 1.53125 -15.921875 1.753906 -16.175781 2.078125 -16.34375 C 2.398438 -16.507812 2.78125 -16.5 3.21875 -16.3125 L 15.71875 -11 C 16.675781 -10.601562 17.15625 -9.9375 17.15625 -9 C 17.15625 -8.019531 16.675781 -7.332031 15.71875 -6.9375 Z M 3.21875 -1.65625 "/></g></g></g><g fill="#ff6100" fill-opacity="1"><g transform="translate(101.612304, 295.10166)"><g><path d="M 5.6875 0.140625 C 5.09375 0.140625 4.6875 -0.175781 4.46875 -0.8125 L 0.8125 -11.140625 C 0.675781 -11.515625 0.695312 -11.832031 0.875 -12.09375 C 1.0625 -12.351562 1.367188 -12.484375 1.796875 -12.484375 C 2.117188 -12.484375 2.363281 -12.410156 2.53125 -12.265625 C 2.707031 -12.117188 2.847656 -11.882812 2.953125 -11.5625 L 5.75 -3.234375 L 8.703125 -11.546875 C 8.921875 -12.171875 9.289062 -12.484375 9.8125 -12.484375 C 10.09375 -12.484375 10.316406 -12.40625 10.484375 -12.25 C 10.648438 -12.09375 10.789062 -11.851562 10.90625 -11.53125 L 13.796875 -3.109375 L 16.671875 -11.5625 C 16.773438 -11.863281 16.914062 -12.09375 17.09375 -12.25 C 17.269531 -12.40625 17.507812 -12.484375 17.8125 -12.484375 C 18.1875 -12.484375 18.460938 -12.351562 18.640625 -12.09375 C 18.816406 -11.832031 18.835938 -11.515625 18.703125 -11.140625 L 15.015625 -0.78125 C 14.898438 -0.46875 14.75 -0.234375 14.5625 -0.078125 C 14.375 0.0664062 14.125 0.140625 13.8125 0.140625 C 13.488281 0.140625 13.234375 0.0664062 13.046875 -0.078125 C 12.867188 -0.234375 12.71875 -0.476562 12.59375 -0.8125 L 9.75 -8.90625 L 6.875 -0.78125 C 6.757812 -0.46875 6.609375 -0.234375 6.421875 -0.078125 C 6.242188 0.0664062 6 0.140625 5.6875 0.140625 Z M 5.6875 0.140625 "/></g></g></g><g fill="#ff6100" fill-opacity="1"><g transform="translate(122.828936, 295.10166)"><g><path d="M 2.53125 0 C 1.738281 0 1.34375 -0.394531 1.34375 -1.1875 L 1.34375 -11.140625 C 1.34375 -11.941406 1.738281 -12.34375 2.53125 -12.34375 L 8.78125 -12.34375 C 9.382812 -12.34375 9.6875 -12.050781 9.6875 -11.46875 C 9.6875 -10.851562 9.382812 -10.546875 8.78125 -10.546875 L 3.5 -10.546875 L 3.5 -7.15625 L 8.40625 -7.15625 C 9.007812 -7.15625 9.3125 -6.859375 9.3125 -6.265625 C 9.3125 -5.671875 9.007812 -5.375 8.40625 -5.375 L 3.5 -5.375 L 3.5 -1.78125 L 8.78125 -1.78125 C 9.382812 -1.78125 9.6875 -1.484375 9.6875 -0.890625 C 9.6875 -0.296875 9.382812 0 8.78125 0 Z M 2.53125 0 "/></g></g></g><g fill="#ff6100" fill-opacity="1"><g transform="translate(135.020614, 295.10166)"><g><path d="M 2.53125 0 C 1.738281 0 1.34375 -0.394531 1.34375 -1.1875 L 1.34375 -11.140625 C 1.34375 -11.941406 1.738281 -12.34375 2.53125 -12.34375 L 6.734375 -12.34375 C 8.035156 -12.34375 9.039062 -12.054688 9.75 -11.484375 C 10.457031 -10.921875 10.8125 -10.140625 10.8125 -9.140625 C 10.8125 -8.472656 10.640625 -7.898438 10.296875 -7.421875 C 9.960938 -6.941406 9.5 -6.59375 8.90625 -6.375 C 9.601562 -6.175781 10.144531 -5.828125 10.53125 -5.328125 C 10.925781 -4.828125 11.125 -4.203125 11.125 -3.453125 C 11.125 -2.347656 10.753906 -1.492188 10.015625 -0.890625 C 9.273438 -0.296875 8.25 0 6.9375 0 Z M 3.5 -7.109375 L 6.359375 -7.109375 C 7.878906 -7.109375 8.640625 -7.695312 8.640625 -8.875 C 8.640625 -10.050781 7.878906 -10.640625 6.359375 -10.640625 L 3.5 -10.640625 Z M 3.5 -1.703125 L 6.65625 -1.703125 C 8.1875 -1.703125 8.953125 -2.316406 8.953125 -3.546875 C 8.953125 -4.785156 8.1875 -5.40625 6.65625 -5.40625 L 3.5 -5.40625 Z M 3.5 -1.703125 "/></g></g></g><g fill="#ff6100" fill-opacity="1"><g transform="translate(148.803906, 295.10166)"><g/></g></g><g fill="#ff6100" fill-opacity="1"><g transform="translate(155.293764, 295.10166)"><g><path d="M 2.53125 0 C 1.738281 0 1.34375 -0.394531 1.34375 -1.1875 L 1.34375 -11.140625 C 1.34375 -11.941406 1.738281 -12.34375 2.53125 -12.34375 L 5.9375 -12.34375 C 8 -12.34375 9.59375 -11.8125 10.71875 -10.75 C 11.84375 -9.6875 12.40625 -8.160156 12.40625 -6.171875 C 12.40625 -4.203125 11.84375 -2.679688 10.71875 -1.609375 C 9.59375 -0.535156 8 0 5.9375 0 Z M 3.59375 -1.859375 L 5.796875 -1.859375 C 8.640625 -1.859375 10.0625 -3.296875 10.0625 -6.171875 C 10.0625 -9.046875 8.640625 -10.484375 5.796875 -10.484375 L 3.59375 -10.484375 Z M 3.59375 -1.859375 "/></g></g></g><g fill="#ff6100" fill-opacity="1"><g transform="translate(170.371329, 295.10166)"><g><path d="M 2.53125 0 C 1.738281 0 1.34375 -0.394531 1.34375 -1.1875 L 1.34375 -11.140625 C 1.34375 -11.941406 1.738281 -12.34375 2.53125 -12.34375 L 8.78125 -12.34375 C 9.382812 -12.34375 9.6875 -12.050781 9.6875 -11.46875 C 9.6875 -10.851562 9.382812 -10.546875 8.78125 -10.546875 L 3.5 -10.546875 L 3.5 -7.15625 L 8.40625 -7.15625 C 9.007812 -7.15625 9.3125 -6.859375 9.3125 -6.265625 C 9.3125 -5.671875 9.007812 -5.375 8.40625 -5.375 L 3.5 -5.375 L 3.5 -1.78125 L 8.78125 -1.78125 C 9.382812 -1.78125 9.6875 -1.484375 9.6875 -0.890625 C 9.6875 -0.296875 9.382812 0 8.78125 0 Z M 2.53125 0 "/></g></g></g><g fill="#ff6100" fill-opacity="1"><g transform="translate(182.563005, 295.10166)"><g><path d="M 6.25 0.140625 C 5.65625 0.140625 5.226562 -0.148438 4.96875 -0.734375 L 0.40625 -10.984375 C 0.21875 -11.429688 0.222656 -11.789062 0.421875 -12.0625 C 0.628906 -12.34375 0.929688 -12.484375 1.328125 -12.484375 C 1.671875 -12.484375 1.925781 -12.410156 2.09375 -12.265625 C 2.257812 -12.117188 2.398438 -11.898438 2.515625 -11.609375 L 6.28125 -2.875 L 10.046875 -11.625 C 10.171875 -11.90625 10.320312 -12.117188 10.5 -12.265625 C 10.675781 -12.410156 10.921875 -12.484375 11.234375 -12.484375 C 11.609375 -12.484375 11.890625 -12.34375 12.078125 -12.0625 C 12.273438 -11.78125 12.273438 -11.421875 12.078125 -10.984375 L 7.5 -0.734375 C 7.375 -0.441406 7.210938 -0.222656 7.015625 -0.078125 C 6.828125 0.0664062 6.570312 0.140625 6.25 0.140625 Z M 6.25 0.140625 "/></g></g></g><g fill="#ff6100" fill-opacity="1"><g transform="translate(196.783547, 295.10166)"><g><path d="M 2.53125 0 C 1.738281 0 1.34375 -0.394531 1.34375 -1.1875 L 1.34375 -11.140625 C 1.34375 -11.941406 1.738281 -12.34375 2.53125 -12.34375 L 8.78125 -12.34375 C 9.382812 -12.34375 9.6875 -12.050781 9.6875 -11.46875 C 9.6875 -10.851562 9.382812 -10.546875 8.78125 -10.546875 L 3.5 -10.546875 L 3.5 -7.15625 L 8.40625 -7.15625 C 9.007812 -7.15625 9.3125 -6.859375 9.3125 -6.265625 C 9.3125 -5.671875 9.007812 -5.375 8.40625 -5.375 L 3.5 -5.375 L 3.5 -1.78125 L 8.78125 -1.78125 C 9.382812 -1.78125 9.6875 -1.484375 9.6875 -0.890625 C 9.6875 -0.296875 9.382812 0 8.78125 0 Z M 2.53125 0 "/></g></g></g><g fill="#ff6100" fill-opacity="1"><g transform="translate(208.975223, 295.10166)"><g><path d="M 2.484375 0 C 1.722656 0 1.34375 -0.382812 1.34375 -1.15625 L 1.34375 -11.25 C 1.34375 -12.007812 1.71875 -12.390625 2.46875 -12.390625 C 3.21875 -12.390625 3.59375 -12.007812 3.59375 -11.25 L 3.59375 -1.90625 L 8.65625 -1.90625 C 9.3125 -1.90625 9.640625 -1.59375 9.640625 -0.96875 C 9.640625 -0.320312 9.3125 0 8.65625 0 Z M 2.484375 0 "/></g></g></g><g fill="#ff6100" fill-opacity="1"><g transform="translate(220.554741, 295.10166)"><g><path d="M 6.875 0.171875 C 5.6875 0.171875 4.644531 -0.0859375 3.75 -0.609375 C 2.863281 -1.140625 2.171875 -1.878906 1.671875 -2.828125 C 1.179688 -3.773438 0.9375 -4.890625 0.9375 -6.171875 C 0.9375 -7.472656 1.179688 -8.59375 1.671875 -9.53125 C 2.171875 -10.476562 2.863281 -11.210938 3.75 -11.734375 C 4.632812 -12.253906 5.675781 -12.515625 6.875 -12.515625 C 8.082031 -12.515625 9.128906 -12.253906 10.015625 -11.734375 C 10.898438 -11.210938 11.585938 -10.476562 12.078125 -9.53125 C 12.566406 -8.59375 12.8125 -7.476562 12.8125 -6.1875 C 12.8125 -4.894531 12.566406 -3.773438 12.078125 -2.828125 C 11.585938 -1.878906 10.898438 -1.140625 10.015625 -0.609375 C 9.128906 -0.0859375 8.082031 0.171875 6.875 0.171875 Z M 6.875 -1.75 C 8.007812 -1.75 8.890625 -2.140625 9.515625 -2.921875 C 10.148438 -3.703125 10.46875 -4.785156 10.46875 -6.171875 C 10.46875 -7.578125 10.15625 -8.664062 9.53125 -9.4375 C 8.90625 -10.207031 8.019531 -10.59375 6.875 -10.59375 C 5.75 -10.59375 4.867188 -10.207031 4.234375 -9.4375 C 3.609375 -8.664062 3.296875 -7.578125 3.296875 -6.171875 C 3.296875 -4.785156 3.609375 -3.703125 4.234375 -2.921875 C 4.867188 -2.140625 5.75 -1.75 6.875 -1.75 Z M 6.875 -1.75 "/></g></g></g><g fill="#ff6100" fill-opacity="1"><g transform="translate(236.034583, 295.10166)"><g><path d="M 2.46875 0.140625 C 1.71875 0.140625 1.34375 -0.242188 1.34375 -1.015625 L 1.34375 -11.203125 C 1.34375 -11.960938 1.722656 -12.34375 2.484375 -12.34375 L 6.703125 -12.34375 C 8.054688 -12.34375 9.097656 -12.003906 9.828125 -11.328125 C 10.566406 -10.648438 10.9375 -9.703125 10.9375 -8.484375 C 10.9375 -7.273438 10.566406 -6.328125 9.828125 -5.640625 C 9.097656 -4.960938 8.054688 -4.625 6.703125 -4.625 L 3.59375 -4.625 L 3.59375 -1.015625 C 3.59375 -0.242188 3.21875 0.140625 2.46875 0.140625 Z M 3.59375 -6.390625 L 6.359375 -6.390625 C 7.960938 -6.390625 8.765625 -7.085938 8.765625 -8.484375 C 8.765625 -9.867188 7.960938 -10.5625 6.359375 -10.5625 L 3.59375 -10.5625 Z M 3.59375 -6.390625 "/></g></g></g><g fill="#ff6100" fill-opacity="1"><g transform="translate(249.188221, 295.10166)"><g><path d="M 2.53125 0 C 1.738281 0 1.34375 -0.394531 1.34375 -1.1875 L 1.34375 -11.140625 C 1.34375 -11.941406 1.738281 -12.34375 2.53125 -12.34375 L 8.78125 -12.34375 C 9.382812 -12.34375 9.6875 -12.050781 9.6875 -11.46875 C 9.6875 -10.851562 9.382812 -10.546875 8.78125 -10.546875 L 3.5 -10.546875 L 3.5 -7.15625 L 8.40625 -7.15625 C 9.007812 -7.15625 9.3125 -6.859375 9.3125 -6.265625 C 9.3125 -5.671875 9.007812 -5.375 8.40625 -5.375 L 3.5 -5.375 L 3.5 -1.78125 L 8.78125 -1.78125 C 9.382812 -1.78125 9.6875 -1.484375 9.6875 -0.890625 C 9.6875 -0.296875 9.382812 0 8.78125 0 Z M 2.53125 0 "/></g></g></g><g fill="#ff6100" fill-opacity="1"><g transform="translate(261.379898, 295.10166)"><g><path d="M 2.46875 0.140625 C 1.71875 0.140625 1.34375 -0.242188 1.34375 -1.015625 L 1.34375 -11.203125 C 1.34375 -11.960938 1.722656 -12.34375 2.484375 -12.34375 L 6.703125 -12.34375 C 8.054688 -12.34375 9.097656 -12.015625 9.828125 -11.359375 C 10.566406 -10.710938 10.9375 -9.804688 10.9375 -8.640625 C 10.9375 -7.722656 10.695312 -6.960938 10.21875 -6.359375 C 9.738281 -5.753906 9.050781 -5.347656 8.15625 -5.140625 C 8.75 -4.953125 9.238281 -4.503906 9.625 -3.796875 L 10.9375 -1.359375 C 11.132812 -0.992188 11.171875 -0.648438 11.046875 -0.328125 C 10.929688 -0.015625 10.632812 0.140625 10.15625 0.140625 C 9.832031 0.140625 9.570312 0.0703125 9.375 -0.0625 C 9.175781 -0.195312 9.003906 -0.40625 8.859375 -0.6875 L 7.09375 -3.9375 C 6.875 -4.332031 6.625 -4.597656 6.34375 -4.734375 C 6.0625 -4.867188 5.695312 -4.9375 5.25 -4.9375 L 3.59375 -4.9375 L 3.59375 -1.015625 C 3.59375 -0.242188 3.21875 0.140625 2.46875 0.140625 Z M 3.59375 -6.59375 L 6.3125 -6.59375 C 7.945312 -6.59375 8.765625 -7.257812 8.765625 -8.59375 C 8.765625 -9.90625 7.945312 -10.5625 6.3125 -10.5625 L 3.59375 -10.5625 Z M 3.59375 -6.59375 "/></g></g></g></svg>