<svg xmlns="http://www.w3.org/2000/svg" xmlns:xlink="http://www.w3.org/1999/xlink" width="500" zoomAndPan="magnify" viewBox="0 0 375 374.999991" height="500" preserveAspectRatio="xMidYMid meet" version="1.0"><defs><g/><clipPath id="c9dc5acf05"><path d="M 124.925781 128.269531 L 250.175781 128.269531 L 250.175781 218 L 124.925781 218 Z M 124.925781 128.269531 " clip-rule="nonzero"/></clipPath></defs><g clip-path="url(#c9dc5acf05)"><path fill="#ff6100" d="M 247.25 128.535156 L 127.851562 128.535156 C 126.242188 128.535156 124.9375 129.839844 124.9375 131.441406 L 124.9375 199.992188 C 124.9375 201.601562 126.242188 202.90625 127.851562 202.90625 L 176.761719 202.90625 L 176.761719 209.9375 C 161.699219 209.9375 167.414062 208.941406 162.972656 217.8125 L 212.128906 217.8125 L 211.378906 216.316406 C 209.773438 208.519531 211.453125 209.9375 198.339844 209.9375 L 198.339844 202.90625 L 247.25 202.90625 C 248.863281 202.90625 250.164062 201.601562 250.164062 199.992188 L 250.164062 131.441406 C 250.164062 129.839844 248.863281 128.535156 247.25 128.535156 Z M 245.941406 196.527344 L 129.164062 196.527344 L 129.164062 132.75 L 245.941406 132.75 L 245.941406 196.527344 " fill-opacity="1" fill-rule="nonzero"/></g><path fill="#ff6100" d="M 196.125 173.847656 C 195.816406 173.738281 195.679688 173.839844 195.480469 174.070312 C 194.769531 174.921875 194.085938 175.816406 193.265625 176.554688 C 189.914062 179.535156 185.617188 179.660156 182.136719 176.835938 C 181.203125 176.070312 180.433594 175.082031 179.636719 174.160156 C 179.382812 173.871094 179.222656 173.738281 178.824219 173.878906 C 166.65625 178.050781 163.488281 177.933594 163.328125 188.007812 C 179.492188 188.007812 195.597656 188.007812 211.777344 188.007812 C 210.957031 177.558594 209.117188 178.363281 196.125 173.847656 " fill-opacity="1" fill-rule="nonzero"/><path fill="#ff6100" d="M 175.65625 165.144531 C 175.820312 165.191406 175.988281 165.460938 176.027344 165.644531 C 177.238281 172.496094 182.453125 175.304688 189.292969 174.699219 C 194.367188 174.246094 197.964844 171.0625 198.917969 166.058594 C 199.03125 165.445312 199.261719 165.167969 199.828125 164.945312 C 203.308594 163.582031 204.246094 157.863281 201.546875 155.644531 C 201.203125 155.355469 201.109375 155.078125 201.117188 154.65625 C 201.222656 148.898438 198.503906 142.511719 192.742188 141.0625 C 188.703125 140.519531 185.511719 139.707031 181.816406 141.460938 C 173.527344 145.402344 174.222656 151.84375 173.917969 154.847656 C 173.894531 155.054688 173.855469 155.324219 173.71875 155.429688 C 170.625 157.882812 171.753906 163.910156 175.65625 165.144531 Z M 175.613281 157.386719 C 175.871094 158.160156 176.976562 158.3125 177.382812 157.425781 C 178.203125 155.597656 178.3125 153.246094 178.210938 151.253906 C 178.035156 147.527344 182.542969 145.417969 186.277344 146.351562 C 190.472656 147.394531 188.257812 153.367188 196.9375 150.539062 C 197.105469 152.148438 197.28125 153.714844 197.429688 155.277344 C 197.6875 157.953125 198.902344 158.253906 199.460938 157.386719 C 201.15625 158.074219 200.71875 161.203125 199.277344 162.347656 C 198.488281 162.976562 197.542969 162.769531 196.5625 162.800781 C 196.5625 164.515625 196.601562 165.75 195.839844 167.492188 C 193.746094 172.285156 188.042969 172.90625 184.167969 171.785156 C 178.992188 170.289062 178.648438 166.066406 178.402344 162.820312 C 177.34375 162.785156 176.234375 162.976562 175.425781 162.046875 C 174.300781 160.746094 173.992188 157.984375 175.613281 157.386719 " fill-opacity="1" fill-rule="nonzero"/><path fill="#ff6100" d="M 184.507812 156.234375 C 184.507812 154.21875 181.15625 154.21875 181.15625 156.234375 C 181.15625 158.253906 184.507812 158.253906 184.507812 156.234375 " fill-opacity="1" fill-rule="nonzero"/><path fill="#ff6100" d="M 194.175781 156.234375 C 194.175781 154.21875 190.824219 154.21875 190.824219 156.234375 C 190.824219 158.253906 194.175781 158.253906 194.175781 156.234375 " fill-opacity="1" fill-rule="nonzero"/><path fill="#ff6100" d="M 182.683594 164.402344 C 182.683594 169.882812 192.988281 169.882812 192.988281 164.402344 L 191.691406 164.402344 C 191.691406 168.167969 183.984375 168.167969 183.984375 164.402344 L 182.683594 164.402344 " fill-opacity="1" fill-rule="nonzero"/><g fill="#000000" fill-opacity="1"><g transform="translate(67.816406, 246.620389)"><g><path d="M 1.265625 0 L 1.1875 -1.515625 L 3.125 -2.03125 C 3.125 -2.144531 3.128906 -2.375 3.140625 -2.71875 C 3.148438 -3.0625 3.15625 -3.460938 3.15625 -3.921875 C 3.164062 -4.390625 3.175781 -4.863281 3.1875 -5.34375 C 3.195312 -5.832031 3.203125 -6.269531 3.203125 -6.65625 L 3.203125 -11.078125 C 3.203125 -11.929688 3.191406 -12.691406 3.171875 -13.359375 C 3.160156 -14.035156 3.140625 -14.585938 3.109375 -15.015625 C 3.078125 -15.441406 3.039062 -15.691406 3 -15.765625 L 1.0625 -16.25 L 1.15625 -17.765625 L 8.984375 -17.765625 C 11.304688 -17.765625 13.019531 -17.394531 14.125 -16.65625 C 15.238281 -15.925781 15.796875 -14.765625 15.796875 -13.171875 C 15.796875 -12.179688 15.492188 -11.296875 14.890625 -10.515625 C 14.285156 -9.742188 13.453125 -9.132812 12.390625 -8.6875 C 11.335938 -8.238281 10.125 -8.015625 8.75 -8.015625 L 6.78125 -8.015625 L 6.78125 -9.78125 L 8.140625 -9.78125 C 9.148438 -9.78125 9.960938 -10.085938 10.578125 -10.703125 C 11.191406 -11.316406 11.5 -12.140625 11.5 -13.171875 C 11.5 -14.117188 11.238281 -14.835938 10.71875 -15.328125 C 10.207031 -15.828125 9.460938 -16.078125 8.484375 -16.078125 L 7.328125 -16.078125 C 7.304688 -16.015625 7.289062 -15.84375 7.28125 -15.5625 C 7.269531 -15.28125 7.265625 -14.921875 7.265625 -14.484375 C 7.265625 -14.046875 7.265625 -13.5625 7.265625 -13.03125 C 7.265625 -12.5 7.265625 -11.929688 7.265625 -11.328125 L 7.265625 -6.65625 C 7.265625 -6.132812 7.269531 -5.5625 7.28125 -4.9375 C 7.289062 -4.3125 7.304688 -3.726562 7.328125 -3.1875 C 7.347656 -2.65625 7.367188 -2.269531 7.390625 -2.03125 L 9.078125 -1.515625 L 8.984375 0 Z M 17.078125 0.359375 C 15.941406 0.359375 14.9375 0.175781 14.0625 -0.1875 C 13.1875 -0.550781 12.398438 -1.113281 11.703125 -1.875 C 11.003906 -2.644531 10.382812 -3.613281 9.84375 -4.78125 L 8.109375 -8.5 L 11.46875 -9.296875 L 15.078125 -4.265625 C 15.503906 -3.679688 15.914062 -3.1875 16.3125 -2.78125 C 16.71875 -2.382812 17.140625 -2.054688 17.578125 -1.796875 C 18.023438 -1.546875 18.503906 -1.351562 19.015625 -1.21875 L 18.984375 0.1875 C 18.660156 0.238281 18.34375 0.28125 18.03125 0.3125 C 17.71875 0.34375 17.398438 0.359375 17.078125 0.359375 Z M 17.078125 0.359375 "/></g></g></g><g fill="#000000" fill-opacity="1"><g transform="translate(86.73492, 246.620389)"><g><path d="M 1.15625 0 L 1.0625 -1.515625 L 2.96875 -2 C 3.007812 -2.101562 3.046875 -2.363281 3.078125 -2.78125 C 3.109375 -3.207031 3.128906 -3.757812 3.140625 -4.4375 C 3.160156 -5.113281 3.171875 -5.851562 3.171875 -6.65625 L 3.171875 -11.078125 C 3.171875 -11.929688 3.160156 -12.691406 3.140625 -13.359375 C 3.128906 -14.035156 3.109375 -14.59375 3.078125 -15.03125 C 3.046875 -15.46875 3.007812 -15.710938 2.96875 -15.765625 L 1.0625 -16.25 L 1.15625 -17.765625 L 9.296875 -17.765625 L 9.390625 -16.25 L 7.453125 -15.765625 C 7.410156 -15.691406 7.375 -15.4375 7.34375 -15 C 7.3125 -14.5625 7.289062 -14.003906 7.28125 -13.328125 C 7.269531 -12.660156 7.265625 -11.910156 7.265625 -11.078125 L 7.265625 -6.65625 C 7.265625 -5.875 7.269531 -5.148438 7.28125 -4.484375 C 7.289062 -3.816406 7.3125 -3.265625 7.34375 -2.828125 C 7.375 -2.398438 7.410156 -2.125 7.453125 -2 L 9.390625 -1.515625 L 9.296875 0 Z M 1.15625 0 "/></g></g></g><g fill="#000000" fill-opacity="1"><g transform="translate(97.177939, 246.620389)"><g><path d="M 11.328125 0.265625 C 9.367188 0.265625 7.640625 -0.078125 6.140625 -0.765625 C 4.648438 -1.460938 3.484375 -2.472656 2.640625 -3.796875 C 1.804688 -5.117188 1.390625 -6.71875 1.390625 -8.59375 C 1.390625 -10.050781 1.644531 -11.363281 2.15625 -12.53125 C 2.675781 -13.707031 3.414062 -14.703125 4.375 -15.515625 C 5.332031 -16.328125 6.457031 -16.953125 7.75 -17.390625 C 9.039062 -17.828125 10.453125 -18.046875 11.984375 -18.046875 C 12.910156 -18.046875 13.835938 -17.945312 14.765625 -17.75 C 15.703125 -17.5625 16.492188 -17.316406 17.140625 -17.015625 L 17.34375 -12.375 L 15.46875 -12.265625 L 14.40625 -15.4375 C 14.019531 -15.644531 13.59375 -15.796875 13.125 -15.890625 C 12.664062 -15.992188 12.195312 -16.046875 11.71875 -16.046875 C 10.539062 -16.046875 9.546875 -15.769531 8.734375 -15.21875 C 7.929688 -14.675781 7.316406 -13.898438 6.890625 -12.890625 C 6.472656 -11.890625 6.265625 -10.703125 6.265625 -9.328125 C 6.265625 -7.773438 6.519531 -6.4375 7.03125 -5.3125 C 7.550781 -4.195312 8.242188 -3.332031 9.109375 -2.71875 C 9.984375 -2.113281 10.953125 -1.8125 12.015625 -1.8125 C 12.578125 -1.8125 13.125 -1.882812 13.65625 -2.03125 C 14.195312 -2.1875 14.648438 -2.414062 15.015625 -2.71875 L 16.109375 -5.515625 L 18.140625 -5.296875 L 17.25 -1.265625 C 16.625 -0.867188 15.769531 -0.515625 14.6875 -0.203125 C 13.613281 0.109375 12.492188 0.265625 11.328125 0.265625 Z M 11.328125 0.265625 "/></g></g></g><g fill="#000000" fill-opacity="1"><g transform="translate(116.005643, 246.620389)"><g><path d="M -0.03125 0 L -0.125 -1.515625 L 1.453125 -2 L 7.59375 -16.890625 L 10.140625 -18.3125 L 17.109375 -2 L 18.671875 -1.515625 L 18.59375 0 L 10.46875 0 L 10.390625 -1.515625 L 12.328125 -2 L 10.6875 -5.90625 L 10.359375 -6.9375 L 7.328125 -14.078125 L 8.203125 -13.828125 L 5.6875 -7.03125 L 5.421875 -6.109375 L 3.96875 -2 L 5.90625 -1.515625 L 5.8125 0 Z M 4.6875 -5.140625 L 4.6875 -7.203125 C 5.09375 -7.179688 5.546875 -7.15625 6.046875 -7.125 C 6.554688 -7.09375 7.234375 -7.078125 8.078125 -7.078125 C 8.890625 -7.078125 9.5625 -7.09375 10.09375 -7.125 C 10.632812 -7.15625 11.09375 -7.179688 11.46875 -7.203125 L 11.46875 -5.171875 C 11.09375 -5.171875 10.628906 -5.179688 10.078125 -5.203125 C 9.535156 -5.222656 8.867188 -5.234375 8.078125 -5.234375 C 7.253906 -5.234375 6.578125 -5.222656 6.046875 -5.203125 C 5.523438 -5.179688 5.070312 -5.160156 4.6875 -5.140625 Z M 4.6875 -5.140625 "/></g></g></g><g fill="#000000" fill-opacity="1"><g transform="translate(134.439842, 246.620389)"><g><path d="M 1.265625 0 L 1.1875 -1.515625 L 3.125 -2.03125 C 3.125 -2.144531 3.128906 -2.375 3.140625 -2.71875 C 3.148438 -3.0625 3.15625 -3.460938 3.15625 -3.921875 C 3.164062 -4.390625 3.175781 -4.863281 3.1875 -5.34375 C 3.195312 -5.832031 3.203125 -6.269531 3.203125 -6.65625 L 3.203125 -11.078125 C 3.203125 -11.929688 3.191406 -12.691406 3.171875 -13.359375 C 3.160156 -14.035156 3.140625 -14.585938 3.109375 -15.015625 C 3.078125 -15.441406 3.039062 -15.691406 3 -15.765625 L 1.0625 -16.25 L 1.15625 -17.765625 L 8.984375 -17.765625 C 11.304688 -17.765625 13.019531 -17.394531 14.125 -16.65625 C 15.238281 -15.925781 15.796875 -14.765625 15.796875 -13.171875 C 15.796875 -12.179688 15.492188 -11.296875 14.890625 -10.515625 C 14.285156 -9.742188 13.453125 -9.132812 12.390625 -8.6875 C 11.335938 -8.238281 10.125 -8.015625 8.75 -8.015625 L 6.78125 -8.015625 L 6.78125 -9.78125 L 8.140625 -9.78125 C 9.148438 -9.78125 9.960938 -10.085938 10.578125 -10.703125 C 11.191406 -11.316406 11.5 -12.140625 11.5 -13.171875 C 11.5 -14.117188 11.238281 -14.835938 10.71875 -15.328125 C 10.207031 -15.828125 9.460938 -16.078125 8.484375 -16.078125 L 7.328125 -16.078125 C 7.304688 -16.015625 7.289062 -15.84375 7.28125 -15.5625 C 7.269531 -15.28125 7.265625 -14.921875 7.265625 -14.484375 C 7.265625 -14.046875 7.265625 -13.5625 7.265625 -13.03125 C 7.265625 -12.5 7.265625 -11.929688 7.265625 -11.328125 L 7.265625 -6.65625 C 7.265625 -6.132812 7.269531 -5.5625 7.28125 -4.9375 C 7.289062 -4.3125 7.304688 -3.726562 7.328125 -3.1875 C 7.347656 -2.65625 7.367188 -2.269531 7.390625 -2.03125 L 9.078125 -1.515625 L 8.984375 0 Z M 17.078125 0.359375 C 15.941406 0.359375 14.9375 0.175781 14.0625 -0.1875 C 13.1875 -0.550781 12.398438 -1.113281 11.703125 -1.875 C 11.003906 -2.644531 10.382812 -3.613281 9.84375 -4.78125 L 8.109375 -8.5 L 11.46875 -9.296875 L 15.078125 -4.265625 C 15.503906 -3.679688 15.914062 -3.1875 16.3125 -2.78125 C 16.71875 -2.382812 17.140625 -2.054688 17.578125 -1.796875 C 18.023438 -1.546875 18.503906 -1.351562 19.015625 -1.21875 L 18.984375 0.1875 C 18.660156 0.238281 18.34375 0.28125 18.03125 0.3125 C 17.71875 0.34375 17.398438 0.359375 17.078125 0.359375 Z M 17.078125 0.359375 "/></g></g></g><g fill="#000000" fill-opacity="1"><g transform="translate(153.358355, 246.620389)"><g><path d="M 1.15625 -17.765625 L 9.5 -17.765625 C 12.769531 -17.765625 15.320312 -17.003906 17.15625 -15.484375 C 19 -13.960938 19.921875 -11.835938 19.921875 -9.109375 C 19.921875 -7.359375 19.484375 -5.789062 18.609375 -4.40625 C 17.742188 -3.019531 16.550781 -1.9375 15.03125 -1.15625 C 13.507812 -0.382812 11.769531 0 9.8125 0 L 1.15625 0 L 1.0625 -1.515625 L 3 -2 C 3.0625 -2.132812 3.109375 -2.640625 3.140625 -3.515625 C 3.179688 -4.398438 3.203125 -5.445312 3.203125 -6.65625 L 3.203125 -11.078125 C 3.203125 -12.347656 3.179688 -13.421875 3.140625 -14.296875 C 3.109375 -15.179688 3.0625 -15.671875 3 -15.765625 L 1.0625 -16.25 Z M 7.359375 -15.75 C 7.359375 -15.625 7.351562 -15.363281 7.34375 -14.96875 C 7.332031 -14.570312 7.320312 -14.054688 7.3125 -13.421875 C 7.300781 -12.785156 7.296875 -12.003906 7.296875 -11.078125 L 7.296875 -6.65625 C 7.296875 -6.132812 7.300781 -5.582031 7.3125 -5 C 7.320312 -4.425781 7.34375 -3.894531 7.375 -3.40625 C 7.40625 -2.925781 7.429688 -2.546875 7.453125 -2.265625 C 7.910156 -2.191406 8.363281 -2.128906 8.8125 -2.078125 C 9.269531 -2.023438 9.703125 -2 10.109375 -2 C 11.828125 -2 13.125 -2.492188 14 -3.484375 C 14.875 -4.472656 15.3125 -6.035156 15.3125 -8.171875 C 15.3125 -9.585938 15.148438 -10.789062 14.828125 -11.78125 C 14.503906 -12.769531 14.0625 -13.566406 13.5 -14.171875 C 12.9375 -14.773438 12.289062 -15.21875 11.5625 -15.5 C 10.832031 -15.78125 10.054688 -15.921875 9.234375 -15.921875 C 8.953125 -15.921875 8.648438 -15.90625 8.328125 -15.875 C 8.003906 -15.84375 7.679688 -15.800781 7.359375 -15.75 Z M 7.359375 -15.75 "/></g></g></g><g fill="#000000" fill-opacity="1"><g transform="translate(174.758977, 246.620389)"><g><path d="M 10.90625 0.265625 C 9.039062 0.265625 7.382812 -0.113281 5.9375 -0.875 C 4.5 -1.644531 3.367188 -2.703125 2.546875 -4.046875 C 1.734375 -5.390625 1.328125 -6.925781 1.328125 -8.65625 C 1.328125 -10.476562 1.734375 -12.09375 2.546875 -13.5 C 3.367188 -14.914062 4.503906 -16.023438 5.953125 -16.828125 C 7.410156 -17.640625 9.066406 -18.046875 10.921875 -18.046875 C 12.722656 -18.046875 14.304688 -17.664062 15.671875 -16.90625 C 17.046875 -16.144531 18.128906 -15.097656 18.921875 -13.765625 C 19.710938 -12.441406 20.109375 -10.890625 20.109375 -9.109375 C 20.109375 -7.554688 19.816406 -6.191406 19.234375 -5.015625 C 18.660156 -3.847656 17.914062 -2.867188 17 -2.078125 C 16.082031 -1.296875 15.085938 -0.707031 14.015625 -0.3125 C 12.941406 0.0703125 11.90625 0.265625 10.90625 0.265625 Z M 11.140625 -2 C 12.066406 -2 12.84375 -2.242188 13.46875 -2.734375 C 14.09375 -3.234375 14.5625 -3.957031 14.875 -4.90625 C 15.1875 -5.851562 15.34375 -7.003906 15.34375 -8.359375 C 15.34375 -9.910156 15.140625 -11.257812 14.734375 -12.40625 C 14.335938 -13.5625 13.785156 -14.457031 13.078125 -15.09375 C 12.367188 -15.726562 11.53125 -16.046875 10.5625 -16.046875 C 9.175781 -16.046875 8.085938 -15.46875 7.296875 -14.3125 C 6.503906 -13.164062 6.109375 -11.570312 6.109375 -9.53125 C 6.109375 -8.039062 6.328125 -6.726562 6.765625 -5.59375 C 7.203125 -4.46875 7.789062 -3.585938 8.53125 -2.953125 C 9.28125 -2.316406 10.148438 -2 11.140625 -2 Z M 11.140625 -2 "/></g></g></g><g fill="#000000" fill-opacity="1"><g transform="translate(196.189868, 246.620389)"><g/></g></g><g fill="#000000" fill-opacity="1"><g transform="translate(202.152984, 246.620389)"><g><path d="M 11.234375 0.265625 C 9.296875 0.265625 7.578125 -0.078125 6.078125 -0.765625 C 4.585938 -1.460938 3.421875 -2.460938 2.578125 -3.765625 C 1.742188 -5.066406 1.328125 -6.640625 1.328125 -8.484375 C 1.328125 -9.972656 1.585938 -11.304688 2.109375 -12.484375 C 2.640625 -13.671875 3.378906 -14.675781 4.328125 -15.5 C 5.273438 -16.320312 6.398438 -16.953125 7.703125 -17.390625 C 9.003906 -17.828125 10.429688 -18.046875 11.984375 -18.046875 C 12.910156 -18.046875 13.832031 -17.945312 14.75 -17.75 C 15.675781 -17.5625 16.441406 -17.316406 17.046875 -17.015625 L 17.203125 -12.71875 L 15.28125 -12.65625 L 14.34375 -15.4375 C 13.945312 -15.65625 13.503906 -15.8125 13.015625 -15.90625 C 12.535156 -16 12.09375 -16.046875 11.6875 -16.046875 C 10.519531 -16.046875 9.515625 -15.769531 8.671875 -15.21875 C 7.835938 -14.675781 7.207031 -13.898438 6.78125 -12.890625 C 6.351562 -11.890625 6.140625 -10.703125 6.140625 -9.328125 C 6.140625 -7.773438 6.398438 -6.429688 6.921875 -5.296875 C 7.453125 -4.171875 8.160156 -3.300781 9.046875 -2.6875 C 9.941406 -2.082031 10.921875 -1.78125 11.984375 -1.78125 C 12.285156 -1.78125 12.632812 -1.820312 13.03125 -1.90625 C 13.425781 -1.988281 13.773438 -2.117188 14.078125 -2.296875 L 13.4375 -0.671875 L 13.4375 -3.875 C 13.4375 -4.300781 13.425781 -4.753906 13.40625 -5.234375 C 13.382812 -5.722656 13.359375 -6.097656 13.328125 -6.359375 L 11.171875 -6.8125 L 11.265625 -8.390625 L 18.859375 -8.390625 L 18.953125 -6.875 L 17.4375 -6.390625 C 17.414062 -6.179688 17.410156 -5.863281 17.421875 -5.4375 C 17.429688 -5.019531 17.4375 -4.582031 17.4375 -4.125 C 17.4375 -3.78125 17.445312 -3.382812 17.46875 -2.9375 C 17.488281 -2.488281 17.507812 -1.960938 17.53125 -1.359375 C 16.644531 -0.816406 15.648438 -0.410156 14.546875 -0.140625 C 13.441406 0.128906 12.335938 0.265625 11.234375 0.265625 Z M 11.234375 0.265625 "/></g></g></g><g fill="#000000" fill-opacity="1"><g transform="translate(222.130933, 246.620389)"><g><path d="M -0.03125 0 L -0.125 -1.515625 L 1.453125 -2 L 7.59375 -16.890625 L 10.140625 -18.3125 L 17.109375 -2 L 18.671875 -1.515625 L 18.59375 0 L 10.46875 0 L 10.390625 -1.515625 L 12.328125 -2 L 10.6875 -5.90625 L 10.359375 -6.9375 L 7.328125 -14.078125 L 8.203125 -13.828125 L 5.6875 -7.03125 L 5.421875 -6.109375 L 3.96875 -2 L 5.90625 -1.515625 L 5.8125 0 Z M 4.6875 -5.140625 L 4.6875 -7.203125 C 5.09375 -7.179688 5.546875 -7.15625 6.046875 -7.125 C 6.554688 -7.09375 7.234375 -7.078125 8.078125 -7.078125 C 8.890625 -7.078125 9.5625 -7.09375 10.09375 -7.125 C 10.632812 -7.15625 11.09375 -7.179688 11.46875 -7.203125 L 11.46875 -5.171875 C 11.09375 -5.171875 10.628906 -5.179688 10.078125 -5.203125 C 9.535156 -5.222656 8.867188 -5.234375 8.078125 -5.234375 C 7.253906 -5.234375 6.578125 -5.222656 6.046875 -5.203125 C 5.523438 -5.179688 5.070312 -5.160156 4.6875 -5.140625 Z M 4.6875 -5.140625 "/></g></g></g><g fill="#000000" fill-opacity="1"><g transform="translate(240.565133, 246.620389)"><g><path d="M 1.265625 0 L 1.1875 -1.515625 L 3.125 -2.03125 C 3.125 -2.144531 3.128906 -2.375 3.140625 -2.71875 C 3.148438 -3.0625 3.15625 -3.460938 3.15625 -3.921875 C 3.164062 -4.390625 3.175781 -4.863281 3.1875 -5.34375 C 3.195312 -5.832031 3.203125 -6.269531 3.203125 -6.65625 L 3.203125 -11.078125 C 3.203125 -11.929688 3.191406 -12.691406 3.171875 -13.359375 C 3.160156 -14.035156 3.140625 -14.585938 3.109375 -15.015625 C 3.078125 -15.441406 3.039062 -15.691406 3 -15.765625 L 1.0625 -16.25 L 1.15625 -17.765625 L 8.984375 -17.765625 C 11.304688 -17.765625 13.019531 -17.394531 14.125 -16.65625 C 15.238281 -15.925781 15.796875 -14.765625 15.796875 -13.171875 C 15.796875 -12.179688 15.492188 -11.296875 14.890625 -10.515625 C 14.285156 -9.742188 13.453125 -9.132812 12.390625 -8.6875 C 11.335938 -8.238281 10.125 -8.015625 8.75 -8.015625 L 6.78125 -8.015625 L 6.78125 -9.78125 L 8.140625 -9.78125 C 9.148438 -9.78125 9.960938 -10.085938 10.578125 -10.703125 C 11.191406 -11.316406 11.5 -12.140625 11.5 -13.171875 C 11.5 -14.117188 11.238281 -14.835938 10.71875 -15.328125 C 10.207031 -15.828125 9.460938 -16.078125 8.484375 -16.078125 L 7.328125 -16.078125 C 7.304688 -16.015625 7.289062 -15.84375 7.28125 -15.5625 C 7.269531 -15.28125 7.265625 -14.921875 7.265625 -14.484375 C 7.265625 -14.046875 7.265625 -13.5625 7.265625 -13.03125 C 7.265625 -12.5 7.265625 -11.929688 7.265625 -11.328125 L 7.265625 -6.65625 C 7.265625 -6.132812 7.269531 -5.5625 7.28125 -4.9375 C 7.289062 -4.3125 7.304688 -3.726562 7.328125 -3.1875 C 7.347656 -2.65625 7.367188 -2.269531 7.390625 -2.03125 L 9.078125 -1.515625 L 8.984375 0 Z M 17.078125 0.359375 C 15.941406 0.359375 14.9375 0.175781 14.0625 -0.1875 C 13.1875 -0.550781 12.398438 -1.113281 11.703125 -1.875 C 11.003906 -2.644531 10.382812 -3.613281 9.84375 -4.78125 L 8.109375 -8.5 L 11.46875 -9.296875 L 15.078125 -4.265625 C 15.503906 -3.679688 15.914062 -3.1875 16.3125 -2.78125 C 16.71875 -2.382812 17.140625 -2.054688 17.578125 -1.796875 C 18.023438 -1.546875 18.503906 -1.351562 19.015625 -1.21875 L 18.984375 0.1875 C 18.660156 0.238281 18.34375 0.28125 18.03125 0.3125 C 17.71875 0.34375 17.398438 0.359375 17.078125 0.359375 Z M 17.078125 0.359375 "/></g></g></g><g fill="#000000" fill-opacity="1"><g transform="translate(259.483646, 246.620389)"><g><path d="M 11.328125 0.265625 C 9.367188 0.265625 7.640625 -0.078125 6.140625 -0.765625 C 4.648438 -1.460938 3.484375 -2.472656 2.640625 -3.796875 C 1.804688 -5.117188 1.390625 -6.71875 1.390625 -8.59375 C 1.390625 -10.050781 1.644531 -11.363281 2.15625 -12.53125 C 2.675781 -13.707031 3.414062 -14.703125 4.375 -15.515625 C 5.332031 -16.328125 6.457031 -16.953125 7.75 -17.390625 C 9.039062 -17.828125 10.453125 -18.046875 11.984375 -18.046875 C 12.910156 -18.046875 13.835938 -17.945312 14.765625 -17.75 C 15.703125 -17.5625 16.492188 -17.316406 17.140625 -17.015625 L 17.34375 -12.375 L 15.46875 -12.265625 L 14.40625 -15.4375 C 14.019531 -15.644531 13.59375 -15.796875 13.125 -15.890625 C 12.664062 -15.992188 12.195312 -16.046875 11.71875 -16.046875 C 10.539062 -16.046875 9.546875 -15.769531 8.734375 -15.21875 C 7.929688 -14.675781 7.316406 -13.898438 6.890625 -12.890625 C 6.472656 -11.890625 6.265625 -10.703125 6.265625 -9.328125 C 6.265625 -7.773438 6.519531 -6.4375 7.03125 -5.3125 C 7.550781 -4.195312 8.242188 -3.332031 9.109375 -2.71875 C 9.984375 -2.113281 10.953125 -1.8125 12.015625 -1.8125 C 12.578125 -1.8125 13.125 -1.882812 13.65625 -2.03125 C 14.195312 -2.1875 14.648438 -2.414062 15.015625 -2.71875 L 16.109375 -5.515625 L 18.140625 -5.296875 L 17.25 -1.265625 C 16.625 -0.867188 15.769531 -0.515625 14.6875 -0.203125 C 13.613281 0.109375 12.492188 0.265625 11.328125 0.265625 Z M 11.328125 0.265625 "/></g></g></g><g fill="#000000" fill-opacity="1"><g transform="translate(278.31135, 246.620389)"><g><path d="M 1.15625 0 L 1.0625 -1.515625 L 2.96875 -2 C 3.007812 -2.101562 3.046875 -2.363281 3.078125 -2.78125 C 3.109375 -3.207031 3.128906 -3.757812 3.140625 -4.4375 C 3.160156 -5.113281 3.171875 -5.851562 3.171875 -6.65625 L 3.171875 -11.078125 C 3.171875 -11.929688 3.160156 -12.691406 3.140625 -13.359375 C 3.128906 -14.035156 3.109375 -14.59375 3.078125 -15.03125 C 3.046875 -15.46875 3.007812 -15.710938 2.96875 -15.765625 L 1.0625 -16.25 L 1.15625 -17.765625 L 9.296875 -17.765625 L 9.390625 -16.25 L 7.453125 -15.765625 C 7.410156 -15.691406 7.375 -15.4375 7.34375 -15 C 7.3125 -14.5625 7.289062 -14.003906 7.28125 -13.328125 C 7.269531 -12.660156 7.265625 -11.910156 7.265625 -11.078125 L 7.265625 -6.65625 C 7.265625 -5.875 7.269531 -5.148438 7.28125 -4.484375 C 7.289062 -3.816406 7.3125 -3.265625 7.34375 -2.828125 C 7.375 -2.398438 7.410156 -2.125 7.453125 -2 L 9.390625 -1.515625 L 9.296875 0 Z M 1.15625 0 "/></g></g></g><g fill="#000000" fill-opacity="1"><g transform="translate(288.754381, 246.620389)"><g><path d="M -0.03125 0 L -0.125 -1.515625 L 1.453125 -2 L 7.59375 -16.890625 L 10.140625 -18.3125 L 17.109375 -2 L 18.671875 -1.515625 L 18.59375 0 L 10.46875 0 L 10.390625 -1.515625 L 12.328125 -2 L 10.6875 -5.90625 L 10.359375 -6.9375 L 7.328125 -14.078125 L 8.203125 -13.828125 L 5.6875 -7.03125 L 5.421875 -6.109375 L 3.96875 -2 L 5.90625 -1.515625 L 5.8125 0 Z M 4.6875 -5.140625 L 4.6875 -7.203125 C 5.09375 -7.179688 5.546875 -7.15625 6.046875 -7.125 C 6.554688 -7.09375 7.234375 -7.078125 8.078125 -7.078125 C 8.890625 -7.078125 9.5625 -7.09375 10.09375 -7.125 C 10.632812 -7.15625 11.09375 -7.179688 11.46875 -7.203125 L 11.46875 -5.171875 C 11.09375 -5.171875 10.628906 -5.179688 10.078125 -5.203125 C 9.535156 -5.222656 8.867188 -5.234375 8.078125 -5.234375 C 7.253906 -5.234375 6.578125 -5.222656 6.046875 -5.203125 C 5.523438 -5.179688 5.070312 -5.160156 4.6875 -5.140625 Z M 4.6875 -5.140625 "/></g></g></g><g fill="#000000" fill-opacity="1"><g transform="translate(94.110156, 267.620433)"><g><path d="M 4.058594 0 C 7.65625 0 9.640625 -1.917969 9.640625 -5.332031 C 9.640625 -8.761719 7.667969 -10.679688 4.058594 -10.679688 L 0.953125 -10.679688 L 0.953125 0 Z M 2.96875 -8.871094 L 4.042969 -8.871094 C 6.199219 -8.871094 7.628906 -7.808594 7.628906 -5.332031 C 7.628906 -2.6875 6.15625 -1.804688 4.03125 -1.804688 L 2.96875 -1.804688 Z M 2.96875 -8.871094 "/></g></g></g><g fill="#000000" fill-opacity="1"><g transform="translate(105.696475, 267.620433)"><g><path d="M 8.074219 0 L 8.074219 -1.804688 L 2.96875 -1.804688 L 2.96875 -4.449219 L 7.542969 -4.449219 L 7.542969 -6.242188 L 2.96875 -6.242188 L 2.96875 -8.871094 L 8.074219 -8.871094 L 8.074219 -10.679688 L 0.953125 -10.679688 L 0.953125 0 Z M 8.074219 0 "/></g></g></g><g fill="#000000" fill-opacity="1"><g transform="translate(115.785632, 267.620433)"><g><path d="M 5.191406 0.195312 C 7.710938 0.195312 9.179688 -1.078125 9.179688 -3.09375 C 9.179688 -5.515625 7.066406 -5.988281 5.289062 -6.382812 C 3.988281 -6.675781 2.839844 -6.925781 2.839844 -7.90625 C 2.839844 -8.71875 3.570312 -9.152344 4.578125 -9.152344 C 5.667969 -9.152344 6.578125 -8.636719 6.84375 -7.5 L 8.902344 -7.5 C 8.566406 -9.808594 6.675781 -10.875 4.617188 -10.875 C 2.464844 -10.875 0.839844 -9.796875 0.839844 -7.738281 C 0.839844 -5.484375 2.828125 -5.050781 4.578125 -4.660156 C 5.933594 -4.367188 7.152344 -4.101562 7.152344 -2.996094 C 7.152344 -1.972656 6.3125 -1.527344 5.207031 -1.527344 C 4.085938 -1.527344 2.925781 -1.945312 2.574219 -3.472656 L 0.488281 -3.472656 C 0.753906 -0.714844 3.136719 0.195312 5.191406 0.195312 Z M 5.191406 0.195312 "/></g></g></g><g fill="#000000" fill-opacity="1"><g transform="translate(126.924201, 267.620433)"><g><path d="M 8.074219 0 L 8.074219 -1.804688 L 2.96875 -1.804688 L 2.96875 -4.449219 L 7.542969 -4.449219 L 7.542969 -6.242188 L 2.96875 -6.242188 L 2.96875 -8.871094 L 8.074219 -8.871094 L 8.074219 -10.679688 L 0.953125 -10.679688 L 0.953125 0 Z M 8.074219 0 "/></g></g></g><g fill="#000000" fill-opacity="1"><g transform="translate(137.013358, 267.620433)"><g><path d="M 2.96875 0 L 2.96875 -7.65625 L 7.332031 0 L 9.613281 0 L 9.613281 -10.679688 L 7.597656 -10.679688 L 7.597656 -3.035156 L 3.21875 -10.679688 L 0.953125 -10.679688 L 0.953125 0 Z M 2.96875 0 "/></g></g></g><g fill="#000000" fill-opacity="1"><g transform="translate(148.97746, 267.620433)"><g><path d="M 6.019531 0 L 9.78125 -10.679688 L 7.667969 -10.679688 L 4.914062 -2.210938 L 2.15625 -10.679688 L 0.0429688 -10.679688 L 3.804688 0 Z M 6.019531 0 "/></g></g></g><g fill="#000000" fill-opacity="1"><g transform="translate(160.199982, 267.620433)"><g><path d="M 5.722656 0.195312 C 9.265625 0.195312 10.917969 -2.394531 10.917969 -5.347656 C 10.917969 -8.300781 9.265625 -10.875 5.722656 -10.875 C 2.195312 -10.875 0.546875 -8.300781 0.546875 -5.347656 C 0.546875 -2.394531 2.195312 0.195312 5.722656 0.195312 Z M 5.722656 -1.609375 C 3.777344 -1.609375 2.644531 -3.121094 2.644531 -5.347656 C 2.644531 -7.558594 3.777344 -9.054688 5.722656 -9.054688 C 7.695312 -9.054688 8.816406 -7.558594 8.816406 -5.347656 C 8.816406 -3.121094 7.695312 -1.609375 5.722656 -1.609375 Z M 5.722656 -1.609375 "/></g></g></g><g fill="#000000" fill-opacity="1"><g transform="translate(173.073577, 267.620433)"><g><path d="M 7.488281 0 L 7.488281 -1.804688 L 2.96875 -1.804688 L 2.96875 -10.679688 L 0.953125 -10.679688 L 0.953125 0 Z M 7.488281 0 "/></g></g></g><g fill="#000000" fill-opacity="1"><g transform="translate(182.113311, 267.620433)"><g><path d="M 6.019531 0 L 9.78125 -10.679688 L 7.667969 -10.679688 L 4.914062 -2.210938 L 2.15625 -10.679688 L 0.0429688 -10.679688 L 3.804688 0 Z M 6.019531 0 "/></g></g></g><g fill="#000000" fill-opacity="1"><g transform="translate(193.335838, 267.620433)"><g><path d="M 8.074219 0 L 8.074219 -1.804688 L 2.96875 -1.804688 L 2.96875 -4.449219 L 7.542969 -4.449219 L 7.542969 -6.242188 L 2.96875 -6.242188 L 2.96875 -8.871094 L 8.074219 -8.871094 L 8.074219 -10.679688 L 0.953125 -10.679688 L 0.953125 0 Z M 8.074219 0 "/></g></g></g><g fill="#000000" fill-opacity="1"><g transform="translate(203.424995, 267.620433)"><g><path d="M 4.058594 0 C 7.65625 0 9.640625 -1.917969 9.640625 -5.332031 C 9.640625 -8.761719 7.667969 -10.679688 4.058594 -10.679688 L 0.953125 -10.679688 L 0.953125 0 Z M 2.96875 -8.871094 L 4.042969 -8.871094 C 6.199219 -8.871094 7.628906 -7.808594 7.628906 -5.332031 C 7.628906 -2.6875 6.15625 -1.804688 4.03125 -1.804688 L 2.96875 -1.804688 Z M 2.96875 -8.871094 "/></g></g></g><g fill="#000000" fill-opacity="1"><g transform="translate(215.011313, 267.620433)"><g><path d="M 5.722656 0.195312 C 9.265625 0.195312 10.917969 -2.394531 10.917969 -5.347656 C 10.917969 -8.300781 9.265625 -10.875 5.722656 -10.875 C 2.195312 -10.875 0.546875 -8.300781 0.546875 -5.347656 C 0.546875 -2.394531 2.195312 0.195312 5.722656 0.195312 Z M 5.722656 -1.609375 C 3.777344 -1.609375 2.644531 -3.121094 2.644531 -5.347656 C 2.644531 -7.558594 3.777344 -9.054688 5.722656 -9.054688 C 7.695312 -9.054688 8.816406 -7.558594 8.816406 -5.347656 C 8.816406 -3.121094 7.695312 -1.609375 5.722656 -1.609375 Z M 5.722656 -1.609375 "/></g></g></g><g fill="#000000" fill-opacity="1"><g transform="translate(227.884908, 267.620433)"><g><path d="M 7.261719 -4.632812 C 8.300781 -5.121094 8.941406 -6.128906 8.941406 -7.53125 C 8.941406 -9.742188 7.558594 -10.679688 5.554688 -10.679688 L 0.953125 -10.679688 L 0.953125 0 L 2.96875 0 L 2.96875 -4.269531 L 5.347656 -4.269531 L 7.039062 0 L 9.179688 0 Z M 5.277344 -8.871094 C 6.339844 -8.871094 6.941406 -8.367188 6.941406 -7.460938 C 6.941406 -6.523438 6.355469 -6.03125 5.277344 -6.03125 L 2.96875 -6.03125 L 2.96875 -8.871094 Z M 5.277344 -8.871094 "/></g></g></g><g fill="#000000" fill-opacity="1"><g transform="translate(238.925527, 267.620433)"><g/></g></g><g fill="#000000" fill-opacity="1"><g transform="translate(244.075436, 267.620433)"><g><path d="M 6.019531 0 L 7.78125 -8.269531 L 9.558594 0 L 12.566406 0 L 15.367188 -10.679688 L 13.253906 -10.679688 L 11.054688 -1.804688 L 9.070312 -10.679688 L 6.507812 -10.679688 L 4.519531 -1.820312 L 2.324219 -10.679688 L 0.210938 -10.679688 L 2.996094 0 Z M 6.019531 0 "/></g></g></g><g fill="#000000" fill-opacity="1"><g transform="translate(261.034755, 267.620433)"><g><path d="M 8.074219 0 L 8.074219 -1.804688 L 2.96875 -1.804688 L 2.96875 -4.449219 L 7.542969 -4.449219 L 7.542969 -6.242188 L 2.96875 -6.242188 L 2.96875 -8.871094 L 8.074219 -8.871094 L 8.074219 -10.679688 L 0.953125 -10.679688 L 0.953125 0 Z M 8.074219 0 "/></g></g></g><g fill="#000000" fill-opacity="1"><g transform="translate(271.123912, 267.620433)"><g><path d="M 5.359375 0 C 5.960938 0 7.320312 -0.0820312 8.257812 -0.839844 C 8.804688 -1.300781 9.207031 -2.085938 9.207031 -3.105469 C 9.207031 -4.476562 8.453125 -5.386719 7.082031 -5.613281 C 8.089844 -5.878906 8.664062 -6.789062 8.664062 -8.003906 C 8.664062 -8.761719 8.453125 -9.363281 8.003906 -9.808594 C 7.429688 -10.382812 6.492188 -10.679688 5.179688 -10.679688 L 0.953125 -10.679688 L 0.953125 0 Z M 2.96875 -8.871094 L 4.730469 -8.871094 C 5.472656 -8.871094 5.949219 -8.761719 6.253906 -8.496094 C 6.507812 -8.300781 6.632812 -7.992188 6.632812 -7.570312 C 6.632812 -6.703125 6.074219 -6.242188 5.050781 -6.242188 L 2.96875 -6.242188 Z M 2.96875 -4.605469 L 5.332031 -4.605469 C 6.171875 -4.605469 7.179688 -4.507812 7.179688 -3.261719 C 7.179688 -2.757812 7.039062 -2.433594 6.789062 -2.226562 C 6.355469 -1.847656 5.652344 -1.804688 5.109375 -1.804688 L 2.96875 -1.804688 Z M 2.96875 -4.605469 "/></g></g></g></svg>