<svg xmlns="http://www.w3.org/2000/svg" xmlns:xlink="http://www.w3.org/1999/xlink" width="500" zoomAndPan="magnify" viewBox="0 0 375 374.999991" height="500" preserveAspectRatio="xMidYMid meet" version="1.0"><defs><g/><clipPath id="eaddd961be"><path d="M 113.628906 127.238281 L 222.378906 127.238281 L 222.378906 201 L 113.628906 201 Z M 113.628906 127.238281 " clip-rule="nonzero"/></clipPath><clipPath id="41b34f753b"><path d="M 136 210 L 200 210 L 200 217.238281 L 136 217.238281 Z M 136 210 " clip-rule="nonzero"/></clipPath><clipPath id="3376502135"><path d="M 134 139 L 191.644531 139 L 191.644531 172 L 134 172 Z M 134 139 " clip-rule="nonzero"/></clipPath><clipPath id="59c9d09ee3"><path d="M 125.644531 134.292969 L 169 134.292969 L 169 183 L 125.644531 183 Z M 125.644531 134.292969 " clip-rule="nonzero"/></clipPath><clipPath id="d5609aed9c"><path d="M 132.273438 134.851562 L 178.390625 134.851562 L 178.390625 183.011719 L 132.273438 183.011719 Z M 132.273438 134.851562 " clip-rule="nonzero"/></clipPath><clipPath id="7283b5e275"><path d="M 204.699219 158.640625 L 246.667969 158.640625 L 246.667969 213.675781 L 204.699219 213.675781 Z M 204.699219 158.640625 " clip-rule="nonzero"/></clipPath><clipPath id="47c9749eb8"><path d="M 202.261719 156.808594 L 248.75 156.808594 L 248.75 217.554688 L 202.261719 217.554688 Z M 202.261719 156.808594 " clip-rule="nonzero"/></clipPath><clipPath id="6a63be2676"><path d="M 213 163 L 243.015625 163 L 243.015625 181 L 213 181 Z M 213 163 " clip-rule="nonzero"/></clipPath><clipPath id="65153d9999"><path d="M 208.515625 160.972656 L 231 160.972656 L 231 186.472656 L 208.515625 186.472656 Z M 208.515625 160.972656 " clip-rule="nonzero"/></clipPath><clipPath id="2e89652e4a"><path d="M 212 161.265625 L 236.085938 161.265625 L 236.085938 186.457031 L 212 186.457031 Z M 212 161.265625 " clip-rule="nonzero"/></clipPath><clipPath id="8ab591a470"><path d="M 213 189 L 243.050781 189 L 243.050781 207 L 213 207 Z M 213 189 " clip-rule="nonzero"/></clipPath><clipPath id="97db837235"><path d="M 208.550781 187.078125 L 231 187.078125 L 231 212.578125 L 208.550781 212.578125 Z M 208.550781 187.078125 " clip-rule="nonzero"/></clipPath><clipPath id="3ac84c44be"><path d="M 212.015625 187.371094 L 236.121094 187.371094 L 236.121094 212.5625 L 212.015625 212.5625 Z M 212.015625 187.371094 " clip-rule="nonzero"/></clipPath><clipPath id="e556245dfe"><path d="M 243.085938 185.386719 L 261 185.386719 L 261 214.703125 L 243.085938 214.703125 Z M 243.085938 185.386719 " clip-rule="nonzero"/></clipPath><clipPath id="842472e699"><path d="M 242.816406 183 L 261.566406 183 L 261.566406 217.488281 L 242.816406 217.488281 Z M 242.816406 183 " clip-rule="nonzero"/></clipPath><clipPath id="dc70684b7d"><path d="M 246 189 L 259.980469 189 L 259.980469 197 L 246 197 Z M 246 189 " clip-rule="nonzero"/></clipPath><clipPath id="bb7d30008c"><path d="M 244.230469 188.109375 L 255 188.109375 L 255 199.359375 L 244.230469 199.359375 Z M 244.230469 188.109375 " clip-rule="nonzero"/></clipPath><clipPath id="2fe928685c"><path d="M 245.8125 188.238281 L 256.816406 188.238281 L 256.816406 199.355469 L 245.8125 199.355469 Z M 245.8125 188.238281 " clip-rule="nonzero"/></clipPath></defs><g fill="#000000" fill-opacity="1"><g transform="translate(67.816406, 246.620389)"><g><path d="M 1.265625 0 L 1.1875 -1.515625 L 3.125 -2.03125 C 3.125 -2.144531 3.128906 -2.375 3.140625 -2.71875 C 3.148438 -3.0625 3.15625 -3.460938 3.15625 -3.921875 C 3.164062 -4.390625 3.175781 -4.863281 3.1875 -5.34375 C 3.195312 -5.832031 3.203125 -6.269531 3.203125 -6.65625 L 3.203125 -11.078125 C 3.203125 -11.929688 3.191406 -12.691406 3.171875 -13.359375 C 3.160156 -14.035156 3.140625 -14.585938 3.109375 -15.015625 C 3.078125 -15.441406 3.039062 -15.691406 3 -15.765625 L 1.0625 -16.25 L 1.15625 -17.765625 L 8.984375 -17.765625 C 11.304688 -17.765625 13.019531 -17.394531 14.125 -16.65625 C 15.238281 -15.925781 15.796875 -14.765625 15.796875 -13.171875 C 15.796875 -12.179688 15.492188 -11.296875 14.890625 -10.515625 C 14.285156 -9.742188 13.453125 -9.132812 12.390625 -8.6875 C 11.335938 -8.238281 10.125 -8.015625 8.75 -8.015625 L 6.78125 -8.015625 L 6.78125 -9.78125 L 8.140625 -9.78125 C 9.148438 -9.78125 9.960938 -10.085938 10.578125 -10.703125 C 11.191406 -11.316406 11.5 -12.140625 11.5 -13.171875 C 11.5 -14.117188 11.238281 -14.835938 10.71875 -15.328125 C 10.207031 -15.828125 9.460938 -16.078125 8.484375 -16.078125 L 7.328125 -16.078125 C 7.304688 -16.015625 7.289062 -15.84375 7.28125 -15.5625 C 7.269531 -15.28125 7.265625 -14.921875 7.265625 -14.484375 C 7.265625 -14.046875 7.265625 -13.5625 7.265625 -13.03125 C 7.265625 -12.5 7.265625 -11.929688 7.265625 -11.328125 L 7.265625 -6.65625 C 7.265625 -6.132812 7.269531 -5.5625 7.28125 -4.9375 C 7.289062 -4.3125 7.304688 -3.726562 7.328125 -3.1875 C 7.347656 -2.65625 7.367188 -2.269531 7.390625 -2.03125 L 9.078125 -1.515625 L 8.984375 0 Z M 17.078125 0.359375 C 15.941406 0.359375 14.9375 0.175781 14.0625 -0.1875 C 13.1875 -0.550781 12.398438 -1.113281 11.703125 -1.875 C 11.003906 -2.644531 10.382812 -3.613281 9.84375 -4.78125 L 8.109375 -8.5 L 11.46875 -9.296875 L 15.078125 -4.265625 C 15.503906 -3.679688 15.914062 -3.1875 16.3125 -2.78125 C 16.71875 -2.382812 17.140625 -2.054688 17.578125 -1.796875 C 18.023438 -1.546875 18.503906 -1.351562 19.015625 -1.21875 L 18.984375 0.1875 C 18.660156 0.238281 18.34375 0.28125 18.03125 0.3125 C 17.71875 0.34375 17.398438 0.359375 17.078125 0.359375 Z M 17.078125 0.359375 "/></g></g></g><g fill="#000000" fill-opacity="1"><g transform="translate(86.73492, 246.620389)"><g><path d="M 1.15625 0 L 1.0625 -1.515625 L 2.96875 -2 C 3.007812 -2.101562 3.046875 -2.363281 3.078125 -2.78125 C 3.109375 -3.207031 3.128906 -3.757812 3.140625 -4.4375 C 3.160156 -5.113281 3.171875 -5.851562 3.171875 -6.65625 L 3.171875 -11.078125 C 3.171875 -11.929688 3.160156 -12.691406 3.140625 -13.359375 C 3.128906 -14.035156 3.109375 -14.59375 3.078125 -15.03125 C 3.046875 -15.46875 3.007812 -15.710938 2.96875 -15.765625 L 1.0625 -16.25 L 1.15625 -17.765625 L 9.296875 -17.765625 L 9.390625 -16.25 L 7.453125 -15.765625 C 7.410156 -15.691406 7.375 -15.4375 7.34375 -15 C 7.3125 -14.5625 7.289062 -14.003906 7.28125 -13.328125 C 7.269531 -12.660156 7.265625 -11.910156 7.265625 -11.078125 L 7.265625 -6.65625 C 7.265625 -5.875 7.269531 -5.148438 7.28125 -4.484375 C 7.289062 -3.816406 7.3125 -3.265625 7.34375 -2.828125 C 7.375 -2.398438 7.410156 -2.125 7.453125 -2 L 9.390625 -1.515625 L 9.296875 0 Z M 1.15625 0 "/></g></g></g><g fill="#000000" fill-opacity="1"><g transform="translate(97.177939, 246.620389)"><g><path d="M 11.328125 0.265625 C 9.367188 0.265625 7.640625 -0.078125 6.140625 -0.765625 C 4.648438 -1.460938 3.484375 -2.472656 2.640625 -3.796875 C 1.804688 -5.117188 1.390625 -6.71875 1.390625 -8.59375 C 1.390625 -10.050781 1.644531 -11.363281 2.15625 -12.53125 C 2.675781 -13.707031 3.414062 -14.703125 4.375 -15.515625 C 5.332031 -16.328125 6.457031 -16.953125 7.75 -17.390625 C 9.039062 -17.828125 10.453125 -18.046875 11.984375 -18.046875 C 12.910156 -18.046875 13.835938 -17.945312 14.765625 -17.75 C 15.703125 -17.5625 16.492188 -17.316406 17.140625 -17.015625 L 17.34375 -12.375 L 15.46875 -12.265625 L 14.40625 -15.4375 C 14.019531 -15.644531 13.59375 -15.796875 13.125 -15.890625 C 12.664062 -15.992188 12.195312 -16.046875 11.71875 -16.046875 C 10.539062 -16.046875 9.546875 -15.769531 8.734375 -15.21875 C 7.929688 -14.675781 7.316406 -13.898438 6.890625 -12.890625 C 6.472656 -11.890625 6.265625 -10.703125 6.265625 -9.328125 C 6.265625 -7.773438 6.519531 -6.4375 7.03125 -5.3125 C 7.550781 -4.195312 8.242188 -3.332031 9.109375 -2.71875 C 9.984375 -2.113281 10.953125 -1.8125 12.015625 -1.8125 C 12.578125 -1.8125 13.125 -1.882812 13.65625 -2.03125 C 14.195312 -2.1875 14.648438 -2.414062 15.015625 -2.71875 L 16.109375 -5.515625 L 18.140625 -5.296875 L 17.25 -1.265625 C 16.625 -0.867188 15.769531 -0.515625 14.6875 -0.203125 C 13.613281 0.109375 12.492188 0.265625 11.328125 0.265625 Z M 11.328125 0.265625 "/></g></g></g><g fill="#000000" fill-opacity="1"><g transform="translate(116.005643, 246.620389)"><g><path d="M -0.03125 0 L -0.125 -1.515625 L 1.453125 -2 L 7.59375 -16.890625 L 10.140625 -18.3125 L 17.109375 -2 L 18.671875 -1.515625 L 18.59375 0 L 10.46875 0 L 10.390625 -1.515625 L 12.328125 -2 L 10.6875 -5.90625 L 10.359375 -6.9375 L 7.328125 -14.078125 L 8.203125 -13.828125 L 5.6875 -7.03125 L 5.421875 -6.109375 L 3.96875 -2 L 5.90625 -1.515625 L 5.8125 0 Z M 4.6875 -5.140625 L 4.6875 -7.203125 C 5.09375 -7.179688 5.546875 -7.15625 6.046875 -7.125 C 6.554688 -7.09375 7.234375 -7.078125 8.078125 -7.078125 C 8.890625 -7.078125 9.5625 -7.09375 10.09375 -7.125 C 10.632812 -7.15625 11.09375 -7.179688 11.46875 -7.203125 L 11.46875 -5.171875 C 11.09375 -5.171875 10.628906 -5.179688 10.078125 -5.203125 C 9.535156 -5.222656 8.867188 -5.234375 8.078125 -5.234375 C 7.253906 -5.234375 6.578125 -5.222656 6.046875 -5.203125 C 5.523438 -5.179688 5.070312 -5.160156 4.6875 -5.140625 Z M 4.6875 -5.140625 "/></g></g></g><g fill="#000000" fill-opacity="1"><g transform="translate(134.439842, 246.620389)"><g><path d="M 1.265625 0 L 1.1875 -1.515625 L 3.125 -2.03125 C 3.125 -2.144531 3.128906 -2.375 3.140625 -2.71875 C 3.148438 -3.0625 3.15625 -3.460938 3.15625 -3.921875 C 3.164062 -4.390625 3.175781 -4.863281 3.1875 -5.34375 C 3.195312 -5.832031 3.203125 -6.269531 3.203125 -6.65625 L 3.203125 -11.078125 C 3.203125 -11.929688 3.191406 -12.691406 3.171875 -13.359375 C 3.160156 -14.035156 3.140625 -14.585938 3.109375 -15.015625 C 3.078125 -15.441406 3.039062 -15.691406 3 -15.765625 L 1.0625 -16.25 L 1.15625 -17.765625 L 8.984375 -17.765625 C 11.304688 -17.765625 13.019531 -17.394531 14.125 -16.65625 C 15.238281 -15.925781 15.796875 -14.765625 15.796875 -13.171875 C 15.796875 -12.179688 15.492188 -11.296875 14.890625 -10.515625 C 14.285156 -9.742188 13.453125 -9.132812 12.390625 -8.6875 C 11.335938 -8.238281 10.125 -8.015625 8.75 -8.015625 L 6.78125 -8.015625 L 6.78125 -9.78125 L 8.140625 -9.78125 C 9.148438 -9.78125 9.960938 -10.085938 10.578125 -10.703125 C 11.191406 -11.316406 11.5 -12.140625 11.5 -13.171875 C 11.5 -14.117188 11.238281 -14.835938 10.71875 -15.328125 C 10.207031 -15.828125 9.460938 -16.078125 8.484375 -16.078125 L 7.328125 -16.078125 C 7.304688 -16.015625 7.289062 -15.84375 7.28125 -15.5625 C 7.269531 -15.28125 7.265625 -14.921875 7.265625 -14.484375 C 7.265625 -14.046875 7.265625 -13.5625 7.265625 -13.03125 C 7.265625 -12.5 7.265625 -11.929688 7.265625 -11.328125 L 7.265625 -6.65625 C 7.265625 -6.132812 7.269531 -5.5625 7.28125 -4.9375 C 7.289062 -4.3125 7.304688 -3.726562 7.328125 -3.1875 C 7.347656 -2.65625 7.367188 -2.269531 7.390625 -2.03125 L 9.078125 -1.515625 L 8.984375 0 Z M 17.078125 0.359375 C 15.941406 0.359375 14.9375 0.175781 14.0625 -0.1875 C 13.1875 -0.550781 12.398438 -1.113281 11.703125 -1.875 C 11.003906 -2.644531 10.382812 -3.613281 9.84375 -4.78125 L 8.109375 -8.5 L 11.46875 -9.296875 L 15.078125 -4.265625 C 15.503906 -3.679688 15.914062 -3.1875 16.3125 -2.78125 C 16.71875 -2.382812 17.140625 -2.054688 17.578125 -1.796875 C 18.023438 -1.546875 18.503906 -1.351562 19.015625 -1.21875 L 18.984375 0.1875 C 18.660156 0.238281 18.34375 0.28125 18.03125 0.3125 C 17.71875 0.34375 17.398438 0.359375 17.078125 0.359375 Z M 17.078125 0.359375 "/></g></g></g><g fill="#000000" fill-opacity="1"><g transform="translate(153.358355, 246.620389)"><g><path d="M 1.15625 -17.765625 L 9.5 -17.765625 C 12.769531 -17.765625 15.320312 -17.003906 17.15625 -15.484375 C 19 -13.960938 19.921875 -11.835938 19.921875 -9.109375 C 19.921875 -7.359375 19.484375 -5.789062 18.609375 -4.40625 C 17.742188 -3.019531 16.550781 -1.9375 15.03125 -1.15625 C 13.507812 -0.382812 11.769531 0 9.8125 0 L 1.15625 0 L 1.0625 -1.515625 L 3 -2 C 3.0625 -2.132812 3.109375 -2.640625 3.140625 -3.515625 C 3.179688 -4.398438 3.203125 -5.445312 3.203125 -6.65625 L 3.203125 -11.078125 C 3.203125 -12.347656 3.179688 -13.421875 3.140625 -14.296875 C 3.109375 -15.179688 3.0625 -15.671875 3 -15.765625 L 1.0625 -16.25 Z M 7.359375 -15.75 C 7.359375 -15.625 7.351562 -15.363281 7.34375 -14.96875 C 7.332031 -14.570312 7.320312 -14.054688 7.3125 -13.421875 C 7.300781 -12.785156 7.296875 -12.003906 7.296875 -11.078125 L 7.296875 -6.65625 C 7.296875 -6.132812 7.300781 -5.582031 7.3125 -5 C 7.320312 -4.425781 7.34375 -3.894531 7.375 -3.40625 C 7.40625 -2.925781 7.429688 -2.546875 7.453125 -2.265625 C 7.910156 -2.191406 8.363281 -2.128906 8.8125 -2.078125 C 9.269531 -2.023438 9.703125 -2 10.109375 -2 C 11.828125 -2 13.125 -2.492188 14 -3.484375 C 14.875 -4.472656 15.3125 -6.035156 15.3125 -8.171875 C 15.3125 -9.585938 15.148438 -10.789062 14.828125 -11.78125 C 14.503906 -12.769531 14.0625 -13.566406 13.5 -14.171875 C 12.9375 -14.773438 12.289062 -15.21875 11.5625 -15.5 C 10.832031 -15.78125 10.054688 -15.921875 9.234375 -15.921875 C 8.953125 -15.921875 8.648438 -15.90625 8.328125 -15.875 C 8.003906 -15.84375 7.679688 -15.800781 7.359375 -15.75 Z M 7.359375 -15.75 "/></g></g></g><g fill="#000000" fill-opacity="1"><g transform="translate(174.758977, 246.620389)"><g><path d="M 10.90625 0.265625 C 9.039062 0.265625 7.382812 -0.113281 5.9375 -0.875 C 4.5 -1.644531 3.367188 -2.703125 2.546875 -4.046875 C 1.734375 -5.390625 1.328125 -6.925781 1.328125 -8.65625 C 1.328125 -10.476562 1.734375 -12.09375 2.546875 -13.5 C 3.367188 -14.914062 4.503906 -16.023438 5.953125 -16.828125 C 7.410156 -17.640625 9.066406 -18.046875 10.921875 -18.046875 C 12.722656 -18.046875 14.304688 -17.664062 15.671875 -16.90625 C 17.046875 -16.144531 18.128906 -15.097656 18.921875 -13.765625 C 19.710938 -12.441406 20.109375 -10.890625 20.109375 -9.109375 C 20.109375 -7.554688 19.816406 -6.191406 19.234375 -5.015625 C 18.660156 -3.847656 17.914062 -2.867188 17 -2.078125 C 16.082031 -1.296875 15.085938 -0.707031 14.015625 -0.3125 C 12.941406 0.0703125 11.90625 0.265625 10.90625 0.265625 Z M 11.140625 -2 C 12.066406 -2 12.84375 -2.242188 13.46875 -2.734375 C 14.09375 -3.234375 14.5625 -3.957031 14.875 -4.90625 C 15.1875 -5.851562 15.34375 -7.003906 15.34375 -8.359375 C 15.34375 -9.910156 15.140625 -11.257812 14.734375 -12.40625 C 14.335938 -13.5625 13.785156 -14.457031 13.078125 -15.09375 C 12.367188 -15.726562 11.53125 -16.046875 10.5625 -16.046875 C 9.175781 -16.046875 8.085938 -15.46875 7.296875 -14.3125 C 6.503906 -13.164062 6.109375 -11.570312 6.109375 -9.53125 C 6.109375 -8.039062 6.328125 -6.726562 6.765625 -5.59375 C 7.203125 -4.46875 7.789062 -3.585938 8.53125 -2.953125 C 9.28125 -2.316406 10.148438 -2 11.140625 -2 Z M 11.140625 -2 "/></g></g></g><g fill="#000000" fill-opacity="1"><g transform="translate(196.189868, 246.620389)"><g/></g></g><g fill="#000000" fill-opacity="1"><g transform="translate(202.152984, 246.620389)"><g><path d="M 11.234375 0.265625 C 9.296875 0.265625 7.578125 -0.078125 6.078125 -0.765625 C 4.585938 -1.460938 3.421875 -2.460938 2.578125 -3.765625 C 1.742188 -5.066406 1.328125 -6.640625 1.328125 -8.484375 C 1.328125 -9.972656 1.585938 -11.304688 2.109375 -12.484375 C 2.640625 -13.671875 3.378906 -14.675781 4.328125 -15.5 C 5.273438 -16.320312 6.398438 -16.953125 7.703125 -17.390625 C 9.003906 -17.828125 10.429688 -18.046875 11.984375 -18.046875 C 12.910156 -18.046875 13.832031 -17.945312 14.75 -17.75 C 15.675781 -17.5625 16.441406 -17.316406 17.046875 -17.015625 L 17.203125 -12.71875 L 15.28125 -12.65625 L 14.34375 -15.4375 C 13.945312 -15.65625 13.503906 -15.8125 13.015625 -15.90625 C 12.535156 -16 12.09375 -16.046875 11.6875 -16.046875 C 10.519531 -16.046875 9.515625 -15.769531 8.671875 -15.21875 C 7.835938 -14.675781 7.207031 -13.898438 6.78125 -12.890625 C 6.351562 -11.890625 6.140625 -10.703125 6.140625 -9.328125 C 6.140625 -7.773438 6.398438 -6.429688 6.921875 -5.296875 C 7.453125 -4.171875 8.160156 -3.300781 9.046875 -2.6875 C 9.941406 -2.082031 10.921875 -1.78125 11.984375 -1.78125 C 12.285156 -1.78125 12.632812 -1.820312 13.03125 -1.90625 C 13.425781 -1.988281 13.773438 -2.117188 14.078125 -2.296875 L 13.4375 -0.671875 L 13.4375 -3.875 C 13.4375 -4.300781 13.425781 -4.753906 13.40625 -5.234375 C 13.382812 -5.722656 13.359375 -6.097656 13.328125 -6.359375 L 11.171875 -6.8125 L 11.265625 -8.390625 L 18.859375 -8.390625 L 18.953125 -6.875 L 17.4375 -6.390625 C 17.414062 -6.179688 17.410156 -5.863281 17.421875 -5.4375 C 17.429688 -5.019531 17.4375 -4.582031 17.4375 -4.125 C 17.4375 -3.78125 17.445312 -3.382812 17.46875 -2.9375 C 17.488281 -2.488281 17.507812 -1.960938 17.53125 -1.359375 C 16.644531 -0.816406 15.648438 -0.410156 14.546875 -0.140625 C 13.441406 0.128906 12.335938 0.265625 11.234375 0.265625 Z M 11.234375 0.265625 "/></g></g></g><g fill="#000000" fill-opacity="1"><g transform="translate(222.130933, 246.620389)"><g><path d="M -0.03125 0 L -0.125 -1.515625 L 1.453125 -2 L 7.59375 -16.890625 L 10.140625 -18.3125 L 17.109375 -2 L 18.671875 -1.515625 L 18.59375 0 L 10.46875 0 L 10.390625 -1.515625 L 12.328125 -2 L 10.6875 -5.90625 L 10.359375 -6.9375 L 7.328125 -14.078125 L 8.203125 -13.828125 L 5.6875 -7.03125 L 5.421875 -6.109375 L 3.96875 -2 L 5.90625 -1.515625 L 5.8125 0 Z M 4.6875 -5.140625 L 4.6875 -7.203125 C 5.09375 -7.179688 5.546875 -7.15625 6.046875 -7.125 C 6.554688 -7.09375 7.234375 -7.078125 8.078125 -7.078125 C 8.890625 -7.078125 9.5625 -7.09375 10.09375 -7.125 C 10.632812 -7.15625 11.09375 -7.179688 11.46875 -7.203125 L 11.46875 -5.171875 C 11.09375 -5.171875 10.628906 -5.179688 10.078125 -5.203125 C 9.535156 -5.222656 8.867188 -5.234375 8.078125 -5.234375 C 7.253906 -5.234375 6.578125 -5.222656 6.046875 -5.203125 C 5.523438 -5.179688 5.070312 -5.160156 4.6875 -5.140625 Z M 4.6875 -5.140625 "/></g></g></g><g fill="#000000" fill-opacity="1"><g transform="translate(240.565133, 246.620389)"><g><path d="M 1.265625 0 L 1.1875 -1.515625 L 3.125 -2.03125 C 3.125 -2.144531 3.128906 -2.375 3.140625 -2.71875 C 3.148438 -3.0625 3.15625 -3.460938 3.15625 -3.921875 C 3.164062 -4.390625 3.175781 -4.863281 3.1875 -5.34375 C 3.195312 -5.832031 3.203125 -6.269531 3.203125 -6.65625 L 3.203125 -11.078125 C 3.203125 -11.929688 3.191406 -12.691406 3.171875 -13.359375 C 3.160156 -14.035156 3.140625 -14.585938 3.109375 -15.015625 C 3.078125 -15.441406 3.039062 -15.691406 3 -15.765625 L 1.0625 -16.25 L 1.15625 -17.765625 L 8.984375 -17.765625 C 11.304688 -17.765625 13.019531 -17.394531 14.125 -16.65625 C 15.238281 -15.925781 15.796875 -14.765625 15.796875 -13.171875 C 15.796875 -12.179688 15.492188 -11.296875 14.890625 -10.515625 C 14.285156 -9.742188 13.453125 -9.132812 12.390625 -8.6875 C 11.335938 -8.238281 10.125 -8.015625 8.75 -8.015625 L 6.78125 -8.015625 L 6.78125 -9.78125 L 8.140625 -9.78125 C 9.148438 -9.78125 9.960938 -10.085938 10.578125 -10.703125 C 11.191406 -11.316406 11.5 -12.140625 11.5 -13.171875 C 11.5 -14.117188 11.238281 -14.835938 10.71875 -15.328125 C 10.207031 -15.828125 9.460938 -16.078125 8.484375 -16.078125 L 7.328125 -16.078125 C 7.304688 -16.015625 7.289062 -15.84375 7.28125 -15.5625 C 7.269531 -15.28125 7.265625 -14.921875 7.265625 -14.484375 C 7.265625 -14.046875 7.265625 -13.5625 7.265625 -13.03125 C 7.265625 -12.5 7.265625 -11.929688 7.265625 -11.328125 L 7.265625 -6.65625 C 7.265625 -6.132812 7.269531 -5.5625 7.28125 -4.9375 C 7.289062 -4.3125 7.304688 -3.726562 7.328125 -3.1875 C 7.347656 -2.65625 7.367188 -2.269531 7.390625 -2.03125 L 9.078125 -1.515625 L 8.984375 0 Z M 17.078125 0.359375 C 15.941406 0.359375 14.9375 0.175781 14.0625 -0.1875 C 13.1875 -0.550781 12.398438 -1.113281 11.703125 -1.875 C 11.003906 -2.644531 10.382812 -3.613281 9.84375 -4.78125 L 8.109375 -8.5 L 11.46875 -9.296875 L 15.078125 -4.265625 C 15.503906 -3.679688 15.914062 -3.1875 16.3125 -2.78125 C 16.71875 -2.382812 17.140625 -2.054688 17.578125 -1.796875 C 18.023438 -1.546875 18.503906 -1.351562 19.015625 -1.21875 L 18.984375 0.1875 C 18.660156 0.238281 18.34375 0.28125 18.03125 0.3125 C 17.71875 0.34375 17.398438 0.359375 17.078125 0.359375 Z M 17.078125 0.359375 "/></g></g></g><g fill="#000000" fill-opacity="1"><g transform="translate(259.483646, 246.620389)"><g><path d="M 11.328125 0.265625 C 9.367188 0.265625 7.640625 -0.078125 6.140625 -0.765625 C 4.648438 -1.460938 3.484375 -2.472656 2.640625 -3.796875 C 1.804688 -5.117188 1.390625 -6.71875 1.390625 -8.59375 C 1.390625 -10.050781 1.644531 -11.363281 2.15625 -12.53125 C 2.675781 -13.707031 3.414062 -14.703125 4.375 -15.515625 C 5.332031 -16.328125 6.457031 -16.953125 7.75 -17.390625 C 9.039062 -17.828125 10.453125 -18.046875 11.984375 -18.046875 C 12.910156 -18.046875 13.835938 -17.945312 14.765625 -17.75 C 15.703125 -17.5625 16.492188 -17.316406 17.140625 -17.015625 L 17.34375 -12.375 L 15.46875 -12.265625 L 14.40625 -15.4375 C 14.019531 -15.644531 13.59375 -15.796875 13.125 -15.890625 C 12.664062 -15.992188 12.195312 -16.046875 11.71875 -16.046875 C 10.539062 -16.046875 9.546875 -15.769531 8.734375 -15.21875 C 7.929688 -14.675781 7.316406 -13.898438 6.890625 -12.890625 C 6.472656 -11.890625 6.265625 -10.703125 6.265625 -9.328125 C 6.265625 -7.773438 6.519531 -6.4375 7.03125 -5.3125 C 7.550781 -4.195312 8.242188 -3.332031 9.109375 -2.71875 C 9.984375 -2.113281 10.953125 -1.8125 12.015625 -1.8125 C 12.578125 -1.8125 13.125 -1.882812 13.65625 -2.03125 C 14.195312 -2.1875 14.648438 -2.414062 15.015625 -2.71875 L 16.109375 -5.515625 L 18.140625 -5.296875 L 17.25 -1.265625 C 16.625 -0.867188 15.769531 -0.515625 14.6875 -0.203125 C 13.613281 0.109375 12.492188 0.265625 11.328125 0.265625 Z M 11.328125 0.265625 "/></g></g></g><g fill="#000000" fill-opacity="1"><g transform="translate(278.31135, 246.620389)"><g><path d="M 1.15625 0 L 1.0625 -1.515625 L 2.96875 -2 C 3.007812 -2.101562 3.046875 -2.363281 3.078125 -2.78125 C 3.109375 -3.207031 3.128906 -3.757812 3.140625 -4.4375 C 3.160156 -5.113281 3.171875 -5.851562 3.171875 -6.65625 L 3.171875 -11.078125 C 3.171875 -11.929688 3.160156 -12.691406 3.140625 -13.359375 C 3.128906 -14.035156 3.109375 -14.59375 3.078125 -15.03125 C 3.046875 -15.46875 3.007812 -15.710938 2.96875 -15.765625 L 1.0625 -16.25 L 1.15625 -17.765625 L 9.296875 -17.765625 L 9.390625 -16.25 L 7.453125 -15.765625 C 7.410156 -15.691406 7.375 -15.4375 7.34375 -15 C 7.3125 -14.5625 7.289062 -14.003906 7.28125 -13.328125 C 7.269531 -12.660156 7.265625 -11.910156 7.265625 -11.078125 L 7.265625 -6.65625 C 7.265625 -5.875 7.269531 -5.148438 7.28125 -4.484375 C 7.289062 -3.816406 7.3125 -3.265625 7.34375 -2.828125 C 7.375 -2.398438 7.410156 -2.125 7.453125 -2 L 9.390625 -1.515625 L 9.296875 0 Z M 1.15625 0 "/></g></g></g><g fill="#000000" fill-opacity="1"><g transform="translate(288.754381, 246.620389)"><g><path d="M -0.03125 0 L -0.125 -1.515625 L 1.453125 -2 L 7.59375 -16.890625 L 10.140625 -18.3125 L 17.109375 -2 L 18.671875 -1.515625 L 18.59375 0 L 10.46875 0 L 10.390625 -1.515625 L 12.328125 -2 L 10.6875 -5.90625 L 10.359375 -6.9375 L 7.328125 -14.078125 L 8.203125 -13.828125 L 5.6875 -7.03125 L 5.421875 -6.109375 L 3.96875 -2 L 5.90625 -1.515625 L 5.8125 0 Z M 4.6875 -5.140625 L 4.6875 -7.203125 C 5.09375 -7.179688 5.546875 -7.15625 6.046875 -7.125 C 6.554688 -7.09375 7.234375 -7.078125 8.078125 -7.078125 C 8.890625 -7.078125 9.5625 -7.09375 10.09375 -7.125 C 10.632812 -7.15625 11.09375 -7.179688 11.46875 -7.203125 L 11.46875 -5.171875 C 11.09375 -5.171875 10.628906 -5.179688 10.078125 -5.203125 C 9.535156 -5.222656 8.867188 -5.234375 8.078125 -5.234375 C 7.253906 -5.234375 6.578125 -5.222656 6.046875 -5.203125 C 5.523438 -5.179688 5.070312 -5.160156 4.6875 -5.140625 Z M 4.6875 -5.140625 "/></g></g></g><g fill="#000000" fill-opacity="1"><g transform="translate(94.110156, 267.620433)"><g><path d="M 4.058594 0 C 7.65625 0 9.640625 -1.917969 9.640625 -5.332031 C 9.640625 -8.761719 7.667969 -10.679688 4.058594 -10.679688 L 0.953125 -10.679688 L 0.953125 0 Z M 2.96875 -8.871094 L 4.042969 -8.871094 C 6.199219 -8.871094 7.628906 -7.808594 7.628906 -5.332031 C 7.628906 -2.6875 6.15625 -1.804688 4.03125 -1.804688 L 2.96875 -1.804688 Z M 2.96875 -8.871094 "/></g></g></g><g fill="#000000" fill-opacity="1"><g transform="translate(105.696475, 267.620433)"><g><path d="M 8.074219 0 L 8.074219 -1.804688 L 2.96875 -1.804688 L 2.96875 -4.449219 L 7.542969 -4.449219 L 7.542969 -6.242188 L 2.96875 -6.242188 L 2.96875 -8.871094 L 8.074219 -8.871094 L 8.074219 -10.679688 L 0.953125 -10.679688 L 0.953125 0 Z M 8.074219 0 "/></g></g></g><g fill="#000000" fill-opacity="1"><g transform="translate(115.785632, 267.620433)"><g><path d="M 5.191406 0.195312 C 7.710938 0.195312 9.179688 -1.078125 9.179688 -3.09375 C 9.179688 -5.515625 7.066406 -5.988281 5.289062 -6.382812 C 3.988281 -6.675781 2.839844 -6.925781 2.839844 -7.90625 C 2.839844 -8.71875 3.570312 -9.152344 4.578125 -9.152344 C 5.667969 -9.152344 6.578125 -8.636719 6.84375 -7.5 L 8.902344 -7.5 C 8.566406 -9.808594 6.675781 -10.875 4.617188 -10.875 C 2.464844 -10.875 0.839844 -9.796875 0.839844 -7.738281 C 0.839844 -5.484375 2.828125 -5.050781 4.578125 -4.660156 C 5.933594 -4.367188 7.152344 -4.101562 7.152344 -2.996094 C 7.152344 -1.972656 6.3125 -1.527344 5.207031 -1.527344 C 4.085938 -1.527344 2.925781 -1.945312 2.574219 -3.472656 L 0.488281 -3.472656 C 0.753906 -0.714844 3.136719 0.195312 5.191406 0.195312 Z M 5.191406 0.195312 "/></g></g></g><g fill="#000000" fill-opacity="1"><g transform="translate(126.924201, 267.620433)"><g><path d="M 8.074219 0 L 8.074219 -1.804688 L 2.96875 -1.804688 L 2.96875 -4.449219 L 7.542969 -4.449219 L 7.542969 -6.242188 L 2.96875 -6.242188 L 2.96875 -8.871094 L 8.074219 -8.871094 L 8.074219 -10.679688 L 0.953125 -10.679688 L 0.953125 0 Z M 8.074219 0 "/></g></g></g><g fill="#000000" fill-opacity="1"><g transform="translate(137.013358, 267.620433)"><g><path d="M 2.96875 0 L 2.96875 -7.65625 L 7.332031 0 L 9.613281 0 L 9.613281 -10.679688 L 7.597656 -10.679688 L 7.597656 -3.035156 L 3.21875 -10.679688 L 0.953125 -10.679688 L 0.953125 0 Z M 2.96875 0 "/></g></g></g><g fill="#000000" fill-opacity="1"><g transform="translate(148.97746, 267.620433)"><g><path d="M 6.019531 0 L 9.78125 -10.679688 L 7.667969 -10.679688 L 4.914062 -2.210938 L 2.15625 -10.679688 L 0.0429688 -10.679688 L 3.804688 0 Z M 6.019531 0 "/></g></g></g><g fill="#000000" fill-opacity="1"><g transform="translate(160.199982, 267.620433)"><g><path d="M 5.722656 0.195312 C 9.265625 0.195312 10.917969 -2.394531 10.917969 -5.347656 C 10.917969 -8.300781 9.265625 -10.875 5.722656 -10.875 C 2.195312 -10.875 0.546875 -8.300781 0.546875 -5.347656 C 0.546875 -2.394531 2.195312 0.195312 5.722656 0.195312 Z M 5.722656 -1.609375 C 3.777344 -1.609375 2.644531 -3.121094 2.644531 -5.347656 C 2.644531 -7.558594 3.777344 -9.054688 5.722656 -9.054688 C 7.695312 -9.054688 8.816406 -7.558594 8.816406 -5.347656 C 8.816406 -3.121094 7.695312 -1.609375 5.722656 -1.609375 Z M 5.722656 -1.609375 "/></g></g></g><g fill="#000000" fill-opacity="1"><g transform="translate(173.073577, 267.620433)"><g><path d="M 7.488281 0 L 7.488281 -1.804688 L 2.96875 -1.804688 L 2.96875 -10.679688 L 0.953125 -10.679688 L 0.953125 0 Z M 7.488281 0 "/></g></g></g><g fill="#000000" fill-opacity="1"><g transform="translate(182.113311, 267.620433)"><g><path d="M 6.019531 0 L 9.78125 -10.679688 L 7.667969 -10.679688 L 4.914062 -2.210938 L 2.15625 -10.679688 L 0.0429688 -10.679688 L 3.804688 0 Z M 6.019531 0 "/></g></g></g><g fill="#000000" fill-opacity="1"><g transform="translate(193.335838, 267.620433)"><g><path d="M 8.074219 0 L 8.074219 -1.804688 L 2.96875 -1.804688 L 2.96875 -4.449219 L 7.542969 -4.449219 L 7.542969 -6.242188 L 2.96875 -6.242188 L 2.96875 -8.871094 L 8.074219 -8.871094 L 8.074219 -10.679688 L 0.953125 -10.679688 L 0.953125 0 Z M 8.074219 0 "/></g></g></g><g fill="#000000" fill-opacity="1"><g transform="translate(203.424995, 267.620433)"><g><path d="M 4.058594 0 C 7.65625 0 9.640625 -1.917969 9.640625 -5.332031 C 9.640625 -8.761719 7.667969 -10.679688 4.058594 -10.679688 L 0.953125 -10.679688 L 0.953125 0 Z M 2.96875 -8.871094 L 4.042969 -8.871094 C 6.199219 -8.871094 7.628906 -7.808594 7.628906 -5.332031 C 7.628906 -2.6875 6.15625 -1.804688 4.03125 -1.804688 L 2.96875 -1.804688 Z M 2.96875 -8.871094 "/></g></g></g><g fill="#000000" fill-opacity="1"><g transform="translate(215.011313, 267.620433)"><g><path d="M 5.722656 0.195312 C 9.265625 0.195312 10.917969 -2.394531 10.917969 -5.347656 C 10.917969 -8.300781 9.265625 -10.875 5.722656 -10.875 C 2.195312 -10.875 0.546875 -8.300781 0.546875 -5.347656 C 0.546875 -2.394531 2.195312 0.195312 5.722656 0.195312 Z M 5.722656 -1.609375 C 3.777344 -1.609375 2.644531 -3.121094 2.644531 -5.347656 C 2.644531 -7.558594 3.777344 -9.054688 5.722656 -9.054688 C 7.695312 -9.054688 8.816406 -7.558594 8.816406 -5.347656 C 8.816406 -3.121094 7.695312 -1.609375 5.722656 -1.609375 Z M 5.722656 -1.609375 "/></g></g></g><g fill="#000000" fill-opacity="1"><g transform="translate(227.884908, 267.620433)"><g><path d="M 7.261719 -4.632812 C 8.300781 -5.121094 8.941406 -6.128906 8.941406 -7.53125 C 8.941406 -9.742188 7.558594 -10.679688 5.554688 -10.679688 L 0.953125 -10.679688 L 0.953125 0 L 2.96875 0 L 2.96875 -4.269531 L 5.347656 -4.269531 L 7.039062 0 L 9.179688 0 Z M 5.277344 -8.871094 C 6.339844 -8.871094 6.941406 -8.367188 6.941406 -7.460938 C 6.941406 -6.523438 6.355469 -6.03125 5.277344 -6.03125 L 2.96875 -6.03125 L 2.96875 -8.871094 Z M 5.277344 -8.871094 "/></g></g></g><g fill="#000000" fill-opacity="1"><g transform="translate(238.925527, 267.620433)"><g/></g></g><g fill="#000000" fill-opacity="1"><g transform="translate(244.075436, 267.620433)"><g><path d="M 6.019531 0 L 7.78125 -8.269531 L 9.558594 0 L 12.566406 0 L 15.367188 -10.679688 L 13.253906 -10.679688 L 11.054688 -1.804688 L 9.070312 -10.679688 L 6.507812 -10.679688 L 4.519531 -1.820312 L 2.324219 -10.679688 L 0.210938 -10.679688 L 2.996094 0 Z M 6.019531 0 "/></g></g></g><g fill="#000000" fill-opacity="1"><g transform="translate(261.034755, 267.620433)"><g><path d="M 8.074219 0 L 8.074219 -1.804688 L 2.96875 -1.804688 L 2.96875 -4.449219 L 7.542969 -4.449219 L 7.542969 -6.242188 L 2.96875 -6.242188 L 2.96875 -8.871094 L 8.074219 -8.871094 L 8.074219 -10.679688 L 0.953125 -10.679688 L 0.953125 0 Z M 8.074219 0 "/></g></g></g><g fill="#000000" fill-opacity="1"><g transform="translate(271.123912, 267.620433)"><g><path d="M 5.359375 0 C 5.960938 0 7.320312 -0.0820312 8.257812 -0.839844 C 8.804688 -1.300781 9.207031 -2.085938 9.207031 -3.105469 C 9.207031 -4.476562 8.453125 -5.386719 7.082031 -5.613281 C 8.089844 -5.878906 8.664062 -6.789062 8.664062 -8.003906 C 8.664062 -8.761719 8.453125 -9.363281 8.003906 -9.808594 C 7.429688 -10.382812 6.492188 -10.679688 5.179688 -10.679688 L 0.953125 -10.679688 L 0.953125 0 Z M 2.96875 -8.871094 L 4.730469 -8.871094 C 5.472656 -8.871094 5.949219 -8.761719 6.253906 -8.496094 C 6.507812 -8.300781 6.632812 -7.992188 6.632812 -7.570312 C 6.632812 -6.703125 6.074219 -6.242188 5.050781 -6.242188 L 2.96875 -6.242188 Z M 2.96875 -4.605469 L 5.332031 -4.605469 C 6.171875 -4.605469 7.179688 -4.507812 7.179688 -3.261719 C 7.179688 -2.757812 7.039062 -2.433594 6.789062 -2.226562 C 6.355469 -1.847656 5.652344 -1.804688 5.109375 -1.804688 L 2.96875 -1.804688 Z M 2.96875 -4.605469 "/></g></g></g><g clip-path="url(#eaddd961be)"><path fill="#ff6100" d="M 217.632812 185.148438 L 118.375 185.148438 L 118.375 132.441406 C 118.375 132.207031 118.566406 132.015625 118.800781 132.015625 L 217.207031 132.015625 C 217.4375 132.015625 217.632812 132.207031 217.632812 132.441406 Z M 178.882812 195.363281 C 178.371094 195.871094 177.664062 196.191406 176.886719 196.191406 L 159.121094 196.191406 C 157.558594 196.191406 156.292969 194.921875 156.292969 193.363281 C 156.292969 192.578125 156.609375 191.871094 157.121094 191.363281 C 157.632812 190.851562 158.339844 190.535156 159.121094 190.535156 L 176.886719 190.535156 C 178.445312 190.535156 179.710938 191.800781 179.710938 193.363281 C 179.710938 194.140625 179.394531 194.847656 178.882812 195.363281 Z M 217.207031 127.269531 L 118.800781 127.269531 C 115.949219 127.269531 113.625 129.589844 113.625 132.441406 L 113.625 195.054688 C 113.625 197.90625 115.949219 200.230469 118.800781 200.230469 L 217.207031 200.230469 C 220.058594 200.230469 222.378906 197.90625 222.378906 195.054688 L 222.378906 132.441406 C 222.378906 129.589844 220.058594 127.269531 217.207031 127.269531 " fill-opacity="1" fill-rule="nonzero"/></g><path fill="#ff6100" d="M 178.289062 193.363281 C 178.289062 193.738281 178.140625 194.089844 177.875 194.355469 C 177.609375 194.621094 177.261719 194.765625 176.886719 194.765625 L 159.121094 194.765625 C 158.347656 194.765625 157.71875 194.136719 157.71875 193.363281 C 157.71875 192.984375 157.863281 192.632812 158.132812 192.367188 C 158.394531 192.101562 158.746094 191.957031 159.121094 191.957031 L 176.886719 191.957031 C 177.65625 191.957031 178.289062 192.585938 178.289062 193.363281 " fill-opacity="1" fill-rule="nonzero"/><g clip-path="url(#41b34f753b)"><path fill="#ff6100" d="M 199.984375 217.199219 L 136.023438 217.199219 C 137.292969 213.476562 140.824219 210.789062 144.976562 210.789062 L 191.03125 210.789062 C 195.183594 210.789062 198.714844 213.476562 199.984375 217.199219 " fill-opacity="1" fill-rule="nonzero"/></g><path fill="#ff6100" d="M 180.179688 209.070312 L 155.828125 209.070312 L 158.222656 201.949219 L 177.78125 201.949219 L 180.179688 209.070312 " fill-opacity="1" fill-rule="nonzero"/><g clip-path="url(#3376502135)"><path fill="#8ac0c8" d="M 146.558594 139.460938 L 142.378906 139.460938 L 142.378906 141.109375 L 146.558594 141.109375 Z M 147.960938 143.199219 L 134.355469 143.199219 L 134.355469 144.847656 L 147.960938 144.847656 Z M 166.503906 146.9375 L 159.941406 146.9375 L 159.941406 148.585938 L 166.503906 148.585938 Z M 143.058594 150.675781 L 134.355469 150.675781 L 134.355469 152.324219 L 143.058594 152.324219 Z M 153.21875 154.410156 L 134.355469 154.410156 L 134.355469 156.0625 L 153.21875 156.0625 Z M 165.382812 156.0625 L 184.246094 156.0625 L 184.246094 154.410156 L 165.382812 154.410156 Z M 179.289062 165.625 L 179.289062 167.273438 L 191.644531 167.273438 L 191.644531 165.625 Z M 148.355469 167.273438 L 177.648438 167.273438 L 177.648438 165.625 L 148.355469 165.625 Z M 134.355469 171.011719 L 146.445312 171.011719 L 146.445312 169.363281 L 134.355469 169.363281 L 134.355469 171.011719 " fill-opacity="1" fill-rule="nonzero"/></g><path fill="#18bd9c" d="M 172.210938 143.199219 L 158.609375 143.199219 L 158.609375 144.847656 L 172.210938 144.847656 Z M 158.300781 146.9375 L 134.355469 146.9375 L 134.355469 148.585938 L 158.300781 148.585938 Z M 154.59375 159.800781 L 171.050781 159.800781 L 171.050781 158.148438 L 154.59375 158.148438 Z M 146.710938 165.625 L 134.355469 165.625 L 134.355469 167.273438 L 146.710938 167.273438 Z M 169.839844 169.363281 L 169.839844 171.011719 L 173.371094 171.011719 L 173.371094 169.363281 Z M 141.933594 174.75 L 169.980469 174.75 L 169.980469 173.097656 L 141.933594 173.097656 L 141.933594 174.75 " fill-opacity="1" fill-rule="nonzero"/><g clip-path="url(#59c9d09ee3)"><path fill="#fcde82" d="M 125.644531 137.375 L 127.289062 137.375 L 127.289062 135.722656 L 125.644531 135.722656 Z M 125.644531 141.109375 L 127.289062 141.109375 L 127.289062 139.460938 L 125.644531 139.460938 Z M 156.964844 143.199219 L 149.601562 143.199219 L 149.601562 144.847656 L 156.964844 144.847656 Z M 125.644531 144.847656 L 127.289062 144.847656 L 127.289062 143.199219 L 125.644531 143.199219 Z M 125.644531 148.585938 L 127.289062 148.585938 L 127.289062 146.9375 L 125.644531 146.9375 Z M 162.757812 150.675781 L 144.699219 150.675781 L 144.699219 152.324219 L 162.757812 152.324219 Z M 125.644531 152.324219 L 127.289062 152.324219 L 127.289062 150.675781 L 125.644531 150.675781 Z M 125.644531 156.0625 L 127.289062 156.0625 L 127.289062 154.410156 L 125.644531 154.410156 Z M 152.953125 158.148438 L 134.355469 158.148438 L 134.355469 159.800781 L 152.953125 159.800781 Z M 125.644531 159.800781 L 127.289062 159.800781 L 127.289062 158.148438 L 125.644531 158.148438 Z M 125.644531 163.535156 L 127.289062 163.535156 L 127.289062 161.886719 L 125.644531 161.886719 Z M 125.644531 167.273438 L 127.289062 167.273438 L 127.289062 165.625 L 125.644531 165.625 Z M 148.085938 169.363281 L 148.085938 171.011719 L 168.199219 171.011719 L 168.199219 169.363281 Z M 125.644531 171.011719 L 127.289062 171.011719 L 127.289062 169.363281 L 125.644531 169.363281 Z M 134.355469 174.75 L 140.292969 174.75 L 140.292969 173.097656 L 134.355469 173.097656 Z M 125.644531 174.75 L 127.289062 174.75 L 127.289062 173.097656 L 125.644531 173.097656 Z M 125.644531 178.488281 L 127.289062 178.488281 L 127.289062 176.835938 L 125.644531 176.835938 Z M 130.128906 182.878906 L 130.933594 182.878906 L 130.933594 134.320312 L 130.128906 134.320312 L 130.128906 182.878906 " fill-opacity="1" fill-rule="nonzero"/></g><g clip-path="url(#d5609aed9c)"><path fill="#f49c10" d="M 140.738281 139.460938 L 132.382812 139.460938 L 132.382812 141.109375 L 140.738281 141.109375 Z M 168.144531 146.9375 L 168.144531 148.585938 L 178.363281 148.585938 L 178.363281 146.9375 Z M 154.859375 156.0625 L 163.742188 156.0625 L 163.742188 154.410156 L 154.859375 154.410156 Z M 132.382812 163.535156 L 141.539062 163.535156 L 141.539062 161.886719 L 132.382812 161.886719 Z M 138.242188 176.835938 L 132.382812 176.835938 L 132.382812 178.488281 L 138.242188 178.488281 Z M 137.582031 138.132812 C 137.652344 138.132812 137.71875 138.105469 137.769531 138.054688 L 140.226562 135.585938 C 140.332031 135.480469 140.332031 135.308594 140.226562 135.203125 C 140.125 135.097656 139.953125 135.097656 139.847656 135.203125 L 137.394531 137.671875 C 137.289062 137.777344 137.289062 137.949219 137.394531 138.054688 C 137.445312 138.105469 137.515625 138.132812 137.582031 138.132812 Z M 135.542969 138.199219 C 135.59375 138.253906 135.660156 138.277344 135.730469 138.277344 C 135.796875 138.277344 135.867188 138.253906 135.917969 138.199219 C 136.023438 138.09375 136.023438 137.925781 135.921875 137.820312 L 134.734375 136.628906 L 135.917969 135.4375 C 136.023438 135.332031 136.023438 135.164062 135.917969 135.058594 C 135.816406 134.953125 135.644531 134.953125 135.542969 135.058594 L 134.167969 136.4375 C 134.0625 136.542969 134.0625 136.714844 134.167969 136.820312 Z M 142.152344 135.058594 C 142.046875 134.953125 141.878906 134.953125 141.773438 135.058594 C 141.671875 135.164062 141.671875 135.332031 141.773438 135.4375 L 142.960938 136.628906 L 141.773438 137.820312 C 141.671875 137.925781 141.671875 138.09375 141.773438 138.199219 C 141.828125 138.253906 141.894531 138.277344 141.964844 138.277344 C 142.03125 138.277344 142.101562 138.253906 142.152344 138.199219 L 143.527344 136.820312 C 143.578125 136.769531 143.605469 136.699219 143.605469 136.628906 C 143.605469 136.554688 143.578125 136.488281 143.527344 136.4375 Z M 142.152344 179.789062 C 142.046875 179.683594 141.878906 179.683594 141.773438 179.789062 C 141.671875 179.894531 141.671875 180.066406 141.773438 180.167969 L 142.960938 181.359375 L 141.773438 182.550781 C 141.667969 182.65625 141.667969 182.828125 141.773438 182.933594 C 141.828125 182.984375 141.894531 183.011719 141.964844 183.011719 C 142.03125 183.011719 142.101562 182.984375 142.152344 182.933594 L 143.527344 181.550781 C 143.578125 181.5 143.605469 181.433594 143.605469 181.359375 C 143.605469 181.289062 143.578125 181.21875 143.527344 181.171875 Z M 135.921875 179.789062 C 135.816406 179.683594 135.644531 179.683594 135.542969 179.789062 L 134.167969 181.171875 C 134.0625 181.273438 134.0625 181.445312 134.167969 181.550781 L 135.542969 182.933594 C 135.59375 182.984375 135.664062 183.011719 135.730469 183.011719 C 135.800781 183.011719 135.867188 182.984375 135.921875 182.933594 C 136.023438 182.828125 136.023438 182.65625 135.921875 182.550781 L 134.734375 181.359375 L 135.921875 180.167969 C 136.023438 180.0625 136.023438 179.894531 135.921875 179.789062 Z M 139.847656 179.9375 L 137.394531 182.40625 C 137.289062 182.507812 137.289062 182.679688 137.394531 182.785156 C 137.445312 182.835938 137.515625 182.863281 137.582031 182.863281 C 137.652344 182.863281 137.71875 182.835938 137.773438 182.785156 L 140.226562 180.316406 C 140.332031 180.210938 140.332031 180.042969 140.226562 179.9375 C 140.125 179.832031 139.953125 179.832031 139.847656 179.9375 " fill-opacity="1" fill-rule="nonzero"/></g><g clip-path="url(#7283b5e275)"><path fill="#ffffff" d="M 204.699219 158.640625 L 246.886719 158.640625 L 246.886719 213.132812 L 204.699219 213.132812 Z M 204.699219 158.640625 " fill-opacity="1" fill-rule="nonzero"/></g><g clip-path="url(#47c9749eb8)"><path fill="#000000" d="M 246.335938 213.453125 L 204.671875 213.453125 L 204.671875 159.25 L 246.335938 159.25 Z M 225.503906 216.859375 C 224.765625 216.859375 224.164062 216.253906 224.164062 215.503906 C 224.164062 214.753906 224.765625 214.144531 225.503906 214.144531 C 226.246094 214.144531 226.84375 214.753906 226.84375 215.503906 C 226.84375 216.253906 226.246094 216.859375 225.503906 216.859375 Z M 225.34375 157.707031 C 225.523438 157.617188 225.734375 157.691406 225.824219 157.867188 C 225.910156 158.046875 225.839844 158.261719 225.664062 158.351562 C 225.488281 158.441406 225.273438 158.367188 225.183594 158.191406 C 225.097656 158.011719 225.167969 157.792969 225.34375 157.707031 Z M 246.042969 156.808594 L 204.964844 156.808594 C 203.472656 156.808594 202.261719 158.035156 202.261719 159.546875 L 202.261719 214.816406 C 202.261719 216.328125 203.472656 217.554688 204.964844 217.554688 L 246.042969 217.554688 C 247.535156 217.554688 248.75 216.328125 248.75 214.816406 L 248.75 159.546875 C 248.75 158.035156 247.535156 156.808594 246.042969 156.808594 " fill-opacity="1" fill-rule="nonzero"/></g><g clip-path="url(#6a63be2676)"><path fill="#8ac0c8" d="M 219.445312 163.675781 L 217.261719 163.675781 L 217.261719 164.539062 L 219.445312 164.539062 Z M 220.179688 165.628906 L 213.066406 165.628906 L 213.066406 166.492188 L 220.179688 166.492188 Z M 229.871094 167.585938 L 226.441406 167.585938 L 226.441406 168.449219 L 229.871094 168.449219 Z M 217.617188 169.539062 L 213.066406 169.539062 L 213.066406 170.402344 L 217.617188 170.402344 Z M 222.929688 171.496094 L 213.066406 171.496094 L 213.066406 172.359375 L 222.929688 172.359375 Z M 229.285156 172.359375 L 239.148438 172.359375 L 239.148438 171.496094 L 229.285156 171.496094 Z M 236.554688 177.359375 L 236.554688 178.222656 L 243.015625 178.222656 L 243.015625 177.359375 Z M 220.382812 178.222656 L 235.695312 178.222656 L 235.695312 177.359375 L 220.382812 177.359375 Z M 213.066406 180.179688 L 219.386719 180.179688 L 219.386719 179.316406 L 213.066406 179.316406 L 213.066406 180.179688 " fill-opacity="1" fill-rule="nonzero"/></g><path fill="#18bd9c" d="M 232.855469 165.628906 L 225.746094 165.628906 L 225.746094 166.492188 L 232.855469 166.492188 Z M 225.585938 167.585938 L 213.066406 167.585938 L 213.066406 168.449219 L 225.585938 168.449219 Z M 223.648438 174.3125 L 232.25 174.3125 L 232.25 173.449219 L 223.648438 173.449219 Z M 219.527344 177.359375 L 213.066406 177.359375 L 213.066406 178.222656 L 219.527344 178.222656 Z M 231.617188 179.316406 L 231.617188 180.179688 L 233.460938 180.179688 L 233.460938 179.316406 Z M 217.03125 182.132812 L 231.691406 182.132812 L 231.691406 181.269531 L 217.03125 181.269531 L 217.03125 182.132812 " fill-opacity="1" fill-rule="nonzero"/><g clip-path="url(#65153d9999)"><path fill="#fcde82" d="M 208.515625 162.582031 L 209.371094 162.582031 L 209.371094 161.71875 L 208.515625 161.71875 Z M 208.515625 164.539062 L 209.371094 164.539062 L 209.371094 163.675781 L 208.515625 163.675781 Z M 224.886719 165.628906 L 221.039062 165.628906 L 221.039062 166.492188 L 224.886719 166.492188 Z M 208.515625 166.492188 L 209.371094 166.492188 L 209.371094 165.628906 L 208.515625 165.628906 Z M 208.515625 168.449219 L 209.371094 168.449219 L 209.371094 167.585938 L 208.515625 167.585938 Z M 227.914062 169.539062 L 218.472656 169.539062 L 218.472656 170.402344 L 227.914062 170.402344 Z M 208.515625 170.402344 L 209.371094 170.402344 L 209.371094 169.539062 L 208.515625 169.539062 Z M 208.515625 172.359375 L 209.371094 172.359375 L 209.371094 171.496094 L 208.515625 171.496094 Z M 222.789062 173.449219 L 213.066406 173.449219 L 213.066406 174.3125 L 222.789062 174.3125 Z M 208.515625 174.3125 L 209.371094 174.3125 L 209.371094 173.449219 L 208.515625 173.449219 Z M 208.515625 176.269531 L 209.371094 176.269531 L 209.371094 175.40625 L 208.515625 175.40625 Z M 208.515625 178.222656 L 209.371094 178.222656 L 209.371094 177.359375 L 208.515625 177.359375 Z M 220.246094 179.316406 L 220.246094 180.179688 L 230.757812 180.179688 L 230.757812 179.316406 Z M 208.515625 180.179688 L 209.371094 180.179688 L 209.371094 179.316406 L 208.515625 179.316406 Z M 213.066406 182.132812 L 216.171875 182.132812 L 216.171875 181.269531 L 213.066406 181.269531 Z M 208.515625 182.132812 L 209.371094 182.132812 L 209.371094 181.269531 L 208.515625 181.269531 Z M 208.515625 184.089844 L 209.371094 184.089844 L 209.371094 183.226562 L 208.515625 183.226562 Z M 210.859375 186.386719 L 211.277344 186.386719 L 211.277344 160.984375 L 210.859375 160.984375 L 210.859375 186.386719 " fill-opacity="1" fill-rule="nonzero"/></g><g clip-path="url(#2e89652e4a)"><path fill="#f49c10" d="M 216.402344 163.675781 L 212.039062 163.675781 L 212.039062 164.539062 L 216.402344 164.539062 Z M 230.730469 167.585938 L 230.730469 168.449219 L 236.070312 168.449219 L 236.070312 167.585938 Z M 223.785156 172.359375 L 228.429688 172.359375 L 228.429688 171.496094 L 223.785156 171.496094 Z M 212.039062 176.269531 L 216.824219 176.269531 L 216.824219 175.40625 L 212.039062 175.40625 Z M 215.097656 183.226562 L 212.039062 183.226562 L 212.039062 184.089844 L 215.097656 184.089844 Z M 214.753906 162.980469 C 214.789062 162.980469 214.824219 162.964844 214.851562 162.9375 L 216.136719 161.648438 C 216.191406 161.59375 216.191406 161.503906 216.136719 161.449219 C 216.082031 161.394531 215.992188 161.394531 215.9375 161.449219 L 214.65625 162.738281 C 214.601562 162.792969 214.601562 162.882812 214.65625 162.9375 C 214.683594 162.964844 214.71875 162.980469 214.753906 162.980469 Z M 213.6875 163.015625 C 213.714844 163.042969 213.75 163.054688 213.785156 163.054688 C 213.820312 163.054688 213.859375 163.042969 213.886719 163.015625 C 213.941406 162.960938 213.941406 162.871094 213.886719 162.816406 L 213.265625 162.191406 L 213.886719 161.570312 C 213.941406 161.515625 213.941406 161.425781 213.886719 161.371094 C 213.832031 161.316406 213.742188 161.316406 213.6875 161.371094 L 212.96875 162.09375 C 212.914062 162.148438 212.914062 162.238281 212.96875 162.292969 Z M 217.144531 161.371094 C 217.089844 161.316406 217 161.316406 216.945312 161.371094 C 216.890625 161.425781 216.890625 161.515625 216.945312 161.570312 L 217.566406 162.191406 L 216.945312 162.816406 C 216.890625 162.871094 216.890625 162.960938 216.945312 163.015625 C 216.972656 163.042969 217.007812 163.054688 217.042969 163.054688 C 217.078125 163.054688 217.117188 163.042969 217.144531 163.015625 L 217.863281 162.292969 C 217.886719 162.265625 217.902344 162.230469 217.902344 162.191406 C 217.902344 162.15625 217.886719 162.121094 217.863281 162.09375 Z M 217.144531 184.769531 C 217.089844 184.714844 217 184.714844 216.945312 184.769531 C 216.890625 184.824219 216.890625 184.914062 216.945312 184.96875 L 217.566406 185.59375 L 216.945312 186.214844 C 216.890625 186.269531 216.890625 186.359375 216.945312 186.414062 C 216.972656 186.441406 217.007812 186.457031 217.042969 186.457031 C 217.078125 186.457031 217.117188 186.441406 217.144531 186.414062 L 217.863281 185.691406 C 217.886719 185.664062 217.902344 185.628906 217.902344 185.59375 C 217.902344 185.554688 217.886719 185.519531 217.863281 185.492188 Z M 213.886719 184.769531 C 213.832031 184.714844 213.742188 184.714844 213.6875 184.769531 L 212.96875 185.492188 C 212.914062 185.546875 212.914062 185.636719 212.96875 185.691406 L 213.6875 186.414062 C 213.714844 186.441406 213.75 186.457031 213.785156 186.457031 C 213.824219 186.457031 213.859375 186.441406 213.886719 186.414062 C 213.941406 186.359375 213.941406 186.269531 213.886719 186.214844 L 213.265625 185.59375 L 213.886719 184.96875 C 213.941406 184.914062 213.941406 184.824219 213.886719 184.769531 Z M 215.9375 184.847656 L 214.65625 186.140625 C 214.601562 186.195312 214.601562 186.28125 214.65625 186.339844 C 214.683594 186.367188 214.71875 186.378906 214.753906 186.378906 C 214.789062 186.378906 214.824219 186.367188 214.851562 186.339844 L 216.136719 185.046875 C 216.191406 184.992188 216.191406 184.902344 216.136719 184.847656 C 216.082031 184.792969 215.992188 184.792969 215.9375 184.847656 " fill-opacity="1" fill-rule="nonzero"/></g><g clip-path="url(#8ab591a470)"><path fill="#8ac0c8" d="M 219.480469 189.78125 L 217.296875 189.78125 L 217.296875 190.644531 L 219.480469 190.644531 Z M 220.214844 191.734375 L 213.105469 191.734375 L 213.105469 192.597656 L 220.214844 192.597656 Z M 229.910156 193.691406 L 226.480469 193.691406 L 226.480469 194.554688 L 229.910156 194.554688 Z M 217.652344 195.644531 L 213.105469 195.644531 L 213.105469 196.507812 L 217.652344 196.507812 Z M 222.964844 197.601562 L 213.105469 197.601562 L 213.105469 198.464844 L 222.964844 198.464844 Z M 229.324219 198.464844 L 239.183594 198.464844 L 239.183594 197.601562 L 229.324219 197.601562 Z M 236.589844 203.464844 L 236.589844 204.332031 L 243.050781 204.332031 L 243.050781 203.464844 Z M 220.421875 204.332031 L 235.734375 204.332031 L 235.734375 203.464844 L 220.421875 203.464844 Z M 213.105469 206.285156 L 219.421875 206.285156 L 219.421875 205.421875 L 213.105469 205.421875 L 213.105469 206.285156 " fill-opacity="1" fill-rule="nonzero"/></g><path fill="#18bd9c" d="M 232.890625 191.734375 L 225.78125 191.734375 L 225.78125 192.597656 L 232.890625 192.597656 Z M 225.621094 193.691406 L 213.105469 193.691406 L 213.105469 194.554688 L 225.621094 194.554688 Z M 223.683594 200.417969 L 232.285156 200.417969 L 232.285156 199.554688 L 223.683594 199.554688 Z M 219.5625 203.464844 L 213.105469 203.464844 L 213.105469 204.332031 L 219.5625 204.332031 Z M 231.652344 205.421875 L 231.652344 206.285156 L 233.496094 206.285156 L 233.496094 205.421875 Z M 217.066406 208.242188 L 231.726562 208.242188 L 231.726562 207.378906 L 217.066406 207.378906 L 217.066406 208.242188 " fill-opacity="1" fill-rule="nonzero"/><g clip-path="url(#97db837235)"><path fill="#fcde82" d="M 208.550781 188.6875 L 209.410156 188.6875 L 209.410156 187.824219 L 208.550781 187.824219 Z M 208.550781 190.644531 L 209.410156 190.644531 L 209.410156 189.78125 L 208.550781 189.78125 Z M 224.921875 191.734375 L 221.074219 191.734375 L 221.074219 192.597656 L 224.921875 192.597656 Z M 208.550781 192.597656 L 209.410156 192.597656 L 209.410156 191.734375 L 208.550781 191.734375 Z M 208.550781 194.554688 L 209.410156 194.554688 L 209.410156 193.691406 L 208.550781 193.691406 Z M 227.953125 195.644531 L 218.511719 195.644531 L 218.511719 196.507812 L 227.953125 196.507812 Z M 208.550781 196.507812 L 209.410156 196.507812 L 209.410156 195.644531 L 208.550781 195.644531 Z M 208.550781 198.464844 L 209.410156 198.464844 L 209.410156 197.601562 L 208.550781 197.601562 Z M 222.824219 199.554688 L 213.105469 199.554688 L 213.105469 200.417969 L 222.824219 200.417969 Z M 208.550781 200.417969 L 209.410156 200.417969 L 209.410156 199.554688 L 208.550781 199.554688 Z M 208.550781 202.375 L 209.410156 202.375 L 209.410156 201.511719 L 208.550781 201.511719 Z M 208.550781 204.332031 L 209.410156 204.332031 L 209.410156 203.464844 L 208.550781 203.464844 Z M 220.28125 205.421875 L 220.28125 206.285156 L 230.792969 206.285156 L 230.792969 205.421875 Z M 208.550781 206.285156 L 209.410156 206.285156 L 209.410156 205.421875 L 208.550781 205.421875 Z M 213.105469 208.242188 L 216.207031 208.242188 L 216.207031 207.378906 L 213.105469 207.378906 Z M 208.550781 208.242188 L 209.410156 208.242188 L 209.410156 207.378906 L 208.550781 207.378906 Z M 208.550781 210.195312 L 209.410156 210.195312 L 209.410156 209.332031 L 208.550781 209.332031 Z M 210.894531 212.492188 L 211.3125 212.492188 L 211.3125 187.089844 L 210.894531 187.089844 L 210.894531 212.492188 " fill-opacity="1" fill-rule="nonzero"/></g><g clip-path="url(#3ac84c44be)"><path fill="#f49c10" d="M 216.441406 189.78125 L 212.074219 189.78125 L 212.074219 190.644531 L 216.441406 190.644531 Z M 230.765625 193.691406 L 230.765625 194.554688 L 236.105469 194.554688 L 236.105469 193.691406 Z M 223.824219 198.464844 L 228.464844 198.464844 L 228.464844 197.601562 L 223.824219 197.601562 Z M 212.074219 202.375 L 216.859375 202.375 L 216.859375 201.511719 L 212.074219 201.511719 Z M 215.136719 209.332031 L 212.074219 209.332031 L 212.074219 210.195312 L 215.136719 210.195312 Z M 214.789062 189.085938 C 214.828125 189.085938 214.863281 189.070312 214.890625 189.042969 L 216.171875 187.753906 C 216.226562 187.699219 216.226562 187.609375 216.171875 187.554688 C 216.117188 187.5 216.03125 187.5 215.976562 187.554688 L 214.691406 188.84375 C 214.636719 188.898438 214.636719 188.988281 214.691406 189.042969 C 214.71875 189.070312 214.753906 189.085938 214.789062 189.085938 Z M 213.722656 189.121094 C 213.75 189.148438 213.785156 189.160156 213.824219 189.160156 C 213.859375 189.160156 213.894531 189.148438 213.921875 189.121094 C 213.976562 189.066406 213.976562 188.976562 213.921875 188.921875 L 213.300781 188.296875 L 213.921875 187.675781 C 213.976562 187.621094 213.976562 187.53125 213.921875 187.476562 C 213.867188 187.421875 213.777344 187.421875 213.722656 187.476562 L 213.003906 188.199219 C 212.949219 188.253906 212.949219 188.34375 213.003906 188.398438 Z M 217.179688 187.476562 C 217.125 187.421875 217.035156 187.421875 216.980469 187.476562 C 216.925781 187.53125 216.925781 187.621094 216.980469 187.675781 L 217.601562 188.296875 L 216.980469 188.921875 C 216.925781 188.976562 216.925781 189.066406 216.980469 189.121094 C 217.007812 189.148438 217.046875 189.160156 217.082031 189.160156 C 217.117188 189.160156 217.152344 189.148438 217.179688 189.121094 L 217.898438 188.398438 C 217.925781 188.371094 217.9375 188.335938 217.9375 188.296875 C 217.9375 188.261719 217.925781 188.226562 217.898438 188.199219 Z M 217.179688 210.875 C 217.125 210.820312 217.035156 210.820312 216.980469 210.875 C 216.925781 210.929688 216.925781 211.019531 216.980469 211.074219 L 217.601562 211.699219 L 216.980469 212.320312 C 216.925781 212.375 216.925781 212.464844 216.980469 212.519531 C 217.007812 212.546875 217.042969 212.5625 217.082031 212.5625 C 217.117188 212.5625 217.152344 212.546875 217.179688 212.519531 L 217.898438 211.796875 C 217.925781 211.769531 217.9375 211.734375 217.9375 211.699219 C 217.9375 211.660156 217.925781 211.625 217.898438 211.597656 Z M 213.921875 210.875 C 213.867188 210.820312 213.777344 210.820312 213.722656 210.875 L 213.003906 211.597656 C 212.949219 211.652344 212.949219 211.742188 213.003906 211.796875 L 213.722656 212.519531 C 213.75 212.546875 213.785156 212.5625 213.824219 212.5625 C 213.859375 212.5625 213.894531 212.546875 213.921875 212.519531 C 213.976562 212.464844 213.976562 212.375 213.921875 212.320312 L 213.300781 211.699219 L 213.921875 211.074219 C 213.976562 211.019531 213.976562 210.929688 213.921875 210.875 Z M 215.976562 210.953125 L 214.691406 212.246094 C 214.636719 212.300781 214.636719 212.390625 214.691406 212.445312 C 214.71875 212.472656 214.753906 212.484375 214.789062 212.484375 C 214.828125 212.484375 214.863281 212.472656 214.890625 212.445312 L 216.171875 211.152344 C 216.226562 211.097656 216.226562 211.007812 216.171875 210.953125 C 216.117188 210.898438 216.03125 210.898438 215.976562 210.953125 " fill-opacity="1" fill-rule="nonzero"/></g><g clip-path="url(#e556245dfe)"><path fill="#ffffff" d="M 243.085938 185.386719 L 260.664062 185.386719 L 260.664062 215.269531 L 243.085938 215.269531 Z M 243.085938 185.386719 " fill-opacity="1" fill-rule="nonzero"/></g><g clip-path="url(#842472e699)"><path fill="#ff6100" d="M 259.976562 183.011719 C 260.011719 183.011719 260.046875 183.011719 260.085938 183.015625 C 260.152344 183.019531 260.222656 183.03125 260.289062 183.042969 C 260.375 183.0625 260.457031 183.085938 260.539062 183.117188 C 260.625 183.152344 260.710938 183.195312 260.789062 183.246094 C 260.871094 183.296875 260.949219 183.355469 261.019531 183.417969 C 261.097656 183.492188 261.171875 183.574219 261.234375 183.660156 C 261.292969 183.742188 261.34375 183.832031 261.382812 183.925781 C 261.425781 184.015625 261.457031 184.113281 261.480469 184.210938 C 261.496094 184.28125 261.507812 184.351562 261.511719 184.421875 C 261.515625 184.464844 261.519531 184.503906 261.519531 184.546875 C 261.566406 195.003906 261.566406 205.464844 261.519531 215.925781 C 261.519531 215.96875 261.515625 216.007812 261.511719 216.050781 C 261.507812 216.121094 261.496094 216.191406 261.480469 216.261719 C 261.460938 216.351562 261.429688 216.4375 261.394531 216.523438 C 261.355469 216.617188 261.304688 216.703125 261.25 216.789062 C 261.191406 216.871094 261.125 216.949219 261.050781 217.023438 C 260.980469 217.09375 260.898438 217.15625 260.8125 217.210938 C 260.738281 217.261719 260.660156 217.304688 260.578125 217.339844 C 260.492188 217.375 260.40625 217.402344 260.316406 217.421875 C 260.246094 217.4375 260.175781 217.449219 260.105469 217.457031 C 260.0625 217.460938 260.023438 217.460938 259.980469 217.460938 C 254.789062 217.484375 249.601562 217.484375 244.410156 217.460938 C 244.367188 217.460938 244.328125 217.460938 244.285156 217.457031 C 244.214844 217.449219 244.144531 217.4375 244.074219 217.421875 C 243.984375 217.402344 243.898438 217.375 243.8125 217.339844 C 243.714844 217.296875 243.617188 217.242188 243.53125 217.183594 C 243.445312 217.125 243.367188 217.054688 243.296875 216.984375 C 243.230469 216.910156 243.167969 216.832031 243.117188 216.75 C 243.066406 216.671875 243.023438 216.589844 242.988281 216.503906 C 242.953125 216.421875 242.925781 216.335938 242.90625 216.25 C 242.890625 216.179688 242.882812 216.109375 242.875 216.035156 C 242.871094 216 242.871094 215.960938 242.871094 215.925781 C 242.816406 205.464844 242.816406 195.007812 242.871094 184.546875 C 242.871094 184.511719 242.871094 184.472656 242.875 184.4375 C 242.882812 184.363281 242.890625 184.292969 242.90625 184.222656 C 242.929688 184.128906 242.957031 184.039062 242.992188 183.953125 C 243.03125 183.867188 243.078125 183.78125 243.128906 183.699219 C 243.183594 183.617188 243.25 183.539062 243.316406 183.46875 C 243.386719 183.398438 243.464844 183.335938 243.546875 183.28125 C 243.625 183.226562 243.714844 183.175781 243.804688 183.136719 C 243.894531 183.097656 243.988281 183.070312 244.082031 183.046875 C 244.152344 183.03125 244.222656 183.023438 244.296875 183.015625 C 244.332031 183.011719 244.371094 183.011719 244.410156 183.011719 C 249.597656 182.988281 254.789062 183.003906 259.976562 183.011719 Z M 252.675781 214.484375 L 251.710938 214.484375 C 251.328125 214.484375 251.019531 214.792969 251.019531 215.171875 L 251.019531 216.136719 C 251.019531 216.519531 251.328125 216.824219 251.710938 216.824219 L 252.675781 216.824219 C 253.058594 216.824219 253.367188 216.519531 253.367188 216.136719 L 253.367188 215.171875 C 253.367188 214.792969 253.058594 214.484375 252.675781 214.484375 Z M 252.496094 214.921875 C 252.734375 214.921875 252.925781 215.117188 252.925781 215.351562 L 252.925781 215.957031 C 252.925781 216.195312 252.734375 216.386719 252.496094 216.386719 L 251.890625 216.386719 C 251.652344 216.386719 251.460938 216.195312 251.460938 215.957031 L 251.460938 215.351562 C 251.460938 215.117188 251.652344 214.921875 251.890625 214.921875 Z M 260.972656 185.402344 L 243.417969 185.402344 C 243.40625 194.898438 243.375 204.398438 243.410156 213.894531 L 260.976562 213.894531 C 260.996094 204.398438 261.015625 194.902344 260.976562 185.402344 Z M 255.265625 183.929688 L 249.121094 183.929688 C 249.050781 183.929688 248.988281 183.992188 248.988281 184.0625 L 248.988281 184.324219 C 248.988281 184.398438 249.050781 184.457031 249.121094 184.457031 L 255.265625 184.457031 C 255.335938 184.457031 255.398438 184.398438 255.398438 184.324219 L 255.398438 184.0625 C 255.398438 183.992188 255.335938 183.929688 255.265625 183.929688 Z M 255.265625 183.929688 " fill-opacity="1" fill-rule="evenodd"/></g><g clip-path="url(#dc70684b7d)"><path fill="#8ac0c8" d="M 249.222656 189.300781 L 248.222656 189.300781 L 248.222656 189.683594 L 249.222656 189.683594 Z M 249.554688 190.164062 L 246.308594 190.164062 L 246.308594 190.542969 L 249.554688 190.542969 Z M 253.980469 191.027344 L 252.414062 191.027344 L 252.414062 191.40625 L 253.980469 191.40625 Z M 248.386719 191.890625 L 246.308594 191.890625 L 246.308594 192.269531 L 248.386719 192.269531 Z M 250.8125 192.753906 L 246.308594 192.753906 L 246.308594 193.132812 L 250.8125 193.132812 Z M 253.714844 193.132812 L 258.214844 193.132812 L 258.214844 192.753906 L 253.714844 192.753906 Z M 257.03125 195.339844 L 257.03125 195.722656 L 259.980469 195.722656 L 259.980469 195.339844 Z M 249.648438 195.722656 L 256.640625 195.722656 L 256.640625 195.339844 L 249.648438 195.339844 Z M 246.308594 196.585938 L 249.195312 196.585938 L 249.195312 196.203125 L 246.308594 196.203125 L 246.308594 196.585938 " fill-opacity="1" fill-rule="nonzero"/></g><path fill="#18bd9c" d="M 255.34375 190.164062 L 252.097656 190.164062 L 252.097656 190.542969 L 255.34375 190.542969 Z M 252.023438 191.027344 L 246.308594 191.027344 L 246.308594 191.40625 L 252.023438 191.40625 Z M 251.140625 193.996094 L 255.066406 193.996094 L 255.066406 193.617188 L 251.140625 193.617188 Z M 249.257812 195.339844 L 246.308594 195.339844 L 246.308594 195.722656 L 249.257812 195.722656 Z M 254.777344 196.203125 L 254.777344 196.585938 L 255.621094 196.585938 L 255.621094 196.203125 Z M 248.117188 197.449219 L 254.8125 197.449219 L 254.8125 197.066406 L 248.117188 197.066406 L 248.117188 197.449219 " fill-opacity="1" fill-rule="nonzero"/><g clip-path="url(#bb7d30008c)"><path fill="#fcde82" d="M 244.230469 188.820312 L 244.621094 188.820312 L 244.621094 188.4375 L 244.230469 188.4375 Z M 244.230469 189.683594 L 244.621094 189.683594 L 244.621094 189.300781 L 244.230469 189.300781 Z M 251.703125 190.164062 L 249.949219 190.164062 L 249.949219 190.542969 L 251.703125 190.542969 Z M 244.230469 190.542969 L 244.621094 190.542969 L 244.621094 190.164062 L 244.230469 190.164062 Z M 244.230469 191.40625 L 244.621094 191.40625 L 244.621094 191.027344 L 244.230469 191.027344 Z M 253.085938 191.890625 L 248.777344 191.890625 L 248.777344 192.269531 L 253.085938 192.269531 Z M 244.230469 192.269531 L 244.621094 192.269531 L 244.621094 191.890625 L 244.230469 191.890625 Z M 244.230469 193.132812 L 244.621094 193.132812 L 244.621094 192.753906 L 244.230469 192.753906 Z M 250.746094 193.617188 L 246.308594 193.617188 L 246.308594 193.996094 L 250.746094 193.996094 Z M 244.230469 193.996094 L 244.621094 193.996094 L 244.621094 193.617188 L 244.230469 193.617188 Z M 244.230469 194.859375 L 244.621094 194.859375 L 244.621094 194.476562 L 244.230469 194.476562 Z M 244.230469 195.722656 L 244.621094 195.722656 L 244.621094 195.339844 L 244.230469 195.339844 Z M 249.585938 196.203125 L 249.585938 196.585938 L 254.386719 196.585938 L 254.386719 196.203125 Z M 244.230469 196.585938 L 244.621094 196.585938 L 244.621094 196.203125 L 244.230469 196.203125 Z M 246.308594 197.449219 L 247.726562 197.449219 L 247.726562 197.066406 L 246.308594 197.066406 Z M 244.230469 197.449219 L 244.621094 197.449219 L 244.621094 197.066406 L 244.230469 197.066406 Z M 244.230469 198.3125 L 244.621094 198.3125 L 244.621094 197.929688 L 244.230469 197.929688 Z M 245.300781 199.324219 L 245.492188 199.324219 L 245.492188 188.113281 L 245.300781 188.113281 L 245.300781 199.324219 " fill-opacity="1" fill-rule="nonzero"/></g><g clip-path="url(#2fe928685c)"><path fill="#f49c10" d="M 247.832031 189.300781 L 245.839844 189.300781 L 245.839844 189.683594 L 247.832031 189.683594 Z M 254.371094 191.027344 L 254.371094 191.40625 L 256.8125 191.40625 L 256.8125 191.027344 Z M 251.203125 193.132812 L 253.320312 193.132812 L 253.320312 192.753906 L 251.203125 192.753906 Z M 245.839844 194.859375 L 248.023438 194.859375 L 248.023438 194.476562 L 245.839844 194.476562 Z M 247.238281 197.929688 L 245.839844 197.929688 L 245.839844 198.3125 L 247.238281 198.3125 Z M 247.078125 188.992188 C 247.097656 188.992188 247.113281 188.988281 247.125 188.976562 L 247.710938 188.40625 C 247.734375 188.382812 247.734375 188.34375 247.710938 188.320312 C 247.6875 188.292969 247.644531 188.292969 247.621094 188.320312 L 247.035156 188.886719 C 247.007812 188.914062 247.007812 188.953125 247.035156 188.976562 C 247.046875 188.988281 247.0625 188.992188 247.078125 188.992188 Z M 246.59375 189.011719 C 246.605469 189.023438 246.621094 189.027344 246.636719 189.027344 C 246.652344 189.027344 246.671875 189.023438 246.683594 189.011719 C 246.707031 188.984375 246.707031 188.945312 246.683594 188.921875 L 246.398438 188.648438 L 246.683594 188.371094 C 246.707031 188.347656 246.707031 188.308594 246.683594 188.285156 C 246.65625 188.261719 246.617188 188.261719 246.59375 188.285156 L 246.265625 188.601562 C 246.238281 188.628906 246.238281 188.667969 246.265625 188.691406 Z M 248.171875 188.285156 C 248.144531 188.261719 248.105469 188.261719 248.078125 188.285156 C 248.054688 188.308594 248.054688 188.347656 248.078125 188.371094 L 248.363281 188.648438 L 248.078125 188.921875 C 248.054688 188.945312 248.054688 188.984375 248.078125 189.011719 C 248.09375 189.023438 248.109375 189.027344 248.125 189.027344 C 248.140625 189.027344 248.15625 189.023438 248.171875 189.011719 L 248.5 188.691406 C 248.511719 188.679688 248.515625 188.664062 248.515625 188.648438 C 248.515625 188.628906 248.511719 188.613281 248.5 188.601562 Z M 248.171875 198.609375 C 248.144531 198.585938 248.105469 198.585938 248.078125 198.609375 C 248.054688 198.636719 248.054688 198.675781 248.078125 198.699219 L 248.363281 198.972656 L 248.078125 199.25 C 248.054688 199.273438 248.054688 199.3125 248.078125 199.335938 C 248.09375 199.347656 248.109375 199.355469 248.125 199.355469 C 248.140625 199.355469 248.15625 199.347656 248.171875 199.335938 L 248.5 199.019531 C 248.511719 199.007812 248.515625 198.992188 248.515625 198.972656 C 248.515625 198.957031 248.511719 198.941406 248.5 198.929688 Z M 246.683594 198.609375 C 246.65625 198.585938 246.617188 198.585938 246.59375 198.609375 L 246.265625 198.929688 C 246.238281 198.953125 246.238281 198.992188 246.265625 199.019531 L 246.59375 199.335938 C 246.605469 199.347656 246.621094 199.355469 246.636719 199.355469 C 246.652344 199.355469 246.671875 199.347656 246.683594 199.335938 C 246.707031 199.3125 246.707031 199.273438 246.683594 199.25 L 246.398438 198.972656 L 246.683594 198.699219 C 246.707031 198.675781 246.707031 198.636719 246.683594 198.609375 Z M 247.621094 198.644531 L 247.035156 199.214844 C 247.007812 199.238281 247.007812 199.277344 247.035156 199.304688 C 247.046875 199.316406 247.0625 199.320312 247.078125 199.320312 C 247.097656 199.320312 247.113281 199.316406 247.125 199.304688 L 247.710938 198.734375 C 247.734375 198.707031 247.734375 198.667969 247.710938 198.644531 C 247.6875 198.621094 247.644531 198.621094 247.621094 198.644531 " fill-opacity="1" fill-rule="nonzero"/></g></svg>